<svg width="129" height="271" viewBox="0 0 129 271" fill="none" xmlns="http://www.w3.org/2000/svg">
<g clip-path="url(#clip0)">
<path d="M12.5425 108.909H36.2086C36.4295 108.909 36.6414 108.991 36.7976 109.137C36.9538 109.283 37.0415 109.481 37.0415 109.687V120.583C37.0415 120.789 36.9538 120.987 36.7976 121.133C36.6414 121.279 36.4295 121.361 36.2086 121.361H12.5425C12.3216 121.361 12.1097 121.279 11.9535 121.133C11.7973 120.987 11.7096 120.789 11.7096 120.583V109.687C11.7096 109.481 11.7973 109.283 11.9535 109.137C12.1097 108.991 12.3216 108.909 12.5425 108.909Z" stroke="#AADAF1" stroke-width="2" stroke-linecap="round" stroke-linejoin="round"/>
<path d="M25.2355 96.4336H48.8892C49.1101 96.4336 49.3219 96.5156 49.4781 96.6615C49.6343 96.8075 49.7221 97.0054 49.7221 97.2119V108.107C49.7221 108.314 49.6343 108.512 49.4781 108.658C49.3219 108.804 49.1101 108.886 48.8892 108.886H25.2355C25.0146 108.886 24.8027 108.804 24.6465 108.658C24.4903 108.512 24.4026 108.314 24.4026 108.107V97.2119C24.4026 97.0054 24.4903 96.8075 24.6465 96.6615C24.8027 96.5156 25.0146 96.4336 25.2355 96.4336Z" stroke="#AADAF1" stroke-width="2" stroke-linecap="round" stroke-linejoin="round"/>
<path d="M37.8994 108.909H61.5697C61.7906 108.909 62.0024 108.991 62.1586 109.137C62.3148 109.283 62.4025 109.481 62.4025 109.687V120.583C62.4025 120.789 62.3148 120.987 62.1586 121.133C62.0024 121.279 61.7906 121.361 61.5697 121.361H37.8994C37.6785 121.361 37.4667 121.279 37.3105 121.133C37.1543 120.987 37.0665 120.789 37.0665 120.583V109.687C37.0665 109.481 37.1543 109.283 37.3105 109.137C37.4667 108.991 37.6785 108.909 37.8994 108.909Z" stroke="#AADAF1" stroke-width="2" stroke-linecap="round" stroke-linejoin="round"/>
<path d="M0.249258 121.408H23.9321C24.153 121.408 24.3648 121.49 24.521 121.636C24.6772 121.782 24.765 121.98 24.765 122.186V133.082C24.765 133.288 24.6772 133.486 24.521 133.632C24.3648 133.778 24.153 133.86 23.9321 133.86H0.249258C0.0283655 133.86 -0.18348 133.778 -0.339674 133.632C-0.495869 133.486 -0.583618 133.288 -0.583618 133.082V122.186C-0.583618 121.98 -0.495869 121.782 -0.339674 121.636C-0.18348 121.49 0.0283655 121.408 0.249258 121.408V121.408Z" stroke="#AADAF1" stroke-width="2" stroke-linecap="round" stroke-linejoin="round"/>
<path fill-rule="evenodd" clip-rule="evenodd" d="M45.9825 247.333H58.3049V258.645H45.9825V247.333Z" fill="#F77F89"/>
<path fill-rule="evenodd" clip-rule="evenodd" d="M92.2822 247.006H104.609V258.315H92.2822V247.006Z" fill="#F77F89"/>
<path fill-rule="evenodd" clip-rule="evenodd" d="M24.1278 28.2429L32.315 26.6397C32.8781 26.5275 33.4659 26.6283 33.9497 26.92C34.4336 27.2117 34.7741 27.6705 34.8969 28.1962L38.2659 42.7885C38.3243 43.0469 38.3276 43.3135 38.2755 43.573C38.2233 43.8326 38.1168 44.0799 37.962 44.3009C37.8072 44.5218 37.6072 44.712 37.3735 44.8605C37.1397 45.009 36.8769 45.1128 36.6001 45.1661L28.4213 46.7731C27.8581 46.8853 27.2704 46.7845 26.7865 46.4928C26.3027 46.2012 25.9621 45.7423 25.8394 45.2166L22.4537 30.6244C22.3953 30.3652 22.3923 30.0978 22.445 29.8376C22.4976 29.5774 22.6048 29.3294 22.7604 29.1081C22.916 28.8867 23.1169 28.6963 23.3516 28.5478C23.5863 28.3994 23.8501 28.2957 24.1278 28.2429Z" fill="#9B9B9B"/>
<path fill-rule="evenodd" clip-rule="evenodd" d="M26.7805 51.7539C25.7727 50.2636 18.1811 36.4145 20.5339 35.2393C22.8868 34.0642 24.1986 35.2899 24.7733 36.5624C26.0226 35.3211 28.6003 33.8385 29.6664 34.9203C30.9157 36.1616 29.8788 38.1461 28.9418 38.9205C30.0121 38.5703 30.999 38.364 31.8569 39.4847C32.9521 40.8778 31.5446 44.8664 30.795 45.4656L34.7511 48.9678C34.7511 48.9678 27.7841 53.2287 26.7805 51.7539Z" fill="#F77F89"/>
<path fill-rule="evenodd" clip-rule="evenodd" d="M94.3058 137.109C94.3058 131.054 100.777 126.147 108.765 126.147C116.752 126.147 123.219 131.054 123.219 137.109C123.219 143.164 116.748 148.071 108.765 148.071C100.781 148.071 94.3058 143.164 94.3058 137.109Z" fill="#EF5261"/>
<path fill-rule="evenodd" clip-rule="evenodd" d="M81.8711 12.0629C93.0025 12.0629 98.5287 21.5265 99.0617 24.8146C99.5947 28.1027 98.9076 35.0292 99.8946 37.8037C102.635 45.3527 112.613 49.4347 112.613 57.0732C112.613 74.7474 91.7907 69.6304 85.4566 69.4047C79.1226 69.179 62.4484 68.6809 62.4484 58.0772C62.4484 53.859 65.5175 53.859 65.5717 48.3723C65.6175 43.734 62.844 42.4226 62.844 31.3091C62.8731 26.7641 69.4737 12.0084 81.8711 12.0629Z" fill="black"/>
<path fill-rule="evenodd" clip-rule="evenodd" d="M66.2589 104.006C65.9591 100.986 64.0102 70.541 73.8131 58.0889C73.4875 57.0807 73.2467 56.0503 73.0927 55.0071C69.4988 57.4274 56.0604 70.183 54.353 72.3038C52.7996 70.4593 36.063 48.5437 35.2301 48.2829C34.3972 48.0222 26.2183 51.5711 26.0393 52.3843C25.8602 53.1976 45.9617 89.4176 51.0256 90.943C53.1495 91.5811 56.1478 89.6238 57.0848 89.3398C57.2139 91.2854 38.4617 142.261 56.3602 142.65C67.0002 130.249 66.5546 107.01 66.2589 104.006Z" fill="#FDB797"/>
<path fill-rule="evenodd" clip-rule="evenodd" d="M61.8112 113.256L36.8958 248.75L58.9087 248.664L75.258 183.851L83.4369 249.758L104.55 249.505L105.995 113.427L61.8112 113.256Z" fill="#3B4161"/>
<path fill-rule="evenodd" clip-rule="evenodd" d="M94.6849 116.489C92.3986 116.944 63.6685 116.4 61.0449 115.034C58.4214 113.668 58.9627 109.244 65.43 107.749C63.1396 107.216 58.2756 104.609 64.8345 103.695C66.0047 92.7407 60.9242 52.6411 81.1256 51.9407C95.4053 49.9756 97.7832 61.6922 97.7832 61.6922C97.7832 61.6922 96.9711 116.034 94.6849 116.489Z" fill="#FF677D"/>
<path fill-rule="evenodd" clip-rule="evenodd" d="M81.1215 17.1216C73.4465 17.1216 67.225 23.8807 67.225 32.2158C67.225 40.551 73.4465 47.2945 81.1215 47.2945C84.366 47.2471 87.467 46.0365 89.7834 43.913C89.496 40.1307 89.4586 36.29 90.0832 34.2821C91.0493 31.7917 90.6995 32.8346 89.7084 32.7256L90.5788 32.033C90.5788 30.3013 90.8869 31.4843 92.7401 31.4843L94.9389 31.3987C94.5599 23.4527 88.5341 17.1216 81.1215 17.1216Z" fill="#F77F89"/>
<path fill-rule="evenodd" clip-rule="evenodd" d="M65.2551 29.5738C68.2285 28.8422 70.5564 27.4997 73.1216 23.231C76.1783 25.8576 78.7769 25.9082 83.3161 25.0755C83.0496 27.1495 82.833 29.496 85.7523 29.7761C88.6715 30.0563 97.3002 33.5662 97.3002 33.5662L96.8837 24.3673L89.267 16.3902L80.3719 14.8726L72.5303 18.3086L67.6329 24.2466C67.6329 24.2466 62.2984 30.2859 65.2551 29.5738Z" fill="black"/>
<path fill-rule="evenodd" clip-rule="evenodd" d="M84.9612 30.7721C84.9612 29.6528 85.3162 28.5587 85.9815 27.6278C86.6467 26.697 87.5923 25.9713 88.6987 25.5424C89.8052 25.1136 91.0228 25.0008 92.1979 25.2183C93.3729 25.4358 94.4525 25.9739 95.3004 26.7645C96.1483 27.5552 96.7264 28.5629 96.9616 29.6604C97.1968 30.758 97.0786 31.896 96.6219 32.9307C96.1652 33.9655 95.3905 34.8506 94.3957 35.4741C93.401 36.0976 92.2307 36.4316 91.0329 36.4339C90.2359 36.436 89.4464 36.291 88.7096 36.0074C87.9728 35.7237 87.3031 35.3069 86.7391 34.7809C86.175 34.2549 85.7276 33.63 85.4225 32.9421C85.1174 32.2542 84.9606 31.5168 84.9612 30.7721Z" fill="#F77F89"/>
<path fill-rule="evenodd" clip-rule="evenodd" d="M79.0143 45.2205C79.6015 47.8938 79.1226 51.3571 78.4271 53.828C80.4802 54.9254 88.7007 55.3028 91.1993 53.6218C90.2457 50.3648 88.7923 38.4458 90.0874 34.2861C86.8267 34.0215 78.4271 42.5433 79.0143 45.2205Z" fill="#F77F89"/>
<path fill-rule="evenodd" clip-rule="evenodd" d="M95.0389 127.245C94.143 128.622 93.17 129.955 92.1238 131.237C92.1238 131.237 89.3878 130.428 88.6383 131.365C87.8887 132.303 82.8873 138.214 85.3442 140.226C87.8012 142.238 90.558 137.214 91.3326 136.56C93.883 138.731 96.2876 141.047 98.5328 143.495C98.5328 143.495 98.512 139.957 98.9284 138.712C99.3448 137.467 101.91 134.144 102.768 133.264C103.626 132.385 96.4464 125.034 95.0389 127.245Z" fill="#F77F89"/>
<path fill-rule="evenodd" clip-rule="evenodd" d="M92.0781 53.8474C90.7746 56.9215 89.2172 59.9256 85.1819 62.128C84.9528 65.5718 88.3926 112.777 91.2452 117.664C92.3994 119.58 93.8332 121.336 95.5054 122.883C94.6267 125.085 93.8396 127.081 94.1645 127.719C94.5809 128.552 101.814 134.335 102.793 134.082C103.434 133.918 105.254 132.159 106.787 130.579C113.866 134.393 120.4 137.109 120.529 140.67C120.529 143.214 119.613 144.012 118.493 145.238C120.109 144.491 123.986 140.673 124.069 135.977C124.173 130.054 118.064 119.696 116.989 117.069C118.984 114.952 125.964 105.983 127.609 98.099C123.386 82.7713 106.708 54.2716 92.0781 53.8474Z" fill="#FDB797"/>
<path d="M97.3043 81.9309C98.7369 84.0594 108.686 98.0875 108.686 98.0875C108.686 98.0875 99.3616 115.96 96.1342 122.186" stroke="#FF3274" stroke-width="2" stroke-linecap="round" stroke-linejoin="round"/>
<path d="M123.119 107.352C121.366 106.556 119.908 105.289 118.929 103.714C117.951 102.138 117.498 100.326 117.627 98.5091C117.757 96.6919 118.464 94.952 119.657 93.512C120.851 92.072 122.476 90.9973 124.327 90.4253" stroke="#FF3274" stroke-width="2" stroke-linecap="round" stroke-linejoin="round"/>
<path d="M112.138 94.9705L108.681 98.0835" stroke="#FF3274" stroke-width="2" stroke-linecap="round" stroke-linejoin="round"/>
<path d="M112.95 99.9242L108.681 97.854" stroke="#FF3274" stroke-width="2" stroke-linecap="round" stroke-linejoin="round"/>
<path d="M96.2593 124.283C97.2254 125.311 103.339 129.369 105.004 130.031" stroke="#FF3274" stroke-width="2" stroke-linecap="round" stroke-linejoin="round"/>
<path d="M45.4244 84.9778C46.3397 84.0881 47.5185 83.4743 48.8097 83.2152C50.1009 82.9561 51.4455 83.0634 52.671 83.5234C53.8964 83.9835 54.9468 84.7752 55.6872 85.797C56.4276 86.8189 56.8244 88.0241 56.8265 89.2582V89.4021" stroke="#FF3274" stroke-width="2" stroke-linecap="round" stroke-linejoin="round"/>
<path d="M54.332 72.2961L50.9131 77.0474" stroke="#FF3274" stroke-width="2" stroke-linecap="round" stroke-linejoin="round"/>
<path d="M57.3804 76.0318L54.4362 72.2144" stroke="#FF3274" stroke-width="2" stroke-linecap="round" stroke-linejoin="round"/>
<path d="M37.8161 51.2288L28.2631 56.9139" stroke="#FF3274" stroke-width="2" stroke-linecap="round" stroke-linejoin="round"/>
<path d="M75.233 183.913C74.6333 180.115 72.3512 147.604 73.9587 136.288" stroke="#737999" stroke-width="2" stroke-linecap="round" stroke-linejoin="round"/>
<path d="M98.7493 192.618L105.167 190.229L98.2621 186.205" stroke="#737999" stroke-width="2" stroke-linecap="round" stroke-linejoin="round"/>
<path d="M66.2588 193.727L72.9926 192.797L68.6117 188.4" stroke="#737999" stroke-width="2" stroke-linecap="round" stroke-linejoin="round"/>
<path d="M60.2455 121.766C62.3277 122.03 82.3167 123.062 95.2263 122.478" stroke="#737999" stroke-width="2" stroke-linecap="round" stroke-linejoin="round"/>
<path d="M38.3033 241.022L60.9743 240.422" stroke="#737999" stroke-width="2" stroke-linecap="round" stroke-linejoin="round"/>
<path d="M82.5206 242.492L104.621 241.905" stroke="#737999" stroke-width="2" stroke-linecap="round" stroke-linejoin="round"/>
<path d="M91.2617 136.615L100.498 145.327" stroke="#737999" stroke-width="2" stroke-linecap="round" stroke-linejoin="round"/>
<path d="M85.6732 131.346L87.4015 132.973" stroke="#737999" stroke-width="2" stroke-linecap="round" stroke-linejoin="round"/>
<path d="M89.9625 249.68L83.5369 122.641" stroke="#737999" stroke-width="2" stroke-linecap="round" stroke-linejoin="round"/>
<path d="M73.7588 162.632L51.4711 248.691" stroke="#737999" stroke-width="2" stroke-linecap="round" stroke-linejoin="round"/>
<path fill-rule="evenodd" clip-rule="evenodd" d="M78.4271 32.1614C78.4271 31.3831 78.7686 30.7722 79.1934 30.7722C79.6181 30.7722 79.9638 31.3948 79.9638 32.1614C79.9638 32.928 79.6181 33.5467 79.1934 33.5467C78.7686 33.5467 78.4271 32.9241 78.4271 32.1614Z" fill="#B5545C"/>
<path fill-rule="evenodd" clip-rule="evenodd" d="M69.6237 32.1614C69.6237 31.3831 69.9693 30.7722 70.3941 30.7722C70.8188 30.7722 71.1603 31.3948 71.1603 32.1614C71.1603 32.928 70.8188 33.5467 70.3941 33.5467C69.9693 33.5467 69.6237 32.9241 69.6237 32.1614Z" fill="#B5545C"/>
<path d="M74.0129 32.4182C74.1378 33.5 73.8879 35.9204 73.0134 36.9788" stroke="#B5545C" stroke-width="2" stroke-linecap="round" stroke-linejoin="round"/>
<path d="M79.6807 39.1267C79.7193 39.2692 79.7389 39.4156 79.739 39.5625C79.7408 39.8422 79.6694 40.1179 79.5312 40.3659C79.3929 40.6139 79.1918 40.8265 78.9455 40.9854C78.6992 41.1442 78.4151 41.2443 78.1179 41.2771C77.8207 41.3099 77.5195 41.2743 77.2404 41.1735" stroke="#B5545C" stroke-width="2" stroke-linecap="round" stroke-linejoin="round"/>
<path d="M79.21 47.139C79.842 47.2342 80.4812 47.2824 81.1214 47.283C82.776 47.2809 84.4117 46.9548 85.923 46.3257" stroke="#B5545C" stroke-width="2" stroke-linecap="round" stroke-linejoin="round"/>
<path d="M87.2848 30.0913C87.3995 29.3993 87.7241 28.7525 88.2202 28.2277C88.7163 27.7028 89.3631 27.3219 90.0838 27.1301C90.8045 26.9382 91.569 26.9435 92.2866 27.1453C93.0043 27.3472 93.6449 27.737 94.1326 28.2687C94.6203 28.8004 94.9346 29.4516 95.0383 30.1451C95.142 30.8386 95.0307 31.5454 94.7176 32.1816C94.4045 32.8178 93.9027 33.3568 93.2717 33.7346C92.6407 34.1124 91.9071 34.3133 91.1577 34.3134C90.7829 34.312 90.4101 34.2622 90.0499 34.1655" stroke="#B5545C" stroke-width="2" stroke-linecap="round" stroke-linejoin="round"/>
<path d="M116.211 117.863L107.528 129.537" stroke="#FF3274" stroke-width="2" stroke-linecap="round" stroke-linejoin="round"/>
<path fill-rule="evenodd" clip-rule="evenodd" d="M111.892 14.4639H116.698C116.923 14.4639 117.114 14.7129 117.114 15.0203V17.8181C117.114 18.1255 116.927 18.3707 116.698 18.3707H111.892C111.668 18.3707 111.476 18.1255 111.476 17.8181V15.0203C111.48 14.7129 111.668 14.4639 111.892 14.4639Z" fill="#FF3274"/>
<path fill-rule="evenodd" clip-rule="evenodd" d="M119.188 16.5964V18.3164C119.188 18.367 119.151 18.3864 119.109 18.3631L117.51 17.5109L115.915 16.6509C115.869 16.6276 115.869 16.5887 115.915 16.5653L117.51 15.7015L119.109 14.8415C119.117 14.8362 119.126 14.8331 119.136 14.8326C119.146 14.8321 119.155 14.8343 119.164 14.8388C119.172 14.8433 119.179 14.8501 119.183 14.8581C119.188 14.8662 119.189 14.8753 119.188 14.8843V16.5964Z" fill="#FF3274"/>
<path d="M108.256 16.4174C108.256 15.1091 108.672 13.8301 109.449 12.7422C110.227 11.6544 111.333 10.8065 112.627 10.3058C113.92 9.80511 115.344 9.67411 116.717 9.92936C118.09 10.1846 119.352 10.8146 120.342 11.7398C121.332 12.6649 122.006 13.8436 122.279 15.1269C122.552 16.4101 122.412 17.7402 121.876 18.9489C121.341 20.1577 120.433 21.1908 119.269 21.9177C118.105 22.6446 116.736 23.0326 115.336 23.0326C113.458 23.0326 111.658 22.3356 110.33 21.095C109.002 19.8544 108.256 18.1719 108.256 16.4174Z" stroke="#FF3274" stroke-width="2" stroke-linecap="round" stroke-linejoin="round"/>
<path d="M15.8408 0.38916H117.268C120.001 0.38916 122.621 1.40343 124.554 3.20884C126.486 5.01426 127.571 7.46292 127.571 10.0162V58.2952C127.571 60.8484 126.486 63.2971 124.554 65.1025C122.621 66.9079 120.001 67.9222 117.268 67.9222H15.8408C13.1083 67.9222 10.4878 66.9079 8.55567 65.1025C6.62354 63.2971 5.53809 60.8484 5.53809 58.2952V10.0162C5.53809 7.46292 6.62354 5.01426 8.55567 3.20884C10.4878 1.40343 13.1083 0.38916 15.8408 0.38916V0.38916Z" stroke="#9B9B9B" stroke-width="2" stroke-linecap="round" stroke-linejoin="round"/>
<path d="M126.921 6.5647H6.30847" stroke="#9B9B9B" stroke-width="2" stroke-linecap="round" stroke-linejoin="round"/>
<path d="M12.9464 3.58774C12.9464 3.31667 13.0325 3.05169 13.1938 2.82636C13.355 2.60102 13.5842 2.42547 13.8523 2.32191C14.1204 2.21835 14.4153 2.19146 14.6998 2.24462C14.9843 2.29779 15.2454 2.42863 15.4503 2.62058C15.6551 2.81253 15.7944 3.05696 15.8505 3.32291C15.9066 3.58887 15.8769 3.8644 15.7654 4.11462C15.6538 4.36483 15.4652 4.57848 15.2236 4.72852C14.982 4.87856 14.6982 4.95824 14.4081 4.95747C14.2158 4.95747 14.0254 4.92201 13.8478 4.85313C13.6702 4.78425 13.5088 4.68329 13.3731 4.55605C13.2373 4.42881 13.1297 4.27778 13.0565 4.11162C12.9833 3.94546 12.9459 3.76743 12.9464 3.58774Z" stroke="#FF3274" stroke-width="2" stroke-linecap="round" stroke-linejoin="round"/>
<path d="M18.7224 3.58775C18.7224 3.31684 18.8084 3.05202 18.9695 2.82677C19.1305 2.60152 19.3595 2.42595 19.6273 2.32228C19.8952 2.21861 20.1899 2.19149 20.4742 2.24434C20.7586 2.29719 21.0198 2.42764 21.2248 2.6192C21.4298 2.81076 21.5694 3.05482 21.626 3.32053C21.6825 3.58623 21.6535 3.86163 21.5425 4.11192C21.4316 4.3622 21.2437 4.57613 21.0027 4.72663C20.7616 4.87714 20.4782 4.95748 20.1883 4.95748C19.7995 4.95748 19.4267 4.81317 19.1518 4.55629C18.8768 4.29942 18.7224 3.95102 18.7224 3.58775Z" stroke="#FF3274" stroke-width="2" stroke-linecap="round" stroke-linejoin="round"/>
<path d="M24.5026 3.58775C24.5026 3.31684 24.5885 3.05202 24.7496 2.82677C24.9107 2.60152 25.1396 2.42595 25.4075 2.32228C25.6753 2.21861 25.9701 2.19149 26.2544 2.24434C26.5388 2.29719 26.8 2.42764 27.005 2.6192C27.21 2.81076 27.3496 3.05482 27.4061 3.32052C27.4627 3.58623 27.4337 3.86163 27.3227 4.11192C27.2118 4.3622 27.0239 4.57612 26.7828 4.72663C26.5418 4.87714 26.2584 4.95747 25.9684 4.95747C25.7758 4.95799 25.5849 4.92291 25.4068 4.85425C25.2287 4.7856 25.0669 4.68473 24.9307 4.55743C24.7945 4.43014 24.6865 4.27894 24.613 4.11252C24.5396 3.94611 24.502 3.76776 24.5026 3.58775V3.58775Z" stroke="#FF3274" stroke-width="2" stroke-linecap="round" stroke-linejoin="round"/>
<path fill-rule="evenodd" clip-rule="evenodd" d="M92.2821 253.988L104.609 253.89L104.488 270.327L66.3838 270.101C66.5295 266.72 73.5382 260.712 82.0835 259.521C90.6289 258.33 92.2821 255.062 92.2821 253.988Z" fill="#9B9B9B"/>
<path d="M73.2925 262.568C74.8377 263.809 76.1853 265.251 77.2944 266.848" stroke="#4E4242" stroke-width="2" stroke-linecap="round" stroke-linejoin="round"/>
<path d="M79.0808 260.427C80.6283 261.667 81.9762 263.109 83.0828 264.708" stroke="#4E4242" stroke-width="2" stroke-linecap="round" stroke-linejoin="round"/>
<path d="M82.2043 260.088C71.431 249.221 92.0114 246.442 82.2418 260.088" stroke="#4E4242" stroke-width="2" stroke-linecap="round" stroke-linejoin="round"/>
<path d="M82.2876 260.069C93.7896 247.373 100.349 268.408 82.2876 260.108" stroke="#4E4242" stroke-width="2" stroke-linecap="round" stroke-linejoin="round"/>
<path d="M104.6 256.742H90.3789" stroke="#4E4242" stroke-width="2" stroke-linecap="round" stroke-linejoin="round"/>
<path d="M104.5 270.322L66.5587 270.102" stroke="#4E4242" stroke-width="2" stroke-linecap="round" stroke-linejoin="round"/>
<path fill-rule="evenodd" clip-rule="evenodd" d="M45.9825 254.318L58.3049 254.221L58.1841 270.657L20.0842 270.443C20.23 267.062 27.2386 261.054 35.7839 259.863C44.3292 258.673 45.9825 255.392 45.9825 254.318Z" fill="#9B9B9B"/>
<path d="M26.9803 262.898C28.5257 264.14 29.8733 265.581 30.9824 267.179" stroke="#4E4242" stroke-width="2" stroke-linecap="round" stroke-linejoin="round"/>
<path d="M32.7689 260.758C34.3163 261.998 35.6641 263.44 36.7708 265.039" stroke="#4E4242" stroke-width="2" stroke-linecap="round" stroke-linejoin="round"/>
<path d="M35.8921 260.416C25.1189 249.552 45.6993 246.773 35.9296 260.416" stroke="#4E4242" stroke-width="2" stroke-linecap="round" stroke-linejoin="round"/>
<path d="M35.9713 260.4C47.4733 247.7 54.0281 268.739 35.9713 260.439" stroke="#4E4242" stroke-width="2" stroke-linecap="round" stroke-linejoin="round"/>
<path d="M58.2841 257.073H44.0627" stroke="#4E4242" stroke-width="2" stroke-linecap="round" stroke-linejoin="round"/>
<path d="M58.1841 270.65L20.2383 270.443" stroke="#4E4242" stroke-width="2" stroke-linecap="round" stroke-linejoin="round"/>
<path fill-rule="evenodd" clip-rule="evenodd" d="M22.512 43.6097C21.954 42.3722 22.1997 37.6832 25.2438 36.1267L22.512 43.6097Z" fill="#F77F89"/>
<path d="M22.512 43.6097C21.954 42.3722 22.1997 37.6832 25.2438 36.1267" stroke="#B5545C" stroke-width="2" stroke-linecap="round" stroke-linejoin="round"/>
<path fill-rule="evenodd" clip-rule="evenodd" d="M26.6098 45.1076C26.2683 43.5511 27.1595 40.2785 28.9709 39.1228L26.6098 45.1076Z" fill="#F77F89"/>
<path d="M26.6098 45.1076C26.2683 43.5511 27.1595 40.2785 28.9709 39.1228" stroke="#B5545C" stroke-width="2" stroke-linecap="round" stroke-linejoin="round"/>
<path d="M85.236 62.1009C87.9178 60.2137 90.962 56.5948 92.0114 54.0071" stroke="#FF3274" stroke-width="2" stroke-linecap="round" stroke-linejoin="round"/>
<path d="M67.429 108.111C75.2955 109.703 84.6654 109.147 89.2462 108.668" stroke="#4C4FD9" stroke-width="2" stroke-linecap="round" stroke-linejoin="round"/>
<path opacity="0.26" fill-rule="evenodd" clip-rule="evenodd" d="M15.8948 0.38916H117.331C120.063 0.38916 122.684 1.40343 124.616 3.20884C126.548 5.01426 127.633 7.46292 127.633 10.0162V58.2952C127.633 60.8484 126.548 63.2971 124.616 65.1025C122.684 66.9079 120.063 67.9222 117.331 67.9222H15.8948C13.1624 67.9222 10.5419 66.9079 8.60974 65.1025C6.67762 63.2971 5.59216 60.8484 5.59216 58.2952V10.0162C5.59216 7.46292 6.67762 5.01426 8.60974 3.20884C10.5419 1.40343 13.1624 0.38916 15.8948 0.38916Z" fill="white"/>
</g>
<defs>
<clipPath id="clip0">
<rect width="129" height="271" fill="white"/>
</clipPath>
</defs>
</svg>
