<svg width="214" height="270" viewBox="0 0 214 270" fill="none" xmlns="http://www.w3.org/2000/svg">
<g clip-path="url(#clip0)">
<path fill-rule="evenodd" clip-rule="evenodd" d="M200.477 153.035C178.212 152.728 167.228 228.715 169.099 234.176C169.526 235.42 170.542 236.784 171.845 238.088H191.431C194.39 232.113 198.627 219.946 201.956 206.505L196.36 203.55L203.427 200.186C204.984 193.269 206.079 186.267 206.705 179.22L201.213 178.022L204.235 173.864L200.765 173.108L206.701 167.027C206.062 160.431 204.231 155.287 200.477 153.035Z" fill="#AADAF1"/>
<path d="M200.421 153.038L180.151 238.081" stroke="#72A5BD" stroke-width="2" stroke-linecap="round" stroke-linejoin="round"/>
<path fill-rule="evenodd" clip-rule="evenodd" d="M160.22 134.854C133.038 144.432 151.906 228.76 157.33 237.839H186.087C186.127 237.767 186.187 237.71 186.223 237.639C189.421 231.489 188.645 189.879 179.979 161.49L172.832 161.645L177.709 154.924C173.483 143.899 167.775 135.875 160.22 134.854Z" fill="#AADAF1"/>
<path d="M135.661 238.092H213.608" stroke="#72A5BD" stroke-width="2" stroke-linecap="round" stroke-linejoin="round"/>
<path d="M160.157 134.881L173.32 237.892" stroke="#72A5BD" stroke-width="2" stroke-linecap="round" stroke-linejoin="round"/>
<path fill-rule="evenodd" clip-rule="evenodd" d="M155.775 227.158C158.573 229.078 167.044 235.552 167.503 237.31C167.963 239.067 163.338 250.773 162.347 251.619C161.355 252.466 151.53 254.715 151.062 255.316C150.595 255.917 150.97 257.754 151.438 258.657C151.906 259.561 166.936 258.54 166.936 258.54C166.936 258.54 186.447 240.315 186.203 238.961C185.959 237.608 164.07 218.929 164.07 218.929C164.07 218.929 152.985 225.241 155.775 227.158Z" fill="#F77F89"/>
<path fill-rule="evenodd" clip-rule="evenodd" d="M177.445 230.604C176.697 235.382 174.051 242.59 165.757 243.977C164.47 247.522 162.887 251.158 162.343 251.619C161.352 252.462 151.53 254.715 151.063 255.316C150.595 255.917 150.979 257.754 151.438 258.657C151.898 259.56 166.932 258.54 166.932 258.54C166.932 258.54 186.455 240.322 186.207 238.969C186.103 238.398 181.97 234.626 177.445 230.604Z" fill="#FF677D"/>
<path fill-rule="evenodd" clip-rule="evenodd" d="M58.9524 243.191C57.9611 245.678 47.3322 269.49 46.205 269.989C45.0777 270.488 13.5909 255.966 13.3511 254.534C13.1112 253.101 14.5503 250.062 15.6855 250.281C27.7134 252.549 42.3476 253.324 43.9425 250.455C45.5374 247.587 47.5881 240.919 47.5881 240.919C47.5881 240.919 59.9597 240.723 58.9524 243.191Z" fill="#F77F89"/>
<path fill-rule="evenodd" clip-rule="evenodd" d="M15.6812 250.281C14.53 250.066 13.095 253.105 13.3468 254.534C13.5986 255.962 45.0695 270.499 46.2007 269.985C46.7004 269.754 49.1547 264.746 51.733 259.224C42.0155 260.611 36.847 256.306 34.6565 252.281C28.2812 252.148 21.9311 251.479 15.6812 250.281Z" fill="#FF677D"/>
<path fill-rule="evenodd" clip-rule="evenodd" d="M88.7042 174.647C120.819 212.296 152.026 232.355 152.026 232.355L168.639 216.48L120.671 163.708C120.671 163.708 124.604 122.971 116.274 115.499C107.943 108.026 68.5098 150.975 88.7042 174.647Z" fill="#C4C4C4"/>
<path fill-rule="evenodd" clip-rule="evenodd" d="M75.1736 113.061L42.2358 240.345L60.0918 248.66C60.0918 248.66 89.9956 174.201 94.4167 169.665C103.515 160.348 118.281 126.842 116.989 113.874C115.698 100.906 75.1736 113.061 75.1736 113.061Z" fill="#C4C4C4"/>
<path fill-rule="evenodd" clip-rule="evenodd" d="M132.555 121.954C133.318 124.362 135.793 129.37 133.438 138.332C137.899 144.852 135.817 149.444 125.6 150.597C123.881 148.612 122.154 147.308 120.239 144.447C119.616 141.869 119.672 137.912 119.616 136.839C119.508 134.669 124.169 125.073 123.333 121.217C122.498 117.362 131.787 119.543 132.555 121.954Z" fill="#F77F89"/>
<path d="M134.166 147.558C133.1 146.492 132.146 145.331 131.316 144.092" stroke="#CB5D66" stroke-width="2" stroke-linecap="round" stroke-linejoin="round"/>
<path d="M129.749 149.822C128.07 148.287 125.615 145.048 124.356 143.105" stroke="#CB5D66" stroke-width="2" stroke-linecap="round" stroke-linejoin="round"/>
<path fill-rule="evenodd" clip-rule="evenodd" d="M47.6081 112.407C45.4815 114.036 43.275 115.971 40.4409 116.984C36.2038 117.952 28.449 125.991 28.449 127.722C28.449 129.363 29.9959 129.915 30.9593 129.99C31.7907 130.039 33.5615 128.221 34.0092 127.703C33.2378 129.366 32.8101 131.619 33.6455 132.326C34.4809 133.033 35.7321 133.278 36.5675 132.364C37.9506 130.852 37.6108 129.136 37.7387 128.131C38.4183 126.902 40.269 124.169 41.0525 123.837C41.6001 123.863 42.4236 124.045 42.5795 124.872C42.7354 125.7 40.7007 127.548 40.4729 128.32C40.4729 129.298 41.6001 130.542 42.5795 130.296C43.6907 130.017 47.1284 126.861 47.8879 125.999C48.9112 124.838 49.3749 122.306 49.9225 121.463C50.4702 120.62 52.5967 118.817 52.9925 118.439C53.3882 118.062 49.7307 110.782 47.6081 112.407Z" fill="#F77F89"/>
<path d="M42.0997 124.128C39.5814 122.151 35.6521 126.199 33.8653 127.832" stroke="#CB5D66" stroke-width="2" stroke-linecap="round" stroke-linejoin="round"/>
<path fill-rule="evenodd" clip-rule="evenodd" d="M80.6216 47.6237C72.3871 55.0658 68.3538 73.7033 66.1633 85.7C58.9402 92.4202 44.394 107.301 44.406 110.873C44.4179 114.444 51.5172 120.409 53.3239 120.367C55.1307 120.325 71.9514 102.92 74.5656 100.887C77.1799 98.8532 82.5843 45.8435 80.6216 47.6237Z" fill="#FDB797"/>
<path fill-rule="evenodd" clip-rule="evenodd" d="M77.5756 17.0085C76.4683 16.0673 74.5896 15.7045 74.5896 10.5264C74.5896 5.01183 81.5449 0 90.403 0C104.314 0 108.355 11.5355 108.835 15.6138C109.314 19.692 108.559 29.3415 109.526 33.261C111.469 41.2814 119.627 47.4725 119.627 60.8752C119.627 64.9497 100.936 61.4195 97.5901 60.947C94.2444 60.4746 90.339 39.4937 90.339 39.4937C90.339 39.4937 78.6828 17.9496 77.5756 17.0085Z" fill="black"/>
<path fill-rule="evenodd" clip-rule="evenodd" d="M98.8216 29.3416C98.1541 31.8891 98.0581 42.7859 98.5538 46.4219C96.2873 47.9602 87.853 47.7826 86.0941 46.1157C86.6258 41.6255 86.6258 37.6304 86.0941 35.6877C85.5625 33.7449 99.4892 26.7941 98.8216 29.3416Z" fill="#F77F89"/>
<path fill-rule="evenodd" clip-rule="evenodd" d="M73.9502 21.3474C73.9502 12.624 80.6257 5.55225 88.8642 5.55225C97.1027 5.55225 103.778 12.624 103.778 21.3474C103.778 30.0709 97.1027 37.1389 88.8642 37.1389C80.6257 37.1389 73.9502 30.0671 73.9502 21.3474Z" fill="#F77F89"/>
<path fill-rule="evenodd" clip-rule="evenodd" d="M91.7861 36.3074C91.5663 33.6088 89.2198 27.7465 87.9967 27.0473C86.7735 26.348 77.1719 25.2746 73.9501 20.739C72.3112 22.0203 70.9681 24.4015 71.1 24.8966C71.3718 25.9209 73.9421 27.6558 73.9421 27.6558C73.9421 27.6558 74.5217 34.2248 79.5383 37.1541C83.1639 39.2783 90.3391 37.5434 91.7861 36.3074Z" fill="white"/>
<path d="M87.6807 27.9242C89.3556 25.2784 93.8407 21.8162 96.2271 20.8486" stroke="white" stroke-width="2" stroke-linecap="round" stroke-linejoin="round"/>
<path d="M89.8833 31.8664C89.8833 31.8664 99.377 33.2384 100.916 29.3416" stroke="white" stroke-width="2" stroke-linecap="round" stroke-linejoin="round"/>
<path fill-rule="evenodd" clip-rule="evenodd" d="M80.6856 6.54625C82.6403 8.21686 83.5037 12.3896 85.2905 14.4835C88.1885 17.8852 93.7608 18.4635 95.4757 22.95C97.1905 27.4364 106.164 23.8117 106.164 23.8117L105.013 13.1455L98.3657 6.57271L88.0286 3.77954C88.0286 3.77954 78.7469 4.87186 80.6856 6.54625Z" fill="black"/>
<path fill-rule="evenodd" clip-rule="evenodd" d="M92.9135 25.2746C92.9135 24.2086 93.2479 23.1665 93.8742 22.2802C94.5005 21.3938 95.3908 20.703 96.4324 20.295C97.474 19.8871 98.6201 19.7804 99.7258 19.9883C100.832 20.1963 101.847 20.7096 102.644 21.4634C103.442 22.2172 103.984 23.1775 104.204 24.2231C104.424 25.2686 104.311 26.3523 103.88 27.3371C103.449 28.322 102.718 29.1638 101.781 29.756C100.843 30.3482 99.7411 30.6644 98.6138 30.6644C97.1023 30.6634 95.653 30.0952 94.5843 29.0846C93.5155 28.074 92.9146 26.7037 92.9135 25.2746Z" fill="#F77F89"/>
<path fill-rule="evenodd" clip-rule="evenodd" d="M80.418 20.2514C80.418 19.1591 80.9257 18.2747 81.5493 18.2747C82.1728 18.2747 82.6845 19.1591 82.6845 20.2514C82.6845 21.3437 82.1768 22.2282 81.5493 22.2282C80.9217 22.2282 80.418 21.3437 80.418 20.2514Z" fill="#CB5D66"/>
<path fill-rule="evenodd" clip-rule="evenodd" d="M92.4699 40.5142C116.945 40.5142 133.998 84.396 135.773 91.052C137.548 97.708 136.172 121.977 135.537 123.822C133.11 124.271 124.344 122.752 122.522 121.716C120.923 119.192 120.335 100.055 119.684 98.3203C119.224 96.86 118.415 95.5199 117.317 94.4046C118.029 99.5524 117.257 112.192 116.785 114.036C116.314 115.881 78.3234 115.794 75.4413 114.652C73.6346 113.938 72.3594 113.193 72.1036 111.47C71.7039 108.624 72.927 106.741 72.5953 104.364C72.2635 101.987 70.8524 101.62 70.4247 97.7495C69.981 93.6978 72.8711 88.3004 71.9237 84.3015C66.9191 63.1468 78.919 40.5142 92.4699 40.5142Z" fill="#FDB797"/>
<path fill-rule="evenodd" clip-rule="evenodd" d="M87.2052 40.3706H97.7181C98.3377 40.3706 98.8414 41.0434 98.8414 41.8825V45.9872C98.8414 46.8149 98.3377 47.499 97.7181 47.499H87.2052C86.5816 47.499 86.0779 46.8263 86.0779 45.9872V41.8711C86.0779 41.0434 86.5816 40.3706 87.2052 40.3706Z" fill="#FDB797"/>
<path d="M46.1968 242.189L85.6103 119.01" stroke="#8D8D8D" stroke-width="2" stroke-linecap="round" stroke-linejoin="round"/>
<path d="M63.0054 241.464L44.218 232.665" stroke="#8D8D8D" stroke-width="2" stroke-linecap="round" stroke-linejoin="round"/>
<path d="M83.8996 175.592C81.9928 176.631 77.9395 176.079 75.9648 174.836" stroke="#8D8D8D" stroke-width="2" stroke-linecap="round" stroke-linejoin="round"/>
<path d="M78.663 164.971L87.0054 172.405" stroke="#8D8D8D" stroke-width="2" stroke-linecap="round" stroke-linejoin="round"/>
<path d="M90.4034 176.952C92.2702 173.052 93.6892 170.406 94.4007 169.661C102.511 161.346 115.131 133.819 116.857 118.753" stroke="#8D8D8D" stroke-width="2" stroke-linecap="round" stroke-linejoin="round"/>
<path d="M157.626 226.999C157.626 226.999 103.862 178.468 101.364 176.567C101.204 173.165 100.964 166.539 98.4737 164.506" stroke="#8D8D8D" stroke-width="2" stroke-linecap="round" stroke-linejoin="round"/>
<path d="M119.48 166.781C117.757 167.896 114.811 171.876 114.619 174.174" stroke="#8D8D8D" stroke-width="2" stroke-linecap="round" stroke-linejoin="round"/>
<path d="M117.521 165.247C116.557 165.504 113.775 167.001 113.064 168.214" stroke="#8D8D8D" stroke-width="2" stroke-linecap="round" stroke-linejoin="round"/>
<path d="M117.605 163.073L114.115 162.828L108.327 160.76" stroke="#8D8D8D" stroke-width="2" stroke-linecap="round" stroke-linejoin="round"/>
<path d="M117.485 163.066L114.287 162.839" stroke="#8D8D8D" stroke-width="2" stroke-linecap="round" stroke-linejoin="round"/>
<path d="M163.442 210.754L144.703 227.226" stroke="#8D8D8D" stroke-width="2" stroke-linecap="round" stroke-linejoin="round"/>
<path d="M72.663 122.767C72.663 122.767 86.5777 125.148 95.1799 124.037" stroke="#8D8D8D" stroke-width="2" stroke-linecap="round" stroke-linejoin="round"/>
<path d="M74.294 115.28C73.0949 114.679 72.2954 113.934 72.1036 112.6C71.7038 109.758 72.927 107.871 72.5952 105.498C72.2634 103.124 70.8524 102.754 70.4247 98.8834C69.981 94.8316 72.871 89.4343 71.9237 85.4354C70.1721 77.796 70.4164 69.868 72.6352 62.3379" stroke="#FF3274" stroke-width="2" stroke-linecap="round" stroke-linejoin="round"/>
<path d="M57.4652 117.2C56.0021 116.41 48.5032 109.95 46.7084 106.48" stroke="#FF3274" stroke-width="2" stroke-linecap="round" stroke-linejoin="round"/>
<path d="M55.5028 115.745L51.6215 119.679" stroke="#FF3274" stroke-width="2" stroke-linecap="round" stroke-linejoin="round"/>
<path d="M53.0085 113.927L49.1311 117.865" stroke="#FF3274" stroke-width="2" stroke-linecap="round" stroke-linejoin="round"/>
<path d="M50.5862 111.81L46.9206 115.529" stroke="#FF3274" stroke-width="2" stroke-linecap="round" stroke-linejoin="round"/>
<path d="M48.6473 109.41L45.0737 113.035" stroke="#FF3274" stroke-width="2" stroke-linecap="round" stroke-linejoin="round"/>
<path d="M136.164 118.984L121.374 117.472" stroke="#FF3274" stroke-width="2" stroke-linecap="round" stroke-linejoin="round"/>
<path d="M133.722 118.734L133.322 124.997" stroke="#FF3274" stroke-width="2" stroke-linecap="round" stroke-linejoin="round"/>
<path d="M130.025 118.353L129.457 124.559" stroke="#FF3274" stroke-width="2" stroke-linecap="round" stroke-linejoin="round"/>
<path d="M126.387 117.978L125.96 123.905" stroke="#FF3274" stroke-width="2" stroke-linecap="round" stroke-linejoin="round"/>
<path d="M136.964 102.784C134.766 102.782 132.636 102.059 130.939 100.738C129.242 99.4173 128.082 97.5805 127.657 95.5411C127.233 93.5018 127.57 91.3863 128.611 89.5557C129.652 87.7251 131.333 86.2929 133.366 85.5034" stroke="#FF3274" stroke-width="2" stroke-linecap="round" stroke-linejoin="round"/>
<path d="M117.321 95.5383C116.01 93.5049 100.748 70.7362 99.9566 69.8367" stroke="#FF3274" stroke-width="2" stroke-linecap="round" stroke-linejoin="round"/>
<path d="M96.4952 69.9463L99.9729 69.7498" stroke="#FF3274" stroke-width="2" stroke-linecap="round" stroke-linejoin="round"/>
<path d="M97.0029 73.5976L99.9327 69.7537" stroke="#FF3274" stroke-width="2" stroke-linecap="round" stroke-linejoin="round"/>
<path d="M99.465 75.5932L99.9167 69.8103" stroke="#FF3274" stroke-width="2" stroke-linecap="round" stroke-linejoin="round"/>
<path d="M79.4625 105.452L90.1951 100.497" stroke="#FF3274" stroke-width="2" stroke-linecap="round" stroke-linejoin="round"/>
<path d="M90.0115 99.1631L75.8569 101.85" stroke="#FF3274" stroke-width="2" stroke-linecap="round" stroke-linejoin="round"/>
<path d="M77.6198 99.8171L89.4559 92.4468" stroke="#FF3274" stroke-width="2" stroke-linecap="round" stroke-linejoin="round"/>
<path d="M92.6934 47.4762H87.2052C86.5816 47.4762 86.0779 46.8034 86.0779 45.9644V41.871C86.0779 41.0432 86.5816 40.3591 87.2052 40.3591H97.718C97.8956 40.369 98.0673 40.4222 98.2166 40.5136C98.3658 40.605 98.4874 40.7315 98.5695 40.8807" stroke="#FF3274" stroke-width="2" stroke-linecap="round" stroke-linejoin="round"/>
<path d="M88.8442 40.3706L88.8779 47.4764" stroke="#FF3274" stroke-width="2" stroke-linecap="round" stroke-linejoin="round"/>
<path d="M91.9382 40.4688L91.955 43.9234L91.9718 47.5745" stroke="#FF3274" stroke-width="2" stroke-linecap="round" stroke-linejoin="round"/>
<path d="M95.3999 40.4688L95.4167 43.9234L95.4336 47.5745" stroke="#FF3274" stroke-width="2" stroke-linecap="round" stroke-linejoin="round"/>
<path d="M48.3876 266.186L14.0706 251.638" stroke="white" stroke-width="2" stroke-linecap="round" stroke-linejoin="round"/>
<path d="M184.18 236.75L165.769 255.46L150.978 257.308" stroke="white" stroke-width="2" stroke-linecap="round" stroke-linejoin="round"/>
<path fill-rule="evenodd" clip-rule="evenodd" d="M4.86886 32.834C2.33057 31.821 2.65035 26.1289 5.34854 23.948C8.04673 21.7671 14.8222 19.8811 17.4884 13.0852C18.4557 11.237 21.3458 13.9281 22.1013 18.5204C22.521 29.4474 10.4371 35.0564 4.86886 32.834Z" fill="#AADAF1"/>
<path d="M16.9406 19.6807C16.5369 22.0921 11.1925 32.9624 0.399734 35.7291" stroke="#72A5BD" stroke-width="2" stroke-linecap="round" stroke-linejoin="round"/>
<path d="M73.9501 20.739C72.3112 22.0203 70.9681 24.4015 71.1 24.8966C71.3718 25.9209 73.9421 27.6558 73.9421 27.6558C73.9421 27.6558 74.5217 34.2248 79.5383 37.1541C81.3011 38.1821 83.8994 38.288 86.2738 38.0045" stroke="#C9C9C9" stroke-width="2" stroke-linecap="round" stroke-linejoin="round"/>
<path d="M186.902 235.556C188.961 226.307 188.221 196.315 182.589 171.43" stroke="#72A5BD" stroke-width="2" stroke-linecap="round" stroke-linejoin="round"/>
</g>
<defs>
<clipPath id="clip0">
<rect width="214" height="270" fill="white"/>
</clipPath>
</defs>
</svg>
