<svg width="144" height="270" viewBox="0 0 144 270" fill="none" xmlns="http://www.w3.org/2000/svg">
<g clip-path="url(#clip0)">
<path fill-rule="evenodd" clip-rule="evenodd" d="M30.6458 241.351L28.517 252.281L40.6762 258.011L45.7876 246.693L30.6458 241.351Z" fill="black"/>
<path fill-rule="evenodd" clip-rule="evenodd" d="M35.6092 270L41.892 255.355C41.892 255.355 34.7887 252.068 29.0417 249.685C20.0424 251.039 6.42332 250.259 1.91443 249.312C0.683725 252.393 0 254.493 0 254.493L35.6092 270Z" fill="black"/>
<path fill-rule="evenodd" clip-rule="evenodd" d="M118.946 242.541L124.179 247.428L135.488 239.035L131.497 233.708L118.946 242.541Z" fill="black"/>
<path fill-rule="evenodd" clip-rule="evenodd" d="M134.491 237.692L144 250.278L123.596 266.441H103.431L103.476 261.1C103.476 261.1 117.771 258.488 117.727 258.529C120.683 254.974 123.086 246.398 123.086 246.398L134.491 237.692Z" fill="black"/>
<path fill-rule="evenodd" clip-rule="evenodd" d="M99.2142 126.137C99.2142 126.137 105.844 175.556 108.195 180.879C110.546 186.202 133.297 234.047 133.297 234.047L116.854 245.951C116.854 245.951 80.2472 190.246 78.5878 187.262C77.516 185.352 74.6592 173.978 74.6592 173.978L46.4675 251.46L27.7852 242.843L47.3988 128.129L99.2142 126.137Z" fill="#AADAF1"/>
<path fill-rule="evenodd" clip-rule="evenodd" d="M79.3566 126.905L64.6768 127.469L64.7839 131.042L79.3566 126.905ZM65.0463 140.443L66.7279 195.771L74.6555 174.041L65.0463 140.443Z" fill="#73A9C3"/>
<path d="M74.6739 174.041L63.6641 135.306" stroke="#0097F7" stroke-width="1.7" stroke-linecap="round" stroke-linejoin="round"/>
<path d="M116.832 219.577L101.509 190.966C104.503 187.911 105.756 184.647 98.8927 188.519C93.8035 191.387 92.9535 190.414 97.4143 185.449C103.42 178.779 102.374 177.865 96.4682 178.828" stroke="#0097F7" stroke-width="1.7" stroke-linecap="round" stroke-linejoin="round"/>
<path d="M97.7027 176.444C97.7027 176.444 92.7651 141.498 91.3385 137.197" stroke="#0097F7" stroke-width="1.7" stroke-linecap="round" stroke-linejoin="round"/>
<path d="M46.6633 217.268C47.2066 214.922 50.1485 194.029 51.9779 193.514C60.6704 191.074 62.2412 187.661 53.9367 185.27C45.8059 182.923 45.8355 182.218 53.168 179.965C60.6704 177.656 59.1921 176.433 54.3691 172.087C52.7355 170.613 60.2306 152.201 60.652 150.406" stroke="#0097F7" stroke-width="1.7" stroke-linecap="round" stroke-linejoin="round"/>
<path fill-rule="evenodd" clip-rule="evenodd" d="M112.024 90.6465C111.976 87.7704 112.589 82.645 111.318 79.5637C110.047 76.4825 101.653 77.8105 101.653 77.8105C101.653 77.8105 112.068 93.5076 112.024 90.6465Z" fill="#F77F89"/>
<path fill-rule="evenodd" clip-rule="evenodd" d="M77.4163 41.0894C96.4941 41.0894 112.061 50.8441 112.212 65.6274C112.305 74.9046 113.997 81.5782 113.997 81.5782L97.0817 85.8233C97.0817 85.8233 102.958 126.547 100.896 128.259C94.7607 133.362 51.7193 135.071 46.3788 129.516C45.9094 122.645 50.0488 104.337 50.0488 104.337C50.0488 104.337 36.9138 73.0843 44.032 58.3458C50.7768 44.3758 68.5094 41.8653 76.3704 41.5929C76.8028 41.578 77.0467 41.0894 77.4163 41.0894Z" fill="#FF677D"/>
<path fill-rule="evenodd" clip-rule="evenodd" d="M88.7218 15.6673C88.8326 9.06839 82.1543 0 72.5378 0C65.002 0 57.3037 3.6184 57.1078 9.50484C56.716 7.07267 56.3428 5.56936 56.6163 4.22644C54.9901 4.14438 51.7193 8.37828 51.7193 14.0334C51.7193 16.2194 53.4083 24.4783 58.2128 24.3776C63.0174 24.2769 81.3523 30.9019 81.3523 30.9019C81.3523 30.9019 82.5572 32.6813 84.1833 32.547C85.8095 32.4127 88.8881 29.3352 88.914 27.6379C88.9398 25.9406 87.4171 22.8892 87.4356 21.9454C87.4541 21.0017 88.6072 22.255 88.7218 15.6673Z" fill="#6A3416"/>
<path d="M65.7264 60.2969L62.3374 72.7412" stroke="black" stroke-width="3.41" stroke-linecap="round" stroke-linejoin="round"/>
<path fill-rule="evenodd" clip-rule="evenodd" d="M56.1469 24.1388C56.1461 21.2832 56.9844 18.4916 58.5558 16.117C60.1271 13.7424 62.3609 11.8915 64.9745 10.7983C67.5882 9.70524 70.4643 9.41904 73.2391 9.97594C76.0139 10.5329 78.5628 11.9079 80.5633 13.927C82.5638 15.9462 83.9261 18.5189 84.4778 21.3196C85.0296 24.1203 84.746 27.0233 83.663 29.6613C82.58 32.2993 80.7462 34.554 78.3936 36.14C76.0409 37.726 73.2751 38.5721 70.446 38.5714C66.6536 38.5714 63.0166 37.0508 60.335 34.3441C57.6534 31.6375 56.1469 27.9665 56.1469 24.1388Z" fill="#F77F89"/>
<path fill-rule="evenodd" clip-rule="evenodd" d="M55.4593 18.6515C55.4593 18.6515 57.3811 18.2785 60.2084 14.0558C63.7342 14.7272 69.5366 14.6974 74.4816 13.1904C74.5445 16.2007 76.7324 21.1285 79.7445 20.5838C82.7566 20.0392 83.991 12.7129 83.991 12.7129L76.8913 5.22241L66.155 5.29329L58.597 10.6687L55.4593 18.6515Z" fill="#6A3416"/>
<path fill-rule="evenodd" clip-rule="evenodd" d="M59.7281 22.4228C59.595 21.2702 59.9535 20.2854 60.5264 20.2182C61.0992 20.1511 61.6758 21.0277 61.8088 22.1766C61.9419 23.3256 61.5834 24.3141 61.0068 24.3812C60.4303 24.4484 59.8722 23.5718 59.7281 22.4228Z" fill="#90415B"/>
<path fill-rule="evenodd" clip-rule="evenodd" d="M84.8855 27.1417C84.5159 29.4358 83.7768 40.347 84.9483 42.6672C82.3354 45.3232 74.6739 46.4684 70.6603 45.3157C70.9744 42.1674 69.6809 39.0898 68.9898 37.8327C68.2986 36.5756 85.244 24.8438 84.8855 27.1417Z" fill="#F77F89"/>
<path fill-rule="evenodd" clip-rule="evenodd" d="M69.278 20.651C69.1449 19.5021 69.5034 18.5173 70.0763 18.4464C70.6491 18.3755 71.2257 19.2559 71.355 20.4085C71.4844 21.5612 71.1333 22.546 70.5567 22.6131C69.9802 22.6803 69.411 21.8037 69.278 20.651Z" fill="#90415B"/>
<path d="M64.518 22.8071C64.6325 24.165 63.5534 29.2979 63.3242 30.0924C63.0951 30.887 64.3258 31.1817 64.3258 31.1817" stroke="#90415B" stroke-width="1.7" stroke-linecap="round" stroke-linejoin="round"/>
<path fill-rule="evenodd" clip-rule="evenodd" d="M56.8637 28.6638C56.9376 30.1074 60.3156 37.5531 62.3076 38.6983C64.2997 39.8435 79.3084 39.6943 82.7566 32.1964C79.9256 31.7525 78.0075 29.3278 75.7678 24.1389C70.7637 24.885 65.0906 24.1389 64.1777 24.1874C63.1762 24.2471 60.7665 27.6044 56.8637 28.6638Z" fill="white"/>
<path fill-rule="evenodd" clip-rule="evenodd" d="M86.8258 56.1635C94.6757 56.0105 110.243 55.0444 111.806 61.759C113.369 68.4735 114.855 79.989 113.997 81.5669C113.14 83.1448 97.1556 85.1443 97.1556 85.1443C95.8917 81.9138 88.9139 63.6987 86.8258 56.1635Z" fill="#FF677D"/>
<path fill-rule="evenodd" clip-rule="evenodd" d="M103.579 100.677C99.2549 101.386 73.7352 83.4395 70.5716 83.7902C67.408 84.1408 59.2883 83.8275 59.2883 83.8275C59.2883 83.8275 54.6685 65.9556 64.5253 65.2953C65.1351 65.2543 68.7459 68.4959 68.7459 68.4959C68.7459 68.4959 69.7474 68.1751 70.446 68.7533C71.721 69.8053 75.8677 74.5614 77.9411 75.3149C81.4299 76.587 109.744 81.9922 111.1 84.2677C112.456 86.5432 113.953 98.98 103.579 100.677Z" fill="#F77F89"/>
<path fill-rule="evenodd" clip-rule="evenodd" d="M35.7754 73.114H55.5665C57.8505 73.114 60.4449 74.8225 61.3652 76.9339L75.2947 108.869C76.215 110.977 75.1099 112.685 72.8259 112.685H53.0385C50.7545 112.685 48.1564 110.977 47.2361 108.869L33.3103 76.9301C32.39 74.8188 33.4951 73.114 35.7754 73.114Z" fill="#FDB797"/>
<path fill-rule="evenodd" clip-rule="evenodd" d="M35.2914 99.0621C34.349 96.6076 33.6763 93.2167 34.9994 91.0457C36.3225 88.8747 41.4154 82.1899 43.5257 82.0668C45.636 81.9437 51.0541 87.8712 51.6343 89.7923C52.2146 91.7134 52.0039 95.8876 51.0947 97.6857C50.1856 99.4837 46.5378 102.975 44.701 103.046C42.8641 103.117 35.8495 100.562 35.2914 99.0621Z" fill="#F77F89"/>
<path fill-rule="evenodd" clip-rule="evenodd" d="M34.7702 94.1569C34.5152 90.1953 32.804 85.9055 31.6435 82.9958C30.8674 81.0598 31.4403 79.3998 32.7523 79.023C34.0643 78.6463 38.1334 84.0627 38.2517 88.2518C38.3699 92.441 35.0289 98.1073 34.7702 94.1569Z" fill="#F77F89"/>
<path d="M34.5264 92.1388C35.4672 90.0412 36.7224 88.1023 38.2481 86.3904" stroke="#81666F" stroke-width="1.7" stroke-linecap="round" stroke-linejoin="round"/>
<path d="M39.7742 92.7802C39.7742 90.6502 44.0762 84.4392 45.6875 83.6782" stroke="#905F6F" stroke-width="1.7" stroke-linecap="round" stroke-linejoin="round"/>
<path d="M43.9986 95.2871C44.0466 94.2538 47.3951 88.6247 49.3132 87.5056" stroke="#8B5D6C" stroke-width="1.7" stroke-linecap="round" stroke-linejoin="round"/>
<path d="M51.8634 62.2439C51.4939 64.4299 51.1465 69.1039 52.0408 73.1028" stroke="#F77F89" stroke-width="1.7" stroke-linecap="round" stroke-linejoin="round"/>
<path d="M76.7584 71.3235L89.2317 71.5772" stroke="#F77F89" stroke-width="1.7" stroke-linecap="round" stroke-linejoin="round"/>
<path fill-rule="evenodd" clip-rule="evenodd" d="M69.7326 42.2347C69.5515 44.0774 67.3857 55.9921 74.6739 55.9921C79.3639 55.9921 86.6447 44.9802 85.4916 41.6975" fill="#F77F89"/>
<path d="M69.7326 42.2347C69.5515 44.0774 67.3857 55.9921 74.6739 55.9921C79.3639 55.9921 86.6447 44.9802 85.4916 41.6975" stroke="white" stroke-width="1.7" stroke-linecap="round" stroke-linejoin="round"/>
<path fill-rule="evenodd" clip-rule="evenodd" d="M77.9412 22.5125C77.9404 21.4248 78.2593 20.3614 78.8575 19.4567C79.4556 18.5519 80.3062 17.8466 81.3015 17.4299C82.2969 17.0131 83.3923 16.9037 84.4493 17.1155C85.5063 17.3272 86.4773 17.8506 87.2395 18.6194C88.0018 19.3882 88.521 20.368 88.7315 21.4347C88.942 22.5014 88.8343 23.6071 88.4221 24.612C88.0099 25.617 87.3116 26.4759 86.4157 27.0803C85.5198 27.6846 84.4664 28.0072 83.3888 28.0072C81.9446 28.0072 80.5596 27.4284 79.538 26.3981C78.5165 25.3677 77.9421 23.9701 77.9412 22.5125Z" fill="#F77F89"/>
<path d="M75.8234 24.2471C75.8234 24.2471 79.2642 17.9055 82.9083 17.0364" stroke="white" stroke-width="1.7" stroke-linecap="round" stroke-linejoin="round"/>
<path d="M82.7343 32.241L85.4028 27.6042" stroke="white" stroke-width="1.7" stroke-linecap="round" stroke-linejoin="round"/>
<path d="M94.9823 79.5003C92.8941 73.9757 89.8968 65.866 88.0046 60.0542" stroke="#F77F89" stroke-width="1.7" stroke-linecap="round" stroke-linejoin="round"/>
<path d="M57.2851 30.1895C58.2608 32.879 60.7259 37.7881 62.3114 38.6983C62.9434 39.0713 64.8985 39.2951 67.3895 39.2019" stroke="#C9C9C9" stroke-width="3.41" stroke-linecap="round" stroke-linejoin="round"/>
<path d="M36.7808 267.258L0.979492 251.725" stroke="#7C7C7C" stroke-width="1.7" stroke-linecap="round" stroke-linejoin="round"/>
<path d="M103.45 264.14L122.575 263.472L142.189 247.879" stroke="#7C7C7C" stroke-width="1.7" stroke-linecap="round" stroke-linejoin="round"/>
</g>
<defs>
<clipPath id="clip0">
<rect width="144" height="270" fill="white"/>
</clipPath>
</defs>
</svg>
