<svg width="200" height="270" viewBox="0 0 200 270" fill="none" xmlns="http://www.w3.org/2000/svg">
<g clip-path="url(#clip0)">
<path d="M126.19 74.6387H106.811C106.63 74.6387 106.456 74.7224 106.329 74.8715C106.201 75.0206 106.129 75.2228 106.129 75.4336V86.5631C106.129 86.7739 106.201 86.9761 106.329 87.1252C106.456 87.2743 106.63 87.358 106.811 87.358H126.19C126.37 87.358 126.544 87.2743 126.672 87.1252C126.8 86.9761 126.871 86.7739 126.871 86.5631V75.4336C126.871 75.2228 126.8 75.0206 126.672 74.8715C126.544 74.7224 126.37 74.6387 126.19 74.6387Z" stroke="#AADAF1" stroke-width="2" stroke-linecap="round" stroke-linejoin="round"/>
<path d="M115.81 61.8916H96.4345C96.2537 61.8916 96.0803 61.9754 95.9524 62.1244C95.8246 62.2735 95.7527 62.4757 95.7527 62.6866V73.816C95.7527 74.0268 95.8246 74.229 95.9524 74.3781C96.0803 74.5272 96.2537 74.611 96.4345 74.611H115.81C115.991 74.611 116.164 74.5272 116.292 74.3781C116.42 74.229 116.492 74.0268 116.492 73.816V62.6866C116.492 62.4757 116.42 62.2735 116.292 62.1244C116.164 61.9754 115.991 61.8916 115.81 61.8916Z" stroke="#AADAF1" stroke-width="2" stroke-linecap="round" stroke-linejoin="round"/>
<path d="M105.43 74.6387H86.0547C85.8739 74.6387 85.7005 74.7224 85.5726 74.8715C85.4448 75.0206 85.373 75.2228 85.373 75.4336V86.5631C85.373 86.7739 85.4448 86.9761 85.5726 87.1252C85.7005 87.2743 85.8739 87.358 86.0547 87.358H105.43C105.611 87.358 105.784 87.2743 105.912 87.1252C106.04 86.9761 106.112 86.7739 106.112 86.5631V75.4336C106.112 75.2228 106.04 75.0206 105.912 74.8715C105.784 74.7224 105.611 74.6387 105.43 74.6387Z" stroke="#AADAF1" stroke-width="2" stroke-linecap="round" stroke-linejoin="round"/>
<path d="M136.239 87.3821H116.863C116.682 87.3821 116.509 87.4658 116.381 87.6149C116.253 87.764 116.181 87.9662 116.181 88.177V99.3065C116.181 99.5173 116.253 99.7195 116.381 99.8686C116.509 100.018 116.682 100.101 116.863 100.101H136.239C136.42 100.101 136.593 100.018 136.721 99.8686C136.849 99.7195 136.92 99.5173 136.92 99.3065V88.177C136.92 87.9662 136.849 87.764 136.721 87.6149C136.593 87.4658 136.42 87.3821 136.239 87.3821Z" stroke="#AADAF1" stroke-width="2" stroke-linecap="round" stroke-linejoin="round"/>
<path fill-rule="evenodd" clip-rule="evenodd" d="M104.097 224.119H169.757C170.191 224.119 170.607 224.32 170.914 224.678C171.221 225.036 171.393 225.521 171.393 226.027C171.393 226.532 171.22 227.016 170.913 227.373C170.606 227.73 170.191 227.931 169.757 227.931H104.097C103.664 227.931 103.248 227.73 102.942 227.373C102.635 227.016 102.462 226.532 102.461 226.027C102.461 225.521 102.633 225.036 102.94 224.678C103.247 224.32 103.663 224.119 104.097 224.119Z" fill="white"/>
<path fill-rule="evenodd" clip-rule="evenodd" d="M1.63281 235.598H67.303C67.5175 235.598 67.7301 235.647 67.9284 235.742C68.1267 235.838 68.3068 235.978 68.4586 236.155C68.6103 236.332 68.7305 236.542 68.8124 236.773C68.8943 237.004 68.9362 237.252 68.9358 237.502C68.9362 237.752 68.8943 238 68.8124 238.231C68.7305 238.463 68.6103 238.673 68.4586 238.85C68.3068 239.026 68.1267 239.167 67.9284 239.262C67.7301 239.358 67.5175 239.407 67.303 239.406H1.63281C1.19976 239.406 0.784449 239.205 0.478238 238.848C0.172027 238.491 0 238.007 0 237.502H0C0 236.997 0.172027 236.513 0.478238 236.156C0.784449 235.799 1.19976 235.598 1.63281 235.598Z" fill="white"/>
<path fill-rule="evenodd" clip-rule="evenodd" d="M144.703 225.605C139.228 225.608 133.873 227.48 129.3 230.99C124.726 234.5 121.134 239.494 118.966 245.356C117.203 243.697 115.008 242.786 112.741 242.772C110.475 242.759 108.272 243.643 106.494 245.281C105.26 241.853 103.226 238.896 100.625 236.747C98.0228 234.597 94.9567 233.341 91.7738 233.12C88.5909 232.899 85.4186 233.722 82.6165 235.497C79.8144 237.271 77.4947 239.925 75.9204 243.158C74.2813 241.977 72.4369 241.237 70.5214 240.992C68.606 240.747 66.6678 241.003 64.8481 241.742C63.0284 242.481 61.373 243.685 60.0027 245.264C58.6323 246.844 57.5814 248.76 56.9266 250.873C57.2266 250.873 57.5095 250.774 57.8129 250.774H187.589C187.114 248.74 186.197 246.883 184.926 245.384C183.656 243.884 182.075 242.792 180.337 242.214C178.598 241.635 176.761 241.59 175.003 242.082C173.246 242.574 171.627 243.587 170.303 245.022C168.104 239.245 164.514 234.336 159.971 230.89C155.427 227.443 150.123 225.608 144.703 225.605Z" fill="#DEDEDE"/>
<path fill-rule="evenodd" clip-rule="evenodd" d="M49.8943 246.966H198.367C198.801 246.967 199.216 247.169 199.522 247.526C199.828 247.884 200 248.369 200 248.874C199.999 249.379 199.827 249.862 199.521 250.219C199.215 250.576 198.8 250.777 198.367 250.778H49.8943C49.4615 250.777 49.0467 250.576 48.7407 250.219C48.4347 249.862 48.2624 249.379 48.2615 248.874C48.2615 248.369 48.4334 247.884 48.7395 247.526C49.0456 247.169 49.4609 246.967 49.8943 246.966Z" fill="#DEDEDE"/>
<path fill-rule="evenodd" clip-rule="evenodd" d="M25.7943 225.133L21.4753 232.188L30.3722 245.189L34.4628 236.842L25.7943 225.133Z" fill="#F77F89"/>
<path fill-rule="evenodd" clip-rule="evenodd" d="M21.0764 228.98L10.8501 242.757L26.9157 264.618C26.9157 264.618 37.5784 264.483 40.9462 264.483C40.8781 259.713 37.9056 249.832 29.6291 250.214C31.2994 246.795 32.4856 243.977 32.4856 243.977L21.0764 228.98Z" fill="#FF677D"/>
<path d="M29.6224 250.225C24.9967 248.56 22.8934 250.73 19.6483 254.745C17.3814 257.551 12.6569 257.312 9.76282 255.703" stroke="#4C4FD9" stroke-width="2" stroke-linecap="round" stroke-linejoin="round"/>
<path d="M19.021 267.746C20.5454 268.51 22.1196 269.13 23.7285 269.602C27.9622 265.23 30.4677 254.852 29.6734 250.225" stroke="#4C4FD9" stroke-width="2" stroke-linecap="round" stroke-linejoin="round"/>
<path d="M16.945 234.402C17.9453 235.284 18.7208 236.468 19.1885 237.825C19.6563 239.182 19.7986 240.662 19.6004 242.107C19.4022 243.551 18.8709 244.905 18.0632 246.024C17.2556 247.144 16.2022 247.986 15.0157 248.461" stroke="#4C4FD9" stroke-width="2" stroke-linecap="round" stroke-linejoin="round"/>
<path d="M12.6329 240.344L28.4462 260.48L40.1622 259.685" stroke="#4C4FD9" stroke-width="2" stroke-linecap="round" stroke-linejoin="round"/>
<path fill-rule="evenodd" clip-rule="evenodd" d="M51.2886 166.838L24.2501 224.62L34.6026 238.75L83.4607 179.963L72.7366 162.291L51.2886 166.838Z" fill="#FFB9B9"/>
<path d="M40.2235 231.989L28.1633 216.253" stroke="#FF3274" stroke-width="2" stroke-linecap="round" stroke-linejoin="round"/>
<path fill-rule="evenodd" clip-rule="evenodd" d="M72.7332 162.295L51.2919 166.842L40.3839 190.17L59.1083 189.649L65.2134 201.92L83.4606 179.971L72.7332 162.295Z" fill="#FFB9B9"/>
<path d="M28.8246 230.864C39.9031 215.732 73.8205 169.613 73.8205 169.613" stroke="#FF3274" stroke-width="2" stroke-linecap="round" stroke-linejoin="round"/>
<path fill-rule="evenodd" clip-rule="evenodd" d="M102.461 244.092L105.727 252.042L120.364 248.953L117.944 239.378L102.461 244.092Z" fill="#F77F89"/>
<path fill-rule="evenodd" clip-rule="evenodd" d="M103.555 252.074L108.556 268.768C108.556 268.768 137.486 262.011 139.685 261.347C135.594 250.138 127.202 252.018 123.521 253.091C122.598 251.049 121.774 248.949 121.053 246.799L103.555 252.074Z" fill="#FF677D"/>
<path d="M123.275 249.252C123.868 247.002 125.245 245.503 126.343 245.901C127.441 246.298 127.863 248.437 127.27 250.671C126.677 252.904 125.3 254.415 124.202 254.021C123.105 253.628 122.682 251.497 123.275 249.252Z" stroke="#4C4FD9" stroke-width="2" stroke-linecap="round" stroke-linejoin="round"/>
<path d="M128.122 248.965C129.656 247.133 131.565 246.557 132.39 247.682C133.215 248.806 132.636 251.203 131.102 253.036C129.568 254.868 127.659 255.448 126.834 254.323C126.009 253.199 126.589 250.81 128.122 248.965Z" stroke="#4C4FD9" stroke-width="2" stroke-linecap="round" stroke-linejoin="round"/>
<path fill-rule="evenodd" clip-rule="evenodd" d="M114.777 117.893C116.591 119.602 118.472 121.637 120.889 122.702C124.502 123.724 131.115 132.174 131.115 133.994C131.115 135.72 129.796 136.3 128.975 136.379C128.266 136.431 126.756 134.519 126.374 133.975C127.032 135.724 127.413 138.092 126.684 138.836C125.954 139.579 124.905 139.837 124.189 138.876C123.013 137.286 123.302 135.481 123.193 134.424C122.614 133.132 121.036 130.258 120.367 129.908C119.9 129.936 119.198 130.127 119.065 130.997C118.932 131.868 120.667 133.812 120.862 134.622C120.862 135.652 119.897 136.96 119.065 136.701C118.118 136.407 115.186 133.088 114.538 132.182C113.666 130.962 113.27 128.303 112.803 127.412C112.336 126.522 110.523 124.63 110.185 124.232C109.848 123.835 112.967 116.179 114.777 117.893Z" fill="#F77F89"/>
<path fill-rule="evenodd" clip-rule="evenodd" d="M96.6765 76.2248C103.191 82.6759 112.94 108.083 119.205 114.335C118.551 118.258 108.171 132.87 100.835 129.388C91.6451 125.023 91.7576 71.3557 96.6765 76.2248Z" fill="#3B4161"/>
<path fill-rule="evenodd" clip-rule="evenodd" d="M101.738 112.439L121.053 240.32L100.818 245.885L74.2466 164.585L80.846 108.083L101.738 112.439Z" fill="#FDB797"/>
<path d="M84.6843 196.518L75.184 167.446" stroke="#FF3274" stroke-width="2" stroke-linecap="round" stroke-linejoin="round"/>
<path d="M109.616 243.468L78.402 129.01" stroke="#FF3274" stroke-width="2" stroke-linecap="round" stroke-linejoin="round"/>
<path d="M103.45 123.783C100.723 125.115 86.7467 128.124 81.3472 127.464" stroke="#FF3274" stroke-width="2" stroke-linecap="round" stroke-linejoin="round"/>
<path fill-rule="evenodd" clip-rule="evenodd" d="M44.8426 93.2648L81.4904 97.8C83.6754 98.0703 85.24 100.471 85.0014 103.166L79.0497 168.532C78.8043 171.222 76.8374 173.186 74.6524 172.904L38.0046 168.384C35.8195 168.114 34.2549 165.713 34.4935 163.018L40.4419 97.6529C40.6873 94.958 42.6576 93.0104 44.8426 93.2648Z" fill="#FF677D"/>
<path d="M46.0458 133.092C46.0458 129.869 46.8654 126.718 48.4011 124.038C49.9368 121.358 52.1196 119.269 54.6734 118.036C57.2272 116.802 60.0373 116.48 62.7483 117.109C65.4594 117.737 67.9497 119.289 69.9043 121.569C71.8589 123.848 73.19 126.752 73.7292 129.913C74.2685 133.074 73.9917 136.351 72.9339 139.329C71.8761 142.306 70.0848 144.852 67.7864 146.642C65.4881 148.433 62.786 149.389 60.0218 149.389C56.3151 149.389 52.7602 147.672 50.1392 144.616C47.5182 141.559 46.0458 137.414 46.0458 133.092Z" stroke="white" stroke-width="2" stroke-linecap="round" stroke-linejoin="round"/>
<path fill-rule="evenodd" clip-rule="evenodd" d="M59.1219 20.2317C59.1219 16.1735 61.082 12.8823 63.5022 12.8823C65.9225 12.8823 67.8859 16.1735 67.8859 20.2317C67.8859 24.29 65.9225 27.5811 63.5022 27.5811C61.082 27.5811 59.1219 24.29 59.1219 20.2317Z" fill="#F77F89"/>
<path fill-rule="evenodd" clip-rule="evenodd" d="M61.5899 24.0872C61.5899 20.8583 62.4111 17.702 63.9495 15.0174C65.488 12.3327 67.6747 10.2404 70.233 9.00495C72.7914 7.7695 75.6065 7.44646 78.3223 8.07666C81.0381 8.70687 83.5326 10.262 85.4904 12.5454C87.4482 14.8289 88.7812 17.738 89.3211 20.9049C89.8609 24.0718 89.5831 27.3542 88.523 30.3371C87.4628 33.3199 85.6679 35.8692 83.3652 37.6624C81.0625 39.4557 78.3554 40.4125 75.5864 40.4117C73.748 40.4117 71.9277 39.9894 70.2294 39.169C68.531 38.3485 66.9879 37.146 65.6882 35.6301C64.3884 34.1142 63.3575 32.3146 62.6543 30.334C61.9512 28.3534 61.5894 26.2308 61.5899 24.0872Z" fill="#F77F89"/>
<path fill-rule="evenodd" clip-rule="evenodd" d="M56.8516 128.259C56.2006 130.791 54.0905 136.057 56.0983 145.482C52.2941 152.338 54.0701 157.167 62.7829 158.38C64.2487 156.293 65.7179 154.926 67.3541 151.913C67.8859 149.202 67.8382 145.04 67.8859 143.912C67.9779 141.63 65.1111 132.603 65.8236 128.549C66.536 124.495 57.5027 125.723 56.8516 128.259Z" fill="#F77F89"/>
<path fill-rule="evenodd" clip-rule="evenodd" d="M74.2228 45.8892C54.0837 45.8892 46.4173 95.2363 48.616 126.812C52.7918 129.885 69.4573 131.081 74.2228 129.622C75.2454 124.077 75.5863 100.873 75.8147 97.0965C86.9375 98.3684 85.0184 100.376 83.6753 117.734C89.4703 117.968 97.2764 116.144 103.105 113.29C103.923 101.389 97.924 45.8892 74.2228 45.8892Z" fill="#3B4161"/>
<path d="M46.0458 96.2577L48.7046 66.5858C49.1205 61.9442 51.1006 57.6855 54.2094 54.7463C57.3182 51.8071 61.3009 50.4283 65.2815 50.9132L68.1347 51.259C72.1152 51.7439 75.7676 54.0529 78.2882 57.6778C80.8089 61.3028 81.9913 65.9469 81.5755 70.5884L78.8485 101.095" stroke="#FF677D" stroke-width="6.77" stroke-linecap="round" stroke-linejoin="round"/>
<path fill-rule="evenodd" clip-rule="evenodd" d="M65.9838 33.6388C67.0338 38.8974 67.2962 46.3025 67.1224 49.212C69.7915 51.0484 76.7113 52.3243 80.0383 47.1173C78.4634 42.6774 78.1123 40.531 78.2452 37.9753C78.3782 35.4195 64.9339 28.3801 65.9838 33.6388Z" fill="#F77F89"/>
<path fill-rule="evenodd" clip-rule="evenodd" d="M70.4458 39.2751C70.1492 36.453 71.8911 29.8111 72.8865 28.8889C82.2436 29.2864 88.0522 21.5157 88.9964 19.3892C89.8698 20.7413 90.5058 22.2811 90.8678 23.9204C91.1098 25.0016 90.8985 25.7608 89.3134 27.3109C88.9112 33.6825 83.9514 43.7984 70.4458 39.2751Z" fill="white"/>
<path d="M73.6297 29.5607C73.6297 29.5607 65.1077 21.4282 62.633 21.0308" stroke="white" stroke-width="3.05" stroke-linecap="round" stroke-linejoin="round"/>
<path fill-rule="evenodd" clip-rule="evenodd" d="M80.5803 21.0425C80.5803 19.6275 80.9757 18.4788 81.4631 18.4788C81.9506 18.4788 82.346 19.6275 82.346 21.0425C82.346 22.4575 81.9506 23.6062 81.4631 23.6062C80.9757 23.6062 80.5803 22.4575 80.5803 21.0425Z" fill="#CB5D66"/>
<path d="M74.9727 120.798C71.7309 121.343 54.0939 120.452 48.2615 117.654" stroke="#737999" stroke-width="2" stroke-linecap="round" stroke-linejoin="round"/>
<path d="M75.8146 97.0965C75.5863 89.3178 81.6573 64.0619 69.6584 53.6758" stroke="#737999" stroke-width="2" stroke-linecap="round" stroke-linejoin="round"/>
<path d="M75.818 97.0527L69.6584 100.129" stroke="#737999" stroke-width="2" stroke-linecap="round" stroke-linejoin="round"/>
<path d="M69.9278 96.3689L75.8352 96.8538" stroke="#737999" stroke-width="2" stroke-linecap="round" stroke-linejoin="round"/>
<path d="M70.8038 91.5237L75.842 96.8022" stroke="#737999" stroke-width="2" stroke-linecap="round" stroke-linejoin="round"/>
<path d="M103.122 113.282C103.463 108.079 102.522 94.5446 99.3728 80.9587" stroke="#737999" stroke-width="2" stroke-linecap="round" stroke-linejoin="round"/>
<path d="M114.573 108.031C111.846 113.643 105.369 119.705 103.017 120.909" stroke="#737999" stroke-width="2" stroke-linecap="round" stroke-linejoin="round"/>
<path d="M95.613 125.933C95.3266 123.922 94.2972 116.454 94.2972 116.454" stroke="#FF3274" stroke-width="2" stroke-linecap="round" stroke-linejoin="round"/>
<path d="M119.849 232.367L97.7298 236.437" stroke="#FF3274" stroke-width="2" stroke-linecap="round" stroke-linejoin="round"/>
<path d="M113.512 190.118C113.121 190.17 112.727 190.195 112.333 190.194C109.723 190.194 107.203 189.08 105.25 187.061C103.296 185.043 102.045 182.26 101.732 179.238C101.419 176.217 102.066 173.166 103.551 170.663C105.035 168.16 107.255 166.378 109.79 165.654" stroke="#FF3274" stroke-width="2" stroke-linecap="round" stroke-linejoin="round"/>
<path d="M107.605 265.6L138.547 258.759" stroke="#4C4FD9" stroke-width="2" stroke-linecap="round" stroke-linejoin="round"/>
<path d="M105.13 257.758C106.179 257.278 107.312 257.104 108.431 257.252C109.551 257.399 110.622 257.863 111.553 258.603C112.484 259.343 113.245 260.336 113.771 261.498C114.298 262.659 114.573 263.953 114.573 265.266C114.574 265.966 114.497 266.664 114.344 267.341" stroke="#4C4FD9" stroke-width="2" stroke-linecap="round" stroke-linejoin="round"/>
<path d="M70.5924 38.6787C69.5221 38.2057 65.2202 36.4568 62.984 31.2021" stroke="white" stroke-width="3.05" stroke-linecap="round" stroke-linejoin="round"/>
<path fill-rule="evenodd" clip-rule="evenodd" d="M58.8697 27.1957C58.869 26.1553 59.133 25.1381 59.6283 24.2727C60.1236 23.4073 60.8279 22.7327 61.6521 22.3342C62.4763 21.9357 63.3834 21.8312 64.2585 22.034C65.1336 22.2367 65.9375 22.7377 66.5684 23.4733C67.1993 24.209 67.6289 25.1464 67.8028 26.1668C67.9767 27.1873 67.8871 28.2449 67.5454 29.206C67.2036 30.1671 66.6251 30.9883 65.8829 31.5658C65.1407 32.1434 64.2683 32.4512 63.3761 32.4504C62.1812 32.4494 61.0355 31.8954 60.1906 30.9102C59.3457 29.925 58.8706 28.589 58.8697 27.1957Z" fill="#F77F89"/>
<path d="M67.6882 28.7339C67.4052 29.8099 66.8335 30.7516 66.0573 31.4205C65.2811 32.0895 64.3413 32.4505 63.3761 32.4503" stroke="#CB5D66" stroke-width="2" stroke-linecap="round" stroke-linejoin="round"/>
<path d="M59.8207 23.9641C60.4714 22.9896 61.396 22.314 62.4318 22.0562" stroke="#CB5D66" stroke-width="2" stroke-linecap="round" stroke-linejoin="round"/>
<path fill-rule="evenodd" clip-rule="evenodd" d="M70.5617 0.850603C68.6316 1.36896 66.8079 2.32559 65.1949 3.66587C63.5819 5.00615 62.2111 6.70382 61.1608 8.66193C60.1105 10.62 59.4013 12.8002 59.0737 15.078C58.746 17.3557 58.8064 19.6864 59.2514 21.9369L88.6453 14.039C88.2008 11.7883 87.3804 9.66187 86.231 7.78099C85.0815 5.90012 83.6256 4.30169 81.9464 3.077C80.2671 1.85231 78.3974 1.02534 76.444 0.643333C74.4906 0.261324 72.4918 0.331755 70.5617 0.850603Z" fill="#FDB797"/>
<path fill-rule="evenodd" clip-rule="evenodd" d="M77.4714 11.4992L98.7115 5.79144C100.47 5.31446 102.12 6.11339 102.42 7.5642C102.707 9.01897 101.514 10.5811 99.7512 11.058L78.5111 16.7659C76.7488 17.2389 75.1023 16.4439 74.8024 14.9891C74.5126 13.5343 75.7091 11.9722 77.4714 11.4992Z" fill="#FDB797"/>
<path d="M55.4779 155.184C56.3855 154.062 57.1993 152.841 57.9084 151.539" stroke="#CB5D66" stroke-width="2" stroke-linecap="round" stroke-linejoin="round"/>
<path d="M59.2412 157.565C60.6729 155.951 62.7693 152.545 63.8396 150.502" stroke="#CB5D66" stroke-width="2" stroke-linecap="round" stroke-linejoin="round"/>
<path d="M119.474 130.214C121.622 128.136 124.973 132.393 126.496 134.11" stroke="#CB5D66" stroke-width="2" stroke-linecap="round" stroke-linejoin="round"/>
<path d="M64.1567 29.3341C63.9108 29.4609 63.6449 29.5259 63.3761 29.5249C63.0766 29.5255 62.7811 29.4453 62.5126 29.2906C62.2441 29.136 62.0098 28.911 61.8282 28.6334C61.6466 28.3557 61.5225 28.0329 61.4655 27.6901C61.4086 27.3472 61.4204 26.9937 61.5 26.6571C61.5796 26.3204 61.7248 26.0098 61.9244 25.7494C62.124 25.4891 62.3725 25.286 62.6505 25.1562C62.9285 25.0263 63.2284 24.9731 63.527 25.0008C63.8255 25.0284 64.1145 25.1362 64.3714 25.3156" stroke="#CB5D66" stroke-width="2" stroke-linecap="round" stroke-linejoin="round"/>
<path d="M77.7407 0.961971C75.6346 0.326209 73.4355 0.228946 71.2942 0.676849C69.1529 1.12475 67.1199 2.10723 65.3346 3.55695C63.5494 5.00666 62.054 6.88933 60.9511 9.07592C59.8482 11.2625 59.1637 13.7013 58.9447 16.2252" stroke="#FF677D" stroke-width="2" stroke-linecap="round" stroke-linejoin="round"/>
<path d="M88.9965 19.3892C89.8699 20.7413 90.5059 22.2811 90.8679 23.9204C91.1099 25.0016 90.8986 25.7608 89.3135 27.3109C88.9999 32.2516 85.949 39.442 78.2997 40.3165" stroke="#C9C9C9" stroke-width="2" stroke-linecap="round" stroke-linejoin="round"/>
</g>
<defs>
<clipPath id="clip0">
<rect width="200" height="270" fill="white"/>
</clipPath>
</defs>
</svg>
