<svg width="83" height="271" viewBox="0 0 83 271" fill="none" xmlns="http://www.w3.org/2000/svg">
<g clip-path="url(#clip0)">
<path fill-rule="evenodd" clip-rule="evenodd" d="M49.8772 247.516L46.6693 258.193L33.8452 258.662L32.988 242.608L49.8772 247.516Z" fill="#F77F89"/>
<path fill-rule="evenodd" clip-rule="evenodd" d="M33.2823 256.815V270.844L67.9583 271.637C67.9583 271.637 66.9724 261.612 49.2408 261.448C49.307 257.042 49.3143 256.815 49.3143 256.815H33.2823Z" fill="#FF677D"/>
<path fill-rule="evenodd" clip-rule="evenodd" d="M17.4674 249.535L17.7065 260.048L31.0972 260.521L34.5773 248.82L17.4674 249.535Z" fill="#F77F89"/>
<path fill-rule="evenodd" clip-rule="evenodd" d="M37.7189 0C52.2904 0 55.307 14.0137 55.3143 19.1603C55.3143 24.0649 54.3689 24.8134 54.402 29.7851C54.4241 33.5613 55.5056 36.2054 55.4063 38.3504C54.8324 49.5226 39.9114 52.7439 35.6514 52.8072C31.3914 52.8705 12.8431 49.2359 12.8431 40.5513C12.8431 34.4923 16.6506 24.8023 16.5476 18.0729C16.3196 4.09647 27.8635 0 37.7189 0Z" fill="black"/>
<path fill-rule="evenodd" clip-rule="evenodd" d="M17.3938 258.182L17.5925 272.222L51.632 273C51.632 273 51.6319 262.762 32.988 262.573V258.182H17.3938Z" fill="#FF677D"/>
<path fill-rule="evenodd" clip-rule="evenodd" d="M14.0536 152.873L14.1419 251.087L38.4658 250.551L38.8337 246.004L54.5199 248.145L64.4746 145.734L59.0999 119.509L23.5742 118.526L14.0536 152.873Z" fill="#3B4161"/>
<path fill-rule="evenodd" clip-rule="evenodd" d="M42.711 194.605L57.2973 219.418L54.5272 247.885L38.8152 246.023L42.711 194.605Z" fill="#15192C"/>
<path fill-rule="evenodd" clip-rule="evenodd" d="M32.4767 127.363H58.3163L61.8148 88.7185L57.1464 59.1047L48.3174 50.4984L39.4664 46.4988L23.4822 48.9716L32.4767 127.363Z" fill="#FDB797"/>
<path d="M22.3159 250.909L22.4851 146.438" stroke="#737999" stroke-width="1.7" stroke-linecap="round" stroke-linejoin="round"/>
<path fill-rule="evenodd" clip-rule="evenodd" d="M28.0364 46.0218C21.9959 46.1894 3.95897 52.8182 1.32498 59.5439C-0.676257 64.6458 -2.04843 110.809 2.65301 113.062C2.95482 113.21 3.27026 113.327 3.59477 113.412C3.31151 114.828 0.603948 147.596 1.29187 150.322C1.9798 153.048 3.78607 157.174 6.40166 157.025C16.5219 156.41 35.1143 142.963 36.961 140.769C37.2443 136.613 38.0279 121.002 38.0279 121.002L36.4166 74.6822L27.194 49.1575C27.194 49.1575 34.0769 45.8542 28.0364 46.0218Z" fill="white"/>
<path fill-rule="evenodd" clip-rule="evenodd" d="M41.1991 45.7314C51.5842 47.0386 66.244 55.1906 68.1313 58.9035C69.7205 62.0242 68.9148 102.427 68.9148 102.427C68.9148 102.427 63.0288 110.601 65.6812 122.358C68.1165 133.202 68.8376 147.842 66.2845 150.579C62.076 148.423 56.6646 139.779 55.6897 137.649C54.7148 135.519 54.461 123.468 53.7105 120.891C52.9601 118.313 49.6014 72.6899 49.6014 72.6899C49.6014 72.6899 48.0342 54.2596 41.1991 45.7314Z" fill="white"/>
<path d="M15.0541 49.6118C20.2816 59.2609 30.8727 70.258 36.332 74.455" stroke="#C9C9C9" stroke-width="2" stroke-linecap="round" stroke-linejoin="round"/>
<path d="M46.4559 46.8376C51.1095 53.1909 52.3088 63.987 48.6632 74.9506" stroke="#C9C9C9" stroke-width="2" stroke-linecap="round" stroke-linejoin="round"/>
<path d="M20.3368 76.5668C20.3368 75.7373 20.5798 74.9264 21.0351 74.2368C21.4905 73.5471 22.1376 73.0096 22.8947 72.6924C23.6519 72.3751 24.4849 72.2923 25.2885 72.4544C26.0922 72.6165 26.8302 73.0162 27.4094 73.603C27.9886 74.1899 28.3828 74.9374 28.5422 75.751C28.7016 76.5647 28.6191 77.408 28.305 78.1741C27.9909 78.9403 27.4594 79.5949 26.7777 80.0552C26.096 80.5156 25.2948 80.7609 24.4754 80.7601C23.3774 80.7591 22.3248 80.3169 21.5487 79.5306C20.7727 78.7443 20.3368 77.6783 20.3368 76.5668V76.5668Z" stroke="#353823" stroke-width="3.41" stroke-linecap="round" stroke-linejoin="round"/>
<path fill-rule="evenodd" clip-rule="evenodd" d="M22.3528 76.5669C22.3528 76.1434 22.4768 75.7294 22.7093 75.3772C22.9417 75.0251 23.2721 74.7506 23.6586 74.5885C24.0451 74.4265 24.4704 74.3841 24.8807 74.4667C25.291 74.5493 25.668 74.7533 25.9638 75.0527C26.2596 75.3522 26.4611 75.7337 26.5427 76.1491C26.6243 76.5645 26.5824 76.9951 26.4223 77.3863C26.2622 77.7776 25.9911 78.1121 25.6432 78.3473C25.2954 78.5826 24.8864 78.7082 24.4681 78.7082C23.9071 78.7082 23.369 78.4826 22.9723 78.081C22.5756 77.6795 22.3528 77.1348 22.3528 76.5669Z" fill="#353823"/>
<path d="M23.3571 72.526C20.5612 62.1322 20.381 47.6679 27.5987 45.061" stroke="#353823" stroke-width="3.41" stroke-linecap="round" stroke-linejoin="round"/>
<path d="M40.2021 43.2925C44.3187 45.0577 48.2403 53.1985 49.1599 60.1699" stroke="#353823" stroke-width="3.41" stroke-linecap="round" stroke-linejoin="round"/>
<path d="M44.716 73.2633C43.399 66.8207 45.3855 60.9739 49.1525 60.1695C52.9196 59.3651 57.0434 63.9606 58.3494 70.4033C59.6553 76.8459 57.6799 82.6927 53.9128 83.4933C50.1458 84.294 46.033 79.6948 44.716 73.2633Z" stroke="#353823" stroke-width="3.41" stroke-linecap="round" stroke-linejoin="round"/>
<path d="M19.0972 63.1301L17.5079 94.4532" stroke="#C9C9C9" stroke-width="2" stroke-linecap="round" stroke-linejoin="round"/>
<path d="M14.6237 64.054L18.7549 69.8858" stroke="#C9C9C9" stroke-width="2" stroke-linecap="round" stroke-linejoin="round"/>
<path fill-rule="evenodd" clip-rule="evenodd" d="M28.4301 91.9622L12.5453 95.8091L28.4301 91.9622Z" fill="#606060"/>
<path d="M28.4301 91.9622L12.5453 95.8091" stroke="#C9C9C9" stroke-width="2" stroke-linecap="round" stroke-linejoin="round"/>
<path d="M13.3472 91.5078L17.3938 94.636" stroke="#C9C9C9" stroke-width="2" stroke-linecap="round" stroke-linejoin="round"/>
<path d="M29.0334 110.102C22.3528 112.824 6.48264 116.079 3.48445 113.383C-0.525387 109.774 -1.6658 72.53 0.346477 62.65C1.52 56.9001 7.44647 53.1984 10.5366 51.7087" stroke="#C9C9C9" stroke-width="2" stroke-linecap="round" stroke-linejoin="round"/>
<path d="M24.2584 111.696C22.3528 109.249 21.6244 97.0489 22.5441 93.3882" stroke="#C9C9C9" stroke-width="2" stroke-linecap="round" stroke-linejoin="round"/>
<path fill-rule="evenodd" clip-rule="evenodd" d="M24.468 95.7718C24.4673 95.5772 24.5236 95.3867 24.6299 95.2246C24.7362 95.0624 24.8876 94.9358 25.065 94.8608C25.2424 94.7858 25.4378 94.7658 25.6264 94.8034C25.815 94.8409 25.9884 94.9342 26.1246 95.0715C26.2608 95.2089 26.3537 95.3841 26.3915 95.5749C26.4292 95.7657 26.4102 95.9636 26.3368 96.1434C26.2634 96.3233 26.1389 96.477 25.9792 96.5852C25.8194 96.6934 25.6314 96.7512 25.4392 96.7512C25.3118 96.7517 25.1856 96.7267 25.0678 96.6777C24.95 96.6287 24.8429 96.5566 24.7527 96.4656C24.6625 96.3747 24.5909 96.2665 24.542 96.1474C24.4932 96.0284 24.468 95.9007 24.468 95.7718Z" fill="#C9C9C9"/>
<path d="M22.6986 125.676C20.5862 126.502 18.3412 126.925 16.0768 126.924C14.3967 126.907 12.7268 126.657 11.1142 126.179C10.993 126.651 10.9276 127.136 10.9192 127.624V135.404C10.9192 137.033 11.5587 138.596 12.697 139.748C13.8354 140.901 15.3793 141.548 16.9891 141.548C18.599 141.548 20.1429 140.901 21.2812 139.748C22.4196 138.596 23.0591 137.033 23.0591 135.404V127.617C23.0436 126.954 22.9219 126.299 22.6986 125.676Z" stroke="#C9C9C9" stroke-width="2" stroke-linecap="round" stroke-linejoin="round"/>
<path fill-rule="evenodd" clip-rule="evenodd" d="M46.1022 71H77.8241C79.7481 71 80.8959 72.5231 80.3992 74.4001L68.1527 120.005C67.8539 120.964 67.2691 121.806 66.4786 122.414C65.6881 123.023 64.7308 123.369 63.7382 123.405H32.0347C30.1144 123.405 28.9629 121.882 29.4596 120.005L41.7024 74.4001C41.9999 73.4432 42.5824 72.6028 43.37 71.9942C44.1577 71.3855 45.112 71.0382 46.1022 71Z" fill="#FF677D"/>
<path fill-rule="evenodd" clip-rule="evenodd" d="M54.998 68.6047H73.0018C73.2017 68.5879 73.4025 68.6225 73.5856 68.7054C73.7687 68.7883 73.9281 68.9168 74.049 69.0789C74.1698 69.241 74.2481 69.4314 74.2766 69.6324C74.3051 69.8334 74.2829 70.0385 74.2121 70.2284L73.3365 73.3269C73.1882 73.7849 72.9049 74.1859 72.5248 74.4762C72.1447 74.7664 71.686 74.932 71.2102 74.9506H53.2064C53.0068 74.9664 52.8064 74.9311 52.6239 74.8479C52.4413 74.7647 52.2824 74.6362 52.1617 74.4744C52.0411 74.3126 51.9627 74.1227 51.9338 73.9221C51.9048 73.7215 51.9263 73.5168 51.9961 73.3269L52.8716 70.2284C53.0209 69.771 53.3044 69.3705 53.6843 69.0804C54.0642 68.7903 54.5225 68.6244 54.998 68.6047Z" fill="#3B4161"/>
<path fill-rule="evenodd" clip-rule="evenodd" d="M28.3381 94.1964C29.7406 93.3753 31.2301 92.717 32.7783 92.2338C35.0113 90.3718 36.6521 83.0167 37.2443 82.5512C37.8366 82.0857 39.8195 82.3874 39.8783 83.0838C40.1358 85.6348 39.9997 88.614 37.7667 91.2767C44.2634 87.0946 44.7564 85.24 46.5442 86.6403C48.3321 88.0405 48.9759 94.8704 47.4418 97.6933C43.2186 105.484 32.1088 106.538 28.7096 106.59C27.8635 102.885 27.8635 98.4046 28.3381 94.1964Z" fill="#F77F89"/>
<path d="M14.1382 243.423L39.2567 242.608" stroke="#737999" stroke-width="1.7" stroke-linecap="round" stroke-linejoin="round"/>
<path d="M46.5185 143.991L38.8446 246.008" stroke="#737999" stroke-width="1.7" stroke-linecap="round" stroke-linejoin="round"/>
<path d="M39.4663 237.811L55.3291 239.696" stroke="#737999" stroke-width="1.7" stroke-linecap="round" stroke-linejoin="round"/>
<path d="M59.5486 196.415C58.5778 196.513 57.5974 196.393 56.6782 196.061C55.759 195.73 54.9238 195.196 54.2329 194.499C53.542 193.802 53.0125 192.958 52.6826 192.028C52.3528 191.098 52.2308 190.106 52.3254 189.123C52.42 188.14 52.7289 187.191 53.2298 186.343C53.7307 185.495 54.4111 184.771 55.222 184.221C56.033 183.672 56.9542 183.312 57.9193 183.166C58.8843 183.021 59.8693 183.094 60.8031 183.38" stroke="#737999" stroke-width="1.7" stroke-linecap="round" stroke-linejoin="round"/>
<path d="M42.2805 200.984C40.3873 200.878 38.6094 200.029 37.3251 198.616C36.0409 197.204 35.3515 195.341 35.4038 193.422C35.456 191.503 36.2457 189.681 37.6048 188.342C38.964 187.004 40.7854 186.255 42.6815 186.255C42.9268 186.255 43.1585 186.266 43.3768 186.288" stroke="#737999" stroke-width="1.7" stroke-linecap="round" stroke-linejoin="round"/>
<path d="M47.6883 88.666L42.0046 93.2727" stroke="#A7464F" stroke-width="3.41" stroke-linecap="round" stroke-linejoin="round"/>
<path d="M48.2954 93.4331L41.0776 99.2426" stroke="#A7464F" stroke-width="3.41" stroke-linecap="round" stroke-linejoin="round"/>
<path fill-rule="evenodd" clip-rule="evenodd" d="M79.9915 93.2135C79.9032 91.6792 80.3593 88.2716 81.7057 85.0205C82.1987 83.8437 82.2281 81.9072 80.4954 81.9072C78.5236 81.9072 75.886 85.9143 77.1846 90.6848C78.4832 95.4553 80.1202 95.3809 79.9915 93.2135Z" fill="#F77F89"/>
<path fill-rule="evenodd" clip-rule="evenodd" d="M73.8847 84.1973C75.4518 84.1973 80.2158 93.7383 80.1827 94.8965C80.1496 96.0547 79.653 97.8162 78.9136 97.7268C78.1741 97.6374 71.9865 89.6642 71.9865 86.9568C71.9865 85.389 72.7406 84.1973 73.8847 84.1973Z" fill="#F77F89"/>
<path fill-rule="evenodd" clip-rule="evenodd" d="M71.8394 89.6792C73.7928 89.6792 78.9431 97.2838 78.9799 98.1552C79.0167 99.0266 77.9756 99.8273 77.1148 99.8645C76.2539 99.9018 70.0994 94.7923 70.0994 92.4164C70.0883 90.964 70.7358 89.6792 71.8394 89.6792Z" fill="#F77F89"/>
<path fill-rule="evenodd" clip-rule="evenodd" d="M73.6419 103.901C74.488 103.86 76.8424 101.73 76.8424 100.054C76.8424 99.3951 75.198 97.6895 74.374 97.7416C73.5499 97.7938 71.8687 101 71.9018 101.816C71.935 102.631 72.5346 103.942 73.6419 103.901Z" fill="#F77F89"/>
<path d="M76.8424 87.7239C78.5309 90.5691 80.2011 94.2112 80.1827 94.8964" stroke="#A7464F" stroke-width="3.41" stroke-linecap="round" stroke-linejoin="round"/>
<path d="M73.0203 90.2378C75.3452 92.0104 78.9394 97.429 78.9688 98.1552" stroke="#A94B53" stroke-width="3.41" stroke-linecap="round" stroke-linejoin="round"/>
<path fill-rule="evenodd" clip-rule="evenodd" d="M22.1982 21.782C22.1982 13.2576 28.934 6.33081 37.2591 6.33081C45.5841 6.33081 52.3052 13.2427 52.3052 21.7671C52.3052 30.2914 45.5547 37.2182 37.2591 37.2182C28.9635 37.2182 22.1982 30.3101 22.1982 21.782Z" fill="#F77F89"/>
<path fill-rule="evenodd" clip-rule="evenodd" d="M35.0298 22.8954C35.1917 21.9122 35.7656 21.186 36.3395 21.2828C36.9134 21.3797 37.2297 22.2511 37.0752 23.2342C36.9207 24.2174 36.3395 24.9436 35.7656 24.8505C35.1917 24.7574 34.8716 23.8822 35.0298 22.8954Z" fill="#B5545C"/>
<path fill-rule="evenodd" clip-rule="evenodd" d="M46.3641 23.6331C46.5149 22.7133 47.0594 22.0355 47.5854 22.1249C48.1115 22.2142 48.4168 23.0298 48.2697 23.9497C48.1225 24.8695 47.5707 25.5436 47.0447 25.4393C46.5186 25.335 46.2133 24.553 46.3641 23.6331Z" fill="#B5545C"/>
<path fill-rule="evenodd" clip-rule="evenodd" d="M24.4975 28.5784C25.3914 31.0959 27.6391 44.1785 27.0726 48.9304C29.427 52.5428 39.9188 51.5373 43.0458 48.4798C41.4896 44.0817 41.4308 40.9274 42.001 37.2183C42.5418 33.7474 23.6035 26.0684 24.4975 28.5784Z" fill="#F77F89"/>
<path fill-rule="evenodd" clip-rule="evenodd" d="M43.215 5.95834C43.3437 9.62655 40.0365 13.1309 31.0457 14.87C32.0316 17.4434 32.1125 21.3127 27.2014 22.0091C21.4736 22.8135 21.0063 15.4063 21.0063 15.4063L29.5852 5.1465C29.5852 5.1465 43.0899 2.28269 43.215 5.95834Z" fill="black"/>
<path fill-rule="evenodd" clip-rule="evenodd" d="M40.5147 3.37792C40.1468 6.63647 43.8514 14.5501 52.4302 14.7661C58.5296 14.7661 40.8716 0.115639 40.5147 3.37792Z" fill="black"/>
<path fill-rule="evenodd" clip-rule="evenodd" d="M30.5636 36.6708C29.7396 35.6169 30.9315 30.8129 32.2301 28.612C33.7973 27.6772 39.3559 28.4555 42.2216 25.9604C43.064 25.2156 43.5165 25.7668 44.1714 26.5823C45.3228 28.0124 48.7845 28.7535 50.0794 29.5616C50.2707 31.6471 48.3799 36.4213 47.5632 37.4901C46.283 39.1846 34.5808 39.3373 30.5636 36.6708Z" fill="white"/>
<path d="M32.988 29.0478C32.2302 27.7667 28.9193 22.0354 27.8635 20.583" stroke="white" stroke-width="3.41" stroke-linecap="round" stroke-linejoin="round"/>
<path d="M31.215 36.3654C28.9746 36.3654 23.6478 29.271 23.0408 26.8914" stroke="white" stroke-width="3.41" stroke-linecap="round" stroke-linejoin="round"/>
<path fill-rule="evenodd" clip-rule="evenodd" d="M19.6232 23.0479C19.6232 22.0661 19.9108 21.1063 20.4496 20.29C20.9884 19.4736 21.7543 18.8373 22.6504 18.4616C23.5464 18.0859 24.5324 17.9876 25.4836 18.1791C26.4349 18.3707 27.3086 18.8435 27.9944 19.5377C28.6802 20.232 29.1473 21.1165 29.3365 22.0795C29.5257 23.0424 29.4286 24.0405 29.0574 24.9476C28.6863 25.8547 28.0578 26.63 27.2513 27.1755C26.4449 27.7209 25.4968 28.0121 24.5269 28.0121C23.2264 28.0121 21.9791 27.4891 21.0595 26.5581C20.1398 25.6272 19.6232 24.3645 19.6232 23.0479Z" fill="#F77F89"/>
<path d="M50.6093 269.68L17.552 269.451" stroke="white" stroke-width="1.7" stroke-linecap="round" stroke-linejoin="round"/>
<path d="M51.3156 271.324C50.4069 268.415 46.8533 262.718 32.988 262.58V261.168" stroke="white" stroke-width="1.7" stroke-linecap="round" stroke-linejoin="round"/>
<path d="M17.552 265.593C18.3733 265.593 19.1865 265.757 19.9453 266.075C20.704 266.393 21.3934 266.859 21.9742 267.447C22.5549 268.035 23.0155 268.733 23.3298 269.501C23.6441 270.269 23.8059 271.092 23.8059 271.924C23.8059 272.091 23.8059 272.255 23.8059 272.419" stroke="white" stroke-width="1.7" stroke-linecap="round" stroke-linejoin="round"/>
<path d="M36.652 265.794L38.2743 262.948" stroke="white" stroke-width="1.7" stroke-linecap="round" stroke-linejoin="round"/>
<path d="M40.4706 266.464L41.8538 263.671" stroke="white" stroke-width="1.7" stroke-linecap="round" stroke-linejoin="round"/>
<path d="M44.0831 267.198L45.2861 264.938" stroke="white" stroke-width="1.7" stroke-linecap="round" stroke-linejoin="round"/>
<path d="M37.5129 130.953L54.6927 130.409" stroke="#737999" stroke-width="1.7" stroke-linecap="round" stroke-linejoin="round"/>
<path d="M17.4196 259.986L32.988 259.731" stroke="white" stroke-width="1.7" stroke-linecap="round" stroke-linejoin="round"/>
<path d="M33.2822 258.449L49.2922 258.32" stroke="white" stroke-width="1.7" stroke-linecap="round" stroke-linejoin="round"/>
<path d="M67.1268 269.183L50.05 268.81" stroke="white" stroke-width="1.7" stroke-linecap="round" stroke-linejoin="round"/>
<path d="M54.4277 261.824L52.9562 264.472" stroke="white" stroke-width="1.7" stroke-linecap="round" stroke-linejoin="round"/>
<path d="M56.8815 262.416L55.41 265.068" stroke="white" stroke-width="1.7" stroke-linecap="round" stroke-linejoin="round"/>
<path d="M59.5008 263.146L58.0293 265.798" stroke="white" stroke-width="1.7" stroke-linecap="round" stroke-linejoin="round"/>
<path d="M10.9523 156.113C5.43419 158.451 1.29191 154.284 1.2588 150.154C1.22569 146.024 2.84067 121.382 3.06139 118.924" stroke="#C9C9C9" stroke-width="2" stroke-linecap="round" stroke-linejoin="round"/>
<path d="M68.8302 64.7986C69.1171 56.3673 60.3469 52.5092 56.738 50.8557" stroke="#C9C9C9" stroke-width="2" stroke-linecap="round" stroke-linejoin="round"/>
<path d="M67.1158 148.962C67.8037 144.467 67.8515 132.304 66.6891 127.664" stroke="#C9C9C9" stroke-width="2" stroke-linecap="round" stroke-linejoin="round"/>
</g>
<defs>
<clipPath id="clip0">
<rect width="83" height="271" fill="white"/>
</clipPath>
</defs>
</svg>
