<svg width="63" height="60" viewBox="0 0 63 60" fill="none" xmlns="http://www.w3.org/2000/svg">
<path d="M31.0538 46.811C40.5369 46.811 48.2244 39.3522 48.2244 30.1513C48.2244 20.9503 40.5369 13.4915 31.0538 13.4915C21.5707 13.4915 13.8832 20.9503 13.8832 30.1513C13.8832 39.3522 21.5707 46.811 31.0538 46.811Z" fill="#EF5261"/>
<path d="M9.74634 7.95935C9.00892 7.96002 8.28786 7.74843 7.67443 7.35134C7.061 6.95426 6.58276 6.38954 6.30024 5.72864C6.01772 5.06775 5.94362 4.3404 6.08731 3.63863C6.23101 2.93686 6.58604 2.29222 7.10748 1.7863C7.62892 1.28038 8.29332 0.935911 9.01661 0.796492C9.7399 0.657072 10.4896 0.728968 11.1707 1.00308C11.8519 1.27719 12.4339 1.7412 12.8432 2.33638C13.2524 2.93157 13.4705 3.63117 13.4698 4.34665C13.4685 5.30441 13.0758 6.22259 12.3778 6.89983C11.6798 7.57707 10.7335 7.95809 9.74634 7.95935Z" fill="#EF5261"/>
<path d="M62.9995 27.8461C63.0182 29.1932 62.4849 30.4924 61.5169 31.4583C60.5489 32.4242 59.2253 32.9778 57.8369 32.9974C57.1047 32.9966 56.3813 32.8417 55.7167 32.5433C55.0522 32.2449 54.4623 31.8101 53.9877 31.269C53.6949 30.9261 53.3292 30.6487 52.9157 30.4556C52.5021 30.2626 52.0504 30.1586 51.5916 30.1506C51.2144 30.1509 50.8404 30.2175 50.4878 30.3472L44.9619 32.4145L46.3451 36.522C46.6579 37.4485 47.2829 38.2459 48.1196 38.7858C48.8115 39.2471 49.6275 39.5016 50.4668 39.5179C50.5646 39.5179 50.6624 39.5111 50.7602 39.5043C50.858 39.4975 50.9768 39.4975 51.0816 39.4975C51.6942 39.508 52.2926 39.6786 52.8137 39.9913C53.3348 40.3041 53.7593 40.7474 54.0425 41.2746C54.3256 41.8018 54.457 42.3934 54.4227 42.987C54.3884 43.5806 54.1897 44.1542 53.8476 44.6474C53.5055 45.1406 53.0326 45.5351 52.4787 45.7894C51.9249 46.0437 51.3106 46.1483 50.7006 46.0923C50.0905 46.0362 49.5074 45.8215 49.0126 45.4709C48.5178 45.1202 48.1296 44.6466 47.889 44.0998C47.6103 43.4543 47.1768 42.8827 46.6246 42.4324L42.9849 39.4975L38.968 43.1509L38.2136 46.3366C37.942 47.4633 38.0099 48.642 38.4092 49.7324L38.507 50.0103C38.8538 51.0416 39.4988 51.9545 40.3652 52.6402C40.9949 53.1053 41.4773 53.7327 41.7573 54.4509C42.0374 55.169 42.1039 55.9491 41.9493 56.7022C41.7946 57.4552 41.4251 58.151 40.8827 58.7102C40.3404 59.2694 39.647 59.6695 38.8817 59.865C38.1163 60.0604 37.3098 60.0434 36.554 59.8157C35.7981 59.5881 35.1234 59.159 34.6067 58.5774C34.09 57.9959 33.752 57.2851 33.6313 56.5262C33.5107 55.7673 33.6122 54.9908 33.9242 54.2852C34.5694 52.9173 34.698 51.3728 34.2875 49.9222L34.1338 49.4206L32.5061 45.5232H27.1339L24.7447 48.126C24.4482 48.4531 24.1883 48.8098 23.9693 49.1901L23.9497 49.2247C23.1888 50.7379 22.7606 52.388 22.6923 54.0703V54.0907C22.692 54.5873 22.5765 55.0776 22.3544 55.5251C22.1324 55.9727 21.8094 56.366 21.4094 56.676C21.0095 56.986 20.5428 57.2048 20.0439 57.3161C19.545 57.4274 19.0266 57.4284 18.5273 57.319C17.8829 57.1397 17.3006 56.7944 16.8421 56.32C16.3836 55.8455 16.066 55.2595 15.9229 54.6241C15.8164 53.9967 15.8991 53.3528 16.1609 52.7699C16.4228 52.1871 16.8528 51.6901 17.3991 51.3388C18.3532 50.7678 19.136 49.9637 19.6695 49.0071L20.1585 48.0921C20.5437 47.3714 20.7648 46.5787 20.8068 45.7679L20.9758 42.507L17.0148 38.0064L12.7946 38.1019C12.2096 38.115 11.6331 38.2416 11.0992 38.4741C10.1797 38.8571 9.43198 39.5469 8.99152 40.4187C8.58349 41.2431 7.93082 41.9304 7.11729 42.3924C6.30376 42.8543 5.3665 43.0699 4.42582 43.0113C3.48514 42.9527 2.58397 42.6227 1.838 42.0636C1.09203 41.5045 0.535288 40.7418 0.239254 39.8735C-0.0567795 39.0052 -0.0786003 38.0709 0.176594 37.1905C0.431789 36.3101 0.952353 35.5238 1.67146 34.9325C2.39057 34.3412 3.2754 33.9719 4.21238 33.872C5.14936 33.7721 6.09572 33.9463 6.92998 34.372C7.83917 34.8399 8.88966 34.9806 9.8955 34.7692L10.1631 34.7129C10.8058 34.5782 11.4091 34.3051 11.9284 33.9138L14.5132 31.9664L16.2115 24.1114L15.0937 21.5039C14.9071 21.0665 14.6096 20.6821 14.2289 20.3862C13.6322 19.9389 12.8843 19.7251 12.1331 19.787C11.7083 19.8117 11.2824 19.7623 10.8756 19.6413C10.0674 19.3931 9.38689 18.8555 8.97266 18.1379C8.73017 17.732 8.57967 17.2806 8.5312 16.8137C8.48273 16.3469 8.5374 15.8755 8.69157 15.4308C8.84573 14.9861 9.09585 14.5784 9.42524 14.2349C9.75463 13.8914 10.1557 13.62 10.6018 13.4388C11.0478 13.2576 11.5285 13.1707 12.0119 13.184C12.4953 13.1973 12.9702 13.3105 13.4049 13.5159C13.8396 13.7213 14.2242 14.0144 14.533 14.3754C14.8418 14.7364 15.0677 15.1572 15.1957 15.6097C15.3755 16.1764 15.7472 16.6677 16.2506 17.0039L16.727 17.3428C17.116 17.6313 17.5716 17.8235 18.0543 17.9027L20.5776 18.2972L24.5317 15.4165L24.9173 12.2986C24.9716 11.8598 24.934 11.4149 24.8069 10.9904L24.5708 10.2008C24.3248 9.42029 23.7977 8.7517 23.0856 8.31718C22.4313 7.918 21.8908 7.36581 21.5137 6.71128C21.1365 6.05674 20.9348 5.3208 20.9269 4.57096C21.0197 3.32913 21.5935 2.16741 22.5331 1.3194C23.4728 0.471399 24.7084 0 25.9917 0C27.275 0 28.5107 0.471399 29.4503 1.3194C30.3899 2.16741 30.9638 3.32913 31.0565 4.57096C31.0539 5.68075 30.6143 6.74763 29.8277 7.5533C29.4761 7.91227 29.2114 8.34285 29.0531 8.81365C28.8948 9.28444 28.8468 9.78359 28.9125 10.2747C28.9813 10.7604 29.1613 11.2249 29.4393 11.6344L31.5113 14.6845L38.7061 16.4861L40.2842 15.8232C41.6844 15.2355 42.9627 14.4054 44.0566 13.3736C44.2964 13.1474 44.4869 12.8768 44.6169 12.5778C44.7468 12.2788 44.8136 11.9575 44.8131 11.633C44.8121 11.007 44.9941 10.3935 45.3382 9.86389C45.6822 9.33427 46.1741 8.91026 46.7567 8.64114C47.3393 8.37201 47.9886 8.26882 48.6292 8.34355C49.2698 8.41828 49.8754 8.66787 50.3756 9.06331C50.8759 9.45875 51.2501 9.9838 51.455 10.5774C51.6598 11.1711 51.6869 11.809 51.5329 12.4169C51.3789 13.0248 51.0503 13.5779 50.5852 14.0118C50.1201 14.4458 49.5376 14.7427 48.9055 14.8682C48.4312 14.953 47.9948 15.176 47.6543 15.5073C46.3065 16.8604 45.298 18.4964 44.7069 20.2886L44.264 21.6313L44.8159 24.512L48.4416 26.3149C48.9831 26.5871 49.5969 26.6934 50.2021 26.6199L51.2569 26.5047C51.7201 26.4423 52.1628 26.2795 52.5522 26.0284C52.9416 25.7773 53.2678 25.4443 53.5064 25.0542C53.963 24.3375 54.6002 23.7454 55.358 23.3339C56.1158 22.9224 56.9692 22.705 57.8376 22.7022C59.2249 22.721 60.5478 23.2733 61.5157 24.2377C62.4836 25.2022 63.0173 26.5 62.9995 27.8461Z" fill="#FF677D"/>
<path d="M8.76853 52.8062C10.1351 52.8062 11.2429 51.7313 11.2429 50.4054C11.2429 49.0795 10.1351 48.0046 8.76853 48.0046C7.40196 48.0046 6.29413 49.0795 6.29413 50.4054C6.29413 51.7313 7.40196 52.8062 8.76853 52.8062Z" fill="#EF5261"/>
<path d="M40.2785 6.74535C41.6451 6.74535 42.7529 5.67049 42.7529 4.34457C42.7529 3.01865 41.6451 1.94379 40.2785 1.94379C38.9119 1.94379 37.8041 3.01865 37.8041 4.34457C37.8041 5.67049 38.9119 6.74535 40.2785 6.74535Z" fill="#EF5261"/>
<path d="M52.4592 57.6641C54.4165 57.6641 56.0032 56.1246 56.0032 54.2256C56.0032 52.3266 54.4165 50.7871 52.4592 50.7871C50.502 50.7871 48.9153 52.3266 48.9153 54.2256C48.9153 56.1246 50.502 57.6641 52.4592 57.6641Z" fill="#EF5261"/>
<path d="M22.1252 28.2416C23.9892 28.2416 25.5002 26.8367 25.5002 25.1037C25.5002 23.3706 23.9892 21.9657 22.1252 21.9657C20.2613 21.9657 18.7502 23.3706 18.7502 25.1037C18.7502 26.8367 20.2613 28.2416 22.1252 28.2416Z" fill="#DA364C"/>
<path d="M38.6254 31.3796C40.0751 31.3796 41.2504 30.1503 41.2504 28.6338C41.2504 27.1174 40.0751 25.8881 38.6254 25.8881C37.1756 25.8881 36.0004 27.1174 36.0004 28.6338C36.0004 30.1503 37.1756 31.3796 38.6254 31.3796Z" fill="#DA364C"/>
<path d="M32.6249 41.5779C33.6605 41.5779 34.4999 40.6998 34.4999 39.6167C34.4999 38.5335 33.6605 37.6555 32.6249 37.6555C31.5894 37.6555 30.7499 38.5335 30.7499 39.6167C30.7499 40.6998 31.5894 41.5779 32.6249 41.5779Z" fill="#DA364C"/>
<path d="M31.1248 23.5346C32.1604 23.5346 32.9998 22.6566 32.9998 21.5734C32.9998 20.4903 32.1604 19.6122 31.1248 19.6122C30.0893 19.6122 29.2498 20.4903 29.2498 21.5734C29.2498 22.6566 30.0893 23.5346 31.1248 23.5346Z" fill="#DA364C"/>
<path d="M25.5001 35.302C26.7428 35.302 27.7501 34.424 27.7501 33.3408C27.7501 32.2577 26.7428 31.3796 25.5001 31.3796C24.2575 31.3796 23.2501 32.2577 23.2501 33.3408C23.2501 34.424 24.2575 35.302 25.5001 35.302Z" fill="#DA364C"/>
</svg>
