<svg width="406" height="289" viewBox="0 0 406 289" fill="none" xmlns="http://www.w3.org/2000/svg">
<g clip-path="url(#clip0)">
<path opacity="0.1" d="M134.978 288.838C154.75 288.838 170.778 286.251 170.778 283.059C170.778 279.868 154.75 277.281 134.978 277.281C115.206 277.281 99.178 279.868 99.178 283.059C99.178 286.251 115.206 288.838 134.978 288.838Z" fill="#FF677D"/>
<path opacity="0.1" d="M329.583 289C354.255 289 374.256 286.413 374.256 283.222C374.256 280.031 354.255 277.444 329.583 277.444C304.911 277.444 284.91 280.031 284.91 283.222C284.91 286.413 304.911 289 329.583 289Z" fill="#FF677D"/>
<path opacity="0.1" d="M5.08492 124.869H42.3731V175.942H7.81475C7.7229 176.467 7.63473 176.995 7.5392 177.523H42.3731V218.712C42.3106 218.694 42.2555 218.672 42.1967 218.65C41.2121 218.258 40.2348 217.845 39.2575 217.402L38.6329 217.117C37.6531 216.652 36.6734 216.16 35.6936 215.64C35.3519 215.46 35.0103 215.271 34.6722 215.079C29.2331 212.017 24.2919 208.138 20.02 203.575C19.8951 203.453 19.7775 203.323 19.6526 203.205C19.0574 202.555 18.4732 201.898 17.9074 201.226L17.2828 200.488C16.6142 199.665 15.9675 198.819 15.3393 197.962C15.2474 197.837 15.1592 197.711 15.0637 197.593C12.5086 194.033 10.387 190.178 8.7443 186.111C8.69286 185.989 8.64877 185.856 8.60101 185.741C8.09643 184.437 7.64942 183.12 7.25997 181.791C7.09096 181.233 6.9293 180.683 6.78969 180.103C6.73825 179.934 6.69416 179.767 6.65375 179.601C4.56687 171.416 4.32071 162.913 4.32071 154.469C4.32071 153.483 4.32071 152.494 4.32071 151.515C4.32071 148.1 4.36112 144.662 4.41991 141.229C4.41991 140.339 4.45665 139.453 4.47502 138.559C4.52646 136.292 4.59994 134.025 4.69546 131.758C4.71751 131.127 4.7469 130.499 4.77997 129.872C4.77997 129.51 4.79834 129.148 4.83508 128.786C4.92326 127.472 4.99674 126.168 5.08492 124.869Z" fill="#FF677D"/>
<path opacity="0.1" d="M42.3731 68.0022H21.9195C25.2444 62.7725 28.8771 57.7472 32.7985 52.953C35.8369 49.2017 39.0444 45.5465 42.3731 42.0242V68.0022Z" fill="#FF677D"/>
<path opacity="0.1" d="M42.3731 69.5824V123.289H5.20248C5.20248 123.133 5.2282 122.975 5.23922 122.82C5.27229 122.395 5.30536 121.97 5.3421 121.55C5.38251 121.055 5.4266 120.556 5.47436 120.073C5.52213 119.589 5.57357 118.998 5.62868 118.463C5.68379 117.928 5.73522 117.385 5.79768 116.849C5.86014 116.314 5.91525 115.779 5.98139 115.247C6.04752 114.715 6.10631 114.176 6.17611 113.645C6.23123 113.202 6.29001 112.762 6.34879 112.319C6.4333 111.695 6.52148 111.067 6.617 110.447C6.617 110.355 6.64272 110.259 6.65742 110.17C7.32801 105.63 8.24173 101.128 9.3946 96.6865C10.6014 92.027 12.1424 87.4614 14.0056 83.0255C15.9858 78.3851 18.3043 73.898 20.9422 69.6009L42.3731 69.5824Z" fill="#FF677D"/>
<path opacity="0.1" d="M51.2754 124.865V175.942H130.918V124.865H51.2754ZM51.2754 177.519V221.382C51.731 221.478 52.1829 221.57 52.6311 221.648C53.241 221.766 53.8472 221.873 54.4682 221.965C54.5857 221.984 54.707 222.002 54.8356 222.013C55.0781 222.054 55.3279 222.087 55.5704 222.12C56.184 222.205 56.7939 222.275 57.4074 222.331C57.6977 222.36 57.9916 222.386 58.2855 222.408L58.9946 222.464C59.3804 222.493 59.7625 222.515 60.1409 222.526C60.3761 222.526 60.6112 222.549 60.8537 222.556C61.0374 222.556 61.2211 222.556 61.4122 222.556C61.6032 222.556 61.8751 222.556 62.1066 222.556C62.4225 222.556 62.7385 222.556 63.0508 222.556H63.4733C63.7893 222.556 64.1053 222.556 64.4176 222.526H64.4396C64.6564 222.526 64.8768 222.526 65.0973 222.497C65.1584 222.501 65.2198 222.501 65.281 222.497C65.4647 222.497 65.6484 222.497 65.8247 222.471H65.9533L67.1841 222.375C67.5883 222.338 67.9961 222.29 68.4076 222.246L69.2453 222.146C72.6533 221.666 76.0234 220.946 79.3306 219.99C86.7596 217.908 94.0269 214.994 101.452 212.86C111.053 210.11 121.66 208.758 130.937 212.122V177.519H51.2754ZM130.918 68.0022V0.00371876C122.199 -0.0912154 113.503 0.933655 105.042 3.05344C84.8748 8.14493 66.78 19.1882 51.2754 33.2922V67.9985H55.2728V69.5751H51.2754V123.289H130.918V69.5788H71.6849V68.0022H130.918ZM233.216 45.0333C228.226 44.8561 223.266 43.2684 218.78 40.8168C210.201 36.1278 203.349 28.8875 195.692 22.777C179.784 10.0501 160.054 2.37039 139.813 0.465239V68.0022H253.507L253.79 67.7031L233.216 45.0333ZM243.573 43.1872L254.555 55.2975V40.0119C250.877 40.4698 247.655 41.559 243.587 43.1724L243.573 43.1872ZM254.555 232.274V177.519H231.154C231.092 177.286 231.03 177.05 230.956 176.814C231.026 177.05 231.085 177.286 231.151 177.519H139.828V217.117C140.695 217.764 141.551 218.443 142.4 219.133C143.315 219.872 144.218 220.651 145.126 221.415L146.041 222.176C146.478 222.545 146.919 222.914 147.363 223.261C148.245 223.98 149.136 224.689 150.035 225.388C150.479 225.757 150.935 226.089 151.387 226.436C158.561 231.949 166.129 236.923 174.03 241.319C175.801 242.304 177.588 243.265 179.39 244.203C180.592 244.82 181.801 245.433 183.013 246.027C184.835 246.921 186.672 247.782 188.524 248.612C205.596 256.313 223.649 261.597 242.166 264.314C246.278 264.925 250.407 265.405 254.551 265.754V232.27H254.918L254.555 232.274ZM139.828 69.5788V123.289H254.569V69.5788H139.828ZM139.828 124.865V175.942H254.569V124.865H139.828ZM263.475 39.9455V56.9959L277.492 41.5405C272.848 40.7873 268.176 40.2495 263.475 39.927V39.9455ZM263.475 124.884V175.942H375.075V124.865L263.475 124.884ZM374.667 236.328L375.061 177.519H263.475V266.341C270.664 266.645 277.863 266.558 285.042 266.083H285.167C288.596 265.866 292.009 265.551 295.407 265.138H295.484C313.608 263.018 331.331 258.266 348.097 251.03L374.667 236.328ZM396.594 133.276C396.176 132.283 395.738 131.297 395.294 130.322C394.463 128.476 393.585 126.682 392.681 124.887H383.974V175.942H405.989C405.978 161.484 402.337 146.715 396.605 133.257L396.594 133.276ZM383.974 177.537V228.12C390.176 222.146 395.415 215.312 399.188 207.499C403.726 198.092 405.802 187.905 405.971 177.53L383.974 177.537ZM383.974 110V123.292H391.866C389.478 118.717 386.848 114.273 383.985 109.982L383.974 110ZM308.288 49.966C307.707 49.7445 307.127 49.5193 306.543 49.3014C300.382 47.015 294.086 45.1136 287.691 43.6081L266.242 67.2638L265.83 67.7031L266.106 68.0059H342.446C331.814 60.6513 320.352 54.5895 308.299 49.9475L308.288 49.966ZM344.683 69.5972H265.04L263.475 71.0372V123.289H277.194H277.216H375.09V97.9788C366.236 87.2183 356.017 77.6703 344.694 69.5788L344.683 69.5972Z" fill="#FF677D"/>
<path opacity="0.1" d="M42.3731 96.6718V123.289H5.20248C5.20248 123.133 5.2282 122.975 5.23922 122.82C5.27229 122.395 5.30536 121.97 5.3421 121.55C5.38251 121.055 5.4266 120.556 5.47436 120.073C5.52213 119.589 5.57357 118.998 5.62868 118.463C5.68379 117.928 5.73522 117.385 5.79768 116.849C5.86014 116.314 5.91525 115.779 5.98139 115.247C6.04752 114.715 6.10631 114.176 6.17611 113.645C6.23123 113.202 6.29001 112.762 6.34879 112.319C6.4333 111.695 6.52148 111.067 6.617 110.447C6.617 110.355 6.64272 110.259 6.65742 110.17C7.32801 105.63 8.24173 101.128 9.3946 96.6865L42.3731 96.6718Z" fill="#FF677D"/>
<path opacity="0.1" d="M5.08492 124.869H42.3731V175.942H7.81475C7.7229 176.467 7.63473 176.995 7.5392 177.523H42.3731V218.712C42.3106 218.694 42.2555 218.672 42.1967 218.65C41.2121 218.258 40.2348 217.845 39.2575 217.402L38.6329 217.117C37.6531 216.652 36.6734 216.16 35.6936 215.64C35.3519 215.46 35.0103 215.271 34.6722 215.079C29.2331 212.017 24.2919 208.138 20.02 203.575C19.8951 203.453 19.7775 203.323 19.6526 203.205C19.0574 202.555 18.4732 201.898 17.9074 201.226L17.2828 200.488C16.6142 199.665 15.9675 198.819 15.3393 197.962C15.2474 197.837 15.1592 197.711 15.0637 197.593C12.5086 194.033 10.387 190.178 8.7443 186.111C8.69286 185.989 8.64877 185.856 8.60101 185.741C8.09643 184.437 7.64942 183.12 7.25997 181.791C7.09096 181.233 6.9293 180.683 6.78969 180.103C6.73825 179.934 6.69416 179.767 6.65375 179.601C4.56687 171.416 4.32071 162.913 4.32071 154.469C4.32071 153.483 4.32071 152.494 4.32071 151.515C4.32071 148.1 4.36112 144.662 4.41991 141.229C4.41991 140.339 4.45665 139.453 4.47502 138.559C4.52646 136.292 4.59994 134.025 4.69546 131.758C4.71751 131.127 4.7469 130.499 4.77997 129.872C4.77997 129.51 4.79834 129.148 4.83508 128.786C4.92326 127.472 4.99674 126.168 5.08492 124.869Z" fill="#FF677D"/>
<path opacity="0.1" d="M79.3123 77.2695V123.289H51.2754V77.2695H55.2728V61.6886H71.6812V77.2695H79.3123Z" fill="#FF677D"/>
<path opacity="0.1" d="M79.3122 124.865H51.2791V175.939H79.3122V124.865Z" fill="#FF677D"/>
<path opacity="0.1" d="M51.2754 177.523H79.3122V219.982C76.005 220.937 72.6349 221.657 69.2269 222.135L68.3892 222.238C67.9777 222.286 67.5699 222.327 67.1658 222.368C66.7616 222.408 66.3428 222.438 65.9349 222.464H65.8064C65.63 222.464 65.4389 222.486 65.2663 222.489H65.0789C64.8584 222.489 64.638 222.512 64.4176 222.519C64.1053 222.537 63.793 222.541 63.4733 222.545C63.3374 222.545 63.2088 222.545 63.0728 222.545C62.7569 222.545 62.4446 222.545 62.1286 222.545H61.4342C61.2468 222.545 61.0668 222.545 60.8721 222.545L60.163 222.519C59.7956 222.519 59.3988 222.478 59.0167 222.452L58.3112 222.401L57.4331 222.32C56.8159 222.264 56.2023 222.194 55.5961 222.109L54.8613 222.006L54.4939 221.954C53.8803 221.858 53.2741 221.755 52.6568 221.637C52.2049 221.559 51.7567 221.463 51.3011 221.371L51.2754 177.523Z" fill="#FF677D"/>
<path opacity="0.1" d="M254.569 71.8346H231.452V123.285H254.569V71.8346Z" fill="#FF677D"/>
<path opacity="0.1" d="M254.573 124.865V175.942H139.828V153.911H200.946V166.908H231.452V124.865H254.573Z" fill="#FF677D"/>
<path opacity="0.1" d="M255.109 232.467H254.741V265.974C250.602 265.622 246.475 265.143 242.36 264.537C223.834 261.812 205.774 256.516 188.696 248.801C183.766 246.571 178.935 244.137 174.206 241.498C166.305 237.1 158.736 232.125 151.559 226.615C149.756 225.227 147.976 223.807 146.22 222.354C145.004 221.347 143.795 220.313 142.572 219.308C141.723 218.618 140.867 217.939 140 217.289V177.705H231.319C231.257 177.469 231.194 177.233 231.128 177C231.198 177.233 231.264 177.469 231.326 177.705H254.741V232.445C254.866 232.449 254.988 232.46 255.109 232.467Z" fill="#FF677D"/>
<path opacity="0.1" d="M314.861 68.0022H299.797V63.2984H306.55V49.2866C307.135 49.5008 307.718 49.7211 308.299 49.9475V63.2984H314.861V68.0022Z" fill="#FF677D"/>
<path opacity="0.1" d="M351.153 123.289H277.202C277.202 123.289 277.202 123.289 277.227 123.307L277.194 123.289H263.475V71.8383H267.362V109.868H285.127V87.3454H299.801V69.5824H314.865V87.3601H329.539V109.882H351.153V123.289Z" fill="#FF677D"/>
<path opacity="0.1" d="M263.475 124.865V175.942H351.153V124.865H263.475ZM374.954 236.066L375.075 195.636H351.153V177.545H263.475V266.341C270.664 266.645 277.863 266.558 285.042 266.083H285.167C288.596 265.866 292.009 265.551 295.407 265.138H295.484C313.608 263.018 331.331 258.266 348.097 251.03" fill="#FF677D"/>
<path opacity="0.1" d="M385.532 177.523H405.985C405.805 187.894 403.733 198.081 399.199 207.488C395.426 215.304 390.183 222.139 383.989 228.109V195.618H385.532V177.523Z" fill="#FF677D"/>
<path opacity="0.1" d="M405.996 175.942H385.532V133.257H396.605C402.337 146.715 405.978 161.484 405.996 175.942Z" fill="#FF677D"/>
<path opacity="0.1" d="M254.573 86.1381H242.188V102.269H254.573V86.1381Z" fill="#FF677D"/>
<path opacity="0.1" d="M254.573 119.574H242.188V123.289H254.573V119.574Z" fill="#FF677D"/>
<path opacity="0.1" d="M254.573 124.865H242.188V135.702H254.573V124.865Z" fill="#FF677D"/>
<path opacity="0.1" d="M254.573 153.01H242.188V169.142H254.573V153.01Z" fill="#FF677D"/>
<path opacity="0.1" d="M254.573 186.447H242.188V202.578H254.573V186.447Z" fill="#FF677D"/>
<path opacity="0.1" d="M254.569 232.263C254.694 232.263 254.815 232.263 254.937 232.285H254.569V236.032H242.188V219.883H254.569V232.263Z" fill="#FF677D"/>
<path opacity="0.1" d="M254.569 253.312V265.773C250.43 265.421 246.303 264.942 242.188 264.336V253.312H254.569Z" fill="#FF677D"/>
<path opacity="0.1" d="M192.907 174.757H139.828V175.942H192.907V174.757Z" fill="#FF677D"/>
<path opacity="0.1" d="M192.907 177.519H139.828V182.06H192.907V177.519Z" fill="#FF677D"/>
<path opacity="0.1" d="M192.907 196.947H139.828V204.25H192.907V196.947Z" fill="#FF677D"/>
<path opacity="0.1" d="M192.904 219.137V226.44H151.387C149.584 225.057 147.803 223.636 146.044 222.179C144.828 221.171 143.623 220.138 142.396 219.137H192.904Z" fill="#FF677D"/>
<path opacity="0.1" d="M192.904 241.323V248.619H188.52C183.595 246.386 178.766 243.951 174.034 241.312L192.904 241.323Z" fill="#FF677D"/>
<path opacity="0.1" d="M295.495 129.816H285.046V140.317H295.495V129.816Z" fill="#FF677D"/>
<path opacity="0.1" d="M69.2526 80.8915H58.8036V91.392H69.2526V80.8915Z" fill="#FF677D"/>
<path opacity="0.1" d="M69.2526 105.282H58.8036V115.782H69.2526V105.282Z" fill="#FF677D"/>
<path opacity="0.1" d="M69.2526 129.672H58.8036V140.173H69.2526V129.672Z" fill="#FF677D"/>
<path opacity="0.1" d="M69.2526 154.059H58.8036V164.559H69.2526V154.059Z" fill="#FF677D"/>
<path opacity="0.1" d="M69.2526 178.449H58.8036V188.95H69.2526V178.449Z" fill="#FF677D"/>
<path opacity="0.1" d="M69.2526 202.84H58.8036V213.34H69.2526V202.84Z" fill="#FF677D"/>
<path opacity="0.1" d="M335.384 129.816H324.935V140.317H335.384V129.816Z" fill="#FF677D"/>
<path opacity="0.1" d="M295.495 155.717H285.046V166.217H295.495V155.717Z" fill="#FF677D"/>
<path opacity="0.1" d="M335.384 155.717H324.935V166.217H335.384V155.717Z" fill="#FF677D"/>
<path opacity="0.1" d="M295.495 181.614H285.046V192.114H295.495V181.614Z" fill="#FF677D"/>
<path opacity="0.1" d="M335.384 181.614H324.935V192.114H335.384V181.614Z" fill="#FF677D"/>
<path opacity="0.1" d="M295.495 207.514H285.046V218.015H295.495V207.514Z" fill="#FF677D"/>
<path opacity="0.1" d="M335.384 207.514H324.935V218.015H335.384V207.514Z" fill="#FF677D"/>
<path opacity="0.1" d="M295.495 233.415H285.046V243.915H295.495V233.415Z" fill="#FF677D"/>
<path opacity="0.1" d="M335.384 233.415H324.935V243.915H335.384V233.415Z" fill="#FF677D"/>
<path opacity="0.1" d="M285.046 266.083V259.311H295.491V265.119L285.046 266.083Z" fill="#FF677D"/>
<path opacity="0.1" d="M6.61334 110.163V116.17H42.3731V110.163H6.61334ZM10.1772 115.793H7.25998V110.532H10.1992L10.1772 115.793ZM13.7374 115.793H10.7981V110.532H13.7374V115.793ZM17.2902 115.793H14.3509V110.532H17.2902V115.793ZM20.8504 115.793H17.9148V110.532H20.8541L20.8504 115.793ZM24.4069 115.793H21.4676V110.532H24.4069V115.793ZM27.9671 115.793H25.0278V110.532H27.9671V115.793ZM31.5272 115.793H28.588V110.532H31.5272V115.793ZM35.0837 115.793H32.1445V110.532H35.0837V115.793ZM38.6403 115.793H35.701V110.532H38.6403V115.793ZM42.1968 115.793H39.2575V110.532H42.1968V115.793Z" fill="#FF677D"/>
<path opacity="0.1" d="M6.61334 127.642V133.649H42.3731V127.642H6.61334ZM10.1772 133.268H7.25998V128.022H10.1992L10.1772 133.268ZM13.7374 133.268H10.7981V128.022H13.7374V133.268ZM17.2902 133.268H14.3509V128.022H17.2902V133.268ZM20.8504 133.268H17.9148V128.022H20.8541L20.8504 133.268ZM24.4069 133.268H21.4676V128.022H24.4069V133.268ZM27.9671 133.268H25.0278V128.022H27.9671V133.268ZM31.5272 133.268H28.588V128.022H31.5272V133.268ZM35.0837 133.268H32.1445V128.022H35.0837V133.268ZM38.6403 133.268H35.701V128.022H38.6403V133.268ZM42.1968 133.268H39.2575V128.022H42.1968V133.268Z" fill="#FF677D"/>
<path opacity="0.1" d="M6.61334 145.128V151.146H42.3731V145.128H6.61334ZM10.1772 150.755H7.25998V145.504H10.1992L10.1772 150.755ZM13.7374 150.755H10.7981V145.504H13.7374V150.755ZM17.2902 150.755H14.3509V145.504H17.2902V150.755ZM20.8504 150.755H17.9148V145.504H20.8541L20.8504 150.755ZM24.4069 150.755H21.4676V145.504H24.4069V150.755ZM27.9671 150.755H25.0278V145.504H27.9671V150.755ZM31.5272 150.755H28.588V145.504H31.5272V150.755ZM35.0837 150.755H32.1445V145.504H35.0837V150.755ZM38.6403 150.755H35.701V145.504H38.6403V150.755ZM42.1968 150.755H39.2575V145.504H42.1968V150.755Z" fill="#FF677D"/>
<path opacity="0.1" d="M6.61334 162.614V168.614H42.3731V162.614H6.61334ZM10.1772 168.241H7.25998V162.987H10.1992L10.1772 168.241ZM13.7374 168.241H10.7981V162.987H13.7374V168.241ZM17.2902 168.241H14.3509V162.987H17.2902V168.241ZM20.8504 168.241H17.9148V162.987H20.8541L20.8504 168.241ZM24.4069 168.241H21.4676V162.987H24.4069V168.241ZM27.9671 168.241H25.0278V162.987H27.9671V168.241ZM31.5272 168.241H28.588V162.987H31.5272V168.241ZM35.0837 168.241H32.1445V162.987H35.0837V168.241ZM38.6403 168.241H35.701V162.987H38.6403V168.241ZM42.1968 168.241H39.2575V162.987H42.1968V168.241Z" fill="#FF677D"/>
<path opacity="0.1" d="M6.76764 180.096C6.91093 180.661 7.07258 181.226 7.24159 181.783V180.473H10.1809V185.723H8.60835C8.65611 185.845 8.70387 185.978 8.75164 186.092H42.3731V180.096H6.76764ZM13.7484 185.723H10.8091V180.473H13.7484V185.723ZM17.3012 185.723H14.362V180.473H17.3012V185.723ZM20.8614 185.723H17.9148V180.473H20.854L20.8614 185.723ZM24.4179 185.723H21.4786V180.473H24.4179V185.723ZM27.9781 185.723H25.0388V180.473H27.9781V185.723ZM31.5382 185.723H28.599V180.473H31.5382V185.723ZM35.0947 185.723H32.1555V180.473H35.0947V185.723ZM38.6513 185.723H35.712V180.473H38.6513V185.723ZM42.2078 185.723H39.2685V180.473H42.2078V185.723Z" fill="#FF677D"/>
<path opacity="0.1" d="M15.071 197.582C15.1629 197.7 15.2511 197.833 15.3466 197.951H17.2902V200.473C17.4996 200.724 17.7054 200.975 17.9185 201.212V197.937H20.8577V203.205H19.6673C19.7849 203.327 19.8988 203.456 20.0347 203.575H42.3841V197.582H15.071ZM24.4069 203.205H21.4676V197.959H24.4069V203.205ZM27.967 203.205H25.0278V197.959H27.967V203.205ZM31.5272 203.205H28.588V197.959H31.5272V203.205ZM35.0837 203.205H32.1445V197.959H35.0837V203.205ZM38.6402 203.205H35.701V197.959H38.6402V203.205ZM42.1967 203.205H39.2575V197.959H42.1967V203.205Z" fill="#FF677D"/>
<path opacity="0.1" d="M34.687 215.065C35.0213 215.257 35.363 215.434 35.7083 215.626V215.441H38.6476V217.103L39.2722 217.394V215.441H42.2115V218.635C42.2678 218.663 42.3269 218.685 42.3878 218.701V215.065H34.687Z" fill="#FF677D"/>
<path opacity="0.1" d="M277.202 123.289H277.224H277.202ZM254.569 232.259H254.937H254.569ZM230.956 176.814C231.026 177.05 231.085 177.286 231.151 177.519C231.092 177.286 231.029 177.05 230.956 176.814ZM277.202 123.277H277.224H277.202ZM55.2875 67.9911V69.5676H71.6996V67.9911H55.2875ZM254.569 232.259H254.937H254.569ZM230.956 176.814C231.026 177.05 231.085 177.286 231.151 177.519C231.092 177.286 231.029 177.05 230.956 176.814ZM277.202 123.277H277.224H277.202ZM254.569 232.248H254.937H254.569ZM230.956 176.814C231.026 177.05 231.085 177.286 231.151 177.519C231.092 177.286 231.029 177.05 230.956 176.814Z" fill="#FF677D"/>
<path d="M169.595 140.18C169.595 140.18 168.148 139.977 168.148 137.858C168.148 135.739 167.112 131.781 167.112 131.781C167.112 131.762 166.215 124.887 164.977 123.794C163.739 122.702 162.148 116.285 162.148 116.285C162.148 116.285 161.876 112.803 161.321 112.053C160.766 111.304 160.017 109.469 158.911 106.851C157.805 104.233 153.194 102.421 153.194 102.421C153.194 102.421 144.858 97.5616 142.495 95.9777C142.281 95.8475 142.08 95.6954 141.896 95.5236C141.485 94.9808 139.692 94.9697 139.692 94.9697C139.505 93.7809 139.325 92.4148 139.266 91.1779C139.266 91.045 139.266 90.9121 139.247 90.7791C141.882 89.2143 143.866 86.7471 144.836 83.8305C144.88 83.6902 144.917 83.5425 144.957 83.4022C145.115 83.35 145.26 83.2652 145.383 83.1533C145.507 83.0414 145.606 82.9048 145.673 82.7524C145.886 82.2761 145.89 81.7186 146.155 81.2755C146.463 80.7512 147.051 80.4706 147.514 80.0756C148.682 79.0787 148.984 77.3988 148.929 75.8702C148.892 74.6333 148.693 73.3854 148.771 72.1559L148.793 71.8457C148.815 71.6611 148.84 71.4765 148.874 71.2993C149.054 70.3837 149.447 69.5197 149.667 68.6114C149.888 67.7031 149.91 66.6804 149.395 65.8977C148.642 64.7494 147.073 64.5205 145.695 64.4024C144.134 64.2694 142.738 64.443 141.738 63.1396C141.271 62.4584 140.745 61.8197 140.166 61.2308C139.96 61.0388 137.961 59.813 137.961 59.7318C136.011 58.8238 133.8 58.6534 131.734 59.2518C130.698 59.5546 129.721 60.0493 128.67 60.2967C126.403 60.8357 123.794 60.2524 121.869 61.5557C120.796 62.2941 120.153 63.4682 119.551 64.6128C119.061 65.5555 118.564 66.497 118.059 67.4373C117.247 68.9843 116.42 70.5572 116.079 72.2703C116.007 72.6431 115.963 73.0208 115.946 73.4001V73.4186C115.946 73.5552 115.946 73.6918 115.946 73.8284V74.002C115.946 74.1312 115.946 74.2567 115.968 74.3712C115.991 74.4856 115.987 74.5226 115.998 74.6001C116.009 74.6776 116.027 74.8512 116.049 74.9693C116.071 75.0875 116.115 75.2942 116.16 75.4567C116.178 75.5268 116.204 75.5933 116.226 75.6597C116.262 75.7853 116.306 75.9071 116.354 76.029C116.38 76.0917 116.406 76.1582 116.435 76.221C116.49 76.3502 116.556 76.4757 116.622 76.5902C116.652 76.6419 116.674 76.6899 116.703 76.7379C116.806 76.9096 116.919 77.0748 117.041 77.2326C117.828 78.2184 118.985 78.8461 119.841 79.7691C119.841 79.806 119.841 79.843 119.841 79.8762C119.841 79.9796 119.841 80.0793 119.841 80.1826C119.886 82.2412 120.432 84.2575 121.429 86.056C122.427 87.8545 123.847 89.3809 125.565 90.5022C125.565 90.6425 125.584 90.7865 125.591 90.9268C125.663 92.0228 125.649 93.1227 125.55 94.2165C125.401 94.0395 125.214 93.8984 125.002 93.8038C124.791 93.7093 124.562 93.6635 124.331 93.6701C124.173 93.6623 124.015 93.676 123.86 93.7107L123.827 93.6849V93.7181C123.019 93.9175 122.023 94.763 121.072 97.1666C121.072 97.1666 118.177 100.445 115.972 100.309C113.768 100.172 108.187 103.72 108.187 103.72C108.187 103.72 102.742 107.272 101.573 110.89C100.92 112.942 100.137 114.95 99.2294 116.901L92.4985 130.839L91.2567 141.897C91.2567 141.897 91.9437 146.815 91.8078 147.565C91.6718 148.314 94.6331 155.074 94.6331 155.074C94.6331 155.074 104.417 172.35 108.415 173.236L108.701 173.033C108.872 173.123 109.054 173.191 109.241 173.236L110.064 172.653C110.114 173.303 110.093 173.957 110.002 174.602C109.451 176.308 110.208 187.44 111.17 189.622C112.133 191.804 111.791 220.414 111.791 220.414L111.655 222.94C111.655 222.94 111.655 223.021 111.688 223.161L111.655 223.76L111.754 223.811C111.857 224.612 111.824 225.425 111.655 226.215C111.31 227.323 111.17 230.453 111.17 230.453C111.17 230.453 108.418 248.132 109.723 251.683C111.027 255.235 112.136 259.127 112.136 259.127C112.136 259.127 113.514 263.557 112.203 264.314C110.891 265.071 107.162 266.341 107.93 268.187C108.628 269.893 111.277 274.464 111.67 275.132L111.637 275.483L111.097 281.365C111.184 282.141 111.394 282.899 111.718 283.609C112.309 284.891 113.459 286.22 115.645 286.076C116.013 286.05 116.439 286.006 116.85 285.95C120.851 285.411 125.778 283.617 125.778 283.617C125.522 283.454 125.288 283.259 125.08 283.037C124.884 282.846 124.728 282.616 124.622 282.362C124.517 282.108 124.464 281.835 124.467 281.56C124.525 280.49 122.53 275.387 122.034 274.132C121.957 273.951 121.917 273.847 121.917 273.847C121.917 273.847 126.465 269.07 125.708 264.835C125.708 264.835 120.675 261.881 122.332 260.26C123.989 258.639 126.95 253.984 126.95 253.984C126.95 253.984 127.086 236.575 126.95 233.976C126.809 232.172 126.894 230.357 127.204 228.574C127.259 228.305 127.325 228.042 127.395 227.784C129.686 228.128 132 228.304 134.317 228.312C135.162 228.312 136.022 228.312 136.889 228.26C136.889 228.506 136.9 228.772 136.922 229.058C137.113 233.37 137.469 240.932 137.759 243.742C138.171 247.77 140.445 258.625 140.445 258.625C140.445 258.625 136.106 261.423 141.202 268.32C141.202 268.32 141.202 270.82 140.864 271.182C140.503 272.365 140.212 273.568 139.993 274.785C139.78 276.085 139.692 277.399 140.037 278.082C140.864 279.714 145.824 279.581 145.824 279.581L145.945 279.559C146.882 279.462 147.828 279.552 148.729 279.826C149.631 280.099 150.469 280.549 151.196 281.15C153.08 282.672 160.234 282.003 164.106 281.52C165.624 281.328 166.638 281.15 166.638 281.15C166.687 280.978 166.704 280.798 166.689 280.619C166.649 279.663 165.903 277.565 160.847 275.693C160.847 275.693 156.093 272.481 156.159 269.683H156.06H155.509C155.909 269.66 156.167 269.683 156.167 269.683C156.167 269.683 154.304 262.852 155.064 262.298C155.825 261.745 153.547 254.176 153.547 254.176C153.547 254.176 152.243 241.475 152.173 240.585C152.176 239.821 152.291 239.062 152.515 238.333L152.173 231.369C152.173 231.369 152.107 229.054 152.173 228.301C152.162 227.647 152.109 226.995 152.015 226.348C151.982 226.089 151.949 225.82 151.912 225.554C153.694 225.1 154.851 224.679 154.851 224.679L154.645 200.44C156.159 197.486 156.438 191.006 156.431 186.41C156.431 183.456 156.299 181.27 156.299 181.27L158.367 177.877C158.367 177.877 158.845 173.816 158.088 172.926C157.754 172.523 157.904 172.106 158.18 171.763C158.323 171.649 158.474 171.545 158.632 171.453C158.632 171.453 158.61 171.42 158.584 171.372C158.729 171.25 158.882 171.14 159.043 171.043C159.043 171.043 158.309 169.898 158.966 169.415C159.583 169.836 160.135 170.153 160.553 170.412C160.524 170.681 160.495 170.836 160.495 170.836L160.671 170.467C161.075 170.696 161.321 170.836 161.321 170.836C161.321 170.836 164.562 164.349 164.492 163.393C164.422 162.437 166.696 158.408 166.696 158.408C166.696 158.408 166.972 156.293 168.214 155.407C169.456 154.521 169.176 148.1 169.176 148.1C169.176 148.1 169.522 144.755 170.348 143.389C171.175 142.023 169.595 140.18 169.595 140.18ZM107.592 137.334L107.654 138.881C107.287 138.286 107.022 137.858 107.022 137.858L107.592 137.334Z" fill="url(#paint0_linear)"/>
<path d="M161.498 168.034L160.704 171.431C160.704 171.431 154.348 168.17 153.202 164.028C152.055 159.885 155.119 158.312 155.119 158.312L161.042 160.834L161.498 168.034Z" fill="white"/>
<path opacity="0.1" d="M161.498 168.034L160.704 171.431C160.704 171.431 154.348 168.17 153.202 164.028C152.055 159.885 155.119 158.312 155.119 158.312L161.042 160.834L161.498 168.034Z" fill="black"/>
<path d="M125.826 283.639C125.826 283.639 119.948 285.81 115.906 286.083C113.76 286.227 112.632 284.905 112.052 283.632C111.735 282.923 111.53 282.17 111.446 281.398L111.971 275.546L112.25 272.43L120.837 270.188L122.053 273.925L122.167 274.209C122.655 275.457 124.614 280.534 124.555 281.594C124.552 281.865 124.605 282.134 124.708 282.384C124.812 282.635 124.964 282.862 125.157 283.052C125.355 283.275 125.579 283.473 125.826 283.639Z" fill="white"/>
<path d="M165.98 280.663C165.995 280.841 165.977 281.02 165.929 281.191C165.929 281.191 153.356 283.299 150.784 281.191C150.059 280.575 149.214 280.118 148.303 279.85C147.391 279.582 146.435 279.508 145.493 279.633C145.493 279.633 140.629 279.766 139.817 278.156C139.479 277.48 139.567 276.17 139.777 274.877C139.99 273.667 140.275 272.47 140.629 271.292L140.824 271.137L141.981 270.203L155.531 269.801H155.634C155.568 272.585 160.234 275.778 160.234 275.778C165.19 277.624 165.921 279.711 165.98 280.663Z" fill="white"/>
<path opacity="0.1" d="M165.98 280.663C165.993 280.841 165.974 281.02 165.925 281.191C165.925 281.191 153.356 283.299 150.784 281.191C150.059 280.576 149.215 280.119 148.304 279.851C147.394 279.583 146.438 279.508 145.497 279.633C145.497 279.633 140.629 279.766 139.821 278.156C139.483 277.477 139.567 276.17 139.777 274.877C141.65 275.066 144.608 275.535 145.769 276.653C147.525 278.355 150.501 280.054 152.327 280.187C153.756 280.279 162.306 280.552 165.98 280.663Z" fill="black"/>
<path opacity="0.1" d="M125.826 283.639C125.826 283.639 119.948 285.81 115.906 286.083C113.76 286.227 112.632 284.905 112.056 283.628C113.551 284.134 115.627 284.665 116.718 284.178C118.011 283.602 122.597 283.229 125.168 283.07C125.364 283.286 125.585 283.477 125.826 283.639Z" fill="black"/>
<path d="M134.548 108.686C129.699 106.792 123.46 100.534 125.018 97.6096C125.364 96.8716 125.569 96.0752 125.624 95.2613C125.724 94.1565 125.739 93.0455 125.668 91.9384C125.559 90.1252 125.342 88.3202 125.018 86.5331C125.018 86.5331 140.159 86.8765 139.277 89.1176C139.02 89.7748 138.979 90.9157 139.049 92.1932C139.119 93.4706 139.303 94.9143 139.494 96.1364C139.758 97.8126 140.023 99.0901 140.023 99.0901C140.023 99.0901 139.097 100.393 138.553 100.464C138.009 100.534 141.507 111.385 134.548 108.686Z" fill="#CF6F80"/>
<path opacity="0.1" d="M122.156 274.209L122.042 274.335C117.515 268.833 112.041 275.69 112.041 275.69L111.96 275.546L112.239 272.43L120.826 270.188L122.042 273.925L122.156 274.209Z" fill="black"/>
<path opacity="0.1" d="M155.637 270.188C155.637 270.188 152.331 270.118 150.567 271.684C148.804 273.249 140.28 272.023 140.647 271.684C140.756 271.515 140.822 271.323 140.838 271.123L141.996 270.188L155.546 269.786C155.597 270.033 155.637 270.188 155.637 270.188Z" fill="black"/>
<path d="M127.788 226.986C127.542 227.598 127.355 228.233 127.23 228.881C126.923 230.655 126.838 232.461 126.976 234.256C127.112 236.841 126.976 254.161 126.976 254.161C126.976 254.161 124.07 258.78 122.45 260.408C120.829 262.036 125.756 264.96 125.756 264.96C126.491 269.169 122.038 273.925 122.038 273.925C117.512 268.424 112.037 275.284 112.037 275.284C112.037 275.284 109.061 270.115 108.319 268.268C107.577 266.422 111.225 265.145 112.508 264.395C113.79 263.646 112.445 259.226 112.445 259.226C112.445 259.226 111.361 255.353 110.075 251.82C108.789 248.287 111.494 230.697 111.494 230.697C111.494 230.697 111.633 227.574 111.967 226.484C112.136 225.698 112.17 224.889 112.067 224.092C112.045 223.822 112.019 223.597 112.001 223.446C111.982 223.294 111.967 223.224 111.967 223.224L112.019 223.136L113.856 219.694C113.856 219.694 128.67 224.819 127.788 226.986Z" fill="#FF677D"/>
<path d="M155.637 269.782C155.637 269.782 152.331 269.712 150.567 271.259C148.804 272.806 140.28 271.599 140.647 271.259C141.015 270.919 140.985 268.405 140.985 268.405C135.985 261.545 140.251 258.761 140.251 258.761C140.251 258.761 138.017 247.962 137.613 243.956C137.33 241.157 136.981 233.636 136.793 229.342C136.712 227.496 136.665 226.226 136.665 226.226L140.75 225.399L141.276 225.292L151.129 223.305C151.129 223.305 151.401 225.152 151.585 226.662C151.677 227.306 151.728 227.956 151.739 228.607C151.673 229.346 151.739 231.657 151.739 231.657L152.074 238.587C151.855 239.314 151.743 240.069 151.739 240.828C151.805 241.711 153.088 254.345 153.088 254.345C153.088 254.345 155.318 261.885 154.557 262.428C153.797 262.97 155.637 269.782 155.637 269.782Z" fill="#FF677D"/>
<path opacity="0.1" d="M139.277 89.1176C139.02 89.7748 138.979 90.9157 139.049 92.1932C137.021 93.4204 134.69 94.0479 132.323 94.0035C129.956 93.9591 127.649 93.2446 125.668 91.9421C125.559 90.1277 125.342 88.3214 125.018 86.5331C125.018 86.5331 140.159 86.8691 139.277 89.1176Z" fill="black"/>
<path d="M145.13 80.958C145.133 82.2884 144.924 83.6109 144.512 84.8753C143.592 87.7086 141.704 90.1236 139.183 91.6935C136.662 93.2635 133.67 93.8873 130.736 93.4548C127.801 93.0222 125.114 91.5611 123.148 89.3297C121.181 87.0983 120.064 84.2403 119.992 81.2607C119.992 81.1573 119.992 81.0613 119.992 80.958C119.963 79.2808 120.267 77.6148 120.886 76.057C121.505 74.4992 122.426 73.0809 123.597 71.8847C124.767 70.6885 126.162 69.7385 127.702 69.0899C129.241 68.4414 130.893 68.1074 132.562 68.1074C134.232 68.1074 135.884 68.4414 137.423 69.0899C138.963 69.7385 140.358 70.6885 141.528 71.8847C142.699 73.0809 143.62 74.4992 144.239 76.057C144.858 77.6148 145.162 79.2808 145.133 80.958H145.13Z" fill="#CF6F80"/>
<path opacity="0.1" d="M134.548 108.686C129.699 106.792 123.46 100.534 125.018 97.6096C125.364 96.8716 125.569 96.0752 125.624 95.2614L132.263 100.744L136.371 104.13L139.494 96.1401C139.758 97.8163 140.023 99.0938 140.023 99.0938C140.023 99.0938 139.097 100.397 138.553 100.467C138.009 100.537 141.507 111.385 134.548 108.686Z" fill="black"/>
<path d="M151.717 132.918L146.173 226.514L138.943 226.99L120.219 172.719L123.291 108.287L123.938 94.6743L132.263 101.545L136.374 104.931L139.589 96.7087L145.567 101.944L151.717 132.918Z" fill="#FF677D"/>
<path opacity="0.1" d="M127.788 226.987C127.542 227.598 127.355 228.233 127.23 228.881C121.968 228.064 116.858 226.46 112.07 224.121L111.971 224.07L112.004 223.475L112.023 223.165L113.86 219.724C113.86 219.724 128.67 224.819 127.788 226.987Z" fill="black"/>
<path opacity="0.1" d="M140.835 228.895C139.49 229.125 138.133 229.28 136.771 229.36C136.69 227.514 136.643 226.244 136.643 226.244L140.728 225.417L140.835 228.895Z" fill="black"/>
<path opacity="0.1" d="M151.563 226.68C148.951 227.363 144.917 228.131 141.305 227.651L141.254 225.31L151.107 223.324C151.107 223.324 151.379 225.152 151.563 226.68Z" fill="black"/>
<path opacity="0.1" d="M141.239 228.079C126.175 230.664 112.379 223.254 112.379 223.254L112.511 220.743C112.511 220.743 112.853 192.28 111.905 190.098C110.957 187.916 110.219 176.851 110.755 175.152C111.291 173.454 108.797 147.985 108.797 147.985L108.393 137.647L93.6007 131.625L100.214 117.772C101.107 115.83 101.876 113.832 102.514 111.791C103.664 108.195 109.002 104.662 109.002 104.662C109.002 104.662 114.477 101.132 116.641 101.265C118.805 101.398 121.641 98.1412 121.641 98.1412C123.735 92.7765 125.631 95.206 125.631 95.206C125.631 95.4607 125.631 95.206 125.528 95.9998C124.794 101.889 137.41 120.497 137.59 120.826L138.792 150.238L140.008 187.458L141.239 228.079Z" fill="black"/>
<path d="M140.835 228.079C125.771 230.664 111.971 223.254 111.971 223.254L112.107 220.743C112.107 220.743 112.449 192.28 111.497 190.098C110.546 187.916 109.811 176.851 110.351 175.152C110.891 173.454 108.393 147.985 108.393 147.985L107.985 137.647L93.1855 131.603L99.7989 117.75C100.69 115.807 101.458 113.81 102.099 111.769C103.245 108.173 108.587 104.64 108.587 104.64C108.587 104.64 114.062 101.11 116.222 101.243C118.382 101.376 121.222 98.1191 121.222 98.1191C123.32 92.7544 125.631 95.1839 125.631 95.1839C125.631 95.4386 125.411 95.5531 125.528 95.9777C127.145 101.689 137.006 120.475 137.186 120.804L138.402 150.216L139.619 187.436L140.835 228.079Z" fill="white"/>
<path opacity="0.1" d="M136.775 121.642C135.155 120.963 126.572 111.116 126.572 111.116V108.874C126.26 108.136 124.404 108.586 122.898 109.103L123.544 95.4904L124.279 96.1033C125.889 101.811 136.587 121.313 136.775 121.642Z" fill="black"/>
<path d="M137.183 120.826C135.559 120.147 126.976 110.3 126.976 110.3V108.058C126.664 107.32 124.808 107.77 123.302 108.287L123.952 94.6743L124.687 95.2872C126.3 100.995 137.003 120.501 137.183 120.826Z" fill="white"/>
<path opacity="0.1" d="M112.379 169.935C112.581 169.935 122.854 168.85 122.854 168.85C122.854 168.85 129.074 181.141 128.666 184.132C128.258 187.122 127.52 189.77 125.018 189.301C122.516 188.832 111.552 189.67 111.552 189.67L112.379 169.935Z" fill="black"/>
<path d="M111.971 169.119C112.173 169.119 122.446 168.034 122.446 168.034C122.446 168.034 128.662 180.329 128.258 183.316C127.854 186.303 127.108 188.954 124.61 188.485C122.112 188.016 111.144 188.854 111.144 188.854L111.971 169.119Z" fill="white"/>
<path d="M119.712 163.348C119.712 163.348 129.14 168.44 129.342 169.994C129.544 171.549 124.544 169.315 123.464 169.045C122.753 168.873 122.029 168.76 121.3 168.706L114.095 168.901L119.712 163.348Z" fill="#CF6F80"/>
<path opacity="0.1" d="M134.144 122.277C134.692 122.277 135.136 121.831 135.136 121.28C135.136 120.729 134.692 120.283 134.144 120.283C133.596 120.283 133.152 120.729 133.152 121.28C133.152 121.831 133.596 122.277 134.144 122.277Z" fill="black"/>
<path d="M134.144 121.871C134.692 121.871 135.136 121.425 135.136 120.874C135.136 120.323 134.692 119.877 134.144 119.877C133.596 119.877 133.152 120.323 133.152 120.874C133.152 121.425 133.596 121.871 134.144 121.871Z" fill="#3F3D56"/>
<path opacity="0.1" d="M135.97 165.431C136.518 165.431 136.962 164.985 136.962 164.434C136.962 163.883 136.518 163.437 135.97 163.437C135.422 163.437 134.978 163.883 134.978 164.434C134.978 164.985 135.422 165.431 135.97 165.431Z" fill="black"/>
<path d="M135.97 165.021C136.518 165.021 136.962 164.575 136.962 164.024C136.962 163.474 136.518 163.027 135.97 163.027C135.422 163.027 134.978 163.474 134.978 164.024C134.978 164.575 135.422 165.021 135.97 165.021Z" fill="#3F3D56"/>
<path opacity="0.1" d="M135.132 143.854C135.68 143.854 136.124 143.408 136.124 142.857C136.124 142.306 135.68 141.86 135.132 141.86C134.585 141.86 134.141 142.306 134.141 142.857C134.141 143.408 134.585 143.854 135.132 143.854Z" fill="black"/>
<path d="M135.132 143.448C135.68 143.448 136.124 143.001 136.124 142.451C136.124 141.9 135.68 141.454 135.132 141.454C134.585 141.454 134.141 141.9 134.141 142.451C134.141 143.001 134.585 143.448 135.132 143.448Z" fill="#3F3D56"/>
<path d="M158 168.499C158 168.499 158.676 169.518 158 169.994C157.324 170.471 158.066 171.623 158.066 171.623C158.066 171.623 156.38 172.616 157.122 173.509C157.864 174.403 157.394 178.438 157.394 178.438L155.366 181.813C155.366 181.813 155.487 183.988 155.494 186.927C155.494 191.512 155.226 197.959 153.742 200.898L153.947 225.011C153.947 225.011 146.845 227.618 140.901 226.824L140.019 188.13C140.019 188.13 141.305 166.188 141.779 161.979C142.056 159.793 142.169 157.59 142.117 155.388C142.117 155.388 141.915 148.801 141.235 145.744C141.235 145.744 140.5 132.5 140.427 128.834C140.394 127.08 140.486 121.963 140.588 117.097C140.702 111.776 140.831 106.759 140.831 106.759L139.49 96.0958C139.49 96.0958 140.831 95.9592 141.235 96.5019C141.416 96.6718 141.613 96.8239 141.823 96.956C144.138 98.5289 152.316 103.366 152.316 103.366C152.316 103.366 156.843 105.175 157.926 107.767C159.01 110.359 159.763 112.197 160.289 112.936C160.814 113.674 161.101 117.145 161.101 117.145C161.101 117.145 162.659 123.532 163.875 124.614C165.091 125.696 165.98 132.578 165.98 132.578L155.233 141.07C155.233 141.07 154.289 155.196 154.087 155.743C153.885 156.289 158 168.499 158 168.499Z" fill="white"/>
<path d="M158.408 168.499C158.408 168.499 159.08 169.518 158.408 169.994C157.735 170.471 158.47 171.623 158.47 171.623C158.47 171.623 156.795 172.627 157.53 173.52C158.264 174.414 157.802 178.449 157.802 178.449L155.773 181.824C155.773 181.824 155.895 183.999 155.906 186.938C155.906 191.523 155.638 197.97 154.153 200.909L154.355 225.022C154.355 225.022 147.242 227.629 141.305 226.835L140.427 188.141C140.427 188.141 141.713 166.199 142.187 161.99C142.464 159.805 142.576 157.601 142.521 155.399C142.521 155.399 142.319 148.812 141.643 145.755C141.643 145.755 140.908 132.512 140.831 128.845C140.798 127.091 140.893 121.974 140.993 117.108C141.107 111.787 141.235 106.77 141.235 106.77L139.464 95.9629C139.464 95.9629 141.235 95.9629 141.643 96.513C141.822 96.685 142.019 96.8372 142.231 96.9672C144.545 98.54 152.728 103.377 152.728 103.377C152.728 103.377 157.25 105.186 158.334 107.778C159.418 110.37 160.171 112.208 160.7 112.947C161.229 113.685 161.509 117.156 161.509 117.156C161.509 117.156 163.066 123.543 164.283 124.625C165.499 125.707 166.377 132.574 166.377 132.574L155.63 141.066C155.63 141.066 154.686 155.193 154.48 155.739C154.274 156.285 158.408 168.499 158.408 168.499Z" fill="white"/>
<path opacity="0.1" d="M145.537 109.904L146.507 112.747L141.4 117.916C141.514 112.6 141.643 107.578 141.643 107.578L139.872 96.7715C139.872 96.7715 141.643 96.7715 142.051 97.3216C142.23 97.4931 142.427 97.6442 142.639 97.7721L146.981 110.362L145.537 109.904Z" fill="black"/>
<path d="M145.13 109.089L146.103 111.932L140.996 117.101C141.11 111.78 141.239 106.763 141.239 106.763L139.464 95.9556C139.464 95.9556 141.239 95.9556 141.643 96.5057C141.823 96.6766 142.02 96.8288 142.231 96.9598L146.577 109.546L145.13 109.089Z" fill="white"/>
<path opacity="0.1" d="M145.13 80.958C145.133 82.2884 144.924 83.6109 144.512 84.8754C144.443 84.8862 144.372 84.883 144.304 84.8659C144.236 84.8488 144.172 84.8181 144.116 84.7757C144.02 81.4527 142.392 78.3328 140.39 75.6782C139.828 74.8767 139.146 74.1668 138.369 73.5736C137.584 72.9807 136.607 72.703 135.628 72.7946C134.526 72.946 133.553 73.6992 132.439 73.7952C130.97 73.917 129.654 72.8943 128.196 72.8426C127.603 72.8483 127.018 72.9809 126.48 73.2318C125.942 73.4827 125.464 73.8459 125.077 74.2973C124.31 75.2083 123.741 76.2695 123.405 77.4135C122.827 79.1482 122.513 80.9604 122.472 82.7893C122.453 83.8231 122.354 85.119 121.399 85.4956C121.471 84.7353 121.385 83.9683 121.146 83.2431C120.908 82.518 120.522 81.8505 120.014 81.2829L119.992 81.2607C119.992 81.1573 119.992 81.0613 119.992 80.958C119.963 79.2808 120.267 77.6148 120.886 76.057C121.505 74.4992 122.426 73.0809 123.597 71.8847C124.767 70.6885 126.162 69.7385 127.702 69.0899C129.241 68.4414 130.893 68.1074 132.562 68.1074C134.232 68.1074 135.884 68.4414 137.423 69.0899C138.963 69.7385 140.358 70.6885 141.528 71.8847C142.699 73.0809 143.62 74.4992 144.239 76.057C144.858 77.6148 145.162 79.2808 145.133 80.958H145.13Z" fill="black"/>
<path d="M137.767 60.8984C135.858 59.9959 133.686 59.8252 131.66 60.4184C130.643 60.7212 129.684 61.2123 128.651 61.4596C126.447 61.995 123.875 61.4153 121.983 62.7113C120.932 63.4497 120.3 64.6164 119.712 65.7499L118.243 68.5633C117.442 70.103 116.634 71.6684 116.299 73.3631C115.965 75.0578 116.167 76.9556 117.236 78.318C118.015 79.3112 119.165 79.9352 120.01 80.8693C120.516 81.4375 120.9 82.1046 121.138 82.8289C121.376 83.5532 121.462 84.319 121.391 85.0784C122.35 84.7091 122.442 83.4095 122.464 82.3757C122.505 80.5469 122.82 78.7347 123.397 76.9999C123.733 75.8556 124.302 74.7942 125.069 73.8837C125.457 73.4327 125.935 73.0697 126.473 72.8189C127.011 72.5681 127.596 72.4352 128.188 72.429C129.658 72.4807 130.977 73.4998 132.432 73.3779C133.534 73.2856 134.512 72.5287 135.621 72.381C136.599 72.288 137.577 72.5659 138.362 73.1601C139.139 73.7524 139.819 74.4623 140.379 75.2646C142.385 77.9193 144.013 81.0318 144.108 84.3621C144.523 84.6685 145.122 84.2698 145.328 83.7972C145.534 83.3246 145.541 82.7708 145.802 82.3203C146.103 81.7997 146.68 81.5228 147.132 81.1314C148.278 80.1383 148.565 78.4657 148.521 76.9482C148.477 75.4308 148.183 73.8911 148.469 72.3995C148.642 71.4838 149.032 70.6273 149.245 69.7227C149.458 68.8181 149.483 67.8028 148.98 67.0237C148.245 65.8791 146.698 65.6539 145.35 65.5468C143.818 65.4139 142.448 65.5838 141.47 64.2878C141.012 63.6115 140.495 62.9766 139.927 62.3901C139.732 62.1981 137.767 60.9796 137.767 60.8984Z" fill="#512E4E"/>
<path opacity="0.1" d="M97.8333 138.759L93.9939 131.625L92.7778 142.632C92.7778 142.632 93.4538 147.52 93.3179 148.27C93.1819 149.019 96.0881 155.739 96.0881 155.739C96.0881 155.739 105.688 172.922 109.609 173.808L122.854 164.297L119.341 159.815C119.341 159.815 118.125 159.339 117.82 159.815C117.82 159.815 111.299 148.539 110.623 147.723C109.947 146.907 110.079 145.279 110.079 145.279C110.079 145.279 109.065 144.194 109.403 143.175C109.741 142.156 107.445 138.622 107.445 138.622L109.539 136.654L97.8333 138.759Z" fill="black"/>
<path d="M94.1959 130.813L93.1819 131.625L91.9658 142.632C91.9658 142.632 92.6418 147.52 92.5058 148.27C92.3699 149.019 95.2798 155.739 95.2798 155.739C95.2798 155.739 104.876 172.922 108.797 173.808L122.045 164.297L118.529 159.815C118.529 159.815 117.313 159.339 117.008 159.815C117.008 159.815 110.487 148.539 109.811 147.723C109.135 146.907 109.271 145.279 109.271 145.279C109.271 145.279 108.257 144.193 108.595 143.174C108.933 142.155 106.633 138.622 106.633 138.622L108.727 136.654L94.1959 130.813Z" fill="white"/>
<path opacity="0.1" d="M157.122 173.93C157.857 174.827 157.394 178.855 157.394 178.855L155.366 182.23C155.366 182.23 155.487 184.408 155.494 187.344L152.085 188.414C151.777 188.511 151.45 188.532 151.132 188.476C150.814 188.421 150.514 188.289 150.257 188.093C150 187.897 149.793 187.641 149.654 187.349C149.515 187.056 149.448 186.734 149.458 186.41L150.046 167.354L158 170.411C157.324 170.884 158.066 172.043 158.066 172.043C158.066 172.043 156.38 173.033 157.122 173.93Z" fill="black"/>
<path d="M157.53 173.52C158.264 174.418 157.802 178.449 157.802 178.449L155.773 181.824C155.773 181.824 155.895 183.999 155.906 186.938L152.434 188.027C152.132 188.121 151.812 188.142 151.501 188.087C151.19 188.031 150.896 187.902 150.644 187.71C150.393 187.518 150.191 187.268 150.054 186.982C149.918 186.695 149.852 186.38 149.862 186.063L150.453 166.948L158.411 170.005C157.732 170.478 158.474 171.634 158.474 171.634C158.474 171.634 156.795 172.627 157.53 173.52Z" fill="white"/>
<path d="M160.164 164.438C160.164 164.438 159.624 167.905 158.272 168.108C156.92 168.311 156.314 173.716 154.965 173.524C153.617 173.332 154.51 168.499 154.557 167.561C154.605 166.623 153.088 162.739 154.223 161.857C155.358 160.974 158.952 161.857 158.952 161.857L160.164 164.438Z" fill="#CF6F80"/>
<path opacity="0.1" d="M163.041 137.74L165.591 132.571C165.591 132.571 166.605 136.51 166.605 138.615C166.605 140.719 168.023 140.926 168.023 140.926C168.023 140.926 169.577 142.772 168.758 144.116C167.938 145.46 167.608 148.805 167.608 148.805C167.608 148.805 167.876 155.189 166.66 156.071C165.444 156.954 165.19 159.062 165.19 159.062C165.19 159.062 162.956 163.068 163.026 164.02C163.096 164.973 159.918 171.423 159.918 171.423C159.918 171.423 161.472 163.407 152.415 159.944C152.415 159.944 152.346 157.223 153.022 156.477C153.698 155.731 154.752 155.392 154.091 151.622C153.429 147.852 153.9 143.348 153.9 142.443C153.9 141.539 155.928 135.897 155.928 135.897L163.041 137.74Z" fill="black"/>
<path d="M164.143 131.832L166.369 132.571C166.369 132.571 167.387 136.51 167.387 138.615C167.387 140.719 168.805 140.926 168.805 140.926C168.805 140.926 170.36 142.772 169.54 144.116C168.721 145.46 168.394 148.805 168.394 148.805C168.394 148.805 168.662 155.189 167.446 156.071C166.23 156.954 165.958 159.062 165.958 159.062C165.958 159.062 163.728 163.068 163.798 164.02C163.867 164.973 160.686 171.423 160.686 171.423C160.686 171.423 162.243 163.407 153.183 159.944C153.183 159.944 153.117 157.223 153.793 156.477C154.469 155.731 155.524 155.392 154.862 151.622C154.201 147.852 154.671 143.348 154.671 142.443C154.671 141.539 156.699 135.897 156.699 135.897L164.143 131.832Z" fill="white"/>
<path opacity="0.1" d="M114.965 265.81C114.965 265.81 118.515 263.568 120.844 265.197C123.173 266.825 114.965 265.81 114.965 265.81Z" fill="black"/>
<path opacity="0.1" d="M142.543 258.879C142.543 258.879 145.684 258.473 148.322 261.327C150.96 264.181 142.543 258.879 142.543 258.879Z" fill="black"/>
<g opacity="0.1">
<path opacity="0.1" d="M147.139 80.3229C146.687 80.7143 146.107 80.9949 145.806 81.5155C145.548 81.9622 145.541 82.5123 145.335 82.9923C145.13 83.4723 144.531 83.8637 144.116 83.5609C144.02 80.238 142.389 77.1181 140.386 74.4597C139.827 73.6575 139.146 72.9475 138.369 72.3552C137.583 71.7611 136.604 71.4833 135.625 71.5762C134.523 71.7275 133.553 72.4807 132.439 72.573C130.97 72.6986 129.651 71.6758 128.192 71.6242C127.599 71.6301 127.015 71.7633 126.477 72.0148C125.94 72.2663 125.462 72.6304 125.077 73.0826C124.31 73.9916 123.74 75.0518 123.405 76.195C122.827 77.9299 122.513 79.742 122.472 81.5708C122.45 82.6009 122.354 83.8858 121.406 84.2698C121.428 84.5426 121.428 84.8167 121.406 85.0895C122.361 84.7202 122.457 83.4206 122.479 82.3868C122.52 80.558 122.835 78.7457 123.412 77.011C123.748 75.8667 124.317 74.8053 125.084 73.8948C125.471 73.4439 125.948 73.0809 126.486 72.8301C127.023 72.5792 127.607 72.4463 128.199 72.4401C129.669 72.4918 130.992 73.5108 132.447 73.389C133.549 73.2967 134.526 72.5398 135.632 72.3921C136.612 72.2992 137.59 72.577 138.377 73.1712C139.153 73.7635 139.834 74.4734 140.394 75.2757C142.396 77.9304 144.027 81.0429 144.123 84.3732C144.538 84.6796 145.137 84.2809 145.343 83.8083C145.548 83.3357 145.556 82.7819 145.813 82.3314C146.114 81.8108 146.695 81.5339 147.147 81.1425C148.293 80.1494 148.58 78.4768 148.535 76.9593C148.535 76.9113 148.535 76.8633 148.535 76.819C148.466 78.1334 148.117 79.4737 147.139 80.3229Z" fill="black"/>
<path opacity="0.1" d="M120.017 80.0607C119.172 79.1266 118.019 78.5026 117.243 77.5131C116.591 76.6372 116.218 75.5827 116.174 74.4893C116.059 75.8557 116.438 77.2181 117.243 78.3254C118.019 79.3186 119.172 79.9426 120.017 80.8767C120.829 81.7904 121.316 82.9486 121.402 84.1701C121.459 83.4267 121.365 82.6796 121.127 81.9734C120.889 81.2673 120.512 80.6167 120.017 80.0607Z" fill="black"/>
<path opacity="0.1" d="M149.252 68.9142C149.035 69.8187 148.649 70.679 148.473 71.591C148.369 72.2004 148.33 72.8194 148.359 73.437C148.371 73.0852 148.41 72.7347 148.473 72.3885C148.649 71.4728 149.035 70.6162 149.252 69.7117C149.378 69.2127 149.419 68.6958 149.373 68.1831C149.35 68.4294 149.31 68.6737 149.252 68.9142Z" fill="black"/>
</g>
<path opacity="0.1" d="M48.766 280.822C68.5379 280.822 84.5662 278.235 84.5662 275.044C84.5662 271.852 68.5379 269.265 48.766 269.265C28.9941 269.265 12.9658 271.852 12.9658 275.044C12.9658 278.235 28.9941 280.822 48.766 280.822Z" fill="#FF677D"/>
<path d="M49.9196 164.353H47.616V216.475H49.9196V164.353Z" fill="#535461"/>
<path d="M64.3955 216.316L64.2522 218.664L64.0465 221.987L63.962 223.368L63.7599 226.691L63.6717 228.072L63.466 231.395L61.1439 269.081C61.043 270.702 60.3311 272.224 59.153 273.337C57.9749 274.449 56.4192 275.069 54.8025 275.069H42.7295C41.1132 275.069 39.5579 274.449 38.3804 273.336C37.2029 272.224 36.4917 270.702 36.3917 269.081L34.0807 231.369L33.875 228.046L33.7905 226.665L33.5847 223.342L33.5002 221.961L33.2945 218.639L33.1475 216.29C33.122 215.838 33.1886 215.386 33.3433 214.961C33.498 214.536 33.7375 214.147 34.0472 213.818C34.3568 213.489 34.73 213.227 35.1439 213.049C35.5578 212.87 36.0037 212.778 36.4542 212.779H61.1476C61.5964 212.783 62.0396 212.879 62.4499 213.062C62.8602 213.245 63.2289 213.51 63.5333 213.841C63.8376 214.173 64.0711 214.563 64.2194 214.989C64.3677 215.415 64.4276 215.866 64.3955 216.316Z" fill="#3F3D56"/>
<path d="M64.2522 218.664L64.0465 221.976H33.4855L33.2798 218.664H64.2522Z" fill="#9D9CB5"/>
<path d="M63.962 223.357L63.7599 226.673H33.7758L33.57 223.357H63.962Z" fill="#9D9CB5"/>
<path d="M63.6717 228.057L63.4697 231.369H34.066L33.8603 228.057H63.6717Z" fill="#9D9CB5"/>
<path d="M29.7619 183.888C43.1759 193.643 48.7752 208.899 48.7752 208.899C48.7752 208.899 32.6093 208.341 19.1915 198.586C5.77382 188.832 0.185547 173.579 0.185547 173.579C0.185547 173.579 16.3441 174.133 29.7619 183.888Z" fill="#FF677D"/>
<path d="M0.174652 173.579C0.174652 173.579 16.9578 182.939 22.3404 190.689C27.7229 198.439 48.7753 208.899 48.7753 208.899" stroke="#535461" stroke-width="2" stroke-miterlimit="10"/>
<path d="M38.4235 164.238C45.7239 169.544 48.777 177.848 48.777 177.848C48.777 177.848 39.9776 177.545 32.6735 172.239C25.3695 166.934 22.3237 158.626 22.3237 158.626C22.3237 158.626 31.1194 158.929 38.4235 164.238Z" fill="#FF677D"/>
<path d="M22.3237 158.626C22.3237 158.626 31.4574 163.721 34.3857 167.938C37.3139 172.154 48.777 177.848 48.777 177.848" stroke="#535461" stroke-width="2" stroke-miterlimit="10"/>
<path d="M59.3767 177.427C50.9888 186.69 49.2142 198.797 49.2142 198.797C49.2142 198.797 61.0411 195.88 69.4216 186.613C77.8022 177.345 79.5841 165.243 79.5841 165.243C79.5841 165.243 67.7646 168.163 59.3767 177.427Z" fill="#FF677D"/>
<path d="M79.5915 165.246C79.5915 165.246 68.6648 174.742 65.8872 181.285C63.1096 187.827 49.2142 198.797 49.2142 198.797" stroke="#535461" stroke-width="2" stroke-miterlimit="10"/>
<path d="M367.286 174.166C367.286 174.166 361.22 143.839 363.542 140.066C363.542 140.066 363.627 136.558 363.487 132.087C363.487 131.917 363.487 131.747 363.487 131.574C363.896 131.847 364.322 132.094 364.762 132.312C366.902 133.417 369.358 133.735 371.706 133.213L369.869 131.156C369.428 130.665 368.969 130.134 368.873 129.484C368.778 128.834 369.042 128.254 369.27 127.675C371.015 123.244 371.107 117.673 367.745 114.291C364.905 111.448 364.215 107.778 361.132 105.182C358.88 103.281 357.642 100.493 356.473 97.7979C355.485 95.5198 354.489 93.2233 353.924 90.8086C353.483 88.9219 353.306 86.9688 352.7 85.1264C352.094 83.284 350.959 81.4933 349.184 80.6699C348.552 80.3782 347.85 80.2121 347.274 79.8244C346.517 79.3112 346.061 78.4768 345.514 77.7457C342.732 74.0536 333.419 76.2283 329.01 77.7273C327.811 78.1048 326.701 78.7228 325.747 79.5438L325.788 79.4774C325.821 79.422 325.861 79.3666 325.898 79.3112C325.415 79.7034 324.998 80.1708 324.663 80.6958C324.02 81.7185 323.752 82.9111 323.216 84.0187C322.569 85.3294 318.972 88.9884 320.519 90.4615C320.627 90.5605 320.752 90.6404 320.886 90.6978C321.467 90.9407 322.106 91.0049 322.723 90.8824L322.657 91.0412C322.129 92.341 321.858 93.7318 321.86 95.1358C321.86 101.202 326.838 106.12 332.985 106.12C334.141 106.121 335.289 105.943 336.391 105.592C336.417 105.732 336.439 105.873 336.464 106.013C336.464 106.068 336.483 106.124 336.49 106.179L336.295 106.452C336.286 106.435 336.275 106.419 336.262 106.404L330.494 114.505C329.612 115.129 324.535 118.821 324.248 121.59C323.947 124.621 323.646 128.17 323.646 128.17L323.605 128.93C323.353 129.142 323.058 129.296 322.741 129.382C322.424 129.468 322.092 129.484 321.768 129.429C319.968 129.133 319.968 136.074 319.968 136.074C319.968 136.074 318.77 137.182 317.947 136.222C317.124 135.262 314.949 138.515 314.949 138.515L301.318 139.106L301.006 139.124L300.271 136.839C300.192 136.598 300.022 136.398 299.797 136.282C299.572 136.167 299.31 136.145 299.07 136.222C299.013 136.241 298.957 136.264 298.904 136.292L298.853 136.322L298.757 136.388L298.71 136.433C298.683 136.457 298.659 136.483 298.636 136.51L298.592 136.562L298.57 136.584C298.485 136.702 298.429 136.838 298.406 136.982C298.383 137.125 298.394 137.272 298.438 137.411L299.07 139.372C296.439 139.903 293.75 141.402 295.943 145.53L284.825 143.466L288.422 146.501L306.991 150.352C306.745 150.795 306.906 151.438 307.674 152.342C310.981 156.245 317.007 157.304 319.431 157.578C320.072 159.017 320.872 160.38 321.816 161.639L321.606 165.527C321.606 165.527 315.467 195.16 314.343 196.663C314.91 196.017 315.43 195.329 315.897 194.606C314.115 200.695 311.624 209.028 310.97 210.276C309.919 212.27 308.946 220.337 310.143 220.854C310.511 221.013 311.562 220.935 313.061 220.821V221.489L312.994 246.813C312.994 246.813 313.296 262.346 312.469 263.827C311.642 265.307 311.422 268.412 311.422 268.412C311.422 268.412 308.115 274.538 305.496 277C305.478 277.02 305.458 277.037 305.437 277.052L305.356 276.476C305.356 276.476 302.207 280.471 295.241 280.246C295.241 280.246 291.049 282.985 297.266 283.133C303.482 283.281 311.422 282.912 311.422 282.912C311.422 282.912 316.966 274.42 321.61 275.527V281.963H323.032V275.424C323.691 274.988 324.256 274.421 324.691 273.759C325.126 273.097 325.423 272.354 325.563 271.573C325.685 270.768 325.596 269.946 325.305 269.186C325.014 268.427 324.53 267.757 323.903 267.242C323.621 266.986 323.395 266.674 323.238 266.326C323.082 265.978 323 265.601 322.995 265.219L322.944 265.263C322.944 265.134 322.911 265.001 322.896 264.864C322.488 261.541 321.978 254.685 323.782 249.612C326.254 242.656 327.004 232.968 325.203 227.201C324.623 225.357 324.145 223.482 323.774 221.585C323.73 221.345 323.69 221.116 323.653 220.902C324.884 221.069 326.102 221.316 327.301 221.64C331.471 222.796 340.594 223.01 348.383 222.947C348.402 223.161 348.424 223.387 348.449 223.612C348.588 225.177 348.879 226.726 349.316 228.234C350.294 231.188 350.742 244.21 350.742 244.21C350.742 244.21 352.002 254.918 351.315 259.274C350.948 261.696 350.58 264.13 350.371 266.574V266.622C350.371 266.622 348.306 272.529 346.796 275.738C346.759 275.819 346.719 275.9 346.682 275.978C346.279 276.015 345.883 276.103 345.503 276.24C345.503 276.24 343.478 280.301 341.461 280.973C339.444 281.645 340.113 283.857 344.68 283.044C349.247 282.232 356.143 281.568 356.143 281.568L356.44 277.425L357.844 275.66L357.476 279.792L358.972 279.496L358.773 274.471L361.07 271.584C361.07 271.584 363.844 269.103 359.721 264.222V264.329C359.677 264.259 359.637 264.185 359.589 264.115V264.093C358.906 263.029 358.362 261.047 359.358 257.528C361.158 251.17 362.205 245.399 362.205 245.399C362.205 245.399 366.224 229.94 361.393 222.626H361.606C361.111 221.597 360.761 220.503 360.566 219.377C360.542 219.244 360.52 219.107 360.5 218.967C364.075 218.76 367.584 218.111 370.446 216.708C370.435 216.693 368.712 180.007 367.286 174.166ZM321.9 148.58V148.654L321.166 148.691L321.9 148.58ZM319.38 148.931C319.259 148.957 319.146 149.012 319.049 149.089C318.733 149.538 318.535 150.06 318.472 150.607L317.326 150.348C317.326 150.348 316.522 150.175 315.364 149.979L314.817 149.425C316.323 149.3 317.888 149.115 319.38 148.931Z" fill="url(#paint1_linear)"/>
<path d="M357.307 274.523L356.87 279.755L358.336 279.46L358.116 273.785L357.307 274.523Z" fill="#1D2366"/>
<path d="M323.862 249.682C322.095 254.74 322.595 261.567 322.992 264.883C323.139 266.109 323.275 266.854 323.275 266.854C323.275 266.854 320.633 272.902 320.412 273.131C320.192 273.36 312.638 277.994 312.638 277.994L307.358 281.091C307.358 281.091 302.002 278.732 304.57 277.92C305.095 277.708 305.567 277.384 305.955 276.971C308.527 274.516 311.756 268.413 311.756 268.413C311.756 268.413 311.977 265.315 312.785 263.842C313.593 262.368 313.299 246.887 313.299 246.887L313.362 221.651V218.362L323.41 218.435C323.474 219.552 323.619 220.663 323.844 221.758C324.205 223.649 324.672 225.518 325.244 227.356C327.015 233.112 326.28 242.752 323.862 249.682Z" fill="#FFB0B1"/>
<path opacity="0.1" d="M323.275 266.854C323.275 266.854 320.633 272.902 320.412 273.131C320.192 273.36 312.638 277.994 312.638 277.994L307.358 281.091C307.358 281.091 302.002 278.732 304.57 277.92C305.095 277.708 305.567 277.384 305.955 276.971L306.183 278.584L307.943 278.511L323.006 264.89C323.139 266.109 323.275 266.854 323.275 266.854Z" fill="black"/>
<path d="M323.091 265.234L307.943 278.946L306.183 279.02L305.815 276.436C305.815 276.436 302.736 280.416 295.895 280.194C295.895 280.194 291.788 282.923 297.876 283.07C303.964 283.218 311.738 282.849 311.738 282.849C311.738 282.849 317.168 274.357 321.713 275.465V281.878H323.109V275.406C323.758 274.966 324.312 274.4 324.738 273.74C325.163 273.08 325.452 272.34 325.585 271.566C325.706 270.768 325.621 269.952 325.337 269.196C325.053 268.441 324.581 267.772 323.965 267.253C323.69 266.994 323.471 266.681 323.321 266.334C323.17 265.987 323.092 265.612 323.091 265.234Z" fill="#1D2366"/>
<path d="M358.704 257.569C357.726 261.076 358.259 263.051 358.928 264.111V264.133C359.785 265.442 360.382 266.905 360.684 268.442L360.743 268.774L353.85 278.872L350.11 280.349C350.11 280.349 344.096 278.285 345.194 277.695C345.47 277.551 345.9 276.783 346.392 275.723C347.861 272.529 349.89 266.637 349.89 266.637V266.589C350.103 264.155 350.441 261.73 350.815 259.315C351.488 254.969 350.253 244.303 350.253 244.303C350.253 244.303 349.812 231.332 348.857 228.382C348.426 226.882 348.139 225.344 348.001 223.789C347.803 221.943 347.759 220.422 347.759 220.422C347.759 220.422 351.719 214.884 358.979 220.865C359.56 221.342 360.071 221.899 360.497 222.519C365.512 229.689 361.474 245.484 361.474 245.484C361.474 245.484 360.464 251.229 358.704 257.569Z" fill="#FFB0B1"/>
<path opacity="0.1" d="M360.754 268.774L353.861 278.872L350.121 280.349C350.121 280.349 344.106 278.285 345.205 277.695C345.481 277.551 345.91 276.783 346.403 275.723C348.949 275.701 350.268 278.138 350.268 278.138L353.494 277.621C353.494 277.621 357.748 269.217 358.704 268.704C359.659 268.191 358.851 264.868 358.851 264.868V264.023C358.876 264.052 358.898 264.085 358.928 264.115V264.137C359.785 265.445 360.382 266.909 360.684 268.446L360.754 268.774Z" fill="black"/>
<path d="M350.488 278.355C350.488 278.355 348.651 274.966 345.132 276.218C345.132 276.218 343.151 280.279 341.171 280.936C339.191 281.594 339.852 283.809 344.327 283C348.802 282.192 355.548 281.523 355.548 281.523L355.842 277.392L360.39 271.569C360.39 271.569 363.102 269.099 359.067 264.237V265.082C359.067 265.082 359.876 268.405 358.92 268.918C357.965 269.432 353.725 277.839 353.725 277.839L350.488 278.355Z" fill="#1D2366"/>
<path opacity="0.1" d="M323.421 218.428C323.485 219.545 323.63 220.656 323.855 221.751C319.718 221.142 315.879 221.445 313.362 221.644V218.354L323.421 218.428Z" fill="black"/>
<path opacity="0.1" d="M360.904 223.438C360.904 223.438 355.026 223.726 348.016 223.785C347.817 221.939 347.773 220.418 347.773 220.418C347.773 220.418 351.734 214.88 358.994 220.861C359.574 221.338 360.085 221.895 360.511 222.515C360.625 222.83 360.756 223.138 360.904 223.438Z" fill="black"/>
<path d="M360.904 222.774C360.904 222.774 335.156 224.025 327.309 221.814C319.461 219.602 311.683 221.518 310.511 221.005C309.339 220.492 310.29 212.454 311.319 210.464C312.348 208.474 317.991 188.348 317.991 188.348L323.421 159.896L329.142 158.312L329.546 158.198L339.514 155.436L346.818 153.409C346.818 153.409 361.342 210.39 360.096 214.592C359.644 216.201 359.571 217.894 359.883 219.536C360.073 220.657 360.417 221.747 360.904 222.774Z" fill="#1D2366"/>
<path d="M304.493 140.439C304.493 140.439 299.349 145.977 303.243 149.063C307.138 152.15 309.699 149.359 309.699 149.359L304.493 140.439Z" fill="#C7DAF5"/>
<path opacity="0.1" d="M304.493 140.439C304.493 140.439 299.349 145.977 303.243 149.063C307.138 152.15 309.699 149.359 309.699 149.359L304.493 140.439Z" fill="black"/>
<path d="M346.05 104.027C346.05 104.027 345.448 104.603 344.54 105.452C343.247 106.666 341.333 108.442 339.635 109.93C337.284 111.987 335.344 113.497 336.038 112.208C336.733 110.92 336.6 108.675 336.255 106.574C336.229 106.434 336.207 106.294 336.182 106.157C335.896 104.614 335.516 103.09 335.046 101.593C335.046 101.593 338.845 96.6607 340.947 94.7149C341.729 93.9765 342.277 93.6738 342.31 94.187C342.347 94.8774 342.861 96.4023 343.5 98.0194C343.519 98.0711 343.537 98.1191 343.559 98.1708C343.985 99.2784 344.467 100.416 344.889 101.398C345.536 102.904 346.05 104.027 346.05 104.027Z" fill="#FFB0B1"/>
<path opacity="0.1" d="M343.559 98.1709C343.202 100.101 342.336 101.898 341.051 103.377C339.766 104.855 338.11 105.959 336.255 106.574C335.963 104.889 335.559 103.225 335.046 101.593C335.046 101.593 342.2 92.3077 342.31 94.187C342.336 94.8996 342.894 96.4798 343.559 98.1709Z" fill="black"/>
<path opacity="0.1" d="M335.542 109.055L336.468 107.745C336.468 107.745 337.082 111.503 339.338 109.845C341.593 108.188 341.704 122.321 341.704 122.321L339.282 158.7L321.787 157.648L322.283 140.069L324.263 131.208L329.16 118.326L332.074 114.069L335.542 109.055Z" fill="black"/>
<path d="M341.704 122.546L339.499 155.44L339.268 158.925L329.513 158.338L329.146 158.316L321.798 157.873L322.294 140.291L324.274 131.43L329.171 118.548L332.085 114.291L335.553 109.258L336.479 107.951C336.479 107.951 337.093 111.71 339.349 110.052L339.396 110.019C341.601 108.616 341.704 122.546 341.704 122.546Z" fill="#1D2366"/>
<path d="M324.52 128.351C324.52 128.351 323.642 130.197 321.878 129.898C320.115 129.599 320.119 136.543 320.119 136.543C320.119 136.543 318.946 137.651 318.138 136.691C317.33 135.731 315.199 138.977 315.199 138.977L301.847 139.567C301.847 139.567 307.788 142.296 306.624 150.552C306.624 150.552 326.794 149.296 327.456 147.38C328.117 145.464 324.52 128.351 324.52 128.351Z" fill="white"/>
<path opacity="0.03" d="M324.52 128.351C324.52 128.351 323.642 130.197 321.878 129.898C320.115 129.599 320.119 136.543 320.119 136.543C320.119 136.543 318.946 137.651 318.138 136.691C317.33 135.731 315.199 138.977 315.199 138.977L301.847 139.567C301.847 139.567 307.788 142.296 306.624 150.552C306.624 150.552 326.794 149.296 327.456 147.38C328.117 145.464 324.52 128.351 324.52 128.351Z" fill="black"/>
<path d="M285.718 143.906L289.238 146.926L318.212 153.044L314.618 149.359L285.718 143.906Z" fill="white"/>
<path d="M335.597 110.218C335.116 110.957 333.738 114.737 332.588 118.038C331.629 120.789 330.828 123.207 330.828 123.207C330.828 123.207 328.958 135.443 328.003 137.655C327.048 139.866 327.566 148.491 327.566 148.491L324.006 169.791C324.006 169.791 322.393 180.775 319.902 187.336C317.444 193.794 314.707 196.822 314.622 196.918C315.724 195.419 321.731 165.903 321.731 165.903L323.715 128.679C323.715 128.679 324.006 125.142 324.3 122.118C324.594 119.094 330.546 114.966 330.546 114.966L336.284 106.766C336.861 107.541 336.475 108.893 335.597 110.218Z" fill="white"/>
<path d="M320.633 158.058C320.633 158.058 312.182 157.688 308.09 152.748C303.997 147.808 317.55 150.777 317.55 150.777L321.074 151.589L320.633 158.058Z" fill="#FFB0B1"/>
<path opacity="0.1" d="M360.096 214.596C359.644 216.204 359.571 217.897 359.883 219.539C350.665 220.197 340.803 217.693 340.803 217.693C338.966 219.392 334.128 221.895 334.128 221.895L331.49 189.035C329.803 184.604 329.142 161.392 329.142 161.392C329.142 161.392 329.293 160.177 329.509 158.357C329.509 158.312 329.509 158.264 329.528 158.22C330.185 153.136 331.49 143.592 332.129 142.303C333.011 140.531 329.418 135.816 329.418 135.816L331.052 121.804L331.251 120.113C334.697 118.566 337.339 113.626 337.339 113.626L339.367 110.056C341.571 108.634 341.685 122.565 341.685 122.565L339.481 155.458L346.785 153.431C346.785 153.431 361.342 210.394 360.096 214.596Z" fill="black"/>
<path d="M369.557 216.866C359.508 221.88 341.244 217.235 341.244 217.235C339.407 218.934 334.569 221.437 334.569 221.437L331.927 188.577C330.244 184.146 329.583 160.934 329.583 160.934C329.583 160.934 331.706 143.614 332.588 141.845C332.845 141.328 332.721 140.56 332.416 139.733C330.916 135.797 330.365 131.56 330.806 127.368L331.512 121.346L331.707 119.659C335.156 118.108 337.798 113.168 337.798 113.168L339.635 109.934L343.015 103.975L344.617 101.154L344.889 101.401L346.965 103.292C346.965 103.292 347.847 104.03 349.169 105.138C352.046 107.575 357.017 111.865 359.582 114.49C361.838 116.801 362.55 125.792 362.756 132.56C362.892 137.016 362.811 140.509 362.811 140.509C360.537 144.271 366.485 174.477 366.485 174.477C367.87 180.314 369.557 216.866 369.557 216.866Z" fill="white"/>
<path opacity="0.03" d="M350.268 113.095C350.268 113.095 343.372 126.287 344.173 131.301C344.974 136.314 347.252 141.989 346.153 143.315C345.776 143.817 345.288 144.225 344.727 144.506C344.167 144.787 343.55 144.934 342.924 144.936C341.821 145.01 338.882 147.073 338.882 147.295C338.882 147.516 336.167 147.516 333.738 148.55C331.31 149.584 327.724 150.171 327.724 150.171C327.724 150.171 320.743 149.95 320.093 150.614C319.442 151.279 318.774 155.255 320.166 158.427C321.559 161.598 323.106 163.965 324.274 164.397C325.442 164.829 332.857 162.333 338.871 161.742C344.885 161.152 351.414 156.363 351.414 156.363C351.414 156.363 358.604 153.778 359.865 149.433C361.125 145.087 358.325 121.202 358.325 121.202C358.325 121.202 356.209 110.071 350.268 113.095Z" fill="black"/>
<path opacity="0.03" d="M349.386 111.987C349.386 111.987 342.49 125.183 343.298 130.193C344.107 135.203 346.377 140.882 345.275 142.211C344.899 142.714 344.412 143.122 343.852 143.403C343.292 143.684 342.675 143.831 342.049 143.832C340.947 143.905 338.008 145.969 338.008 146.191C338.008 146.412 335.292 146.412 332.864 147.443C330.435 148.473 326.849 149.063 326.849 149.063C326.849 149.063 319.869 148.842 319.222 149.506C318.575 150.171 317.899 154.151 319.295 157.319C320.692 160.487 322.235 162.857 323.403 163.289C324.571 163.721 331.986 161.225 338 160.638C344.015 160.051 350.544 155.255 350.544 155.255C350.544 155.255 357.73 152.671 358.976 148.329C360.221 143.987 357.436 120.095 357.436 120.095C357.436 120.095 355.327 108.967 349.386 111.987Z" fill="black"/>
<path d="M350.051 112.43C350.051 112.43 343.155 125.626 343.963 130.636C344.772 135.646 347.042 141.325 345.944 142.65C345.568 143.154 345.08 143.563 344.519 143.845C343.959 144.127 343.341 144.274 342.714 144.275C341.612 144.349 338.673 146.413 338.673 146.63C338.673 146.848 335.961 146.852 333.529 147.886C331.097 148.92 327.514 149.507 327.514 149.507C327.514 149.507 320.534 149.285 319.883 149.95C319.233 150.614 318.564 154.594 319.957 157.762C321.349 160.93 322.896 163.3 324.064 163.732C325.233 164.164 332.647 161.669 338.662 161.078C344.676 160.487 351.205 155.698 351.205 155.698C351.205 155.698 358.395 153.114 359.655 148.768C360.915 144.422 358.134 120.538 358.134 120.538C358.134 120.538 355.989 109.425 350.051 112.43Z" fill="white"/>
<path opacity="0.1" d="M349.901 147.823C349.901 147.823 344.389 146.715 346.307 148.561C348.225 150.407 348.214 152.025 350.562 151.951C352.91 151.877 349.901 147.823 349.901 147.823Z" fill="black"/>
<path opacity="0.1" d="M359.214 187.543C359.214 187.543 356.723 189.238 361.489 193.144C366.254 197.05 359.214 187.543 359.214 187.543Z" fill="black"/>
<path opacity="0.1" d="M354.46 201.474C354.46 201.695 353.578 209.596 356.878 211.572C360.177 213.547 354.46 201.474 354.46 201.474Z" fill="black"/>
<path d="M302.075 139.549C299.415 139.641 293.669 140.457 296.648 146.043C299.283 150.987 303.71 147.683 306.201 145.176C305.593 142.838 304.117 140.824 302.075 139.549Z" fill="#FFB0B1"/>
<path d="M306.234 145.131L306.343 145.017L306.234 145.131Z" fill="#FFB0B1"/>
<path opacity="0.1" d="M349.169 105.363C346.348 107.301 343.982 108.937 343.519 109.277C342.255 110.218 339.845 115.745 338.29 118.566C337.052 120.837 333.029 121.42 331.512 121.564L331.707 119.877C335.156 118.326 337.798 113.386 337.798 113.386L344.617 101.372L346.965 103.517C346.965 103.517 347.847 104.255 349.169 105.363Z" fill="black"/>
<path d="M349.169 105.142C346.348 107.08 343.982 108.716 343.519 109.059C342.255 109.997 339.845 115.524 338.29 118.345C337.052 120.615 333.029 121.199 331.512 121.343L331.707 119.655C335.156 118.105 337.798 113.165 337.798 113.165L344.617 101.15L346.965 103.288C346.965 103.288 347.847 104.019 349.169 105.142Z" fill="#DCE7FF"/>
<path d="M343.739 95.734C343.741 97.9503 343.072 100.115 341.821 101.94C340.344 104.099 338.146 105.654 335.626 106.323C333.106 106.993 330.43 106.732 328.085 105.588C325.74 104.445 323.88 102.494 322.843 100.091C321.807 97.6874 321.662 94.99 322.435 92.4883C323.208 89.9865 324.848 87.8461 327.057 86.4555C329.266 85.0648 331.898 84.516 334.475 84.9087C337.053 85.3013 339.404 86.6094 341.104 88.5955C342.804 90.5817 343.739 93.1144 343.739 95.734Z" fill="#FFB0B1"/>
<path opacity="0.1" d="M362.756 132.563C361.264 131.641 360.049 130.329 359.24 128.768C358.626 127.549 358.219 126.143 357.172 125.279C356.227 124.503 354.967 124.315 353.791 123.968C349.926 122.82 346.686 119.275 346.564 115.229C346.506 113.323 347.097 111.422 346.829 109.535C346.677 108.468 346.254 107.457 345.602 106.6C345.278 106.19 344.923 105.806 344.54 105.452C344.026 104.964 343.486 104.492 343.015 103.975C342.719 103.655 342.46 103.302 342.244 102.923C342.069 102.612 341.927 102.284 341.821 101.944C341.086 99.6846 341.755 97.0041 340.947 94.7187L340.903 94.5931C340.598 93.7809 339.977 92.9686 339.113 92.9058C338.25 92.8431 337.512 93.563 336.689 93.8842C334.965 94.5562 333.106 93.4116 331.67 92.2449C330.233 91.0782 328.613 89.7453 326.787 90.0038C325.578 90.1773 324.623 91.0044 323.51 91.4326C323.258 91.5304 322.999 91.6058 322.734 91.6579C323.677 89.2968 325.407 87.3391 327.63 86.1212C329.852 84.9032 332.427 84.5011 334.913 84.9839C337.398 85.4666 339.639 86.8041 341.249 88.7665C342.86 90.729 343.74 93.1939 343.739 95.7377C343.74 96.5059 343.66 97.272 343.5 98.0231C343.519 98.0748 343.537 98.1228 343.559 98.1745C343.985 99.2822 344.467 100.419 344.889 101.401L346.965 103.292C346.965 103.292 347.847 104.03 349.169 105.138C352.046 107.575 357.017 111.865 359.582 114.49C361.838 116.809 362.543 125.796 362.756 132.563Z" fill="black"/>
<path d="M323.381 84.687C323.906 83.6126 324.167 82.409 324.796 81.3899C325.718 79.9131 327.327 78.9679 328.98 78.3956C333.297 76.9003 342.42 74.7293 345.146 78.3956C345.683 79.134 346.127 79.9537 346.869 80.4632C347.435 80.8509 348.119 81.017 348.74 81.3087C350.477 82.1284 351.587 83.9154 352.178 85.7393C352.77 87.5632 352.946 89.5201 353.38 91.3994C353.935 93.8103 354.908 96.0958 355.878 98.3665C357.021 101.047 358.233 103.827 360.438 105.721C363.447 108.306 364.112 111.965 366.904 114.8C370.211 118.168 370.104 123.724 368.399 128.136C368.175 128.716 367.922 129.322 368.01 129.938C368.098 130.555 368.554 131.116 368.984 131.607L370.791 133.656C366.515 134.694 361.676 132.449 359.685 128.509C359.071 127.291 358.663 125.888 357.612 125.02C356.672 124.245 355.408 124.06 354.236 123.713C350.371 122.561 347.13 119.013 347.009 114.966C346.95 113.065 347.542 111.163 347.274 109.28C347.124 108.206 346.7 107.188 346.043 106.327C345.032 105.001 343.508 104.111 342.685 102.635C341.292 100.165 342.35 96.9561 341.347 94.3051C341.039 93.4928 340.421 92.6806 339.558 92.6178C338.695 92.555 337.956 93.275 337.129 93.5962C335.41 94.2682 333.551 93.1273 332.114 91.9569C330.678 90.7865 329.058 89.4573 327.228 89.7194C326.019 89.8893 325.067 90.7163 323.954 91.1483C323.131 91.4658 321.463 91.7501 320.743 91.0523C319.222 89.6456 322.745 86.0014 323.381 84.687Z" fill="#591D4B"/>
<path opacity="0.1" d="M360.706 127.291C360.089 126.072 359.685 124.669 358.634 123.805C357.693 123.03 356.429 122.842 355.254 122.495C351.392 121.346 348.152 117.798 348.027 113.752C347.968 111.85 348.559 109.945 348.295 108.062C348.141 106.994 347.717 105.983 347.064 105.127C346.05 103.801 344.525 102.912 343.706 101.435C342.314 98.9683 343.372 95.7598 342.365 93.1052C342.06 92.2966 341.439 91.4843 340.579 91.4179C339.72 91.3514 338.974 92.0788 338.151 92.4C336.431 93.0719 334.569 91.9274 333.136 90.7607C331.703 89.5939 330.075 88.2611 328.249 88.5195C327.04 88.693 326.085 89.5201 324.976 89.9484C324.153 90.2659 322.481 90.5539 321.761 89.8561C320.247 88.3792 323.771 84.7424 324.402 83.4354C324.928 82.3573 325.189 81.1573 325.821 80.1383C325.854 80.0829 325.89 80.0276 325.927 79.9722C325.455 80.3657 325.047 80.8317 324.718 81.353C324.09 82.3721 323.829 83.5683 323.304 84.6501C322.668 85.9571 319.145 89.605 320.662 91.0708C321.397 91.7723 323.05 91.4843 323.873 91.1668C324.976 90.7348 325.938 89.9078 327.147 89.7379C328.984 89.4758 330.601 90.8086 332.034 91.9754C333.466 93.1421 335.34 94.2867 337.052 93.6147C337.875 93.2935 338.595 92.5698 339.477 92.6363C340.359 92.7027 340.947 93.5113 341.266 94.3236C342.269 96.9746 341.211 100.183 342.604 102.653C343.427 104.104 344.952 105.012 345.962 106.345C346.619 107.206 347.043 108.224 347.193 109.299C347.461 111.182 346.869 113.083 346.928 114.985C347.049 119.046 350.29 122.58 354.155 123.732C355.32 124.079 356.591 124.263 357.532 125.039C358.586 125.906 359.001 127.309 359.604 128.528C361.595 132.467 366.434 134.712 370.71 133.675L369.858 132.707C366.151 132.763 362.4 130.643 360.706 127.291Z" fill="black"/>
<path opacity="0.1" d="M335.377 110.44C334.896 111.178 333.518 114.959 332.368 118.26C331.291 117.839 330.314 115.155 330.314 115.155L336.053 106.951C336.641 107.763 336.255 109.111 335.377 110.44Z" fill="black"/>
<path d="M335.597 110.218C335.116 110.957 333.738 114.738 332.588 118.038C331.512 117.621 330.534 114.933 330.534 114.933L336.273 106.733C336.861 107.541 336.475 108.893 335.597 110.218Z" fill="#DCE7FF"/>
<path d="M302.229 147.937L299.048 137.854C299.01 137.736 298.996 137.612 299.006 137.488C299.016 137.365 299.051 137.244 299.108 137.134C299.164 137.024 299.242 136.926 299.336 136.846C299.431 136.767 299.54 136.706 299.658 136.669C299.894 136.595 300.151 136.617 300.371 136.732C300.591 136.847 300.757 137.045 300.833 137.282L304.015 147.354L303.699 149.462L302.229 147.937Z" fill="#BE8B87"/>
<path opacity="0.1" d="M299.349 136.968C299.586 136.893 299.844 136.915 300.065 137.03C300.286 137.144 300.452 137.343 300.528 137.581L303.71 147.653L303.471 149.233L303.703 149.477L304.019 147.369L300.819 137.297C300.743 137.059 300.576 136.862 300.356 136.747C300.136 136.632 299.88 136.609 299.643 136.684C299.444 136.749 299.272 136.879 299.154 137.053C299.217 137.019 299.282 136.991 299.349 136.968Z" fill="white"/>
<path d="M302.229 147.937L304.015 147.369L303.754 149.097L303.699 149.477L303.177 148.931L302.229 147.937Z" fill="#EFC8C4"/>
<path d="M303.177 148.931C303.208 148.891 303.247 148.858 303.291 148.835C303.317 148.818 303.347 148.809 303.378 148.809C303.408 148.809 303.438 148.818 303.464 148.835C303.489 148.865 303.51 148.898 303.526 148.934C303.551 148.975 303.584 149.01 303.623 149.036C303.663 149.062 303.707 149.079 303.754 149.086L303.699 149.455L303.177 148.931Z" fill="#727A9C"/>
<path d="M299.029 141.436C299.029 141.436 305.411 141.399 303.908 144.127C302.406 146.856 300.058 147.184 300.058 147.184L299.029 141.436Z" fill="#FFB0B1"/>
<path d="M259.338 18.9851H259.063C248.099 18.9851 238.403 24.815 232.826 33.4178C227.249 24.815 217.553 18.9851 206.59 18.9851H206.314C198.086 19.0639 190.222 22.4026 184.43 28.2756C178.638 34.1486 175.386 42.0814 175.382 50.35C175.382 60.6179 179.857 75.1871 188.583 87.1756C205.208 110.019 232.826 130.005 232.826 130.005C232.826 130.005 260.444 110.023 277.066 87.1756C285.795 75.1871 290.267 60.6179 290.267 50.35C290.262 42.082 287.011 34.1498 281.22 28.2769C275.429 22.404 267.565 19.0649 259.338 18.9851ZM255.396 88.933C254.147 88.9283 252.929 88.5442 251.902 87.8312C250.874 87.1183 250.086 86.1098 249.639 84.9381H243.084C242.653 84.9354 242.233 84.7973 241.883 84.5432C241.533 84.289 241.271 83.9314 241.133 83.5203L239.12 77.4246L232.749 99.7954C232.625 100.226 232.365 100.605 232.009 100.874C231.652 101.144 231.218 101.29 230.772 101.291H230.644C230.178 101.268 229.735 101.086 229.387 100.774C229.039 100.462 228.808 100.04 228.733 99.5775L222.168 59.8942L217.369 83.3764C217.259 83.8224 217.004 84.2186 216.643 84.5017C216.283 84.7848 215.839 84.9384 215.382 84.9381H206.149C205.872 84.9499 205.596 84.9053 205.336 84.807C205.077 84.7086 204.841 84.5586 204.641 84.366C204.441 84.1734 204.281 83.9421 204.173 83.686C204.064 83.43 204.008 83.1544 204.008 82.8761C204.008 82.5977 204.064 82.3222 204.173 82.0661C204.281 81.8101 204.441 81.5788 204.641 81.3861C204.841 81.1935 205.077 81.0435 205.336 80.9452C205.596 80.8468 205.872 80.8022 206.149 80.814H213.765L220.562 49.2423C220.674 48.7756 220.943 48.3622 221.324 48.073C221.706 47.7838 222.175 47.6366 222.652 47.6567C223.13 47.6767 223.585 47.8627 223.941 48.183C224.297 48.5032 224.531 48.9377 224.604 49.4122L231.309 89.893L237.018 69.8778C237.137 69.4563 237.388 69.0847 237.735 68.8185C238.081 68.5523 238.504 68.4059 238.94 68.401H238.98C239.412 68.4011 239.833 68.5382 240.182 68.7928C240.532 69.0474 240.793 69.4065 240.927 69.8187L244.568 80.8251H249.558C249.913 79.742 250.558 78.7785 251.423 78.0409C252.289 77.3033 253.34 76.8203 254.461 76.6451C255.582 76.47 256.73 76.6096 257.777 77.0484C258.824 77.4873 259.73 78.2083 260.396 79.132C261.061 80.0558 261.459 81.1462 261.546 82.283C261.634 83.4199 261.407 84.5588 260.891 85.5743C260.375 86.5897 259.59 87.4421 258.622 88.0375C257.654 88.6328 256.542 88.9478 255.407 88.9478L255.396 88.933Z" fill="#FF677D"/>
</g>
<defs>
<linearGradient id="paint0_linear" x1="130.918" y1="286.094" x2="130.918" y2="58.901" gradientUnits="userSpaceOnUse">
<stop stop-color="#808080" stop-opacity="0.25"/>
<stop offset="0.54" stop-color="#808080" stop-opacity="0.12"/>
<stop offset="1" stop-color="#808080" stop-opacity="0.1"/>
</linearGradient>
<linearGradient id="paint1_linear" x1="82011" y1="171420" x2="82011" y2="54800.1" gradientUnits="userSpaceOnUse">
<stop stop-color="#808080" stop-opacity="0.25"/>
<stop offset="0.54" stop-color="#808080" stop-opacity="0.12"/>
<stop offset="1" stop-color="#808080" stop-opacity="0.1"/>
</linearGradient>
<clipPath id="clip0">
<rect width="406" height="289" fill="white"/>
</clipPath>
</defs>
</svg>
