<svg width="17" height="16" viewBox="0 0 17 16" fill="none" xmlns="http://www.w3.org/2000/svg">
<path d="M8.4985 0C3.80606 0 0 3.58217 0 7.99859C0 12.4178 3.80606 16 8.4985 16C13.1939 16 17 12.4178 17 7.99859C17 3.58217 13.1939 0 8.4985 0ZM8.4985 1.38947C10.1096 1.38947 11.5919 1.91087 12.7807 2.7733C11.9273 3.80764 10.7474 4.6278 9.24714 5.2253C8.52845 3.9852 7.70495 2.77611 6.77664 1.60085C7.32764 1.46838 7.90558 1.38947 8.4985 1.38947ZM5.33028 2.10816C6.27356 3.27215 7.10904 4.46997 7.83671 5.69597C6.11485 6.17509 4.0606 6.41747 1.68593 6.43438C2.17703 4.54324 3.52757 2.9734 5.33028 2.10816ZM1.47631 7.99859C1.47631 7.94222 1.48529 7.88586 1.48829 7.82949C4.21332 7.82385 6.56403 7.53074 8.53444 6.94733C8.69914 7.26299 8.85785 7.58147 9.00758 7.90277C6.61494 8.60454 4.64154 10.0504 3.10534 12.2205C2.09019 11.0763 1.47631 9.60507 1.47631 7.99859ZM8.4985 14.6077C6.87546 14.6077 5.38119 14.0807 4.18936 13.207C5.58482 11.1467 7.36657 9.808 9.57055 9.18795C10.2293 10.8001 10.7115 12.4601 11.0199 14.1596C10.2353 14.4471 9.38788 14.6077 8.4985 14.6077ZM12.3974 13.4916C12.086 11.9246 11.6308 10.3914 11.0379 8.89484C12.3645 8.71728 13.8288 8.76237 15.4279 9.02448C15.1164 10.8818 13.9905 12.4883 12.3974 13.4916ZM10.4689 7.57865C10.2982 7.2038 10.1185 6.82896 9.9269 6.45693C11.5619 5.79179 12.8765 4.88427 13.8557 3.73719C14.811 4.79972 15.4129 6.14973 15.4997 7.62656C13.6761 7.34472 11.9991 7.33063 10.4689 7.57865Z" fill="#160647"/>
</svg>
