<svg width="292" height="273" viewBox="0 0 292 273" fill="none" xmlns="http://www.w3.org/2000/svg">
<g clip-path="url(#clip0)">
<path opacity="0.18" d="M247.067 272.958C245.113 273.027 243.185 273.001 241.272 272.907C240.949 272.907 240.651 272.907 240.337 272.856C239.832 272.856 239.319 272.787 238.814 272.744C238.16 272.693 237.506 272.633 236.844 272.556C236.181 272.48 235.527 272.403 234.873 272.317C234.219 272.232 233.574 272.129 232.911 272.027C232.249 271.924 231.604 271.813 230.958 271.693L229.493 271.42C228.011 271.121 226.537 270.796 225.056 270.437L223.185 269.958C222.539 269.796 221.893 269.616 221.256 269.437L219.385 268.898L219.153 268.83C218.574 268.65 217.986 268.48 217.415 268.291C216.43 267.984 215.437 267.668 214.451 267.334L212.895 266.804C207.672 265.009 202.498 262.975 197.357 260.881L194.617 259.77C194.507 259.731 194.399 259.686 194.294 259.633L191.554 258.522C188.806 257.411 186.066 256.309 183.334 255.24C162.639 247.206 141.398 242.052 120.777 251.488L116.704 253.334C115.818 253.736 114.916 254.138 114.03 254.522L113.774 254.642L112.292 255.292C111.307 255.727 110.322 256.146 109.328 256.565C108.029 257.121 106.746 257.659 105.438 258.18L103.782 258.847C102.64 259.3 101.489 259.702 100.355 260.163L97.5819 261.155L96.9279 261.377L95.3468 261.907L93.6912 262.428C92.5157 262.796 91.3237 263.146 90.1399 263.488L87.135 264.283L86.4976 264.437L85.0406 264.779H84.9744L83.2608 265.146L81.5059 265.497L79.7344 265.813C79.1467 265.915 78.5506 266.009 77.9546 266.095C76.7626 266.277 75.5623 266.431 74.3537 266.556C73.7908 266.616 73.2361 266.676 72.6981 266.719L71.2245 266.838L70.3967 266.898L68.8239 266.975L67.516 267.027H66.6882C63.3895 267.089 60.09 266.966 56.8042 266.659C55.5294 266.539 54.2545 266.386 52.9797 266.197C52.4334 266.121 51.8953 266.035 51.3241 265.933L50.9764 265.873L49.9748 265.685C49.5857 265.616 49.2049 265.539 48.8241 265.454C48.2198 265.334 47.6321 265.197 47.0278 265.052C46.5973 264.95 46.1503 264.847 45.7199 264.727C45.5129 264.685 45.3225 264.633 45.1239 264.574C44.9252 264.514 44.4864 264.411 44.1719 264.317L42.7563 263.907L42.4252 263.856C41.8623 263.685 41.3077 263.505 40.7696 263.317L40.4633 263.206C40.0494 263.069 39.6355 262.933 39.2382 262.779C38.8408 262.625 38.5097 262.522 38.1537 262.386L37.5412 262.146L36.3905 261.693C35.9104 261.497 35.4385 261.3 34.975 261.095L34.7349 260.992C34.2217 260.77 33.7167 260.539 33.22 260.309C32.7233 260.078 32.4502 259.95 32.0776 259.753C31.7051 259.556 31.2498 259.343 30.8194 259.138C29.081 258.283 27.384 257.291 25.7366 256.249C25.1986 255.915 24.6771 255.574 24.1473 255.223L23.8244 255.009L22.5579 254.078C22.0364 253.71 21.5231 253.326 21.0016 252.933C20.4801 252.539 20.1738 252.274 19.7102 251.933C19.6109 251.856 19.5033 251.77 19.4039 251.676C18.9652 251.334 18.5761 250.975 18.1291 250.625L18.0049 250.514C17.591 250.166 17.1854 249.807 16.7881 249.437L16.3576 249.044C15.9603 248.676 15.5298 248.3 15.1821 247.915L15.1076 247.847C14.7434 247.48 14.3792 247.112 14.0232 246.736C13.899 246.625 13.7914 246.505 13.6755 246.386C13.2947 245.984 12.9139 245.531 12.5414 245.146C12.1689 244.762 11.7136 244.24 11.3577 243.77L10.9686 243.343C10.6789 242.975 10.3809 242.608 10.0911 242.232C9.8014 241.856 9.34611 241.24 8.98187 240.736L8.90737 240.633C8.55969 240.146 8.22029 239.642 7.88917 239.138C7.55805 238.633 7.20209 238.069 6.87097 237.531C6.53985 236.992 6.23356 236.437 5.92727 235.881C5.24847 234.662 4.62486 233.405 4.05643 232.112C3.37787 230.593 2.78364 229.035 2.27665 227.445C1.83791 226.044 1.44884 224.616 1.13428 223.172C-1.34914 211.659 0.546539 200.394 4.05643 189.18C10.0415 170.052 20.7781 151.069 22.7897 131.283C23.1224 128.024 23.1944 124.742 23.0049 121.471C21.6059 98.5052 17.8228 71.9753 34.3872 53.5394C52.7148 33.1548 90.3551 32.1719 113.964 18.6847C122.101 14.0266 129.891 8.57356 138.583 5.12912C154.427 -1.18712 172.002 -0.246948 188.947 0.70177C207.721 1.79579 227.92 3.45391 242.299 15.9411C251.098 23.5821 256.62 34.4026 261.91 44.9325C273.449 67.924 285.469 93.7103 288.465 119.924C288.615 121.112 288.722 122.3 288.83 123.488C291.098 150.992 276.727 176.48 284.451 204.582C285.8 209.514 287.762 214.334 289.302 219.206C290.344 222.301 291.122 225.484 291.628 228.719C291.785 229.83 291.901 230.958 291.959 232.095V232.317C292.911 255.18 269.244 272.206 247.067 272.958Z" fill="#FF677D"/>
<path opacity="0.18" d="M289.318 219.205V245.966H241.388V255.444H214.17V235.923H194.302V259.632L191.562 258.521C188.814 257.41 186.074 256.308 183.342 255.239C162.647 247.205 141.406 242.051 120.785 251.487L116.712 253.333C115.827 253.735 114.924 254.137 114.038 254.521L113.782 254.641H96.1247V245.906H54.2626V255.385H27.0527V235.863H4.04797V189.145C10.033 170.017 20.7696 151.034 22.7812 131.248H31.2662V150.769H49.9994V119.863H102.201V150.026H123.335V169.547H142.068V138.641H191.165V131.308H218.375V150.829H237.117V119.923H288.482C288.631 121.111 288.738 122.299 288.846 123.487C291.114 150.991 276.744 176.479 284.467 204.581C285.8 209.513 287.745 214.333 289.318 219.205Z" fill="#FF677D"/>
<path d="M247.067 272.957C245.113 273.026 243.184 273 241.272 272.906C240.949 272.906 240.651 272.906 240.337 272.855C239.832 272.855 239.318 272.786 238.813 272.744C238.16 272.692 237.506 272.632 236.843 272.556C236.181 272.479 235.527 272.402 234.873 272.316C234.219 272.231 233.573 272.128 232.911 272.026C232.249 271.923 231.603 271.812 230.958 271.692L229.492 271.419C228.011 271.12 226.537 270.795 225.055 270.436L223.185 269.957C222.539 269.795 221.893 269.615 221.256 269.436L219.385 268.897L219.153 268.829C218.574 268.65 217.986 268.479 217.415 268.291C216.43 267.983 215.436 267.667 214.451 267.333L212.895 266.803C207.671 265.009 202.498 262.974 197.357 260.88L194.617 259.769C194.507 259.73 194.399 259.685 194.294 259.632L191.554 258.521C188.806 257.41 186.066 256.308 183.334 255.239C162.639 247.205 141.397 242.051 120.777 251.487L116.704 253.333C115.818 253.735 114.916 254.137 114.03 254.521L113.774 254.641L112.292 255.291C111.307 255.726 110.322 256.145 109.328 256.564C108.029 257.12 106.745 257.658 105.438 258.179L103.782 258.846C102.64 259.299 101.489 259.701 100.355 260.162L97.5816 261.154L96.9277 261.376L95.3466 261.906L93.6909 262.427C92.5155 262.795 91.3234 263.145 90.1397 263.487L87.1347 264.282L86.4973 264.436L85.0404 264.778H84.9742L83.2606 265.145L81.5057 265.496L79.7342 265.812C79.1464 265.915 78.5504 266.009 77.9544 266.094C76.7623 266.276 75.562 266.43 74.3534 266.556C73.7905 266.615 73.2359 266.675 72.6978 266.718L71.2243 266.838L70.3965 266.897L68.8237 266.974L67.5158 267.026H66.688C63.3893 267.088 60.0898 266.965 56.804 266.658C55.5291 266.538 54.2543 266.385 52.9795 266.197C52.4331 266.12 51.8951 266.034 51.3239 265.932L50.9762 265.872L49.9746 265.684C49.5855 265.615 49.2047 265.538 48.8239 265.453C48.2196 265.333 47.6319 265.197 47.0276 265.051C46.5971 264.949 46.1501 264.846 45.7197 264.726C45.5127 264.684 45.3223 264.632 45.1236 264.573C44.925 264.513 44.4862 264.41 44.1716 264.316L42.7561 263.906L42.425 263.855C41.8621 263.684 41.3074 263.504 40.7694 263.316L40.4631 263.205C40.0492 263.068 39.6353 262.932 39.2379 262.778C38.8406 262.624 38.5095 262.521 38.1535 262.385L37.5409 262.145L36.3903 261.692C35.9102 261.496 35.4383 261.299 34.9747 261.094L34.7347 260.991C34.2214 260.769 33.7165 260.538 33.2198 260.308C32.7231 260.077 32.4499 259.949 32.0774 259.752C31.7049 259.556 31.2496 259.342 30.8192 259.137C29.0808 258.282 27.3838 257.291 25.7364 256.248C25.1846 255.923 24.6548 255.581 24.147 255.222L23.8242 255.009L22.5577 254.077C22.0361 253.709 21.5229 253.325 21.0014 252.932C20.4799 252.538 20.1736 252.273 19.71 251.932C19.6107 251.855 19.5031 251.769 19.4037 251.675C18.965 251.333 18.5759 250.974 18.1289 250.624L18.0047 250.513C17.5908 250.165 17.1852 249.806 16.7879 249.436L16.3574 249.043C15.9601 248.675 15.5296 248.299 15.1819 247.915L15.1074 247.846C14.7432 247.479 14.3789 247.111 14.023 246.735C13.8988 246.624 13.7912 246.504 13.6753 246.385C13.2945 245.983 12.9137 245.53 12.5412 245.145C12.1687 244.761 11.7134 244.239 11.3575 243.769L10.9684 243.342C10.6787 242.974 10.3806 242.607 10.0909 242.231C9.80118 241.855 9.34589 241.239 8.98165 240.735L8.90715 240.632C8.55947 240.145 8.22007 239.641 7.88895 239.137C7.55783 238.632 7.20187 238.068 6.87075 237.53C6.53963 236.991 6.23334 236.436 5.92705 235.88C5.24825 234.661 4.62464 233.405 4.05621 232.111H291.975V232.333C292.911 255.179 269.244 272.205 247.067 272.957Z" fill="#FF677D"/>
<path d="M117.623 238.453C116.083 238.803 114.212 239.564 114.105 241.197C113.972 243.291 116.729 244.034 118.765 244.034L158.5 244.145C160.841 244.043 163.185 244.261 165.47 244.795C167.068 245.248 168.566 246.009 170.114 246.598C175.28 248.564 180.875 248.675 186.422 248.761C205.853 249.068 225.284 249.368 244.716 249.658C247.688 249.701 250.775 249.718 253.491 248.47C251.926 243.88 247.605 240.778 243.068 239.41C238.532 238.043 233.739 238.188 228.996 238.188C199.932 238.188 171.049 234.641 141.977 235.034C133.864 235.145 125.562 236.632 117.623 238.453Z" fill="url(#paint0_linear)"/>
<path d="M171.132 189.744C171.207 192.82 171.548 195.883 172.15 198.897C174.559 209.368 182.962 217.265 186.786 227.274C188.086 230.692 189.145 233.077 192.622 234.444C196.099 235.812 196.571 232.376 195.552 229.556C193.602 224.101 191.982 218.526 190.701 212.863C190.198 210.207 189.478 207.599 188.549 205.068C186.976 201.256 184.228 197.752 184.154 193.607C184.096 190.521 185.553 187.624 186.579 184.761C188.658 178.717 188.946 172.171 187.407 165.957C186.496 162.214 182.862 150.838 177.804 151.906C171.778 153.171 169.526 158.923 169.791 164.564C170.155 172.94 170.685 181.342 171.132 189.744Z" fill="#7390A0"/>
<path d="M171.132 189.744C171.207 192.82 171.548 195.883 172.15 198.897C174.559 209.368 182.962 217.265 186.786 227.274C188.086 230.692 189.145 233.077 192.622 234.444C196.099 235.812 196.571 232.376 195.552 229.556C193.602 224.101 191.982 218.526 190.701 212.863C190.198 210.207 189.478 207.599 188.549 205.068C186.976 201.256 184.228 197.752 184.154 193.607C184.096 190.521 185.553 187.624 186.579 184.761C188.658 178.717 188.946 172.171 187.407 165.957C186.496 162.214 182.862 150.838 177.804 151.906C171.778 153.171 169.526 158.923 169.791 164.564C170.155 172.94 170.685 181.342 171.132 189.744Z" fill="url(#paint1_linear)"/>
<path d="M148.79 188.12C148.061 190.456 147.418 192.795 146.861 195.137C144.982 203.519 142.675 211.793 139.949 219.923C138.856 223.06 135.346 228.316 135.296 231.513C135.247 234.709 138.69 234.402 140.983 232.325C142.714 230.769 143.682 228.53 144.924 226.538C147.407 222.581 151.008 219.427 153.036 215.222C155.28 210.573 155.329 205.154 156.753 200.179C158.698 193.402 163.111 187.718 167.424 182.231C172.39 175.932 179.692 168.701 182.142 160.863C183.342 157 182.788 152.256 179.758 149.667C176.447 146.855 171.339 147.53 167.854 150.085C164.369 152.641 162.184 156.632 160.246 160.564C155.934 169.265 151.695 178.632 148.79 188.12Z" fill="#7390A0"/>
<path d="M162.838 80.4273C162.399 80.7521 161.877 81.094 161.828 81.6496C161.778 82.2051 162.217 82.6154 162.548 83.0342C163.591 84.3504 163.773 86.1453 164.253 87.7692C164.733 89.3932 165.834 91.1026 167.482 91.188C168.682 91.2393 169.766 90.3333 170.967 90.3333C171.582 92.3234 171.862 94.4078 171.794 96.4957C171.861 99.6239 172.001 102.752 172.2 105.897C173.142 105.836 174.045 105.491 174.799 104.906L176.703 103.718C177.654 103.308 178.442 102.578 178.939 101.647C179.437 100.716 179.614 99.6384 179.443 98.5897L179.551 92.4273C179.617 90.4127 179.584 88.3958 179.452 86.3846C179.319 84.6752 179.046 83.0684 178.773 81.4273L177.622 74.4786C177.365 72.9231 177.067 71.2649 176.024 70.1111C174.609 68.5385 172.299 68.359 170.23 68.4017C169.292 68.3455 168.358 68.5585 167.531 69.0171C167.1 69.3295 166.736 69.7312 166.463 70.1966C165.304 72.0598 165.635 73.6752 165.52 75.7094C165.418 76.6461 165.127 77.5502 164.665 78.363C164.203 79.1758 163.58 79.8792 162.838 80.4273Z" fill="#FDC0AD"/>
<path d="M163.078 84.0342C162.951 84.0189 162.823 84.0558 162.722 84.1368C162.686 84.1896 162.662 84.2498 162.65 84.3131C162.639 84.3765 162.64 84.4417 162.655 84.5043C162.859 87.0206 163.636 89.4514 164.924 91.5983C165.063 91.87 165.268 92.0997 165.52 92.265C165.796 92.3606 166.09 92.3873 166.377 92.3427C166.665 92.2981 166.939 92.1836 167.175 92.0085L171.414 89.8205C173.398 88.9441 175.206 87.6917 176.745 86.1282L171.165 88.2991L170.296 84.1282L174.774 82.6838C175.155 82.5641 175.602 82.2735 175.511 81.8803C175.619 82.2479 169.634 83.5897 169.071 83.641C167.084 83.913 165.082 84.0444 163.078 84.0342Z" fill="white"/>
<path d="M186.463 111.966C185.371 111.411 184.438 110.571 183.756 109.53C180.768 105.256 180.735 99.7607 180.188 94.4017C182.142 98.3761 182.763 102.949 184.261 107.222C184.858 108.867 185.595 110.455 186.463 111.966Z" fill="url(#paint2_linear)"/>
<path d="M212.605 112.752C212.38 113.731 211.987 114.66 211.446 115.496C210.888 116.386 210.134 117.127 209.244 117.658C206.264 119.368 202.481 118.137 199.476 116.427C196.471 114.718 193.516 112.513 190.097 112.368C189.146 112.408 188.193 112.363 187.25 112.231C186.979 112.174 186.715 112.085 186.463 111.966C185.594 110.444 184.857 108.845 184.261 107.188C182.763 102.974 182.142 98.3761 180.188 94.3675C179.996 92.1543 179.588 89.9667 178.972 87.8376C178.789 87.2991 178.533 86.7008 178.003 86.547C177.473 86.3932 177.117 86.641 176.67 86.6154C175.594 86.547 175.13 85.2137 174.957 84.1282C174.698 82.414 174.554 80.6834 174.526 78.9487C174.526 78.4957 174.526 78.094 174.526 77.5983C174.526 78.2906 168.69 76.5726 168.169 76.2564C166.767 75.379 165.428 74.3993 164.162 73.3248C161.604 71.2051 158.367 67.1111 161.099 63.7778C162.17 62.6401 163.635 61.9883 165.172 61.9658C165.793 61.8787 166.426 61.989 166.985 62.282C167.246 62.4877 167.523 62.6706 167.813 62.8291C168.541 63.1367 169.336 62.6496 170.048 62.2735C172.283 61.094 174.915 61.0427 177.432 61.0085C178.889 60.903 180.352 61.0828 181.745 61.5385C183.21 62.257 184.475 63.3481 185.42 64.7094C187.095 66.6224 188.278 68.9378 188.864 71.4444C189.145 73 189.12 74.7008 190.006 75.9914C190.892 77.282 192.614 77.8461 194.145 78.4273C196.849 79.3678 199.249 81.0593 201.082 83.3162C202.66 85.524 203.616 88.1385 203.847 90.8718C204.095 93.3248 204.021 96.1111 205.693 97.8718C206.802 99.0513 208.466 99.4786 209.724 100.496C211.513 101.932 212.258 104.333 212.647 106.632C213.039 108.654 213.025 110.737 212.605 112.752Z" fill="#F05E5F"/>
<path d="M211.446 115.496C210.888 116.386 210.133 117.127 209.244 117.658C206.264 119.368 202.481 118.137 199.476 116.427C196.471 114.718 193.516 112.513 190.097 112.368C189.146 112.408 188.193 112.363 187.25 112.231C186.978 112.174 186.715 112.085 186.463 111.966C185.593 110.444 184.857 108.845 184.261 107.188C182.763 102.974 182.142 98.3761 180.188 94.3675C179.996 92.1543 179.588 89.9667 178.971 87.8376C178.789 87.2992 178.533 86.7009 178.003 86.547C177.473 86.3932 177.117 86.641 176.67 86.6154C175.594 86.547 175.13 85.2137 174.957 84.1282C174.698 82.414 174.554 80.6834 174.526 78.9487C175.933 79.265 179.005 81.7094 180.23 82.0086C182.581 82.5898 185.089 82.8633 187.134 84.1709C190.917 86.6239 191.852 92.2051 190.288 96.5299C189.986 97.1848 189.807 97.8922 189.758 98.6154C189.807 100.282 191.513 101.376 193.069 101.769C194.625 102.162 196.38 102.197 197.696 103.171C199.675 104.615 200.031 107.607 201.835 109.291C203.185 110.538 205.089 110.855 206.802 111.538C208.715 112.321 210.34 113.705 211.446 115.496Z" fill="url(#paint3_linear)"/>
<path d="M178.698 96.0086C170.768 96.0086 168.607 103.034 165.66 109.179C163.64 113.385 162.299 117.402 164.626 121.786C166.521 125.359 166.96 127.145 166.687 131.479C166.124 140.449 163.978 149.237 160.354 157.41C159.75 158.769 159.088 160.299 159.526 161.684C160.354 164.248 163.748 164.248 166.356 164.197C172.63 164.096 178.729 166.342 183.524 170.521C184.269 171.179 185.114 171.932 186.091 171.821C186.501 171.73 186.888 171.551 187.226 171.294C187.564 171.038 187.846 170.711 188.052 170.333C190.85 166.214 190.536 160.744 190.18 155.727L188.119 128.504C187.523 120.863 188.235 111.547 185.975 104.222C184.725 100.256 182.73 96 178.698 96.0086Z" fill="#FF677D"/>
<path d="M178.698 96.0086C170.768 96.0086 168.607 103.034 165.66 109.179C163.64 113.385 162.299 117.402 164.626 121.786C166.521 125.359 166.96 127.145 166.687 131.479C166.124 140.449 163.978 149.237 160.354 157.41C159.75 158.769 159.088 160.299 159.526 161.684C160.354 164.248 163.748 164.248 166.356 164.197C172.63 164.096 178.729 166.342 183.524 170.521C184.269 171.179 185.114 171.932 186.091 171.821C186.501 171.73 186.888 171.551 187.226 171.294C187.564 171.038 187.846 170.711 188.052 170.333C190.85 166.214 190.536 160.744 190.18 155.727L188.119 128.504C187.523 120.863 188.235 111.547 185.975 104.222C184.725 100.256 182.73 96 178.698 96.0086Z" fill="url(#paint4_linear)"/>
<path d="M178.185 109.872C179.703 116.299 181.253 122.721 182.837 129.137C174.402 132.12 165.785 135.12 156.869 135.205C156.489 135.163 156.107 135.263 155.793 135.487C155.589 135.726 155.465 136.025 155.437 136.342C155.073 138.197 153.93 144.718 157.184 144.094C160.437 143.47 163.806 142.026 167.175 141.59C168.938 141.367 170.718 141.402 172.49 141.273C174.502 141.082 176.502 140.78 178.483 140.368L186.471 138.863C188.052 138.564 189.841 138.12 190.61 136.675C190.949 135.929 191.121 135.114 191.115 134.291C191.503 126.831 190.62 119.359 188.508 112.214C187.291 108.103 188.218 100.556 182.324 100.06C176.993 99.5983 177.357 106.325 178.185 109.872Z" fill="#FDC0AD"/>
<path d="M173.326 97.2821C173.627 97.7891 173.869 98.3314 174.046 98.8974C174.072 99.3739 173.992 99.8502 173.814 100.291C172.746 103.863 173.326 107.752 174.394 111.325C175.462 114.897 177.001 118.325 177.904 121.94C178.409 123.94 178.632 126.308 177.299 127.846C176.273 129.026 174.634 129.35 173.111 129.607L160.445 131.735C159.444 134.137 160.007 136.863 160.594 139.427C161.033 141.368 161.654 143.547 163.392 144.419C164.725 145.094 166.306 144.769 167.755 144.419L186.463 140.026C187.978 139.667 189.617 139.231 190.553 137.957C191.246 136.747 191.553 135.341 191.43 133.94C191.544 124.736 190.299 115.569 187.738 106.752C186.968 104.085 186.033 101.385 184.261 99.2906C182.829 97.5812 180.122 93.7521 177.962 93.0684C175.801 92.3846 172.233 94.6752 173.326 97.2821Z" fill="#FF677D"/>
<path d="M159.195 140.983C159.446 141.591 159.595 142.238 159.634 142.897C159.654 143.228 159.58 143.558 159.421 143.847C159.262 144.135 159.026 144.369 158.74 144.521C158.565 144.592 158.381 144.638 158.194 144.658C155.713 145.059 153.204 145.239 150.694 145.197C149.963 145.263 149.231 145.067 148.624 144.641C148.07 144.154 147.987 143.077 148.624 142.744C148.045 142.462 147.518 142.077 147.068 141.607C146.849 141.367 146.695 141.071 146.623 140.75C146.55 140.429 146.561 140.093 146.654 139.778C146.73 139.62 146.788 139.454 146.828 139.282C146.808 138.976 146.681 138.688 146.472 138.47C146.104 137.938 145.839 137.337 145.694 136.701C145.636 136.535 145.636 136.354 145.694 136.188C145.786 136.056 145.916 135.957 146.066 135.906C146.789 135.596 147.571 135.464 148.351 135.521C148.073 135.053 147.908 134.522 147.871 133.974C147.86 133.702 147.945 133.435 148.109 133.222C148.273 133.008 148.506 132.863 148.765 132.812C149.081 132.82 149.388 132.92 149.651 133.103C150.482 133.541 151.356 133.888 152.258 134.137C152.808 134.319 153.391 134.372 153.964 134.291C154.543 134.179 155.065 133.829 155.619 133.726C155.912 133.678 156.212 133.694 156.498 133.774C156.784 133.854 157.05 133.997 157.279 134.192C157.508 134.387 157.694 134.63 157.824 134.905C157.955 135.18 158.027 135.48 158.036 135.786C158.24 137.557 158.628 139.299 159.195 140.983Z" fill="white"/>
<path d="M136.149 229.282C134.67 231.042 132.667 232.244 130.454 232.701C128.798 233.051 126.886 233 125.487 234.077C125.349 234.162 125.234 234.281 125.15 234.422C125.067 234.563 125.017 234.724 125.007 234.889C125.05 235.167 125.195 235.418 125.412 235.59C126.189 236.423 127.175 237.015 128.26 237.299C128.828 237.4 129.406 237.438 129.982 237.41H137.73C138.074 237.437 138.419 237.372 138.732 237.222C139.086 236.943 139.34 236.548 139.452 236.103C140.147 234.125 140.777 232.131 141.339 230.12C139.337 229.797 137.301 229.759 135.288 230.009" fill="#FDC0AD"/>
<path d="M136.447 235.65C135.37 235.716 134.29 235.553 133.277 235.171C132.921 235.042 132.625 234.78 132.449 234.436C132.376 234.115 132.323 233.79 132.292 233.462C132.205 233.198 132.056 232.962 131.858 232.773C131.66 232.585 131.419 232.452 131.157 232.385C130.635 232.265 130.096 232.248 129.568 232.333C126.44 232.767 123.356 233.494 120.355 234.504C120.023 234.583 119.71 234.731 119.436 234.94C119.183 235.227 119.04 235.599 119.03 235.986C119.021 236.374 119.148 236.752 119.386 237.051C119.881 237.639 120.536 238.059 121.265 238.256C122.906 238.8 124.594 239.175 126.306 239.376C130.311 239.94 134.351 240.205 138.392 240.171C138.648 240.189 138.903 240.133 139.129 240.009C139.307 239.853 139.439 239.648 139.51 239.419C139.775 238.735 140.578 236.402 140.056 235.735C139.535 235.068 137.142 235.65 136.447 235.65Z" fill="#7390A0"/>
<path d="M187.109 239.821C186.994 239.936 186.907 240.079 186.857 240.237C186.806 240.395 186.793 240.563 186.819 240.726C186.926 240.988 187.124 241.198 187.374 241.316C188.314 241.927 189.4 242.255 190.511 242.265C191.085 242.228 191.653 242.131 192.208 241.974L199.758 240.128C200.511 239.94 201.413 239.547 201.215 238.564C201.081 238.114 200.849 237.701 200.536 237.359C199.355 235.838 198.13 234.353 196.86 232.906C196.722 232.732 196.557 232.582 196.372 232.462C196.167 232.362 195.944 232.306 195.718 232.299C194.609 232.205 193.496 232.442 192.514 232.983C192.207 233.12 191.959 233.37 191.819 233.684C191.571 234.462 192.539 235.068 192.754 235.863C193.11 237.188 191.405 237.453 190.586 237.795C189.344 238.265 187.995 238.718 187.109 239.821Z" fill="#FDC0AD"/>
<path d="M198.102 238.769C197.067 239.088 195.979 239.184 194.907 239.051C194.533 239.012 194.189 238.826 193.947 238.53C193.801 238.234 193.674 237.928 193.566 237.615C193.424 237.381 193.228 237.187 192.995 237.051C192.763 236.915 192.5 236.842 192.233 236.838C191.696 236.839 191.164 236.949 190.668 237.162C187.719 238.314 184.878 239.745 182.183 241.436C181.865 241.584 181.583 241.803 181.356 242.077C181.174 242.416 181.116 242.812 181.194 243.192C181.271 243.572 181.478 243.91 181.778 244.145C182.391 244.596 183.119 244.852 183.872 244.88C185.59 245.021 187.318 244.987 189.029 244.778C193.051 244.381 197.041 243.687 200.966 242.701C201.215 242.692 201.451 242.584 201.624 242.399C201.797 242.214 201.894 241.966 201.893 241.709C201.993 240.983 202.258 238.521 201.604 237.991C200.95 237.461 198.781 238.607 198.102 238.769Z" fill="#7390A0"/>
<path d="M189.956 145.573C190.259 143.373 189.973 141.129 189.129 139.085C188.288 137.053 187.268 135.105 186.082 133.265C185.621 132.409 185.066 131.612 184.427 130.889C183.714 130.158 182.871 129.578 181.943 129.18C180.684 128.605 179.313 128.336 177.937 128.393C177.415 128.393 176.72 128.393 176.571 127.872C176.422 127.35 177.034 126.923 177.556 126.778C178.49 126.511 179.466 126.436 180.428 126.556C183.64 126.966 186.264 129.504 187.937 132.376C188.932 134.185 189.763 136.085 190.42 138.051C191.45 140.737 192.227 143.519 192.738 146.359" fill="white"/>
<path d="M210.751 198.359L162.208 196.188L167.167 145.376H202.084L210.751 198.359Z" fill="#FF677D"/>
<path d="M199.559 147.778V196.009H209.012L199.559 147.778Z" fill="url(#paint5_linear)"/>
<path d="M181.629 126.248C182.204 126.414 182.759 126.646 183.284 126.94C184.992 127.816 186.595 128.895 188.061 130.154C189.957 131.707 191.493 133.678 192.556 135.923C193.109 137.285 193.544 138.695 193.855 140.137L195.304 146.12C194.244 146.179 193.648 144.915 193.334 143.872C192.208 140.197 190.933 136.521 188.764 133.385C187.094 130.863 184.75 128.898 182.018 127.727C181.505 127.53 178.144 127.026 178.086 126.556C177.995 125.667 181.298 126.137 181.629 126.248Z" fill="white"/>
</g>
<defs>
<linearGradient id="paint0_linear" x1="145.95" y1="352.684" x2="195.116" y2="221.126" gradientUnits="userSpaceOnUse">
<stop offset="0.01"/>
<stop offset="0.13" stop-opacity="0.69"/>
<stop offset="1" stop-opacity="0"/>
</linearGradient>
<linearGradient id="paint1_linear" x1="6583.41" y1="16529.1" x2="9210.31" y2="17571.8" gradientUnits="userSpaceOnUse">
<stop offset="0.01"/>
<stop offset="0.13" stop-opacity="0.69"/>
<stop offset="1" stop-opacity="0"/>
</linearGradient>
<linearGradient id="paint2_linear" x1="1889.49" y1="2483.47" x2="1937.06" y2="2483.47" gradientUnits="userSpaceOnUse">
<stop offset="0.01"/>
<stop offset="0.13" stop-opacity="0.69"/>
<stop offset="1" stop-opacity="0"/>
</linearGradient>
<linearGradient id="paint3_linear" x1="9457.72" y1="6282.41" x2="11275.6" y2="4997.88" gradientUnits="userSpaceOnUse">
<stop offset="0.01"/>
<stop offset="0.13" stop-opacity="0.69"/>
<stop offset="1" stop-opacity="0"/>
</linearGradient>
<linearGradient id="paint4_linear" x1="10526.2" y1="17790.8" x2="6425.66" y2="16267.9" gradientUnits="userSpaceOnUse">
<stop offset="0.01"/>
<stop offset="0.13" stop-opacity="0.69"/>
<stop offset="1" stop-opacity="0"/>
</linearGradient>
<linearGradient id="paint5_linear" x1="3034.3" y1="11729.4" x2="2125.85" y2="11611.3" gradientUnits="userSpaceOnUse">
<stop offset="0.01"/>
<stop offset="0.13" stop-opacity="0.69"/>
<stop offset="1" stop-opacity="0"/>
</linearGradient>
<clipPath id="clip0">
<rect width="292" height="273" fill="white"/>
</clipPath>
</defs>
</svg>
