<svg width="296" height="279" viewBox="0 0 296 279" fill="none" xmlns="http://www.w3.org/2000/svg">
<g clip-path="url(#clip0)">
<path opacity="0.18" d="M108.749 28.0233C96.7988 39.3643 90.5792 55.5951 79.0104 67.3205C57.8816 88.7179 21.3168 92.9373 6.26652 118.957C-1.26098 131.911 -1.55267 148.165 2.97324 162.413C7.49915 176.661 16.5133 189.136 26.7272 200.098C44.9061 219.596 67.5074 235.119 92.5928 244.228C104.496 248.551 117.151 251.458 129.76 250.473C144.655 249.315 158.609 242.859 173.302 240.159C188.799 237.346 204.875 238.752 220.306 235.546C235.738 232.339 251.569 222.704 254.815 207.336C256.833 197.772 253.63 187.645 255.803 178.133C259.604 161.494 277.699 152.699 287.644 138.803C292.797 131.568 295.697 122.981 295.981 114.114C296.263 104.691 293.248 94.8502 286.322 88.4319C281.086 83.5842 274.17 81.0666 267.541 78.4083C236.951 66.1672 211.814 47.5641 185.087 28.8906C162.147 12.852 131.247 6.67282 108.749 28.0233Z" fill="#FF677D"/>
<path d="M151.298 176.497L156.148 259.775L163.982 260.375L181.836 174.063L189.397 261.476H197.23L211.048 177.795L181.836 161.33L151.298 176.497Z" fill="#25233A"/>
<path d="M253.7 68.7083C253.7 68.7083 255.196 65.4265 254.204 59.463C253.211 53.4995 259.713 45.159 259.713 45.159C260.219 45.4368 260.628 45.8614 260.886 46.3764C261.144 46.8914 261.239 47.4724 261.157 48.0423L265.796 36.0074C265.796 36.0074 268.083 34.9057 270.36 41.3099C272.637 47.7141 270.863 53.3119 270.223 56.3921C269.155 61.5774 264.465 65.3937 264.197 67.8316C263.927 69.7537 263.52 71.6542 262.978 73.5185L253.7 68.7083Z" fill="url(#paint0_linear)"/>
<path d="M181.695 49.8051C181.695 49.8051 160.994 49.7535 159.235 50.9162C157.475 52.0789 152.916 54.9388 149.952 62.3134C146.989 69.6881 131.745 110.237 131.745 110.237C131.745 110.237 130.527 114.428 134.601 118.634C138.675 122.839 151.58 138.02 151.58 138.02L146.518 176.295C146.518 176.295 178.51 178.7 182.274 169.089C182.274 169.089 193.946 175.695 211.066 177.8L216.712 179.938L217.182 107.649C219.499 110.445 222.513 112.584 225.922 113.852C229.331 115.121 233.015 115.473 236.603 114.874C249.259 112.924 261.298 96.8521 266.713 76.519L249.245 67.3299C249.245 67.3299 242.616 93.4718 231.466 88.9429C223.689 85.7783 223.694 73.8748 222.819 65.5015C222.587 63.2894 221.671 61.2036 220.198 59.533C218.725 57.8624 216.767 56.6894 214.595 56.1765L199.799 52.6743L181.695 49.8051Z" fill="white"/>
<path d="M166.381 126.449L164.081 176.211C164.081 176.211 149.745 176.797 146.513 176.295L151.571 138.029L166.381 126.449Z" fill="#FF677D"/>
<path d="M166.381 126.449L164.081 176.211C164.081 176.211 149.745 176.797 146.513 176.295L151.571 138.029L166.381 126.449Z" fill="url(#paint1_linear)"/>
<path d="M217.183 107.649L212.497 97.138L206.343 177.087L216.717 179.938L217.183 107.649Z" fill="#FF677D"/>
<path d="M217.183 107.649L212.497 97.138L206.343 177.087L216.717 179.938L217.183 107.649Z" fill="url(#paint2_linear)"/>
<path d="M180.716 57.6814C180.716 57.6814 192.125 65.4264 198.481 59.9552L181.657 130.823L180.716 57.6814Z" fill="#25233A"/>
<path d="M183.591 38.8532C183.591 38.8532 178.298 59.0129 182.062 63.3965C185.826 67.78 197.587 68.1504 198.481 59.9553C199.375 51.7601 203.257 40.8036 203.257 40.8036L183.591 38.8532Z" fill="url(#paint3_linear)"/>
<path opacity="0.19" d="M183.026 43.7806C183.026 43.7806 187.529 55.0325 191.41 56.8187C195.291 58.605 198.669 57.2876 199.159 55.717C199.648 54.1464 201.676 45.7216 201.676 45.7216L183.026 43.7806Z" fill="url(#paint4_linear)"/>
<path d="M210.718 27.7701C210.718 40.5645 203.482 50.935 194.553 50.935C185.623 50.935 178.392 40.5504 178.392 27.7701C178.392 14.9899 186.32 10.2547 195.259 10.2547C204.197 10.2547 210.718 14.9664 210.718 27.7701Z" fill="url(#paint5_linear)"/>
<path d="M216.99 20.4192C216.383 23.912 214.416 27.0344 212.106 29.7301C212.098 29.498 212.077 29.2664 212.045 29.0363C211.81 26.4671 211.405 23.8792 210.29 21.5678C209.072 19.0362 206.879 16.8373 204.127 16.2513C202.292 15.8575 200.321 16.1857 198.425 16.2841C196.872 16.3591 195.372 16.2841 194.035 15.5246C193.421 15.0881 192.771 14.7039 192.092 14.376C188.22 12.9695 185.623 19.8894 185.468 22.5383C185.289 25.5951 185.788 28.7831 184.706 31.657C183.765 31.2913 183.422 30.1708 183.069 29.2191C182.716 28.2674 181.977 27.2172 180.975 27.3766C180.727 27.4347 180.495 27.5446 180.293 27.6989C180.091 27.8533 179.924 28.0487 179.804 28.2721C179.018 29.5426 179.216 31.1976 179.766 32.5853C180.317 33.973 181.177 35.2295 181.709 36.6266C182.137 37.7798 182.331 39.0065 182.277 40.2349C182.224 41.4634 181.925 42.6689 181.399 43.7809C179.188 40.8122 177.617 37.4205 176.783 33.8183L174.431 35.8577L174.586 27.0109C174.713 20.1567 175.057 12.6929 179.536 7.49828C182.97 3.50855 188.324 1.6051 193.574 1.1269C199.403 0.597124 205.552 1.73638 210.267 5.21977C214.981 8.70317 217.992 14.6667 216.99 20.4192Z" fill="#3F3D56"/>
<path d="M214.637 20.447C212.896 26.2558 212.045 29.036 212.045 29.036C211.81 26.4668 211.405 23.8788 210.29 21.5675C209.072 19.0358 206.879 16.837 204.127 16.251C202.292 15.8572 200.321 16.1854 198.425 16.2838C198.425 16.2838 205.482 12.5754 208.615 11.6377C211.749 10.7001 216.378 14.6429 214.637 20.447Z" fill="#25233A"/>
<path opacity="0.19" d="M183.026 33.3492C183.026 33.3492 181.417 32.6975 181.921 31.4458C182.424 30.194 181.973 29.5236 181.45 29.3595C180.928 29.1954 179.399 30.494 180.98 33.3492C182.561 36.2044 183.026 33.3492 183.026 33.3492Z" fill="url(#paint6_linear)"/>
<path d="M179.432 47.1984L174.727 48.8252C174.325 48.9649 173.967 49.2072 173.687 49.528C173.408 49.8489 173.219 50.237 173.137 50.6537L168.95 72.2198L177.042 73.5044L172.836 79.2944L181.639 126.44L181.003 48.3048C181 48.1484 180.966 47.9942 180.903 47.8509C180.841 47.7075 180.75 47.578 180.637 47.4696C180.524 47.3612 180.39 47.276 180.244 47.2191C180.098 47.1621 179.942 47.1343 179.785 47.1374C179.665 47.1409 179.546 47.1614 179.432 47.1984Z" fill="#FF677D"/>
<path d="M199.813 52.6556L204.842 54.484L206.343 76.5189H199.149L202.221 82.7262L181.657 130.823C181.657 130.823 197.371 69.2474 199.813 52.6556Z" fill="#FF677D"/>
<path d="M179.432 47.1984L174.727 48.8252C174.325 48.9649 173.967 49.2072 173.687 49.528C173.408 49.8489 173.219 50.237 173.137 50.6537L168.95 72.2198L177.042 73.5044L172.836 79.2944L181.639 126.44L181.003 48.3048C181 48.1484 180.966 47.9942 180.903 47.8509C180.841 47.7075 180.75 47.578 180.637 47.4696C180.524 47.3612 180.39 47.276 180.244 47.2191C180.098 47.1621 179.942 47.1343 179.785 47.1374C179.665 47.1409 179.546 47.1614 179.432 47.1984Z" fill="url(#paint7_linear)"/>
<path d="M199.813 52.6556L204.842 54.484L206.343 76.5189H199.149L202.221 82.7262L181.657 130.823C181.657 130.823 197.371 69.2474 199.813 52.6556Z" fill="url(#paint8_linear)"/>
<path d="M158.835 74.4749L151.594 111.897L166.391 126.449L158.835 74.4749Z" fill="#FF677D"/>
<path d="M158.835 74.4749L151.594 111.897L166.391 126.449L163.62 107.387L158.835 74.4749Z" fill="url(#paint9_linear)"/>
<path d="M166.391 126.449L155.65 139.783L151.576 138.025L165.111 125.188L166.391 126.449Z" fill="#25233A"/>
<path d="M165.186 127.94C165.186 127.94 168.433 134.973 168.95 139.028L155.631 139.773L165.186 127.94Z" fill="url(#paint10_linear)"/>
<path d="M154.21 139.773L175.32 139.019C175.32 139.019 173.796 160.585 173.664 162.976C173.532 165.367 150.757 167.003 150.757 167.003L154.21 139.773Z" fill="white"/>
<path d="M215.348 140.561L194.567 139.154C194.567 139.154 192.313 160.571 192.445 162.976C192.577 165.381 213.701 168.447 213.701 168.447L215.348 140.561Z" fill="white"/>
<path d="M154.21 139.773L175.32 139.019C175.32 139.019 173.796 160.585 173.664 162.976C173.532 165.367 150.757 167.003 150.757 167.003L154.21 139.773Z" fill="#FF677D"/>
<path d="M154.21 139.773L175.32 139.019C175.32 139.019 173.796 160.585 173.664 162.976C173.532 165.367 150.757 167.003 150.757 167.003L154.21 139.773Z" fill="url(#paint11_linear)"/>
<path d="M215.348 140.561L194.567 139.154C194.567 139.154 192.313 160.571 192.445 162.976C192.577 165.381 213.701 168.447 213.701 168.447L215.348 140.561Z" fill="#FF677D"/>
<path d="M215.348 140.561L194.567 139.154C194.567 139.154 192.313 160.571 192.445 162.976C192.577 165.381 213.701 168.447 213.701 168.447L215.348 140.561Z" fill="url(#paint12_linear)"/>
<path d="M250.812 68.1457L251.875 66.4532L266.201 74.4749L266.732 76.5143L250.812 68.1457Z" fill="#25233A"/>
<path d="M171.815 63.0308C171.628 63.0308 171.448 62.9568 171.315 62.8251C171.181 62.6933 171.106 62.5144 171.105 62.3275C170.997 55.2623 173.961 50.9443 176.468 48.5627C178.063 47.0277 179.96 45.8384 182.038 45.0699C182.218 45.0121 182.413 45.0278 182.582 45.1135C182.75 45.1992 182.877 45.348 182.935 45.527C182.993 45.7061 182.977 45.9008 182.891 46.0682C182.805 46.2357 182.656 46.3623 182.476 46.4201C182.062 46.5561 172.342 49.8613 172.526 62.3322C172.527 62.4253 172.511 62.5179 172.476 62.6045C172.442 62.6912 172.391 62.7702 172.326 62.8369C172.26 62.9036 172.183 62.9568 172.097 62.9933C172.011 63.0298 171.918 63.0489 171.825 63.0495L171.815 63.0308Z" fill="#25233A"/>
<path d="M179.851 80.6118H179.794C179.701 80.6047 179.61 80.5793 179.526 80.537C179.443 80.4947 179.369 80.4363 179.308 80.3653C179.247 80.2943 179.201 80.212 179.172 80.1231C179.143 80.0343 179.133 79.9407 179.14 79.8476C179.733 72.3042 177.974 66.4766 174.436 64.2591C173.576 63.7062 172.577 63.4094 171.554 63.4036C170.531 63.3978 169.528 63.6832 168.663 64.2263C164.081 66.8892 162.726 74.0717 162.984 79.8711C162.999 79.9692 162.994 80.0693 162.967 80.1651C162.941 80.2608 162.895 80.3499 162.832 80.4267C162.769 80.5035 162.69 80.5662 162.601 80.6108C162.512 80.6554 162.415 80.6808 162.315 80.6854C162.216 80.69 162.116 80.6738 162.024 80.6376C161.931 80.6015 161.847 80.5464 161.777 80.4758C161.707 80.4052 161.652 80.3207 161.617 80.2278C161.582 80.135 161.567 80.0358 161.573 79.9367C161.211 71.8635 163.596 65.5296 167.957 62.9979C169.048 62.3268 170.307 61.9765 171.589 61.9873C172.871 61.998 174.123 62.3695 175.202 63.0589C179.258 65.5952 181.215 71.7556 180.571 79.9367C180.562 80.1203 180.482 80.2935 180.348 80.4195C180.213 80.5455 180.035 80.6145 179.851 80.6118Z" fill="#25233A"/>
<path d="M164.499 80.7009C164.5 81.1172 164.377 81.5245 164.146 81.8712C163.915 82.2179 163.585 82.4884 163.2 82.6486C162.814 82.8088 162.389 82.8514 161.979 82.7711C161.569 82.6908 161.193 82.4911 160.897 82.1974C160.601 81.9036 160.398 81.529 160.316 81.1208C160.234 80.7127 160.275 80.2893 160.434 79.9043C160.593 79.5193 160.863 79.19 161.209 78.9579C161.556 78.7258 161.964 78.6015 162.382 78.6005C162.66 78.5999 162.934 78.6538 163.191 78.759C163.448 78.8642 163.681 79.0187 163.877 79.2138C164.074 79.4088 164.23 79.6405 164.337 79.8957C164.443 80.1508 164.499 80.4245 164.499 80.7009Z" fill="#FF677D"/>
<path d="M181.695 80.9588C181.695 81.3751 181.571 81.7821 181.339 82.1282C181.107 82.4744 180.777 82.7442 180.391 82.9035C180.005 83.0629 179.58 83.1046 179.171 83.0233C178.761 82.9421 178.384 82.7416 178.089 82.4472C177.794 82.1528 177.592 81.7778 177.511 81.3694C177.429 80.9611 177.471 80.5378 177.631 80.1532C177.791 79.7685 178.062 79.4398 178.409 79.2085C178.756 78.9772 179.165 78.8537 179.583 78.8537C180.143 78.8537 180.68 79.0755 181.076 79.4703C181.472 79.865 181.695 80.4005 181.695 80.9588Z" fill="#FF677D"/>
<path d="M164.499 80.7009C164.5 81.1172 164.377 81.5245 164.146 81.8712C163.915 82.2179 163.585 82.4884 163.2 82.6486C162.814 82.8088 162.389 82.8514 161.979 82.7711C161.569 82.6908 161.193 82.4911 160.897 82.1974C160.601 81.9036 160.398 81.529 160.316 81.1208C160.234 80.7127 160.275 80.2893 160.434 79.9043C160.593 79.5193 160.863 79.19 161.209 78.9579C161.556 78.7258 161.964 78.6015 162.382 78.6005C162.66 78.5999 162.934 78.6538 163.191 78.759C163.448 78.8642 163.681 79.0187 163.877 79.2138C164.074 79.4088 164.23 79.6405 164.337 79.8957C164.443 80.1508 164.499 80.4245 164.499 80.7009Z" fill="url(#paint13_linear)"/>
<path d="M181.695 80.9588C181.695 81.3751 181.571 81.7821 181.339 82.1282C181.107 82.4744 180.777 82.7442 180.391 82.9035C180.005 83.0629 179.58 83.1046 179.171 83.0233C178.761 82.9421 178.384 82.7416 178.089 82.4472C177.794 82.1528 177.592 81.7778 177.511 81.3694C177.429 80.9611 177.471 80.5378 177.631 80.1532C177.791 79.7685 178.062 79.4398 178.409 79.2085C178.756 78.9772 179.165 78.8537 179.583 78.8537C180.143 78.8537 180.68 79.0755 181.076 79.4703C181.472 79.865 181.695 80.4005 181.695 80.9588Z" fill="url(#paint14_linear)"/>
<path d="M203.257 94.958C203.136 94.9577 203.018 94.9271 202.912 94.869C202.807 94.8109 202.718 94.7273 202.654 94.6258C202.59 94.5243 202.552 94.4083 202.545 94.2886C202.537 94.1688 202.561 94.0491 202.612 93.9406L206.611 85.5767C215.55 58.0987 200.495 50.5177 200.354 50.4474C200.269 50.4068 200.193 50.3499 200.131 50.2801C200.068 50.2103 200.02 50.1288 199.989 50.0405C199.958 49.9521 199.945 49.8585 199.95 49.765C199.955 49.6715 199.979 49.58 200.02 49.4957C200.061 49.4113 200.118 49.3358 200.188 49.2734C200.258 49.211 200.339 49.163 200.428 49.1321C200.517 49.1012 200.611 49.088 200.705 49.0933C200.798 49.0985 200.89 49.1222 200.975 49.1628C201.144 49.2472 205.209 51.235 208.079 56.8375C210.704 61.9337 212.812 71.1415 207.952 86.0596L207.919 86.144L203.901 94.5501C203.844 94.6722 203.753 94.7754 203.639 94.8477C203.524 94.9199 203.392 94.9582 203.257 94.958Z" fill="#25233A"/>
<path d="M202.226 100.42C204.5 100.42 206.343 98.5832 206.343 96.3176C206.343 94.0519 204.5 92.2153 202.226 92.2153C199.953 92.2153 198.11 94.0519 198.11 96.3176C198.11 98.5832 199.953 100.42 202.226 100.42Z" fill="#FF677D"/>
<path d="M202.226 100.42C204.5 100.42 206.343 98.5832 206.343 96.3176C206.343 94.0519 204.5 92.2153 202.226 92.2153C199.953 92.2153 198.11 94.0519 198.11 96.3176C198.11 98.5832 199.953 100.42 202.226 100.42Z" fill="url(#paint15_linear)"/>
<path d="M204.466 97.9921C205.598 96.8643 205.598 95.0357 204.466 93.9079C203.334 92.7801 201.499 92.7801 200.367 93.9079C199.236 95.0357 199.236 96.8643 200.367 97.9921C201.499 99.1199 203.334 99.1199 204.466 97.9921Z" fill="#FF677D"/>
<path d="M205.396 96.2884C206.527 95.1606 206.527 93.332 205.396 92.2042C204.264 91.0764 202.429 91.0764 201.297 92.2042C200.165 93.332 200.165 95.1606 201.297 96.2884C202.429 97.4163 204.264 97.4163 205.396 96.2884Z" fill="#FF677D"/>
<path d="M205.396 96.2884C206.527 95.1606 206.527 93.332 205.396 92.2042C204.264 91.0764 202.429 91.0764 201.297 92.2042C200.165 93.332 200.165 95.1606 201.297 96.2884C202.429 97.4163 204.264 97.4163 205.396 96.2884Z" fill="url(#paint16_linear)"/>
<path d="M125.921 160.871H66.703C65.9756 160.871 65.2779 160.583 64.7636 160.07C64.2492 159.557 63.9602 158.862 63.9602 158.137C63.9602 157.412 64.2492 156.717 64.7636 156.205C65.2779 155.692 65.9756 155.404 66.703 155.404H125.921C126.648 155.404 127.346 155.692 127.86 156.205C128.375 156.717 128.664 157.412 128.664 158.137C128.666 158.496 128.597 158.852 128.46 159.184C128.324 159.517 128.124 159.819 127.87 160.074C127.617 160.329 127.316 160.532 126.984 160.671C126.652 160.81 126.295 160.883 125.935 160.885L125.921 160.871Z" fill="#FF677D"/>
<path d="M96.7519 158.105C96.7519 158.828 96.4642 159.522 95.9519 160.034C95.4395 160.546 94.7443 160.835 94.0185 160.838H0.305801V155.385H94.0185C94.7415 155.389 95.4339 155.677 95.9455 156.186C96.4572 156.695 96.7469 157.384 96.7519 158.105Z" fill="#FF677D"/>
<path d="M128.654 158.105C128.653 158.829 128.364 159.524 127.85 160.036C127.336 160.548 126.639 160.837 125.912 160.838H94.0184C94.7458 160.838 95.4435 160.55 95.9579 160.037C96.4723 159.525 96.7612 158.829 96.7612 158.105C96.7612 157.38 96.4723 156.684 95.9579 156.172C95.4435 155.659 94.7458 155.371 94.0184 155.371H125.921C126.647 155.374 127.342 155.663 127.854 156.175C128.367 156.687 128.654 157.381 128.654 158.105Z" fill="url(#paint17_linear)"/>
<path d="M96.7519 158.105C96.7519 158.828 96.4642 159.522 95.9519 160.034C95.4395 160.546 94.7443 160.835 94.0185 160.838H0.305801V155.385H94.0185C94.7415 155.389 95.4339 155.677 95.9455 156.186C96.4572 156.695 96.7469 157.384 96.7519 158.105Z" fill="url(#paint18_linear)"/>
<path d="M124.938 160.852H66.7029V225.799H124.938V160.852Z" fill="#FF677D"/>
<path d="M124.938 160.852H66.7029V225.799H124.938V160.852Z" fill="url(#paint19_linear)"/>
<path d="M96.7613 160.852H0.310501V225.799H96.7613V160.852Z" fill="#FF677D"/>
<path d="M157.052 263.38L157.254 259.775L163.982 260.375L163.088 265.781C163.088 265.781 159.762 270.886 157.052 263.38Z" fill="url(#paint20_linear)"/>
<path d="M196.548 266.315L196.294 261.477L189.396 261.411V267.478C189.396 267.478 193.847 273.821 196.548 266.315Z" fill="url(#paint21_linear)"/>
<path d="M157.052 263.38C157.052 263.38 144.349 269.62 142.853 271.889C141.869 273.548 141.147 275.347 140.713 277.225C140.713 277.225 148.48 277.361 153.302 275.757C158.125 274.154 163.982 272.419 163.982 272.419V264.144C163.982 264.144 163.883 263.178 162.476 264.28C161.07 265.382 159.654 266.413 158.407 265.687C157.16 264.96 157.805 263.328 157.052 263.38Z" fill="#FF677D"/>
<path d="M196.877 265.265C196.877 265.265 207.994 272.152 209.297 274.519C210.159 276.246 210.75 278.094 211.048 280C211.048 280 203.29 279.573 198.599 277.628C193.908 275.682 188.202 273.525 188.202 273.525L188.804 265.274C188.804 265.274 188.973 264.336 190.295 265.513C191.617 266.69 194.059 268.101 195.372 267.478C196.684 266.854 196.129 265.157 196.877 265.265Z" fill="#FF677D"/>
<path d="M157.052 263.38C157.052 263.38 144.349 269.62 142.853 271.889C141.869 273.548 141.147 275.347 140.713 277.225C140.713 277.225 148.48 277.361 153.302 275.757C158.125 274.154 163.982 272.419 163.982 272.419V264.144C163.982 264.144 163.883 263.178 162.476 264.28C161.07 265.382 159.654 266.413 158.407 265.687C157.16 264.96 157.805 263.328 157.052 263.38Z" fill="url(#paint22_linear)"/>
<path d="M196.877 265.265C196.877 265.265 207.994 272.152 209.297 274.519C210.159 276.246 210.75 278.094 211.048 280C211.048 280 203.29 279.573 198.599 277.628C193.908 275.682 188.202 273.525 188.202 273.525L188.804 265.274C188.804 265.274 188.973 264.336 190.295 265.513C191.617 266.69 194.059 268.101 195.372 267.478C196.684 266.854 196.129 265.157 196.877 265.265Z" fill="url(#paint23_linear)"/>
<path d="M97.1423 155.292V155.381H45.5978C45.5978 155.381 53.1253 130.706 76.0277 131.47C76.4982 131.47 76.9122 131.508 77.3356 131.541C98.5208 133.083 97.4575 153.229 97.1423 155.292Z" fill="#FF677D"/>
<path d="M97.1423 155.292H83.9692L84.068 153.993C84.068 153.993 88.0858 134.771 77.3403 131.559C98.5208 133.083 97.4575 153.229 97.1423 155.292Z" fill="#FF677D"/>
<path d="M97.1423 155.292V155.381H45.5978C45.5978 155.381 53.1253 130.706 76.0277 131.47C76.4982 131.47 76.9122 131.508 77.3356 131.541C98.5208 133.083 97.4575 153.229 97.1423 155.292Z" fill="url(#paint24_linear)"/>
<path d="M97.1423 155.292H83.9692L84.068 153.993C84.068 153.993 88.0858 134.771 77.3403 131.559C98.5208 133.083 97.4575 153.229 97.1423 155.292Z" fill="url(#paint25_linear)"/>
</g>
<defs>
<linearGradient id="paint0_linear" x1="256.65" y1="86.6035" x2="266.244" y2="34.7999" gradientUnits="userSpaceOnUse">
<stop stop-color="#ECC4D7"/>
<stop offset="0.42" stop-color="#EFD4D1"/>
<stop offset="1" stop-color="#F2EAC9"/>
</linearGradient>
<linearGradient id="paint1_linear" x1="146.513" y1="151.475" x2="166.381" y2="151.475" gradientUnits="userSpaceOnUse">
<stop offset="0.01" stop-color="white" stop-opacity="0"/>
<stop offset="0.13" stop-color="white" stop-opacity="0.17"/>
<stop offset="0.37" stop-color="white" stop-opacity="0.46"/>
<stop offset="0.59" stop-color="white" stop-opacity="0.68"/>
<stop offset="0.77" stop-color="white" stop-opacity="0.85"/>
<stop offset="0.91" stop-color="white" stop-opacity="0.95"/>
<stop offset="1" stop-color="white" stop-opacity="0.99"/>
</linearGradient>
<linearGradient id="paint2_linear" x1="5351.36" y1="-24991.7" x2="4903.6" y2="-24993.5" gradientUnits="userSpaceOnUse">
<stop offset="0.01" stop-color="white" stop-opacity="0"/>
<stop offset="0.13" stop-color="white" stop-opacity="0.17"/>
<stop offset="0.37" stop-color="white" stop-opacity="0.46"/>
<stop offset="0.59" stop-color="white" stop-opacity="0.68"/>
<stop offset="0.77" stop-color="white" stop-opacity="0.85"/>
<stop offset="0.91" stop-color="white" stop-opacity="0.95"/>
<stop offset="1" stop-color="white" stop-opacity="0.99"/>
</linearGradient>
<linearGradient id="paint3_linear" x1="11751.5" y1="13349.8" x2="13594.5" y2="12203.2" gradientUnits="userSpaceOnUse">
<stop stop-color="#ECC4D7"/>
<stop offset="0.42" stop-color="#EFD4D1"/>
<stop offset="1" stop-color="#F2EAC9"/>
</linearGradient>
<linearGradient id="paint4_linear" x1="212.774" y1="42.707" x2="177.215" y2="55.1189" gradientUnits="userSpaceOnUse">
<stop stop-color="#183866"/>
<stop offset="1" stop-color="#1A7FC1"/>
</linearGradient>
<linearGradient id="paint5_linear" x1="15582.6" y1="21691.6" x2="17803.7" y2="21691.6" gradientUnits="userSpaceOnUse">
<stop stop-color="#ECC4D7"/>
<stop offset="0.42" stop-color="#EFD4D1"/>
<stop offset="1" stop-color="#F2EAC9"/>
</linearGradient>
<linearGradient id="paint6_linear" x1="1520.71" y1="2832.62" x2="1491.46" y2="2827.32" gradientUnits="userSpaceOnUse">
<stop stop-color="#183866"/>
<stop offset="1" stop-color="#1A7FC1"/>
</linearGradient>
<linearGradient id="paint7_linear" x1="5719.54" y1="32130.6" x2="6658.02" y2="32159.8" gradientUnits="userSpaceOnUse">
<stop offset="0.01" stop-color="white" stop-opacity="0"/>
<stop offset="0.13" stop-color="white" stop-opacity="0.17"/>
<stop offset="0.37" stop-color="white" stop-opacity="0.46"/>
<stop offset="0.59" stop-color="white" stop-opacity="0.68"/>
<stop offset="0.77" stop-color="white" stop-opacity="0.85"/>
<stop offset="0.91" stop-color="white" stop-opacity="0.95"/>
<stop offset="1" stop-color="white" stop-opacity="0.99"/>
</linearGradient>
<linearGradient id="paint8_linear" x1="13555.2" y1="29942.5" x2="11598.8" y2="30277.1" gradientUnits="userSpaceOnUse">
<stop offset="0.01" stop-color="white" stop-opacity="0"/>
<stop offset="0.13" stop-color="white" stop-opacity="0.17"/>
<stop offset="0.37" stop-color="white" stop-opacity="0.46"/>
<stop offset="0.59" stop-color="white" stop-opacity="0.68"/>
<stop offset="0.77" stop-color="white" stop-opacity="0.85"/>
<stop offset="0.91" stop-color="white" stop-opacity="0.95"/>
<stop offset="1" stop-color="white" stop-opacity="0.99"/>
</linearGradient>
<linearGradient id="paint9_linear" x1="4876.62" y1="-19726.9" x2="5262.4" y2="-19736.5" gradientUnits="userSpaceOnUse">
<stop offset="0.01" stop-color="white" stop-opacity="0"/>
<stop offset="0.13" stop-color="white" stop-opacity="0.17"/>
<stop offset="0.37" stop-color="white" stop-opacity="0.46"/>
<stop offset="0.59" stop-color="white" stop-opacity="0.68"/>
<stop offset="0.77" stop-color="white" stop-opacity="0.85"/>
<stop offset="0.91" stop-color="white" stop-opacity="0.95"/>
<stop offset="1" stop-color="white" stop-opacity="0.99"/>
</linearGradient>
<linearGradient id="paint10_linear" x1="6012.58" y1="3525.29" x2="6090.08" y2="3994.35" gradientUnits="userSpaceOnUse">
<stop stop-color="#ECC4D7"/>
<stop offset="0.42" stop-color="#EFD4D1"/>
<stop offset="1" stop-color="#F2EAC9"/>
</linearGradient>
<linearGradient id="paint11_linear" x1="11100.5" y1="9400.45" x2="11021.8" y2="7229.52" gradientUnits="userSpaceOnUse">
<stop offset="0.01" stop-color="white" stop-opacity="0"/>
<stop offset="0.13" stop-color="white" stop-opacity="0.17"/>
<stop offset="0.37" stop-color="white" stop-opacity="0.46"/>
<stop offset="0.59" stop-color="white" stop-opacity="0.68"/>
<stop offset="0.77" stop-color="white" stop-opacity="0.85"/>
<stop offset="0.91" stop-color="white" stop-opacity="0.95"/>
<stop offset="1" stop-color="white" stop-opacity="0.99"/>
</linearGradient>
<linearGradient id="paint12_linear" x1="12437.9" y1="10245.9" x2="12221.8" y2="7156.44" gradientUnits="userSpaceOnUse">
<stop offset="0.01" stop-color="white" stop-opacity="0"/>
<stop offset="0.13" stop-color="white" stop-opacity="0.17"/>
<stop offset="0.37" stop-color="white" stop-opacity="0.46"/>
<stop offset="0.59" stop-color="white" stop-opacity="0.68"/>
<stop offset="0.77" stop-color="white" stop-opacity="0.85"/>
<stop offset="0.91" stop-color="white" stop-opacity="0.95"/>
<stop offset="1" stop-color="white" stop-opacity="0.99"/>
</linearGradient>
<linearGradient id="paint13_linear" x1="161.521" y1="79.3975" x2="165.253" y2="85.087" gradientUnits="userSpaceOnUse">
<stop stop-opacity="0"/>
<stop offset="0.99"/>
</linearGradient>
<linearGradient id="paint14_linear" x1="1785.89" y1="787.576" x2="1806.01" y2="834.233" gradientUnits="userSpaceOnUse">
<stop stop-opacity="0"/>
<stop offset="0.99"/>
</linearGradient>
<linearGradient id="paint15_linear" x1="3664.99" y1="1760.27" x2="3809.07" y2="1760.27" gradientUnits="userSpaceOnUse">
<stop stop-opacity="0"/>
<stop offset="0.99"/>
</linearGradient>
<linearGradient id="paint16_linear" x1="2707.79" y1="1186.42" x2="2698.87" y2="1394.59" gradientUnits="userSpaceOnUse">
<stop stop-opacity="0"/>
<stop offset="0.99"/>
</linearGradient>
<linearGradient id="paint17_linear" x1="11572.6" y1="-1360.93" x2="11578.9" y2="-927.159" gradientUnits="userSpaceOnUse">
<stop stop-opacity="0"/>
<stop offset="0.99"/>
</linearGradient>
<linearGradient id="paint18_linear" x1="19401.9" y1="-1505.25" x2="19399.9" y2="-400.8" gradientUnits="userSpaceOnUse">
<stop stop-opacity="0"/>
<stop offset="0.99"/>
</linearGradient>
<linearGradient id="paint19_linear" x1="9437.24" y1="-12035.2" x2="31287.1" y2="-12309.4" gradientUnits="userSpaceOnUse">
<stop stop-opacity="0"/>
<stop offset="0.99"/>
</linearGradient>
<linearGradient id="paint20_linear" x1="3145.06" y1="536.492" x2="3247.14" y2="536.492" gradientUnits="userSpaceOnUse">
<stop stop-color="#ECC4D7"/>
<stop offset="0.42" stop-color="#EFD4D1"/>
<stop offset="1" stop-color="#F2EAC9"/>
</linearGradient>
<linearGradient id="paint21_linear" x1="-30417.6" y1="-250.002" x2="-30526.3" y2="-250.002" gradientUnits="userSpaceOnUse">
<stop stop-color="#ECC4D7"/>
<stop offset="0.42" stop-color="#EFD4D1"/>
<stop offset="1" stop-color="#F2EAC9"/>
</linearGradient>
<linearGradient id="paint22_linear" x1="9319.78" y1="-282.15" x2="10470.7" y2="-282.15" gradientUnits="userSpaceOnUse">
<stop stop-opacity="0"/>
<stop offset="0.99"/>
</linearGradient>
<linearGradient id="paint23_linear" x1="11504.8" y1="-241.018" x2="12614.9" y2="-241.018" gradientUnits="userSpaceOnUse">
<stop stop-opacity="0"/>
<stop offset="0.99"/>
</linearGradient>
<linearGradient id="paint24_linear" x1="12692" y1="-7372.85" x2="12804.8" y2="-4282.92" gradientUnits="userSpaceOnUse">
<stop stop-opacity="0"/>
<stop offset="0.99"/>
</linearGradient>
<linearGradient id="paint25_linear" x1="6353.14" y1="-7650.13" x2="1055.06" y2="-2978.44" gradientUnits="userSpaceOnUse">
<stop stop-opacity="0"/>
<stop offset="0.99"/>
</linearGradient>
<clipPath id="clip0">
<rect width="296" height="279" fill="white"/>
</clipPath>
</defs>
</svg>
