<svg width="331" height="263" viewBox="0 0 331 263" fill="none" xmlns="http://www.w3.org/2000/svg">
<g clip-path="url(#clip0)">
<path opacity="0.18" d="M330.841 163.404C330.725 165.136 330.549 166.877 330.299 168.609C329.208 176.122 326.825 183.262 323.991 190.216C322.458 193.996 320.791 197.711 319.125 201.388C311.325 218.639 302.966 236.439 289.125 248.03C269.533 264.434 242.741 265.16 218.608 260.542C209.566 258.811 200.616 256.437 191.666 254.081C176.724 250.143 161.791 246.261 146.491 245.544C113.099 243.99 77.8745 257.321 47.2245 242.444C27.9245 233.069 13.6078 213.258 6.48278 191.147C2.48107 178.394 0.326208 165.009 0.0994473 151.497C-0.129604 141.467 0.394455 131.434 1.66612 121.501C2.34112 116.111 3.21611 110.711 4.32445 105.368C4.88 102.649 5.49389 99.9493 6.16611 97.2681C10.7578 79.0955 18.1328 61.8911 29.0578 47.9265C32.1941 43.9134 35.6316 40.2071 39.3328 36.8479C64.3995 14.1973 98.6411 10.1848 130.774 7.10332C163.191 3.95663 198.149 -4.28249 230.174 2.7836C243.077 5.48507 255.338 11.1467 266.183 19.4108C296.458 42.6851 313.491 82.0653 324.583 121.222C328.449 134.889 331.783 149.188 330.841 163.404Z" fill="#FF677D"/>
<path opacity="0.18" d="M330.842 163.404H230.175V2.78362C243.078 5.48508 255.339 11.1467 266.183 19.4108C296.458 42.6851 313.492 82.0653 324.583 121.222C328.45 134.889 331.783 149.189 330.842 163.404Z" fill="#FF677D"/>
<path d="M330.842 163.404H230.175V2.78362C243.078 5.48508 255.339 11.1467 266.183 19.4108C296.458 42.6851 313.492 82.0653 324.583 121.222C328.45 134.889 331.783 149.189 330.842 163.404Z" fill="url(#paint0_linear)"/>
<path d="M323.992 162.697H225.675V190.207H323.992V162.697Z" fill="#FF677D"/>
<path d="M323.992 162.697H225.675V190.207H323.992V162.697Z" fill="url(#paint1_linear)"/>
<path d="M136.775 156.385C142.85 159.355 148.833 162.641 155.208 164.68C161.583 166.719 168.45 167.873 174.992 169.149C181.789 170.478 188.719 170.751 195.583 169.959C197.25 169.763 198.992 169.437 200.1 168.097C200.25 167.935 200.354 167.728 200.4 167.501C200.508 166.775 199.642 166.412 198.983 166.328L189.175 165.117C187.325 164.885 185.367 164.615 183.908 163.321C193.678 163.789 203.418 161.801 212.408 157.502C212.947 157.294 213.429 156.935 213.808 156.459C213.992 156.217 214.086 155.906 214.074 155.588C214.062 155.271 213.943 154.971 213.742 154.746C213.42 154.518 213.037 154.419 212.658 154.467H190.992C188.8 154.467 186.525 154.467 184.525 153.443C193.093 153.778 201.671 153.201 210.142 151.721C212.774 151.362 215.354 150.624 217.817 149.524C218.65 149.114 219.55 148.462 219.608 147.457C219.692 145.958 217.942 145.278 216.617 145.139C211.617 144.608 206.617 144.636 201.617 144.45C197.1 144.273 191.617 144.45 187.383 142.588C187.692 140.773 207.842 142.839 210.442 142.839C213.775 142.97 217.392 143.016 220.1 140.847C220.405 140.648 220.669 140.38 220.874 140.059C221.08 139.738 221.222 139.372 221.292 138.985C221.45 137.393 219.692 136.499 218.283 136.192C213.175 135.121 207.958 135.084 202.792 134.544C190.477 133.259 178.527 129.175 167.675 122.544C166.514 121.992 165.542 121.039 164.9 119.826C163.975 117.601 165.367 115.087 166.692 113.132L175.358 100.322C176.483 98.6646 177.667 96.6537 177.108 94.6707C176.333 91.8778 172.742 91.5892 170.575 93.1439C168.408 94.6986 167.125 97.3612 165.342 99.4373C158.75 107.127 147.2 105.321 138.933 110.609C136.075 112.471 133.658 115.115 130.683 116.725C124.142 120.272 116.375 118.066 109.433 115.618C95.15 110.59 81.1028 104.806 67.2917 98.2643C63.3667 96.4023 59.15 94.4379 54.9667 95.3782C48.8417 96.8026 45.1833 103.757 42.5667 110.088C41.7333 112.024 40.975 114.054 41.05 116.185C41.1833 120.3 44.3833 123.373 47.5083 125.616C61.3333 135.615 75.8417 136.648 91.5 140.26C107.053 143.861 122.227 149.265 136.775 156.385Z" fill="#CC624E"/>
<path d="M71.4167 90.3696C71.363 91.7195 70.9414 93.0188 70.2083 94.0935C69.375 95.5831 68.5417 97.0726 67.7083 98.5529C62.8139 107.416 57.9167 116.275 53.0167 125.132C52.5917 125.905 52.1333 126.696 51.6417 127.45C51.4833 127.683 51.3333 127.916 51.175 128.139C49.5833 130.401 47.6333 132.254 45.1667 132.263C43.6883 132.151 42.2495 131.681 40.95 130.886C27.8358 124.106 15.5205 115.545 4.28333 105.396C4.83888 102.677 5.45277 99.9772 6.12499 97.296C10.7167 79.1234 18.0917 61.919 29.0167 47.9544C32.2417 49.956 35.4417 53.3913 38.8333 57.2642C48.1583 67.9331 59.45 76.1536 69.1667 86.3571C70.2333 87.4743 71.3333 88.759 71.4167 90.3696Z" fill="#FF677D"/>
<path d="M71.4167 90.3696C71.363 91.7195 70.9414 93.0188 70.2083 94.0935C69.375 95.5831 68.5417 97.0726 67.7083 98.5529C62.8139 107.416 57.9167 116.275 53.0167 125.132C52.5917 125.905 52.1333 126.696 51.6417 127.45C51.4833 127.683 51.3333 127.916 51.175 128.139C49.5833 130.401 47.6333 132.254 45.1667 132.263C43.6883 132.151 42.2495 131.681 40.95 130.886C27.8358 124.106 15.5205 115.545 4.28333 105.396C4.83888 102.677 5.45277 99.9772 6.12499 97.296C10.7167 79.1234 18.0917 61.919 29.0167 47.9544C32.2417 49.956 35.4417 53.3913 38.8333 57.2642C48.1583 67.9331 59.45 76.1536 69.1667 86.3571C70.2333 87.4743 71.3333 88.759 71.4167 90.3696Z" fill="url(#paint2_linear)"/>
<path opacity="0.36" d="M137.45 103.673C138.293 101.96 138.603 99.9818 138.33 98.0505C138.057 96.1191 137.217 94.3439 135.942 93.0042C134.358 91.4123 132.267 90.6396 130.267 89.8389C128.267 89.0383 126.2 88.0794 124.825 86.2547C123.45 84.43 123.017 81.5067 124.433 79.7379C125.85 77.969 128.1 78.0156 130.058 78.5183C133.443 79.3912 136.494 81.4376 138.775 84.3648C141.55 87.9491 143.208 92.8646 146.95 95.1082C148.5 93.0601 151.433 92.846 153.617 91.7102C156.75 90.0717 158.267 86.1244 159.233 82.4005C162.108 71.2939 162.425 59.6009 162.725 48.0475L163.867 3.7332C169.606 2.74548 175.432 2.53294 181.217 3.10014C181.517 7.03816 179.908 10.7993 178.617 14.4859C172.95 30.6476 172.983 48.4944 173.083 65.8571C173.004 68.9151 173.22 71.9738 173.725 74.9806C176.633 76.6563 179.967 73.8914 182.125 71.145C184.283 68.3986 186.908 65.1495 190.133 65.736C191.325 69.5065 189.15 73.6028 186.517 76.3119C183.883 79.021 180.683 81.1436 178.742 84.5231C176.8 87.9025 177 93.3022 180.242 95.0058C183.883 96.9143 187.625 93.0042 190.742 90.1555C193.977 87.2124 197.784 85.156 201.858 84.1507C202.446 83.9513 203.07 83.9321 203.667 84.0948C205.775 84.8862 204.858 88.5356 203.242 90.2579C200.525 93.1532 197 94.9127 193.925 97.3146C190.85 99.7166 188.092 103.301 188.092 107.499C193.539 107.07 198.942 106.114 204.242 104.641C205.125 108.738 201.367 112.238 197.783 113.569C194.2 114.901 190.092 115.431 187.517 118.476C184.183 122.488 184.692 129.498 180.85 132.934C179.194 134.227 177.263 135.01 175.25 135.205C167.292 136.555 158.842 135.252 151.917 130.662C144.992 126.072 138.4 112.601 137.45 103.673Z" fill="#FF677D"/>
<path d="M141.742 154.858C148.408 154.979 155.033 155.417 161.617 154.551C166.718 153.749 171.763 152.555 176.717 150.976L196.258 145.297C199.133 144.459 202.092 144.05 204.542 142.029C206.612 140.302 208.395 138.181 209.808 135.764C210.129 135.289 210.338 134.732 210.417 134.144C210.451 133.847 210.395 133.546 210.26 133.289C210.124 133.031 209.915 132.831 209.667 132.72C209.309 132.65 208.941 132.699 208.608 132.859C201 135.708 193.342 138.445 185.467 140.149C186.487 139.161 187.687 138.434 188.983 138.017C197.467 134.554 205.9 130.681 213.342 124.983C214.211 124.394 214.965 123.615 215.558 122.693C215.85 122.228 216.02 121.681 216.051 121.115C216.082 120.548 215.972 119.983 215.733 119.481L183.775 130.374L204.458 119.658C208.275 117.675 212.183 115.627 215.1 112.21C215.47 111.859 215.713 111.369 215.783 110.832C215.757 110.45 215.61 110.091 215.369 109.818C215.128 109.545 214.808 109.377 214.467 109.343C213.783 109.294 213.099 109.435 212.475 109.752C202.7 113.672 192.975 117.926 182.783 120.161L201.483 112.313C205.233 110.73 209.033 109.129 212.317 106.503C212.605 106.33 212.856 106.089 213.051 105.796C213.247 105.504 213.383 105.167 213.45 104.809C213.44 104.455 213.334 104.113 213.146 103.827C212.959 103.541 212.699 103.326 212.4 103.208C211.797 102.984 211.155 102.917 210.525 103.012C202.025 103.71 194.292 108.719 185.917 110.46C181.258 111.447 176.475 111.391 171.75 111.391C168.417 111.391 165.133 111.391 161.825 111.158C159.733 111.037 156.775 110.665 155.158 108.989C153.542 107.313 153.95 104.418 154.492 102.044L158.067 86.4874C158.525 84.4765 158.9 82.1119 157.725 80.5199C156.058 78.3228 152.633 79.5889 151.167 81.935C149.7 84.281 149.442 87.316 148.517 89.9972C145.092 99.9307 133.817 103.245 128.025 111.698C126.017 114.631 124.692 118.131 122.525 120.896C117.708 126.985 109.783 128.344 102.525 129.042C87.6083 130.557 72.6472 131.277 57.6417 131.202C53.3833 131.202 48.8167 131.202 45.2833 133.855C40.0833 137.775 39.1083 145.763 38.8917 152.773C38.825 154.895 38.8 157.12 39.6 159.048C41.15 162.771 45.1917 164.233 48.8167 164.959C65.025 168.227 78.8167 162.911 94.4583 159.494C110.032 156.114 125.879 154.56 141.742 154.858Z" fill="#F38A6B"/>
<path d="M51.6917 128.242C51.6957 128.294 51.6957 128.347 51.6917 128.4C51.6917 129.443 51.6167 130.476 51.5084 131.509C50.9898 135.921 50.1452 140.277 48.9834 144.534C47.4111 150.889 45.8334 157.241 44.25 163.591C43.4278 166.942 42.5945 170.294 41.75 173.645C41.7177 173.885 41.608 174.104 41.4417 174.26C41.3127 174.333 41.1699 174.372 41.025 174.372C40.8802 174.372 40.7374 174.333 40.6084 174.26C26.7129 168.499 13.4093 161.092 0.925029 152.168C0.641696 151.963 0.358363 151.758 0.091696 151.544C-0.137355 141.514 0.3867 131.48 1.65836 121.548C2.33336 116.158 3.20836 110.758 4.3167 105.414C4.87225 102.696 5.48614 99.9959 6.15836 97.3147C9.90836 97.6777 15.7334 104.26 18.3167 106.159C26.1314 111.896 34.3372 116.939 42.8584 121.241C44.8917 122.265 46.95 123.242 49.0167 124.183C49.9663 124.488 50.7949 125.144 51.3667 126.045C51.5772 126.496 51.6912 126.997 51.7 127.506C51.7107 127.751 51.7079 127.997 51.6917 128.242Z" fill="#FF677D"/>
<path d="M323.983 190.216C322.45 193.996 320.783 197.711 319.117 201.388C311.317 218.639 302.958 236.439 289.117 248.03C269.525 264.434 242.733 265.16 218.6 260.542C209.558 258.811 200.608 256.437 191.658 254.081V190.216H323.983Z" fill="#FF677D"/>
<path d="M323.983 190.216C322.45 193.996 320.783 197.711 319.117 201.388C311.317 218.639 302.958 236.439 289.117 248.03C269.525 264.434 242.733 265.16 218.6 260.542C209.558 258.811 200.608 256.437 191.658 254.081V190.216H323.983Z" fill="url(#paint3_linear)"/>
<path d="M282.483 190.216H268.017C266.193 190.211 264.392 189.762 262.739 188.901C261.086 188.04 259.62 186.787 258.444 185.23C257.267 183.673 256.408 181.849 255.925 179.884C255.443 177.918 255.349 175.86 255.65 173.85L262.55 127.59C263.041 124.31 264.557 121.33 266.829 119.18C269.101 117.031 271.981 115.851 274.958 115.85C277.899 115.855 280.746 117.011 283.003 119.116C285.261 121.222 286.787 124.144 287.317 127.376L294.883 173.636C295.215 175.664 295.142 177.749 294.672 179.743C294.201 181.736 293.344 183.59 292.161 185.172C290.978 186.754 289.497 188.026 287.825 188.898C286.153 189.77 284.329 190.22 282.483 190.216Z" fill="#FF677D"/>
<path d="M279.858 103.152H270.608V118.504H279.858V103.152Z" fill="#FF677D"/>
<path d="M279.858 103.152H270.608V118.504H279.858V103.152Z" fill="url(#paint4_linear)"/>
<path d="M283.558 100.052H257.825V103.152H283.558V100.052Z" fill="#FF677D"/>
<path d="M259.7 102.333H257.825V106.69H259.7V102.333Z" fill="#FF677D"/>
<path d="M295.058 176.578H255.442C255.419 175.665 255.475 174.751 255.608 173.85L259.625 146.973H290.5L294.858 173.636C295.015 174.606 295.082 175.592 295.058 176.578Z" fill="white"/>
<path d="M276.25 154.039H270.608V171.364H276.25V154.039Z" fill="#FF677D"/>
<path d="M281.175 165.853V159.55H265.667V165.853H281.175Z" fill="#FF677D"/>
<path d="M274.892 190.216H268.017C264.745 190.216 261.602 188.791 259.254 186.245C256.907 183.699 255.539 180.231 255.442 176.578C255.419 175.665 255.475 174.751 255.608 173.85L259.625 146.973L262.517 127.59C263.008 124.31 264.524 121.33 266.796 119.18C269.067 117.031 271.948 115.851 274.925 115.85C276.086 115.849 277.242 116.031 278.358 116.39C276.071 117.115 274.015 118.549 272.428 120.527C270.841 122.504 269.788 124.943 269.392 127.562L266.483 146.973L262.467 173.85C262.333 174.751 262.277 175.665 262.3 176.578C262.398 180.235 263.767 183.705 266.119 186.252C268.47 188.798 271.617 190.221 274.892 190.216Z" fill="url(#paint5_linear)"/>
</g>
<defs>
<linearGradient id="paint0_linear" x1="237.967" y1="84.0483" x2="374.686" y2="97.5672" gradientUnits="userSpaceOnUse">
<stop offset="0.01" stop-color="white"/>
<stop offset="0.13" stop-color="white" stop-opacity="0.69"/>
<stop offset="1" stop-color="white" stop-opacity="0"/>
</linearGradient>
<linearGradient id="paint1_linear" x1="274.233" y1="222.074" x2="275.221" y2="161.834" gradientUnits="userSpaceOnUse">
<stop offset="0.01"/>
<stop offset="0.13" stop-opacity="0.69"/>
<stop offset="1" stop-opacity="0"/>
</linearGradient>
<linearGradient id="paint2_linear" x1="-2010.39" y1="15160.3" x2="7188.04" y2="12050.7" gradientUnits="userSpaceOnUse">
<stop offset="0.01"/>
<stop offset="0.13" stop-opacity="0.69"/>
<stop offset="1" stop-opacity="0"/>
</linearGradient>
<linearGradient id="paint3_linear" x1="45266.8" y1="7375.8" x2="45571.7" y2="23594.2" gradientUnits="userSpaceOnUse">
<stop offset="0.01"/>
<stop offset="0.13" stop-opacity="0.69"/>
<stop offset="1" stop-opacity="0"/>
</linearGradient>
<linearGradient id="paint4_linear" x1="3247.72" y1="1738.58" x2="3602.88" y2="2056.35" gradientUnits="userSpaceOnUse">
<stop offset="0.01" stop-color="white"/>
<stop offset="0.13" stop-color="white" stop-opacity="0.69"/>
<stop offset="1" stop-color="white" stop-opacity="0"/>
</linearGradient>
<linearGradient id="paint5_linear" x1="7616.45" y1="14894.6" x2="8644.11" y2="14897.6" gradientUnits="userSpaceOnUse">
<stop offset="0.01"/>
<stop offset="0.13" stop-opacity="0.69"/>
<stop offset="1" stop-opacity="0"/>
</linearGradient>
<clipPath id="clip0">
<rect width="331" height="263" fill="white"/>
</clipPath>
</defs>
</svg>
