<svg width="314" height="273" viewBox="0 0 314 273" fill="none" xmlns="http://www.w3.org/2000/svg">
<g clip-path="url(#clip0)">
<path opacity="0.18" d="M309.177 232.402C307.628 235.603 305.641 238.552 303.28 241.155C292.052 253.461 273.924 255.748 257.786 253.425C241.649 251.102 226.173 244.994 209.984 243.362C184.233 240.77 158.885 249.64 134.447 258.34C110.009 267.039 84.6618 275.999 58.9107 273.587C34.6618 271.326 9.83772 256.16 2.35274 232.384C1.88607 230.912 1.49355 229.415 1.17678 227.9C-6.48846 191.827 26.0695 158.06 23.8463 121.171C23.2283 110.866 19.8806 100.956 18.4815 90.7315C13.812 56.5695 33.9321 20.4165 64.6017 7.71669C118.421 -14.5527 176.636 26.5511 232.705 15.5644C288.602 4.64938 295.915 32.1745 290.619 88.9019C288.838 108.251 290.823 127.776 296.456 146.302C301.331 162.284 308.902 177.379 312.344 193.765C315.048 206.608 314.748 220.949 309.177 232.402Z" fill="#FF677D"/>
<path d="M309.176 232.403C307.627 235.604 305.64 238.553 303.279 241.156C292.052 253.462 273.923 255.749 257.785 253.426C241.648 251.103 226.172 244.995 209.983 243.363C184.232 240.771 158.884 249.641 134.446 258.341C110.009 267.04 84.6609 276 58.9099 273.587C34.6609 271.327 9.83691 256.161 2.35193 232.385L309.176 232.403Z" fill="#FF677D"/>
<path d="M49.3734 243.739C46.8927 241.39 48.6953 237.542 51.9485 235.91C55.2017 234.277 59.3562 234.224 63.2361 234.233C92.7554 234.233 123.322 232.528 152.678 234.403C143.339 243.183 123.339 242.959 110.455 243.542C90.1373 244.466 69.7253 244.529 49.3734 243.739Z" fill="url(#paint0_linear)"/>
<path d="M116.086 105.163C115.691 98.2691 115.557 91.3602 115.682 84.4363C115.777 79.4318 116.155 74.0057 119.296 70.2208C120.729 68.6283 122.402 67.2921 124.249 66.2656C127.012 64.5703 129.863 63.0372 132.79 61.6736C137.459 62.7409 142.73 59.8799 146.953 62.1669C149.004 63.297 150.386 65.3957 151.562 67.4854C157.468 78.0595 159.846 90.4723 160.146 102.715C160.446 114.957 158.833 127.155 157.202 139.28C146.773 141.558 135.974 139.594 125.485 137.621C124.551 137.505 123.647 137.201 122.824 136.724C120.652 135.298 120.524 132.123 120.438 129.451C120.24 122.204 116.498 112.428 116.086 105.163Z" fill="#FF677D"/>
<path d="M148.695 50.3999C148.695 51.9067 148.635 53.539 147.708 54.6959C146.968 55.5271 145.965 56.0497 144.884 56.1668C143.813 56.2655 142.736 56.2655 141.665 56.1668C141.596 56.1481 141.524 56.1476 141.455 56.1653C141.386 56.1829 141.322 56.2182 141.27 56.268C141.217 56.3178 141.177 56.3806 141.153 56.4506C141.129 56.5206 141.122 56.5956 141.133 56.6691C140.91 58.8962 140.91 61.1416 141.133 63.3687C141.2 63.7259 141.17 64.0955 141.047 64.436C140.923 64.6333 140.761 64.8018 140.572 64.9314C140.383 65.061 140.171 65.1488 139.949 65.1894C139.158 65.4722 138.329 65.6236 137.494 65.6378C135.708 65.6378 134.06 64.6961 132.498 63.7903C132.619 60.5586 132.455 57.3223 132.009 54.1219C131.442 49.9873 130.395 45.8438 130.833 41.6912C130.922 40.0567 131.491 38.4907 132.464 37.2069C133.888 35.5207 136.197 34.9826 138.352 34.9826C141.21 34.9333 144.021 35.7393 146.455 37.3055C147.313 37.9333 147.442 38.7405 147.648 39.8078C147.957 41.4401 148.206 43.0814 148.378 44.7317C148.577 46.614 148.684 48.506 148.695 50.3999Z" fill="#F38A6B"/>
<path d="M144.567 38.328C142.541 38.8123 140.318 38.2472 138.395 39.0724C135.717 40.2114 134.575 43.8437 135.468 46.7137C134.695 47.0097 134.558 45.5478 133.957 44.92C133.356 44.2922 132.009 45.1263 131.914 46.1397C131.965 47.1593 132.26 48.1493 132.773 49.0187C133.503 50.808 133.63 52.8034 133.133 54.678C133.013 55.1175 132.704 55.6377 132.275 55.5211C132.125 55.4612 131.994 55.3587 131.897 55.2251C130.97 53.9784 131.433 51.9425 130.369 50.8214C130.043 50.5363 129.695 50.2784 129.33 50.0501C127.7 48.8124 127.33 46.3819 127.708 44.3101C127.907 43.648 127.937 42.943 127.794 42.2652C127.583 41.7986 127.321 41.3591 127.013 40.9558C126.722 40.4385 126.579 39.8449 126.601 39.2453C126.622 38.6457 126.808 38.0651 127.136 37.5725C127.464 37.0798 127.92 36.6957 128.451 36.4656C128.981 36.2355 129.563 36.169 130.129 36.2741C130.057 35.4974 130.209 34.716 130.564 34.0299C130.92 33.3438 131.464 32.7843 132.126 32.423C132.788 32.0618 133.538 31.9152 134.28 32.0021C135.022 32.089 135.723 32.4054 136.292 32.9108C136.816 31.8419 137.616 30.9473 138.601 30.3278C139.106 30.0683 139.687 30.0164 140.227 30.1825C140.768 30.3485 141.229 30.7205 141.519 31.2247C143.536 29.3144 146.498 27.8524 148.172 30.9736C149.845 34.0947 147.725 37.5746 144.567 38.328Z" fill="#1E3964"/>
<path d="M137.365 47.5299C137.964 47.9602 138.637 48.2648 139.348 48.4268C140.07 48.4787 140.796 48.3998 141.494 48.1936C143.731 47.6969 146.014 47.4623 148.3 47.494C148.492 47.4754 148.684 47.5193 148.85 47.6196C148.979 47.7247 149.075 47.8687 149.124 48.0322C149.569 49.065 149.777 50.1915 149.734 51.3229C149.691 52.4543 149.397 53.5598 148.876 54.5524C148.745 54.846 148.54 55.0971 148.283 55.2789C148.041 55.4069 147.774 55.4774 147.502 55.4852C145.322 55.7363 143.136 55.9097 140.944 56.0054C140.305 56.1076 139.652 55.9912 139.082 55.6735C138.807 55.4852 138.609 55.2161 138.343 55.0188C137.969 54.7774 137.561 54.5988 137.133 54.4897C135.071 53.8487 133.317 52.4165 132.223 50.4806C134.028 51.7785 136.007 52.7909 138.094 53.4852C138.17 53.5226 138.252 53.542 138.335 53.542C138.418 53.542 138.5 53.5226 138.575 53.4852C138.638 53.4269 138.687 53.3548 138.72 53.2741C138.752 53.1935 138.767 53.1063 138.764 53.0188L139.073 50.1757C139.112 50.0047 139.112 49.8265 139.073 49.6555C138.972 49.4541 138.813 49.2909 138.618 49.1891C137.537 48.4896 135.236 47.5658 134.678 46.355C135.313 45.8527 136.764 47.1712 137.365 47.5299Z" fill="#F6F4F6"/>
<path d="M122.833 136.751L126.455 233.533H135.648L147.536 138.67L122.833 136.751Z" fill="#080608"/>
<path d="M136.601 138.007L142.858 233.533H152.043L158.309 138.67L136.601 138.007Z" fill="#080608"/>
<path d="M125.777 238.968C128.845 239.436 131.948 239.613 135.047 239.497C136.418 239.566 137.791 239.412 139.116 239.04C139.821 238.699 140.581 238.501 141.356 238.457C141.377 238.17 141.335 237.883 141.234 237.615C141.133 237.348 140.975 237.109 140.773 236.914C139.102 235.058 136.865 233.869 134.446 233.551C132.472 233.21 129.502 232.833 127.579 233.506C125.657 234.179 125.725 237.174 125.777 238.968Z" fill="#080608"/>
<path d="M142.704 238.242C145.772 238.709 148.875 238.886 151.974 238.771C153.348 238.84 154.723 238.686 156.052 238.313C156.756 237.973 157.517 237.775 158.292 237.73C158.311 237.444 158.268 237.157 158.167 236.89C158.066 236.623 157.909 236.383 157.708 236.188C156.037 234.334 153.8 233.145 151.382 232.824C149.399 232.484 146.429 232.107 144.515 232.824C142.601 233.542 142.652 236.43 142.704 238.242Z" fill="#080608"/>
<path d="M122.592 112.132L131.305 119.406C130.593 121.485 129.732 123.506 128.73 125.45C128.473 126.071 128.057 126.605 127.528 126.993C126.455 127.648 125.099 127.047 124 126.455L113.7 120.832C111.949 119.979 110.312 118.891 108.833 117.594C105.923 114.796 104.644 110.518 104.541 106.383C104.438 102.248 105.442 98.1855 106.421 94.1854L109.107 83.1269C110.824 76.0775 112.953 68.4002 118.721 64.2925C120.504 63.1431 122.393 62.1846 124.36 61.4315C124.956 61.2252 125.495 60.8713 125.931 60.4001C126.292 59.8351 126.532 59.1959 126.635 58.5256C127.176 56.2924 128.893 54.2744 131.047 54.7767C130.876 55.5211 131.708 56.0682 132.403 56.3372C134.12 57.0189 135.888 57.6168 137.708 58.131C138.072 58.201 138.416 58.3575 138.712 58.5884C138.957 58.9062 139.125 59.2804 139.202 59.6798C139.28 60.0792 139.265 60.4922 139.159 60.8844L138.3 67.8442C138.18 68.8666 140.549 69.4316 141.193 68.6424C141.724 67.7591 141.923 66.7013 141.751 65.6737L141.236 55.8081C144.953 55.8888 147.631 60.9023 145.734 64.2387C148.309 63.6378 150.979 65.0459 152.721 67.0998C154.463 69.1536 155.425 71.7815 156.369 74.3375C157.708 77.9878 159.047 81.6381 160.077 85.396C164.051 99.8088 163.391 115.118 162.352 130.078C162.086 133.89 161.494 138.285 158.309 140.231C156.778 141.016 155.096 141.424 153.391 141.424C141.588 142.301 129.729 141.856 118.017 140.096C118.189 135.191 118.687 127.343 118.876 122.437C121.21 123.146 122.378 128.715 124.73 129.307C126.85 129.89 129.124 128.67 130.506 126.894C131.787 125.025 132.716 122.919 133.245 120.688C133.414 120.397 133.522 120.071 133.56 119.733C133.597 119.395 133.565 119.052 133.464 118.728C133.362 118.404 133.195 118.107 132.974 117.857C132.752 117.607 132.482 117.41 132.18 117.28C129.227 115.325 125.528 114.114 122.592 112.132Z" fill="#FF677D"/>
<path d="M157.957 97.8895C156.665 92.5481 155.781 87.1079 155.313 81.6201C160.868 92.8735 163.099 105.597 161.725 118.177C161.725 117.127 159.734 116.078 159.579 114.814C159.382 113.172 160.197 111.002 160.129 109.235C159.957 105.334 158.867 101.62 157.957 97.8895Z" fill="url(#paint1_linear)"/>
<path d="M130.807 128.957C130.952 129.055 131.125 129.097 131.296 129.074C131.421 129.029 131.529 128.944 131.605 128.832C133.252 126.959 134.401 124.667 134.936 122.186C133.694 122.016 132.528 121.463 131.588 120.598C131.408 120.437 131.202 120.249 130.979 120.302C130.755 120.356 130.652 120.562 130.558 120.76L129.253 123.45C128.706 124.282 128.27 125.187 127.957 126.141C127.794 127.45 129.828 128.428 130.807 128.957Z" fill="#F38A6B"/>
<path d="M126.12 113.719L122.043 110.132C120.798 109.038 119.468 107.845 119.039 106.212C118.609 104.58 119.039 102.903 119.554 101.307L122.695 90.8042L117.957 86.7772L121.785 87.396C122.148 87.4939 122.53 87.4656 122.876 87.3153C123.053 87.1786 123.201 87.0054 123.312 86.8064C123.423 86.6074 123.493 86.3869 123.519 86.1583C124.509 81.9961 124.091 77.6042 122.335 73.7276L125.073 76.0685C125.259 76.2653 125.499 76.3969 125.76 76.4452C126.197 76.4452 126.524 76.0416 126.764 75.6649L130.146 70.3823C128.505 74.7194 127.323 79.2304 126.618 83.8354C131.262 83.2255 135.962 83.2436 140.601 83.8892C137.794 84.5171 135.004 85.2704 132.258 86.1404C131.341 86.3672 130.479 86.7885 129.725 87.3781C129.197 87.9362 128.784 88.6012 128.511 89.3323C128.238 90.0633 128.111 90.845 128.137 91.6293C128.086 93.1898 128.309 94.7683 128.137 96.3199C132.436 95.9883 136.757 96.1809 141.013 96.8939L134.146 97.9164C132.899 97.998 131.687 98.3851 130.609 99.0464C128.429 100.634 128.309 103.908 128.412 106.688L144.721 106.786C140.822 107.161 136.967 107.93 133.21 109.082C131.813 109.458 130.54 110.223 129.528 111.298C129.039 111.847 128.735 112.548 128.662 113.294C128.589 114.041 128.752 114.791 129.124 115.432C129.565 115.953 130.073 116.406 130.635 116.778C132.246 118.077 133.301 119.989 133.571 122.096C128.908 118.216 124.623 113.863 120.781 109.1" fill="url(#paint2_linear)"/>
<path d="M142.961 67.2163C142.18 70.6783 141.185 74.3913 142.575 77.647C145.505 77.5602 148.437 77.698 151.348 78.0596L143.991 79.2524C143.549 83.748 143.79 88.2884 144.704 92.7055C147.782 92.5439 150.867 92.6339 153.931 92.9746C151.642 93.423 149.376 93.9522 147.133 94.5621C146.716 94.6228 146.333 94.8357 146.052 95.163C145.845 95.5905 145.799 96.0831 145.923 96.5442L147.288 105.594C149.105 105.201 150.966 105.081 152.815 105.235C152.043 106.356 150.395 106.132 149.262 106.84C147.931 107.647 147.597 109.531 147.657 111.109C147.717 112.688 148.009 114.392 147.416 115.881C149.349 116.32 151.344 116.375 153.296 116.042L149.451 116.724C149.004 116.746 148.58 116.93 148.249 117.244C147.976 117.661 147.857 118.168 147.914 118.67C147.914 122.078 147.966 125.483 148.069 128.885C146.464 115.074 144.867 101.235 142.24 87.6292C141.21 82.3107 140.026 76.9743 140.052 71.5572C140.027 70.9705 140.091 70.3834 140.24 69.8173C140.579 69.0557 140.991 68.3316 141.468 67.6558C142.118 66.4145 142.416 65.005 142.326 63.5929C142.326 62.6961 141.468 60.6243 142.326 60.0054C144.3 58.409 143.167 66.3015 142.961 67.2163Z" fill="url(#paint3_linear)"/>
<path d="M159.365 115.029C159.116 116.401 158.918 117.773 158.773 119.163C158.695 119.711 158.695 120.266 158.773 120.814C158.927 121.477 159.189 122.107 159.545 122.679L161.099 125.495C161.27 125.809 161.485 126.159 161.828 126.222C161.971 126.236 162.116 126.212 162.248 126.152C162.38 126.093 162.495 125.999 162.584 125.881C162.956 125.319 163.14 124.644 163.107 123.962C163.28 121.958 163.167 119.939 162.773 117.971C162.326 116.186 160.996 115.585 159.365 115.029Z" fill="#F38A6B"/>
<path d="M118.961 127.755C119.362 128.49 119.895 129.136 120.532 129.657L124.223 133.092C124.764 133.594 125.494 134.123 126.137 133.791C126.419 133.611 126.654 133.361 126.824 133.065C127.442 132.198 128.233 131.482 129.142 130.966C129.7 130.643 130.386 130.294 130.472 129.639C130.558 128.984 129.888 128.347 129.288 127.971L127.888 127.074C127.709 126.936 127.499 126.847 127.279 126.814C127.033 126.816 126.79 126.875 126.567 126.984C124.755 127.621 122.85 126.482 121.253 125.397C120.704 125.02 119.442 123.764 118.815 124.5C118.189 125.235 118.67 127.056 118.961 127.755Z" fill="url(#paint4_linear)"/>
</g>
<defs>
<linearGradient id="paint0_linear" x1="188.266" y1="246.394" x2="66.0371" y2="236.991" gradientUnits="userSpaceOnUse">
<stop offset="0.01"/>
<stop offset="0.13" stop-opacity="0.69"/>
<stop offset="1" stop-opacity="0"/>
</linearGradient>
<linearGradient id="paint1_linear" x1="1667.91" y1="5138.14" x2="1816.86" y2="5132.11" gradientUnits="userSpaceOnUse">
<stop offset="0.01"/>
<stop offset="0.13" stop-opacity="0.69"/>
<stop offset="1" stop-opacity="0"/>
</linearGradient>
<linearGradient id="paint2_linear" x1="4187.15" y1="6994.35" x2="5976.86" y2="6942.98" gradientUnits="userSpaceOnUse">
<stop offset="0.01"/>
<stop offset="0.13" stop-opacity="0.69"/>
<stop offset="1" stop-opacity="0"/>
</linearGradient>
<linearGradient id="paint3_linear" x1="2428.12" y1="8908.48" x2="3491.13" y2="8910.85" gradientUnits="userSpaceOnUse">
<stop offset="0.01"/>
<stop offset="0.13" stop-opacity="0.69"/>
<stop offset="1" stop-opacity="0"/>
</linearGradient>
<linearGradient id="paint4_linear" x1="2537.93" y1="1622.79" x2="2485.06" y2="1786.44" gradientUnits="userSpaceOnUse">
<stop offset="0.01"/>
<stop offset="0.13" stop-opacity="0.69"/>
<stop offset="1" stop-opacity="0"/>
</linearGradient>
<clipPath id="clip0">
<rect width="314" height="273" fill="white"/>
</clipPath>
</defs>
</svg>
