<svg width="303" height="262" viewBox="0 0 303 262" fill="none" xmlns="http://www.w3.org/2000/svg">
<g clip-path="url(#clip0)">
<path opacity="0.18" d="M296.55 233.06C288.736 242.761 270.939 246.875 259.49 249.866C245.865 253.428 231.78 254.778 217.747 253.868C205.17 253.059 192.735 250.384 180.229 248.832C174.771 248.118 169.276 247.735 163.773 247.684C159.315 247.694 154.86 247.964 150.432 248.492C141.367 249.639 132.374 251.315 123.496 253.512L117.346 254.959C113.293 255.921 109.24 256.883 105.179 257.772C100.614 258.775 96.0403 259.696 91.4433 260.432C84.5549 261.557 77.5858 262.082 70.6109 262C52.5935 261.733 34.86 256.835 22.6933 243.731C15.9042 236.415 11.4649 227.159 7.71163 217.823C4.85723 210.766 2.07379 203.393 0.725444 195.843C-1.0487 185.9 0.528318 186.733 5.53534 179.045C13.2663 167.31 17.4365 153.491 17.5207 139.33C17.8282 121.789 13.9172 104.49 12.3717 87.0208C11.7957 80.9039 11.6534 74.7522 11.9459 68.6142C12.5452 57.0627 15.1157 45.7779 21.1557 36.1583C33.4722 16.5554 57.1747 8.20493 79.5053 3.94483C91.9798 1.46427 104.647 0.143959 117.354 0C121.149 0 124.939 0.121254 128.724 0.363764C156.976 2.3766 184.416 12.6671 212.763 12.6105C238.95 12.5539 266.098 7.04896 281.363 34.3152C293.018 55.163 294.137 80.3032 293.27 104.279C292.402 128.256 289.887 152.644 295.288 175.99C297.141 184.017 299.925 191.826 301.596 199.869C301.936 201.486 302.227 203.151 302.464 204.808C303.852 214.63 302.724 225.421 296.55 233.06Z" fill="#FF677D"/>
<path d="M109.469 233.643C108.039 241.678 106.606 249.716 105.171 257.756C100.606 258.758 96.0324 259.68 91.4354 260.416C84.547 261.541 77.5779 262.066 70.603 261.984C52.5856 261.717 34.852 256.818 22.6853 243.715C15.8963 236.399 11.457 227.143 7.70369 217.807C4.84929 210.75 2.06586 203.377 0.71751 195.827C-1.05663 185.884 0.520383 186.717 5.52741 179.029C13.2583 167.294 17.4285 153.475 17.5127 139.314C17.8203 121.772 13.9093 104.473 12.3638 87.0046C11.7878 80.8877 11.6455 74.7361 11.938 68.5981C19.5865 65.4374 28.9619 65.5748 37.2254 67.4906C42.1457 68.6304 47.1054 70.3361 50.8824 73.7716C58.2628 80.4892 59.2406 91.968 57.8765 101.992C56.5123 112.015 53.3347 121.966 54.3755 132.031C54.754 135.668 55.6844 139.266 55.5819 142.919C55.2586 154.422 44.937 165.368 49.0609 176.062C70.5872 178.342 107.513 187.113 110.967 213.757C111.834 220.377 110.636 227.079 109.469 233.643Z" fill="url(#paint0_linear)"/>
<path d="M150.424 248.476C146.631 248.904 142.846 249.495 139.077 250.182C133.865 251.136 128.677 252.283 123.488 253.496L117.338 254.943C114.539 255.606 111.739 256.269 108.94 256.907C106.141 257.546 103.31 258.176 100.495 258.75C97.4833 259.365 94.4633 259.931 91.4354 260.416C84.547 261.541 77.5779 262.066 70.603 261.984C52.3333 251.176 28.8121 236.043 26.2337 228.218C22.0861 215.786 28.9382 208.357 33.622 202.65C33.8323 202.402 34.0373 202.151 34.237 201.898C38.905 196.086 61.2513 195.059 69.917 195.059C73.8596 195.059 79.9626 197.864 85.4901 200.936C92.1451 204.638 97.9169 208.721 97.9169 208.721L110.817 216.804L149.217 240.861L150.424 248.476Z" fill="#FF677D"/>
<path d="M139.077 250.182C133.865 251.136 128.677 252.283 123.488 253.496L117.338 254.943C114.539 255.606 111.739 256.269 108.94 256.907C104.769 254.943 100.558 253.051 96.4818 250.845C89.973 247.327 83.7548 243.272 77.8888 238.719C75.6968 237.013 73.4968 235.17 72.1406 232.713C70.1851 229.18 70.2245 224.807 71.155 220.854C71.4232 220.161 71.4232 219.389 71.155 218.696C70.8436 218.257 70.413 217.923 69.917 217.734C66.6651 216.068 63.594 214.055 60.7545 211.728C59.6716 210.972 58.8449 209.89 58.389 208.632C57.7109 206.053 60.0607 203.725 62.3316 202.399C67.0626 198.77 75.129 197.314 80.7038 199.222C82.2808 199.764 83.913 200.338 85.561 200.952C91.4512 203.159 97.5779 205.851 102.569 209.197C105.636 211.365 108.414 213.933 110.833 216.837C112.528 218.785 114.137 220.822 115.729 222.851L125.925 235.833C127.793 238.129 129.142 240.683 130.806 243.068C132.162 245.024 134.535 246.374 136.38 247.87C137.287 248.573 138.218 249.349 139.077 250.182Z" fill="url(#paint1_linear)"/>
<path opacity="0.23" d="M296.55 233.06C288.736 242.761 270.939 246.875 259.49 249.866C254.65 251.127 249.746 252.115 244.8 252.825C235.84 254.106 226.776 254.455 217.747 253.868C205.17 253.059 192.735 250.384 180.229 248.832C174.771 248.118 169.276 247.735 163.773 247.684C159.762 247.684 155.753 247.9 151.764 248.331C142.302 249.309 132.879 251.313 123.496 253.496L117.346 254.943V0C121.141 0 124.931 0.121254 128.716 0.363764C156.976 2.3766 184.416 12.6671 212.763 12.6105C238.949 12.5539 266.098 7.04896 281.363 34.3152C293.018 55.163 294.137 80.3032 293.27 104.279C292.402 128.256 289.887 152.644 295.288 175.99C297.141 184.017 299.925 191.826 301.596 199.869C301.936 201.486 302.227 203.151 302.464 204.808C303.852 214.63 302.724 225.421 296.55 233.06Z" fill="#FF677D"/>
<path d="M150.171 38.7774L155.541 36.4331L252.827 42.5929V200.071H242.663L150.171 38.7774Z" fill="#FF677D"/>
<path opacity="0.23" d="M244.792 252.825C235.832 254.106 226.768 254.455 217.739 253.868C205.162 253.059 192.727 250.384 180.221 248.832C174.763 248.118 169.268 247.735 163.765 247.684C159.754 247.684 155.745 247.9 151.756 248.331C143.745 245.736 136.278 241.993 130.758 235.631C122.503 226.117 120.382 212.673 119.443 199.974C116.977 166.105 120.522 132.058 129.907 99.4858C130.332 97.5956 131.117 95.8101 132.217 94.2314C135.182 90.5291 141.127 90.6665 144.912 93.4715C148.697 96.2766 150.692 100.973 151.89 105.597C154.477 115.621 153.026 128.272 144.218 133.356C148.815 140.341 143.209 151.642 149.162 157.446C150.96 159.2 153.436 159.96 155.636 161.124C162.354 164.689 166.454 172.142 167.944 179.716C169.435 187.291 168.678 195.18 167.897 202.9C167.676 205.051 167.487 207.362 168.528 209.238C169.703 211.356 172.1 212.35 174.331 213.158C187.625 217.936 201.487 221.08 214.387 226.901C225.624 231.945 238.232 240.061 244.177 251.548C244.406 251.992 244.611 252.405 244.792 252.825Z" fill="#FF677D"/>
<path d="M158.955 47.9524V145.361L231.924 180.444L234.518 56.0037L158.955 47.9524Z" fill="white"/>
<path opacity="0.23" d="M213.071 124.561C213.096 124.359 213.045 124.153 212.929 123.987C212.857 123.922 212.774 123.872 212.683 123.842C212.592 123.811 212.496 123.8 212.4 123.81C211.761 123.803 211.131 123.972 210.576 124.299C210.022 124.626 209.563 125.099 209.246 125.669C210.287 126.477 211.186 127.665 210.997 128.975C210.808 130.285 209.041 131.206 208.158 130.244C207.677 129.711 207.598 128.821 206.991 128.458C206.82 128.386 206.637 128.35 206.452 128.352C206.267 128.354 206.084 128.394 205.915 128.469C205.745 128.544 205.592 128.654 205.464 128.79C205.336 128.927 205.236 129.089 205.17 129.266C204.946 130.003 204.927 130.79 205.115 131.538C205.888 131.564 206.647 131.759 207.342 132.109C208.036 132.459 208.65 132.956 209.144 133.567C208.686 133.879 208.155 134.063 207.606 134.1C207.051 134.141 206.534 134.402 206.163 134.828C205.848 135.288 206.053 136.113 206.605 136.145C206.778 135.92 206.999 135.738 207.251 135.612C207.503 135.487 207.78 135.422 208.06 135.422C208.34 135.422 208.616 135.487 208.868 135.612C209.12 135.738 209.341 135.92 209.514 136.145C209.309 137.156 208.363 137.762 207.732 138.57C207.102 139.379 206.944 140.874 207.914 141.206C208.692 140.658 209.28 139.871 209.593 138.958H210.981C211.383 139.815 210.981 140.818 210.752 141.723C210.524 142.628 210.445 143.809 211.202 144.342C211.959 144.876 212.897 144.48 213.686 144.092C213.303 143.377 213.148 142.557 213.244 141.747C213.433 140.939 214.356 140.316 215.026 140.745C215.696 141.173 215.61 142.071 215.586 142.83C215.562 143.59 215.886 144.577 216.627 144.552C217.368 144.528 217.644 143.461 217.415 142.733C217.187 142.006 216.627 141.359 216.627 140.583C217.095 140.407 217.597 140.346 218.092 140.407C218.587 140.467 219.06 140.648 219.474 140.932C219.888 141.217 220.231 141.598 220.473 142.045C220.715 142.492 220.851 142.991 220.869 143.501C221.339 143.006 221.627 142.36 221.684 141.672C221.742 140.983 221.565 140.296 221.184 139.726C220.947 139.456 220.75 139.151 220.601 138.821C220.531 138.428 220.612 138.023 220.829 137.691C221.045 137.359 221.379 137.126 221.76 137.043C222.532 136.914 223.324 136.998 224.055 137.285C224.394 136.477 223.668 135.587 222.848 135.418C222.011 135.333 221.169 135.504 220.427 135.911C220.427 135.102 221.342 134.65 222.044 134.246C222.746 133.841 223.4 132.823 222.793 132.281C222.186 131.74 221.271 132.564 220.916 133.332C220.561 134.1 219.939 135.062 219.158 134.771C218.369 134.326 218.85 133.033 219.536 132.403C220.222 131.772 221.113 130.907 220.688 130.058C220.341 129.606 219.615 129.929 219.229 130.349C218.843 130.77 218.401 131.311 217.841 131.206C217.281 131.101 217.053 130.268 217.265 129.694C217.554 129.147 217.927 128.65 218.369 128.223C218.587 128.005 218.738 127.728 218.806 127.424C218.873 127.12 218.853 126.802 218.748 126.51C218.573 126.367 218.371 126.264 218.154 126.208C217.938 126.152 217.712 126.143 217.493 126.183C217.273 126.222 217.063 126.31 216.879 126.438C216.694 126.567 216.539 126.735 216.422 126.93C216.242 127.528 216.102 128.139 216.004 128.757C215.799 129.355 215.018 129.84 214.6 129.379C214.293 129.048 214.38 127.819 214.356 127.455C214.08 127.819 213.638 128.142 213.402 128.433C212.763 127.56 213.071 125.814 213.071 124.561Z" fill="#FF677D"/>
<path opacity="0.46" d="M216.422 83.1406C216.437 82.9987 216.404 82.8558 216.327 82.7364C216.268 82.6941 216.201 82.6645 216.131 82.6492C216.061 82.6339 215.988 82.6333 215.917 82.6475C215.474 82.646 215.039 82.7649 214.655 82.9921C214.271 83.2193 213.953 83.5467 213.733 83.9409C214.117 84.1803 214.432 84.5195 214.647 84.9241C214.861 85.3287 214.968 85.7843 214.955 86.2447C214.829 87.1582 213.591 87.8049 212.976 87.1339C212.637 86.7621 212.59 86.1396 212.187 85.8891C212.068 85.8385 211.939 85.8134 211.81 85.815C211.68 85.8167 211.552 85.8452 211.433 85.8988C211.315 85.9524 211.208 86.03 211.12 86.127C211.031 86.2239 210.962 86.3382 210.918 86.463C210.766 86.9906 210.766 87.5521 210.918 88.0797C211.457 88.0994 211.985 88.2356 212.469 88.4794C212.953 88.7232 213.381 89.0691 213.725 89.4944C213.403 89.7131 213.03 89.8413 212.645 89.8662C212.259 89.8972 211.901 90.0796 211.643 90.3755C211.423 90.6988 211.565 91.2647 211.951 91.297C212.071 91.1391 212.225 91.0114 212.4 90.9236C212.576 90.8357 212.769 90.79 212.964 90.79C213.16 90.79 213.352 90.8357 213.528 90.9236C213.703 91.0114 213.857 91.1391 213.977 91.297C213.835 92.0003 213.189 92.4449 212.739 93.0027C212.29 93.5605 212.203 94.6194 212.866 94.8377C213.406 94.4572 213.814 93.911 214.033 93.2775H215.002C215.174 93.9178 215.118 94.5995 214.845 95.2014C214.663 95.8401 214.624 96.6484 215.152 97.0283C215.431 97.1536 215.736 97.203 216.038 97.1719C216.341 97.1407 216.631 97.03 216.879 96.8505C216.619 96.3563 216.514 95.7915 216.579 95.2338C216.706 94.6841 217.368 94.2395 217.817 94.5386C218.267 94.8377 218.22 95.4601 218.212 95.9856C218.204 96.511 218.417 97.2062 218.937 97.19C219.458 97.1739 219.639 96.4302 219.465 95.9209C219.2 95.4571 219.011 94.9519 218.906 94.4254C219.231 94.2951 219.582 94.2473 219.93 94.2862C220.277 94.3251 220.61 94.4494 220.901 94.6487C221.191 94.848 221.43 95.1162 221.598 95.4306C221.765 95.745 221.856 96.0962 221.862 96.4544C222.19 96.1104 222.391 95.6604 222.432 95.1813C222.472 94.7022 222.349 94.2237 222.083 93.8272C221.918 93.638 221.78 93.4257 221.673 93.1967C221.624 92.9261 221.678 92.6462 221.825 92.4157C221.972 92.1852 222.2 92.0219 222.462 91.9599C222.993 91.8666 223.538 91.9253 224.039 92.1296C224.275 91.58 223.771 90.9413 223.203 90.8201C222.62 90.7666 222.034 90.8874 221.516 91.1677C221.516 90.5937 222.146 90.2866 222.643 90.0117C223.14 89.7369 223.589 89.0174 223.164 88.6375C222.738 88.2576 222.107 88.8315 221.855 89.365C221.602 89.8985 221.169 90.5776 220.632 90.3755C220.096 90.1734 220.42 89.1629 220.893 88.7588C221.366 88.3546 221.981 87.716 221.681 87.142C221.437 86.8268 220.893 87.0531 220.664 87.3441C220.435 87.6351 220.088 88.0151 219.694 87.9423C219.3 87.8696 219.134 87.2956 219.292 86.8914C219.503 86.5106 219.769 86.1645 220.08 85.8648C220.2 85.7812 220.297 85.6688 220.363 85.5375C220.429 85.4062 220.463 85.2601 220.461 85.1122C220.459 84.9643 220.422 84.8192 220.352 84.6898C220.282 84.5604 220.182 84.4507 220.061 84.3705C219.939 84.2903 219.801 84.2421 219.657 84.2301C219.513 84.2181 219.369 84.2428 219.236 84.3019C219.104 84.3609 218.988 84.4526 218.899 84.5688C218.809 84.6849 218.749 84.8219 218.724 84.9675C218.598 85.3858 218.501 85.8126 218.432 86.2447C218.291 86.657 217.746 86.9965 217.455 86.6732C217.163 86.3498 217.305 85.59 217.281 85.3313C217.092 85.5819 216.785 85.8082 216.619 86.0184C216.217 85.2343 216.422 84.0136 216.422 83.1406Z" fill="#FF677D"/>
<path opacity="0.46" d="M184.495 57.3698C184.509 57.2306 184.476 57.0906 184.401 56.9737C184.349 56.928 184.289 56.8936 184.224 56.8727C184.158 56.8519 184.09 56.845 184.022 56.8525C183.579 56.851 183.143 56.9699 182.76 57.1971C182.376 57.4243 182.058 57.7517 181.838 58.1459C182.223 58.384 182.539 58.723 182.754 59.1279C182.969 59.5328 183.074 59.989 183.06 60.4497C182.934 61.3551 181.696 62.0018 181.081 61.3308C180.742 60.9671 180.695 60.3446 180.292 60.086C180.172 60.0379 180.043 60.0149 179.914 60.0182C179.785 60.0215 179.657 60.0511 179.539 60.1052C179.421 60.1594 179.315 60.237 179.226 60.3336C179.137 60.4302 179.068 60.5438 179.023 60.668C178.861 61.1923 178.848 61.7528 178.983 62.2847C179.522 62.3029 180.05 62.4376 180.534 62.68C181.018 62.9224 181.446 63.2671 181.791 63.6913C181.474 63.9158 181.103 64.0471 180.718 64.0712C180.334 64.0992 179.975 64.2789 179.717 64.5724C179.496 64.8957 179.638 65.4697 180.024 65.4939C180.145 65.3374 180.299 65.2109 180.475 65.124C180.65 65.0371 180.843 64.9919 181.038 64.9919C181.232 64.9919 181.425 65.0371 181.6 65.124C181.776 65.2109 181.93 65.3374 182.051 65.4939C181.909 66.2053 181.262 66.6418 180.813 67.2077C180.363 67.7735 180.277 68.8244 180.939 69.0427C181.478 68.6573 181.886 68.109 182.106 67.4744H183.076C183.247 68.1174 183.191 68.8016 182.918 69.4064C182.737 70.037 182.697 70.8534 183.226 71.2253C183.504 71.3501 183.808 71.4001 184.111 71.3703C184.413 71.3406 184.703 71.2323 184.952 71.0555C184.694 70.5606 184.589 69.9964 184.653 69.4388C184.779 68.8891 185.441 68.4445 185.891 68.7436C186.34 69.0427 186.293 69.6732 186.285 70.1986C186.277 70.7241 186.49 71.4112 187.01 71.4031C187.531 71.395 187.712 70.5947 187.539 70.1259C187.271 69.6633 187.082 69.1577 186.979 68.6304C187.304 68.502 187.655 68.4558 188.002 68.4955C188.349 68.5352 188.681 68.6598 188.971 68.8587C189.261 69.0576 189.5 69.325 189.668 69.6384C189.835 69.9517 189.927 70.3019 189.936 70.6594C190.264 70.3153 190.465 69.8654 190.505 69.3863C190.545 68.9072 190.422 68.4286 190.157 68.0322C189.992 67.8459 189.854 67.6363 189.747 67.4098C189.697 67.1381 189.751 66.8573 189.898 66.6254C190.045 66.3936 190.273 66.2287 190.535 66.1649C191.066 66.0803 191.61 66.1388 192.112 66.3346C192.349 65.7849 191.844 65.1463 191.276 65.0332C190.692 64.9714 190.104 65.0926 189.589 65.3808C189.589 64.8068 190.22 64.4996 190.716 64.2167C191.213 63.9338 191.663 63.2305 191.237 62.8506C190.811 62.4706 190.18 63.0446 189.928 63.5781C189.676 64.1116 189.242 64.7907 188.706 64.5805C188.17 64.3703 188.493 63.3679 188.966 62.9637C189.439 62.5596 190.054 61.921 189.754 61.347C189.51 61.0317 188.966 61.2581 188.737 61.5491C188.509 61.8401 188.154 62.22 187.767 62.1473C187.381 62.0745 187.208 61.4925 187.365 61.0883C187.577 60.71 187.842 60.3666 188.154 60.0698C188.303 59.9158 188.407 59.7222 188.454 59.5108C188.502 59.2994 188.49 59.0786 188.422 58.8734C188.3 58.773 188.159 58.7003 188.008 58.6603C187.857 58.6203 187.699 58.6138 187.545 58.6414C187.392 58.6689 187.245 58.7298 187.116 58.82C186.987 58.9102 186.879 59.0277 186.798 59.1644C186.672 59.5827 186.574 60.0095 186.506 60.4416C186.364 60.8539 185.82 61.1934 185.528 60.8782C185.236 60.5629 185.378 59.7869 185.355 59.5282C185.165 59.7869 184.858 60.0132 184.692 60.2153C184.29 59.4635 184.495 58.2429 184.495 57.3698Z" fill="#FF677D"/>
<path opacity="0.25" d="M186.056 125.556C186.227 125.417 186.342 125.218 186.38 124.998C186.372 124.887 186.342 124.778 186.292 124.68C186.242 124.581 186.172 124.494 186.088 124.424C185.586 123.914 184.961 123.549 184.277 123.366C183.593 123.183 182.874 123.188 182.193 123.381C182.421 124.836 182.193 126.526 181.057 127.423C179.922 128.32 177.801 127.625 177.84 126.154C177.84 125.345 178.479 124.578 178.274 123.802C178.102 123.414 177.787 123.112 177.399 122.96C177.011 122.809 176.58 122.821 176.2 122.993C175.457 123.395 174.84 124.003 174.418 124.747C175.014 125.389 175.469 126.154 175.755 126.99C176.04 127.826 176.149 128.715 176.074 129.598C175.47 129.481 174.906 129.202 174.442 128.789C173.971 128.373 173.359 128.164 172.738 128.207C172.139 128.328 171.682 129.137 172.084 129.606C172.394 129.567 172.708 129.601 173.003 129.705C173.298 129.808 173.567 129.978 173.789 130.203C174.011 130.427 174.18 130.7 174.285 131.001C174.39 131.302 174.427 131.624 174.394 131.942C173.456 132.58 172.226 132.33 171.106 132.467C169.987 132.605 168.741 133.672 169.245 134.698C170.279 134.885 171.345 134.732 172.289 134.262L173.377 135.393C173.038 136.388 171.982 136.889 171.083 137.406C170.184 137.924 169.253 138.805 169.443 139.831C169.632 140.858 170.688 141.295 171.603 141.618C171.843 140.744 172.348 139.971 173.046 139.411C173.835 138.926 175.017 139.16 175.222 140.042C175.427 140.923 174.67 141.561 174.079 142.143C173.488 142.725 172.991 143.76 173.59 144.342C174.189 144.924 175.23 144.286 175.577 143.534C175.924 142.782 176.003 141.804 176.579 141.189C177.093 141.414 177.546 141.762 177.9 142.206C178.254 142.649 178.498 143.174 178.61 143.736C178.723 144.297 178.701 144.878 178.546 145.428C178.391 145.979 178.108 146.483 177.722 146.897C178.476 146.886 179.203 146.607 179.779 146.107C180.354 145.607 180.742 144.917 180.876 144.156C180.893 143.754 180.967 143.356 181.097 142.976C181.341 142.607 181.715 142.351 182.14 142.26C182.566 142.17 183.009 142.252 183.375 142.491C184.087 143.005 184.651 143.706 185.008 144.52C185.875 144.172 186.001 142.903 185.481 142.095C184.879 141.358 184.078 140.82 183.178 140.551C183.801 139.888 184.866 140.276 185.733 140.551C186.6 140.826 187.894 140.551 187.823 139.589C187.752 138.627 186.403 138.595 185.536 138.918C184.669 139.241 183.439 139.508 183.044 138.651C182.729 137.649 184.125 137.034 185.15 137.075C186.175 137.115 187.515 137.14 187.846 136.137C187.917 135.499 187.058 135.175 186.466 135.199C185.875 135.224 185.079 135.296 184.716 134.771C184.353 134.246 184.795 133.381 185.41 133.106C186.057 132.91 186.73 132.814 187.405 132.823C187.737 132.817 188.061 132.715 188.34 132.529C188.619 132.344 188.841 132.081 188.982 131.772C188.955 131.518 188.875 131.273 188.747 131.054C188.619 130.835 188.447 130.647 188.242 130.502C188.037 130.357 187.804 130.259 187.559 130.214C187.314 130.17 187.062 130.18 186.821 130.244C186.167 130.454 185.709 131.053 185.094 131.36C184.479 131.667 183.517 131.424 183.517 130.721C183.517 130.212 184.535 129.315 184.795 128.999C184.298 129.072 183.707 128.999 183.289 128.999C183.533 127.706 185.094 126.55 186.056 125.556Z" fill="#FF677D"/>
<path opacity="0.39" d="M180.545 87.5785C180.545 87.5785 164.664 125.046 175.467 153.299L162.693 147.155C162.693 147.155 168.686 101.887 163.237 90.9656L168.796 109.275L173.527 78.9937L171.603 105.144C171.603 105.144 176.287 92.065 180.545 87.5785Z" fill="#FF677D"/>
<path opacity="0.23" d="M198.743 68.493C199.603 68.978 200.675 69.0427 201.448 69.6732C203.396 71.2899 201.945 74.7902 203.459 76.8111C204.097 77.6195 205.13 78.056 205.935 78.7269C206.768 79.4441 207.321 80.4457 207.492 81.5475C207.663 82.6494 207.44 83.7774 206.865 84.7243C206.289 85.6713 205.4 86.3734 204.36 86.7017C203.32 87.0301 202.199 86.9625 201.204 86.5115C199.303 85.6142 197.435 83.3427 195.621 84.4017C194.896 84.8301 194.501 85.7031 193.784 86.1396C192.688 86.8268 191.3 86.2932 190.062 85.9537C187.999 85.4163 185.833 85.4544 183.79 86.0642C181.746 86.674 179.899 87.8332 178.439 89.4216L174.899 89.842L174.576 93.4796C173.626 92.7026 172.471 92.2376 171.259 92.1453C170.048 92.0529 168.838 92.3377 167.787 92.9623L163.261 90.9656C163.483 92.1099 163.313 93.2977 162.78 94.3286C162.247 95.3594 161.384 96.1703 160.335 96.6242C159.258 97.0198 158.084 97.0411 156.994 96.6846C155.903 96.3281 154.958 95.6138 154.303 94.6518C153.186 78.9507 153.347 63.1814 154.784 47.5078C160.785 46.7398 168.93 45.5919 174.796 47.5724C178.826 48.9386 179.859 51.6709 182.516 54.6214C186.088 58.5986 189.471 57.2324 193.303 59.5929C196.512 61.6299 195.487 66.6661 198.743 68.493Z" fill="#FF677D"/>
<path d="M180.221 248.832C174.763 248.118 169.268 247.735 163.765 247.684C150.148 247.684 136.806 250.392 123.488 253.496C121.47 252.502 119.404 251.467 117.338 250.408C109.035 246.148 100.834 241.516 96.7657 237.959C86.7596 229.245 91.2462 215.842 91.2462 215.842L117.354 217.596L142.066 219.262C142.066 219.262 162.788 222.584 168.291 228.736C171.335 232.139 176.531 241.088 180.221 248.832Z" fill="#080608"/>
<path d="M142.531 159.701L140.165 146.185C139.898 144.325 139.457 142.495 138.848 140.721C137.401 137.227 134.982 134.247 131.894 132.152C128.817 130.076 125.508 128.388 122.037 127.124C117.48 125.305 111.787 127.585 107.001 128.66C102.758 129.614 98.327 130.648 94.9285 133.373C91.3408 136.226 89.2276 140.648 88.0843 145.159C86.9409 149.669 86.6571 154.342 86.0341 158.957C85.1898 165.151 83.7314 171.24 81.6816 177.13C81.0429 178.94 80.349 180.816 80.5067 182.731C80.6644 184.647 81.6973 186.442 82.6987 188.115L89.7953 199.942C86.0657 204.477 86.7832 212.116 91.2777 215.842C94.9679 218.898 100.077 219.165 104.809 219.302L136.759 220.215C138.596 220.272 140.559 220.288 142.097 219.254C144.463 217.637 144.849 214.234 144.754 211.299C144.61 206.707 143.951 202.148 142.791 197.711C142.507 196.603 142.184 195.407 142.602 194.34C143.056 193.482 143.709 192.752 144.502 192.214C146.809 190.228 148.636 187.721 149.837 184.888C151.038 182.056 151.582 178.977 151.425 175.893C151.031 169.741 147.601 163.007 142.531 159.701Z" fill="#FF677D"/>
<path d="M104.462 165.546C105.642 159.169 105.26 152.592 103.35 146.403C103.84 151.777 103.959 157.18 103.705 162.571C103.586 165.052 103.358 167.639 102.128 169.781C101.517 167.797 100.525 165.958 99.2101 164.373C99.4526 166.373 99.3323 168.401 98.8552 170.355C98.6055 171.33 98.1497 172.236 97.5202 173.01C96.8906 173.784 96.1027 174.407 95.2123 174.834C96.0008 175.974 97.4123 176.394 98.6581 176.952C99.904 177.509 101.213 178.504 101.213 179.902C101.213 180.557 100.913 181.252 101.213 181.834C101.741 182.885 103.287 182.311 104.217 181.616C106.173 180.161 115.327 175.222 113.679 172.247C112.031 169.272 105.983 173.403 103.965 173.953C102.908 171.414 103.988 168.1 104.462 165.546Z" fill="url(#paint2_linear)"/>
<path d="M104.154 200.556L90.7494 199.877C90.4329 199.838 90.112 199.874 89.8111 199.982C88.8097 200.451 89.1172 202.092 88.3602 202.9C93.8798 202.512 99.2022 204.428 104.375 206.336C106.062 206.958 108.041 207.565 109.571 206.595C110.057 206.178 110.586 205.818 111.148 205.519C112.031 205.343 112.947 205.516 113.711 206.004C118.469 208.316 123.106 210.879 127.604 213.684C127.864 213.905 128.169 214.064 128.496 214.15C128.824 214.235 129.165 214.244 129.497 214.177C129.859 213.995 130.167 213.715 130.388 213.369L134.157 208.454C134.282 208.31 134.374 208.138 134.425 207.953C134.488 207.565 134.188 207.225 133.92 206.958C130.174 203.249 126.774 199.19 123.764 194.833C121.304 191.26 118.647 187.161 114.452 186.329C111.747 185.795 105.644 187.258 104.146 189.983C103.705 190.718 104.84 200.588 104.154 200.556Z" fill="url(#paint3_linear)"/>
<path d="M142.815 97.1981C143.185 106.09 141.316 115.112 143.398 123.729L138.667 124.19C138.572 125.033 138.572 125.884 138.667 126.728C135.949 126.873 133.229 126.908 130.506 126.833C131.626 126.833 133.55 116.421 133.778 115.233C134.567 111.191 135.071 107.093 135.773 103.026C136.396 99.4373 136.814 94.3931 138.706 91.2324C141.529 86.5681 142.744 95.4116 142.815 97.1981Z" fill="#32406A"/>
<path d="M140.804 109.518C141.23 110.472 141.829 111.433 141.719 112.476C141.514 114.319 139.353 115.079 138.084 116.389C135.899 118.604 136.238 122.516 134.141 124.836C133.517 125.465 132.777 125.96 131.965 126.293C131.153 126.626 130.285 126.79 129.41 126.776C127.651 126.733 125.905 126.445 124.222 125.919C122.802 127.1 122.913 129.306 123.181 131.158C123.449 133.009 123.646 135.199 122.298 136.461C120.76 137.908 118.253 137.148 116.534 135.935C113.427 133.736 111.251 130.39 109.752 126.841C108.375 123.245 107.253 119.552 106.393 115.791C104.745 109.518 102.79 102.752 105.124 96.7131C106.898 92.1135 111.03 88.7183 115.603 87.1339C120.177 85.5495 125.168 85.598 129.938 86.4145C133.494 87.0208 139.747 88.7426 140.646 93.0189C141.797 98.4996 138.344 104.053 140.804 109.518Z" fill="#FDC0AD"/>
<path d="M124.277 100.48C123.396 100.452 122.528 100.697 121.785 101.183C121.402 101.573 121.113 102.049 120.941 102.574C117.524 110.987 116.75 120.283 118.726 129.169C116.618 128.527 114.585 127.651 112.662 126.558C113.151 127.512 111.676 128.401 110.691 128.029C109.705 127.657 109.035 126.687 108.073 126.259C107.479 126.036 106.858 125.897 106.228 125.847C103.29 125.409 100.557 124.047 98.4058 121.95C97.8697 116.518 94.8339 111.7 93.4855 106.414C92.7845 103.395 92.4482 100.3 92.4841 97.1981C92.3748 94.9144 92.6223 92.6275 93.2175 90.424C94.0848 87.627 95.8668 85.2343 97.6252 82.9143C98.7079 81.3365 100 79.9217 101.465 78.7107C103.063 77.5892 104.861 76.8009 106.756 76.3907C113.159 74.774 119.932 75.6551 126.295 77.4254C130.317 78.541 134.346 80.085 137.484 82.89C140.623 85.695 142.744 90.0117 142.081 94.2072C141.253 91.9124 139.6 90.0295 137.461 88.9447C134.449 87.619 135.135 90.3755 134.307 92.5338C133.478 94.6549 132.111 96.5101 130.347 97.9073C128.584 99.3045 126.488 100.193 124.277 100.48Z" fill="#32406A"/>
<path d="M150.171 38.7693V155.595L242.663 200.055L246.101 46.8692L150.171 38.7693ZM231.924 180.46L158.955 145.377V47.9524L234.518 56.036L231.924 180.46Z" fill="#FF677D"/>
<path d="M150.171 38.7693V155.595L242.663 200.055L246.101 46.8692L150.171 38.7693ZM231.924 180.46L158.955 145.377V47.9524L234.518 56.036L231.924 180.46Z" fill="url(#paint4_linear)"/>
<path d="M146.71 160.073C141.491 162.023 136.525 164.624 131.925 167.817C128.13 163.63 123.031 160.929 117.503 160.178L116.802 161.932C116.299 161.786 115.842 161.508 115.477 161.124C114.569 162.253 113.777 163.475 113.111 164.77C116.01 168.118 118.122 172.103 119.285 176.418C119.473 177.388 119.808 178.321 120.279 179.183C120.523 179.61 120.879 179.959 121.307 180.189C121.735 180.42 122.218 180.522 122.7 180.484C123.146 180.382 123.569 180.192 123.946 179.926C129.576 176.515 135.311 173.282 141.151 170.226C143.516 168.989 147.822 167.801 149.604 165.812C149.966 165.467 150.205 165.007 150.283 164.506C150.362 164.006 150.275 163.492 150.037 163.048C149.067 161.253 147.94 162.514 146.489 162.991C146.528 162.07 146.623 161.059 146.71 160.073Z" fill="white"/>
<path d="M111.463 163.735C109.83 174.621 108.963 185.614 108.869 196.627C108.773 197.472 108.953 198.325 109.382 199.052C109.963 199.646 110.71 200.038 111.519 200.176C119.874 202.496 127.781 206.263 134.898 211.315C137.14 206.174 141.08 202.009 146.024 199.554C146.855 199.244 147.604 198.737 148.208 198.074C148.67 197.334 148.941 196.486 148.996 195.609C150.495 184.728 151.99 173.845 153.483 162.959C153.483 163.258 142.657 167.106 141.506 167.744C138.62 169.361 133.928 174.413 130.467 174.211C127.588 174.017 126.287 170.638 124.103 168.973C120.508 166.184 115.777 164.527 111.463 163.735Z" fill="#F05E5F"/>
<path d="M109.642 174.195C110.328 174.632 109.697 175.812 109.989 176.564C110.117 176.835 110.316 177.065 110.565 177.227C112.039 178.302 114.018 178.18 115.729 178.762C116.36 178.973 117.07 179.571 116.849 180.185C116.756 180.359 116.629 180.512 116.476 180.633C116.322 180.754 116.146 180.841 115.958 180.888L113.703 181.818H116.471C116.888 181.818 117.425 181.923 117.496 182.335C117.567 182.748 117.18 182.99 116.849 183.144C115.911 183.645 114.941 184.106 113.963 184.526C114.706 184.437 115.455 184.405 116.202 184.429C116.612 184.429 117.157 184.599 117.157 185.027C117.157 185.456 116.81 185.553 116.518 185.682L110.667 188.245C107.939 189.441 105.148 190.67 102.222 190.993C102.011 191.047 101.79 191.038 101.583 190.969C101.343 190.808 101.167 190.564 101.087 190.282C100.463 188.684 100.134 186.982 100.117 185.262C100.087 184.943 100.15 184.622 100.298 184.34C100.49 184.105 100.733 183.92 101.008 183.799C102.06 183.196 102.926 182.302 103.507 181.22C104.296 179.741 104.596 178.059 105.66 176.717C106.725 175.375 108.183 174.801 109.642 174.195Z" fill="#FDC0AD"/>
<path d="M146.781 176.062C146.339 176.176 145.795 176.507 145.929 176.952C146.008 177.21 146.292 177.34 146.536 177.429L149.627 178.601C148.463 178.507 147.293 178.647 146.182 179.013C146.008 179.07 145.811 179.167 145.803 179.344C145.795 179.522 145.977 179.66 146.142 179.741L149.241 181.293C148.322 181.234 147.405 181.439 146.592 181.883C146.418 181.98 146.229 182.125 146.229 182.327C146.229 182.529 146.387 182.651 146.536 182.756C147.143 183.192 147.8 183.55 148.492 183.823C148.131 183.772 147.763 183.822 147.427 183.968C147.347 184.009 147.276 184.066 147.218 184.136C147.159 184.205 147.115 184.286 147.087 184.373C147.059 184.46 147.049 184.552 147.056 184.644C147.062 184.735 147.087 184.824 147.128 184.906C147.206 185.014 147.309 185.1 147.427 185.157L149.99 186.773C150.12 186.884 150.273 186.962 150.437 187.002C150.601 187.041 150.772 187.04 150.936 187C151.299 186.854 151.386 186.377 151.425 185.981C151.472 185.367 151.512 184.752 151.535 184.138C151.531 183.629 151.587 183.122 151.701 182.626C151.89 182.106 152.106 181.596 152.348 181.099C152.9 179.708 152.789 177.372 151.646 176.248C150.503 175.125 148.105 175.723 146.781 176.062Z" fill="#FDC0AD"/>
<path d="M192.191 51.493V162.918L198.136 167.065V51.493H192.191Z" fill="#FF677D"/>
<path d="M233.13 115.289L158.955 97.1819V89.8824L233.296 108.038L233.13 115.289Z" fill="#FF677D"/>
<path d="M233.296 108.038L233.13 115.289L198.136 106.745V167.065L192.191 162.918V105.298L158.955 97.1819V89.8824L192.191 97.9984V51.493H198.136V99.4454L233.296 108.038Z" fill="url(#paint5_linear)"/>
<path d="M100.495 258.75C97.4832 259.365 94.4633 259.931 91.4354 260.416C84.547 261.541 77.5779 262.066 70.603 261.984C52.3333 251.176 28.8121 236.043 26.2337 228.218C22.0861 215.786 28.9382 208.357 33.622 202.65C34.1855 209.428 37.2715 215.723 42.2404 220.232C52.1125 229.358 86.9567 250.61 100.495 258.75Z" fill="url(#paint6_linear)"/>
<path opacity="0.23" d="M180.545 50.2562L158.955 89.8824L169.75 92.5177L191.805 56.1815L192.191 51.493L180.545 50.2562Z" fill="#FF677D"/>
<path opacity="0.23" d="M222.083 54.678L198.136 100.092L208.931 102.727L234.321 60.4578L234.707 55.7774L222.083 54.678Z" fill="#FF677D"/>
<path opacity="0.23" d="M226.483 112.84L198.136 164.834L208.931 167.469L233.028 127.35L233.13 115.289L226.483 112.84Z" fill="#FF677D"/>
<path opacity="0.23" d="M185.449 103.657L158.955 145.361L168.622 150.106L192.096 116.429L192.191 105.298L185.449 103.657Z" fill="#FF677D"/>
<path opacity="0.36" d="M179.953 129.468C179.772 129.395 179.685 129.193 179.575 129.04C179.388 128.819 179.128 128.677 178.845 128.643C178.562 128.609 178.277 128.684 178.045 128.854C177.824 129.037 177.659 129.281 177.568 129.558C177.477 129.834 177.465 130.131 177.533 130.414C177.611 130.633 177.611 130.874 177.533 131.093C177.465 131.196 177.373 131.279 177.265 131.335C176.957 131.511 176.628 131.644 176.287 131.732C175.99 131.765 175.713 131.898 175.498 132.112C175.383 132.365 175.318 132.64 175.309 132.92C175.268 133.129 175.181 133.325 175.054 133.493C174.927 133.662 174.763 133.798 174.576 133.89C174.339 134.011 174.047 134.06 173.874 134.27C173.773 134.408 173.718 134.575 173.716 134.747C173.716 135.153 173.766 135.558 173.866 135.951C173.914 136.147 173.922 136.352 173.888 136.551C173.854 136.75 173.779 136.94 173.669 137.107C173.495 137.317 173.212 137.552 173.338 137.794C173.386 137.865 173.451 137.921 173.527 137.956C174.039 138.263 174.599 138.473 175.183 138.578C175.404 138.578 175.664 138.675 175.758 138.886C175.794 139.034 175.794 139.19 175.758 139.338C175.749 139.557 175.79 139.774 175.878 139.974C175.965 140.173 176.097 140.349 176.263 140.486C176.337 140.55 176.427 140.592 176.523 140.607C176.886 140.656 177.091 140.082 177.454 140.066C177.601 140.075 177.742 140.131 177.856 140.228C178.309 140.502 178.71 140.858 179.039 141.278C179.212 141.529 179.354 141.828 179.638 141.917C179.887 141.957 180.143 141.903 180.355 141.763C180.758 141.553 181.223 141.27 181.246 140.81C181.23 140.716 181.23 140.62 181.246 140.527C181.286 140.455 181.349 140.4 181.423 140.371C181.498 140.341 181.58 140.339 181.657 140.365C181.806 140.418 181.939 140.51 182.043 140.632C182.343 140.519 182.374 140.09 182.248 139.823C182.076 139.563 181.918 139.293 181.775 139.015C181.721 138.798 181.72 138.571 181.772 138.354C181.825 138.137 181.928 137.936 182.074 137.77C182.371 137.438 182.723 137.164 183.115 136.962C183.279 136.884 183.422 136.767 183.533 136.622C183.618 136.444 183.652 136.244 183.631 136.047C183.61 135.849 183.535 135.662 183.415 135.507C183.167 135.201 182.977 134.85 182.855 134.472C182.827 134.344 182.843 134.209 182.902 134.092C182.966 134.005 183.046 133.934 183.139 133.882L184.006 133.316C184.059 133.288 184.101 133.242 184.125 133.187C184.146 133.13 184.146 133.066 184.125 133.009C183.778 132.386 182.887 132.039 182.902 131.319C182.902 130.891 183.249 130.39 182.95 130.091C182.666 129.897 182.362 129.737 182.043 129.614C181.846 129.492 181.664 129.226 181.459 129.137C180.9 128.805 180.537 129.622 179.953 129.468Z" fill="#FF677D"/>
<path opacity="0.79" d="M179.646 130.406C179.506 130.351 179.352 130.347 179.209 130.392C179.067 130.437 178.943 130.53 178.857 130.656C178.676 130.883 178.581 131.166 178.416 131.408C177.872 132.217 176.713 132.475 176.168 133.308C175.975 133.616 175.878 133.977 175.892 134.343C175.906 134.709 176.03 135.062 176.247 135.353C176.352 135.505 176.511 135.609 176.689 135.644C176.816 135.624 176.936 135.572 177.039 135.493C177.143 135.414 177.225 135.311 177.28 135.191C177.619 134.682 177.856 134.108 178.187 133.575C178.339 133.307 178.543 133.074 178.786 132.889C179.028 132.704 179.305 132.572 179.599 132.5C180.316 132.378 181.105 132.791 181.735 132.427C182.524 131.99 182.674 130.357 181.893 129.856C181.711 129.766 181.507 129.731 181.306 129.755C181.105 129.78 180.915 129.862 180.758 129.994C180.245 130.382 180.221 130.705 179.646 130.406Z" fill="#FF677D"/>
<path opacity="0.79" d="M180.529 134.189C180.288 134.291 180.074 134.449 179.902 134.649C179.73 134.85 179.604 135.088 179.535 135.345C179.511 135.523 179.457 135.695 179.378 135.854C179.173 136.186 178.715 136.194 178.329 136.202C177.615 136.225 176.908 136.356 176.232 136.59C176.122 136.611 176.019 136.656 175.928 136.722C175.837 136.787 175.76 136.872 175.703 136.97C175.671 137.063 175.661 137.163 175.674 137.261C175.686 137.36 175.72 137.453 175.774 137.536C176.287 138.425 177.667 138.296 178.313 139.08C178.471 139.308 178.616 139.545 178.747 139.791C178.814 139.914 178.91 140.019 179.025 140.096C179.14 140.174 179.272 140.221 179.409 140.236C179.803 140.236 180.072 139.823 180.198 139.427C180.354 138.766 180.407 138.084 180.355 137.406C180.535 137.5 180.739 137.534 180.938 137.503C181.137 137.473 181.322 137.38 181.467 137.237C181.639 137.035 181.765 136.798 181.838 136.541C182.185 135.434 182.224 133.486 180.529 134.189Z" fill="#FF677D"/>
<path opacity="0.36" d="M211.36 132.888C211.362 133.373 211.514 133.846 211.793 134.238C211.963 134.453 212.058 134.72 212.061 134.997C212.019 135.169 211.95 135.333 211.856 135.482C211.733 135.745 211.676 136.034 211.689 136.325C211.703 136.616 211.788 136.899 211.935 137.148C212.188 137.56 212.621 137.883 212.724 138.36C212.741 138.554 212.784 138.744 212.85 138.926C212.936 139.041 213.043 139.138 213.167 139.209C213.29 139.279 213.427 139.324 213.567 139.338C214.143 139.518 214.763 139.466 215.302 139.193C215.454 139.052 215.639 138.954 215.838 138.91C215.943 138.921 216.043 138.957 216.131 139.016C216.219 139.076 216.292 139.155 216.343 139.249C216.448 139.437 216.581 139.606 216.737 139.751C216.92 139.857 217.126 139.915 217.336 139.92C217.598 139.961 217.864 139.961 218.125 139.92C218.351 139.861 218.56 139.746 218.732 139.585C218.904 139.424 219.035 139.222 219.113 138.996C219.191 138.771 219.214 138.529 219.179 138.293C219.144 138.057 219.053 137.833 218.913 137.641C218.729 137.42 218.52 137.221 218.291 137.051C218.218 137.007 218.16 136.943 218.125 136.865C218.03 136.655 218.212 136.436 218.298 136.226C218.393 135.868 218.351 135.486 218.18 135.159C218.004 134.836 217.92 134.47 217.936 134.1C217.999 133.696 218.322 133.389 218.472 133.009C218.491 132.957 218.491 132.899 218.472 132.847C218.454 132.816 218.428 132.789 218.398 132.769C218.368 132.75 218.334 132.738 218.298 132.734C217.807 132.605 217.306 132.515 216.8 132.467C216.674 132.469 216.552 132.419 216.461 132.33C216.424 132.275 216.402 132.211 216.398 132.144C216.335 131.554 216.69 130.915 215.996 130.592C215.788 130.496 215.562 130.446 215.334 130.446C215.105 130.446 214.88 130.496 214.671 130.592C214.38 130.745 214.167 131.036 213.883 131.141C213.671 131.198 213.448 131.198 213.236 131.141C213.084 131.096 212.923 131.092 212.768 131.129C212.613 131.166 212.471 131.242 212.353 131.352C211.838 131.71 211.481 132.261 211.36 132.888Z" fill="#FF677D"/>
<path opacity="0.36" d="M213.26 132.491C212.787 133.227 213.331 134.302 212.881 135.046C212.778 135.171 212.695 135.313 212.637 135.466C212.619 135.667 212.666 135.869 212.771 136.04L213.023 136.574C213.118 136.776 213.276 137.01 213.489 136.97C213.553 136.957 213.613 136.926 213.662 136.881C213.862 136.67 214.008 136.413 214.089 136.131C214.17 135.85 214.183 135.552 214.127 135.264C214.016 134.692 214.09 134.099 214.34 133.575C214.656 133.114 215.302 132.871 215.397 132.314C215.417 132.206 215.401 132.095 215.349 131.998C214.971 131.384 213.552 132.063 213.26 132.491Z" fill="#FF677D"/>
</g>
<defs>
<linearGradient id="paint0_linear" x1="247.954" y1="206.053" x2="-240.181" y2="109.255" gradientUnits="userSpaceOnUse">
<stop offset="0.01"/>
<stop offset="0.13" stop-opacity="0.69"/>
<stop offset="0.25" stop-opacity="0.32"/>
<stop offset="1" stop-opacity="0"/>
</linearGradient>
<linearGradient id="paint1_linear" x1="175.758" y1="182.117" x2="65.7433" y2="243.593" gradientUnits="userSpaceOnUse">
<stop offset="0.01"/>
<stop offset="0.13" stop-opacity="0.69"/>
<stop offset="1" stop-opacity="0"/>
</linearGradient>
<linearGradient id="paint2_linear" x1="3483.71" y1="8681.42" x2="2461.66" y2="8434.23" gradientUnits="userSpaceOnUse">
<stop offset="0.01"/>
<stop offset="0.13" stop-opacity="0.69"/>
<stop offset="1" stop-opacity="0"/>
</linearGradient>
<linearGradient id="paint3_linear" x1="7671.54" y1="6120.55" x2="7503.96" y2="8109.9" gradientUnits="userSpaceOnUse">
<stop offset="0.01"/>
<stop offset="0.13" stop-opacity="0.69"/>
<stop offset="1" stop-opacity="0"/>
</linearGradient>
<linearGradient id="paint4_linear" x1="29822.3" y1="-17539.7" x2="16039.3" y2="32238.2" gradientUnits="userSpaceOnUse">
<stop offset="0.01"/>
<stop offset="0.13" stop-opacity="0.69"/>
<stop offset="1" stop-opacity="0"/>
</linearGradient>
<linearGradient id="paint5_linear" x1="29256.6" y1="1842.86" x2="9717.98" y2="12296.3" gradientUnits="userSpaceOnUse">
<stop offset="0.01"/>
<stop offset="0.13" stop-opacity="0.69"/>
<stop offset="1" stop-opacity="0"/>
</linearGradient>
<linearGradient id="paint6_linear" x1="3333.71" y1="22803.8" x2="7000.46" y2="16255.6" gradientUnits="userSpaceOnUse">
<stop offset="0.01"/>
<stop offset="0.13" stop-opacity="0.69"/>
<stop offset="1" stop-opacity="0"/>
</linearGradient>
<clipPath id="clip0">
<rect width="303" height="262" fill="white"/>
</clipPath>
</defs>
</svg>
