<svg width="304" height="269" viewBox="0 0 304 269" fill="none" xmlns="http://www.w3.org/2000/svg">
<g clip-path="url(#clip0)">
<path opacity="0.18" d="M302.51 219.093C295.314 248.23 261.613 265.333 229.819 268.294C225.572 268.692 221.316 268.909 217.07 268.973C193.139 269.362 169.189 265.206 145.171 263.585C141.544 263.341 137.916 263.151 134.289 263.051C100.066 262.064 62.6128 267.687 34.1841 249.814C11.7623 235.726 0.773918 209.496 0.0484505 184.244C-0.677017 158.991 7.43855 134.301 16.3957 110.47C27.9161 79.8215 41.6419 48.6932 66.5883 26.103C89.0779 5.75826 117.661 -2.49011 148.344 0.642641C176.947 3.55809 206.459 4.80757 234.781 8.40208C275.301 13.5449 307.105 52.8763 301.369 90.7952C299.241 104.884 292.731 118.238 291.561 132.445C289.133 161.653 309.562 190.509 302.51 219.093Z" fill="#FF677D"/>
<path d="M217.07 268.964C193.139 269.353 169.189 265.197 145.171 263.577C146.196 259.955 147.218 256.312 148.237 252.648C150.065 246.156 150.81 246.147 157.775 247.406C170.265 249.653 183.01 250.401 195.702 249.633C197.356 249.533 214.023 248.402 214.081 247.451C213.862 254.724 214.87 261.985 217.07 268.964Z" fill="#080608"/>
<path d="M146.728 119.126C150.172 126.306 155.724 134.102 164.139 134.518C168.831 134.735 173.29 132.454 176.792 129.52C186.348 121.507 190.053 109.031 191.417 97.0881C192.114 91.0127 192.191 84.4122 188.593 79.3238C184.994 74.2353 178.784 71.8088 172.623 70.3601C160.203 67.4356 142.153 69.3642 137.278 82.7463C133.438 93.2038 142.279 109.845 146.728 119.126Z" fill="#F38A6B"/>
<path d="M185.874 99.3063C185.874 99.2611 185.874 99.2158 185.874 99.1705V99.2792C185.874 99.5055 185.933 99.7409 185.952 99.9854C185.905 99.761 185.873 99.5343 185.855 99.3063H185.874Z" fill="#32406A"/>
<path d="M194.89 88.6767C194.677 89.3377 194.454 89.9896 194.232 90.6415C193.168 93.738 192.101 96.8346 191.03 99.9311C190.514 98.1375 189.515 96.4978 188.128 95.1686C187.827 94.8726 187.504 94.5973 187.161 94.3447C186.193 95.7838 185.739 97.4739 185.865 99.1705C185.246 95.7209 182.199 92.9775 179.094 90.9131C175.757 88.6858 171.994 86.6848 169.943 83.3619C169.595 82.6363 169.099 81.9813 168.483 81.4334C167.615 80.9307 166.596 80.708 165.581 80.7996C163.83 80.7996 161.992 80.9988 160.203 81.0441C157.581 81.0984 155.047 80.8811 152.948 79.4958C152.023 78.7217 151.022 78.0305 149.959 77.4314C148.024 76.6437 145.819 77.2685 144.03 78.2554C142.214 79.2693 140.64 80.6208 139.403 82.2263C138.167 83.8318 137.296 85.6573 136.843 87.5902C136.272 90.1526 136.272 93.1857 134.076 94.8336C132.238 96.1917 129.443 95.902 127.557 94.6072C125.747 93.1965 124.488 91.2636 123.978 89.1113C123.484 87.382 123.184 85.4897 121.84 84.1949C120.263 82.71 117.787 82.5923 115.698 81.8227C113.74 81.0971 112.105 79.7684 111.063 78.0558C110.02 76.3433 109.633 74.3493 109.964 72.4029C110.295 70.4565 111.326 68.674 112.885 67.3496C114.445 66.0251 116.44 65.2379 118.541 65.1177C121.859 64.9276 125.467 66.3582 128.35 64.8189C135.711 60.8804 141.64 53.7457 151.168 55.3121C156.169 56.136 161.044 58.2003 166.084 57.7114C168.338 57.4941 170.514 56.7607 172.768 56.6068C179.606 56.145 186.174 61.9216 186.097 68.332C190.992 67.8068 195.277 71.9537 196.341 76.4807C196.341 76.5894 196.399 76.689 196.418 76.7976C197.201 80.7543 196.176 84.7834 194.89 88.6767Z" fill="#32406A"/>
<path d="M195.547 92.7873C196.035 94.2174 196.068 95.7491 195.644 97.1967C195.2 99.3234 194.532 101.404 193.652 103.408C192.849 105.219 191.717 107.12 189.695 107.727C189.404 107.833 189.09 107.879 188.778 107.86C188.466 107.841 188.161 107.759 187.886 107.618C185.246 106.016 185.507 99.2792 186.571 96.7531C187.722 94.0278 193.061 87.0832 195.547 92.7873Z" fill="#F38A6B"/>
<path d="M163.627 96.8074C162.169 97.5385 160.55 97.9415 158.897 97.9845C156.962 97.9845 152.919 94.6254 155.83 95.0237C157.001 95.1777 158.365 96.4 159.642 96.6897C160.657 96.9342 162.563 97.2601 163.627 96.8074Z" fill="#32406A"/>
<path d="M142.937 101.552C144.134 101.751 145.368 101.586 146.457 101.081C147.676 100.42 149.088 96.0106 147.338 97.3325C146.641 97.8667 146.216 99.4422 145.49 100.13C144.765 100.818 143.778 101.633 142.937 101.552Z" fill="#32406A"/>
<path d="M146.931 104.359C147.401 104.211 147.888 104.116 148.382 104.078C148.827 104.013 149.282 104.034 149.717 104.141C149.94 104.193 150.145 104.297 150.314 104.442C150.483 104.588 150.61 104.771 150.684 104.974C149.323 104.673 147.895 104.767 146.593 105.246C145.828 105.589 145.151 106.083 144.61 106.695C144.757 106.155 145.047 105.658 145.452 105.25C145.858 104.841 146.367 104.535 146.931 104.359Z" fill="#32406A"/>
<path d="M160.638 101.715C161.109 101.559 161.6 101.461 162.098 101.425C162.541 101.363 162.992 101.387 163.424 101.497C163.646 101.548 163.851 101.65 164.02 101.794C164.189 101.938 164.316 102.119 164.391 102.321C163.029 102.02 161.602 102.114 160.299 102.593C159.549 102.938 158.889 103.433 158.365 104.042C158.506 103.507 158.788 103.014 159.185 102.607C159.582 102.201 160.081 101.894 160.638 101.715Z" fill="#32406A"/>
<path d="M152.455 111.222C151.913 112.046 151.168 112.915 151.391 113.865C151.513 114.224 151.729 114.549 152.02 114.81C152.311 115.071 152.666 115.26 153.054 115.359C153.809 115.604 154.631 115.649 155.405 115.83C156.055 115.987 156.682 116.218 157.272 116.518C157.436 116.183 157.136 115.812 156.798 115.613C156.438 115.473 156.109 115.27 155.83 115.015C155.356 114.427 155.83 113.503 155.366 112.897C155.037 112.453 154.399 112.381 153.886 112.082C153.578 111.878 153.328 111.606 153.159 111.29C152.99 110.974 152.908 110.624 152.919 110.271C152.907 109.747 153.04 109.229 153.306 108.768C153.548 109.492 152.919 110.515 152.455 111.222Z" fill="#EB737F"/>
<path d="M161.189 119.57C159.365 120.094 157.483 120.419 155.579 120.538C155.391 120.532 155.207 120.587 155.057 120.692C154.795 120.919 154.979 121.317 155.057 121.643C155.174 122.124 155.261 122.61 155.318 123.101C155.353 123.349 155.462 123.583 155.633 123.775C155.804 123.968 156.03 124.111 156.285 124.187C156.791 124.221 157.291 124.075 157.688 123.78C158.903 123.153 160.276 122.84 161.663 122.874C161.979 122.867 162.294 122.925 162.582 123.046C162.811 123.176 163.025 123.328 163.221 123.499C163.572 123.765 163.986 123.95 164.427 124.039C164.869 124.129 165.327 124.121 165.765 124.015C165.583 123.814 165.363 123.645 165.116 123.517C163.94 122.895 163.032 121.908 162.55 120.726C162.068 119.544 162.042 118.242 162.476 117.044C162.282 118.076 162.302 119.226 161.189 119.57Z" fill="#32406A"/>
<path d="M159.951 120.475C159.642 120.65 159.367 120.874 159.139 121.136C158.982 121.351 158.858 121.586 158.771 121.833L158.355 122.811C158.851 122.849 159.35 122.796 159.825 122.657C160.561 122.51 161.308 122.416 162.06 122.376C162.157 122.376 162.273 122.376 162.321 122.277C162.34 122.24 162.35 122.2 162.35 122.159C162.35 122.118 162.34 122.078 162.321 122.041C162.166 121.679 161.934 121.353 161.77 121.009C161.605 120.665 161.77 119.995 161.334 119.896C160.899 119.796 160.251 120.24 159.951 120.475Z" fill="#EB737F"/>
<path d="M154.863 153.577C158.5 163.746 158.036 174.808 153.557 184.678C152.723 186.764 151.401 188.648 149.688 190.192C148.005 191.407 146.128 192.366 144.126 193.035C125.254 200.55 105.357 219.238 83.1193 213.335C79.5693 212.429 76.0581 210.673 74.1331 207.73C73.4509 206.661 72.9669 205.492 72.7016 204.272C72.3693 202.701 72.249 201.098 72.3437 199.5C72.9047 186.824 81.4749 175.869 87.2012 164.343C90.993 156.728 93.624 148.597 97.3191 140.983C98.6909 138.104 100.275 135.317 102.059 132.644C102.512 131.615 103.355 130.778 104.425 130.294C105.496 129.81 106.72 129.711 107.863 130.018C111.489 130.424 115.057 131.201 118.503 132.336C118.706 139.579 115.601 146.488 113.405 153.432C110.869 161.469 109.499 169.789 109.333 178.168C122.483 172.965 134.599 165.719 145.171 156.737C149.94 152.681 157.746 145.772 157.939 156.447C158.075 163.202 154.931 170.454 150.607 175.742C148.584 178.113 146.39 180.352 144.039 182.442L134.937 190.908C127.856 197.499 120.65 204.172 111.974 208.808C111.716 208.953 111.454 209.088 111.19 209.215" fill="#FF677D"/>
<path d="M154.863 153.577C158.5 163.746 158.036 174.808 153.557 184.678C152.723 186.764 151.401 188.648 149.688 190.192C148.005 191.407 146.128 192.366 144.126 193.035C125.254 200.55 105.357 219.238 83.1193 213.335C79.5693 212.429 76.0581 210.673 74.1331 207.73C73.4509 206.661 72.9669 205.492 72.7016 204.272C72.3693 202.701 72.249 201.098 72.3437 199.5C72.9047 186.824 81.4749 175.869 87.2012 164.343C90.993 156.728 93.624 148.597 97.3191 140.983C98.6909 138.104 100.275 135.317 102.059 132.644C102.512 131.615 103.355 130.778 104.425 130.294C105.496 129.81 106.72 129.711 107.863 130.018C111.489 130.424 115.057 131.201 118.503 132.336C118.706 139.579 115.601 146.488 113.405 153.432C110.869 161.469 109.499 169.789 109.333 178.168C122.483 172.965 134.599 165.719 145.171 156.737C149.94 152.681 157.746 145.772 157.939 156.447C158.075 163.202 154.931 170.454 150.607 175.742C148.584 178.113 146.39 180.352 144.039 182.442L134.937 190.908C127.856 197.499 120.65 204.172 111.974 208.808C111.716 208.953 111.454 209.088 111.19 209.215" fill="url(#paint0_linear)"/>
<path d="M154.515 214.186C153.857 224.01 149.891 233.508 149.833 243.349C149.686 244.884 150.058 246.424 150.897 247.75C151.865 249.054 153.596 249.669 155.211 250.176C172.138 255.469 190.276 256.392 207.716 252.847C209.873 252.404 212.117 251.842 213.713 250.412C215.099 248.971 216.028 247.196 216.393 245.287C218.404 237.528 217.486 229.397 216.393 221.475C212.901 195.538 207.967 169.789 201.612 144.333C201.061 142.115 200.452 139.806 198.885 138.058C196.321 135.179 191.707 134.545 187.838 135.523C176.695 138.339 157.349 151.929 153.209 162.631C146.922 178.938 155.627 197.581 154.515 214.186Z" fill="#FF677D"/>
<path d="M154.515 214.186C153.857 224.01 149.891 233.508 149.833 243.349C149.686 244.884 150.058 246.424 150.897 247.75C151.865 249.054 153.596 249.669 155.211 250.176C172.138 255.469 190.276 256.392 207.716 252.847C209.873 252.404 212.117 251.842 213.713 250.412C215.099 248.971 216.028 247.196 216.393 245.287C218.404 237.528 217.486 229.397 216.393 221.475C212.901 195.538 207.967 169.789 201.612 144.333C201.061 142.115 200.452 139.806 198.885 138.058C196.321 135.179 191.707 134.545 187.838 135.523C176.695 138.339 157.349 151.929 153.209 162.631C146.922 178.938 155.627 197.581 154.515 214.186Z" fill="url(#paint1_linear)"/>
<path d="M147.947 199.428C146.438 204.181 143.691 208.482 141.437 213.009C138.102 219.631 135.821 226.674 134.666 233.915C143.729 231.479 153.329 231.398 162.437 233.68L165.774 191.36C166.95 174.296 170.577 157.457 176.559 141.3C163.627 137.18 157.823 146.406 155.888 156.33C153.17 170.273 152.242 185.982 147.947 199.428Z" fill="#FF677D"/>
<path d="M176.559 141.3C176.405 141.707 176.26 142.124 176.115 142.531C174.548 146.832 173.213 151.06 172.013 155.288C168.752 167.106 166.676 179.182 165.813 191.36L162.476 233.652C153.369 231.364 143.768 231.442 134.705 233.879C135.861 226.638 138.142 219.595 141.476 212.973C143.73 208.491 146.477 204.181 147.986 199.391C152.048 186.716 153.093 171.948 155.502 158.648L155.937 156.339C156.13 155.343 156.362 154.347 156.643 153.378C159.071 144.686 164.913 137.597 176.559 141.3Z" fill="url(#paint2_linear)"/>
<path d="M183.282 119.144C181.464 124.269 179.606 129.855 174.915 133.006C170.572 135.922 164.749 136.039 159.438 135.215C157.001 134.826 154.467 134.31 152.116 134.962C149.766 135.614 147.802 138.176 148.866 140.268C149.833 142.178 152.735 142.766 153.538 144.749C154.138 146.243 153.267 147.891 153.345 149.485C153.499 152.409 157.011 154.41 160.116 154.111C163.221 153.813 165.919 151.848 168.028 149.711C170.137 147.574 172.062 145.184 174.625 143.482C178.717 140.766 183.93 140.304 188.854 139.525C193.777 138.746 199.049 137.334 201.99 133.567C203.924 131.041 204.176 126.822 201.235 125.346C200.603 125.133 200.022 124.807 199.523 124.386C198.691 123.481 199.407 122.041 199.591 120.828C200.152 117.261 195.315 115.513 192.481 114.409C187.383 112.408 184.907 114.481 183.282 119.144Z" fill="#FF677D"/>
<path d="M114.469 140.186C112.844 142.558 109.875 143.726 107.408 145.329C105.214 146.776 103.355 148.624 101.943 150.761C92.6479 164.954 85.8422 180.449 81.7844 196.657C81.4927 198.299 80.8583 199.871 79.9176 201.284C78.2635 203.411 75.5841 204.181 72.7016 204.308C72.3693 202.738 72.249 201.135 72.3437 199.536C72.9047 186.86 81.4749 175.905 87.2012 164.379C90.993 156.764 93.624 148.634 97.3191 141.019C103.336 138.9 109.7 137.913 115.63 134.491C115.981 136.458 115.569 138.478 114.469 140.186Z" fill="url(#paint3_linear)"/>
<path d="M104.177 115.948C104.325 115.091 104.686 114.278 105.232 113.576C106.012 112.863 106.991 112.37 108.056 112.154C112.171 110.981 116.416 110.255 120.708 109.99C122.74 109.721 124.812 109.994 126.686 110.778C129.984 112.453 130.874 116.419 131.406 119.896C131.567 120.534 131.537 121.201 131.319 121.824C130.821 122.564 130.092 123.143 129.23 123.481C126.789 124.848 124.95 126.987 124.045 129.511C123.806 130.595 123.325 131.62 122.633 132.517C121.844 133.215 120.815 133.626 119.731 133.676C116.317 134.011 113.202 132.418 109.875 132.064C107.669 131.829 103.49 132.97 101.972 131.032C100.047 128.506 103.49 118.737 104.177 115.948Z" fill="#F38A6B"/>
<path d="M118.541 135.297C109.555 140.729 98.5669 143.509 91.1768 150.761C85.8567 155.977 82.6936 163.265 76.6674 167.502C76.0105 167.961 75.3222 168.378 74.6071 168.752C72.5274 169.848 69.6642 170.427 67.9328 168.897C66.6366 167.756 66.4335 165.827 65.147 164.696C61.8679 161.807 56.5478 166.706 52.2433 165.474C48.3742 164.361 48.0259 159.245 49.2157 155.596C50.4055 151.947 52.282 147.819 50.183 144.55C47.7551 140.756 40.955 140.023 40.1522 135.668C40.1429 135.596 40.1429 135.523 40.1522 135.451C39.8427 133.078 41.7579 130.806 44.0891 129.774C46.4202 128.742 49.2351 128.669 51.8951 128.606C66.1095 128.282 80.2855 127.078 94.3301 125.002C100.134 124.151 122.314 117.17 124.045 127.383C124.597 130.706 121.521 133.486 118.541 135.297Z" fill="white"/>
<path d="M108.752 130.281C107.717 134.808 102.697 137.28 98.3637 139.48C93.9071 141.732 89.6359 144.293 85.5858 147.14C83.8447 148.371 81.9391 150.191 82.5969 152.138C82.8097 152.789 83.2933 153.342 83.4578 153.994C83.5825 155.041 83.301 156.095 82.6646 156.963L78.2247 164.841C77.7218 165.746 77.1994 166.651 76.6481 167.557C75.9911 168.015 75.3029 168.432 74.5877 168.806C72.508 169.902 69.6449 170.481 67.9134 168.951C66.6173 167.81 66.4141 165.882 65.1276 164.75C61.8485 161.862 56.5284 166.76 52.224 165.529C48.3548 164.415 48.0066 159.299 49.1964 155.651C50.3861 152.002 52.2627 147.873 50.1636 144.604C47.7357 140.811 40.9357 140.077 40.1328 135.722C40.1235 135.65 40.1235 135.577 40.1328 135.505C42.3205 135.732 44.4805 136.15 46.5847 136.755C51.2277 137.859 63.7831 137.017 64.615 143.246C64.9535 145.763 62.8158 148.344 63.8024 150.716C65.1083 151.929 67.4395 151.169 68.6389 149.811C69.8383 148.453 70.4477 146.777 71.7052 145.51C73.0208 144.362 74.5843 143.491 76.2902 142.957L108.752 130.281Z" fill="url(#paint4_linear)"/>
<path d="M152.706 173.587C151.304 170.916 149.185 168.154 146.061 167.665L145.945 171.64C143.595 168.6 140.206 166.402 136.34 165.411C132.503 164.438 128.56 163.882 124.587 163.754C123.736 164.723 125.148 166 126.347 166.552L133.119 169.666C129.914 168.678 126.568 168.147 123.194 168.091C122.834 168.057 122.472 168.13 122.159 168.299C121.956 168.486 121.833 168.736 121.815 169.002C121.798 169.268 121.886 169.53 122.062 169.739C122.434 170.146 122.91 170.458 123.446 170.644L130.826 173.904C127.827 173.37 124.775 173.143 121.724 173.225C120.757 173.225 119.373 173.687 119.547 174.61C119.644 175.162 120.254 175.461 120.795 175.688L130.052 179.508C127.547 179.065 124.8 178.657 122.556 179.798C124.848 181.962 128.272 182.605 131.145 184.026C135.295 186.091 138.371 189.839 142.753 191.433C145.405 192.246 148.184 192.638 150.975 192.592C152.127 192.7 153.291 192.593 154.399 192.275C162.805 189.287 154.921 177.743 152.706 173.587Z" fill="#F38A6B"/>
<path d="M187.084 103.272C187.509 103.291 187.929 103.178 188.279 102.95C188.629 102.723 188.889 102.393 189.018 102.014C189.247 101.233 189.323 100.42 189.241 99.6142C189.199 98.8293 189.31 98.0438 189.57 97.2963C189.7 96.9243 189.909 96.5809 190.185 96.2868C190.461 95.9927 190.798 95.754 191.175 95.5851C191.424 95.4702 191.707 95.4383 191.978 95.4945C192.159 95.5666 192.321 95.6755 192.451 95.8133C192.582 95.9511 192.678 96.1144 192.733 96.2913C193.019 97.0642 193.134 97.8837 193.071 98.6997C193.032 100.004 192.86 101.301 192.558 102.575C192.471 103.038 192.294 103.483 192.036 103.888C191.819 104.164 191.569 104.416 191.291 104.639C190.86 105.075 190.307 105.388 189.695 105.545C189.344 105.601 188.983 105.556 188.659 105.416C188.336 105.275 188.066 105.045 187.886 104.757C187.716 104.462 187.646 104.126 187.684 103.793C187.722 103.461 187.867 103.146 188.099 102.892" fill="url(#paint5_linear)"/>
<path d="M229.006 210.302C229.379 211.494 229.314 212.769 228.822 213.923C228.084 214.929 226.986 215.654 225.727 215.97C214.245 219.944 201.37 217.536 189.821 213.742C180.809 210.786 172.125 207.02 163.888 202.497C159.525 200.098 155.076 197.264 152.967 192.963C150.859 188.662 152.203 182.551 156.914 180.83C160.251 179.617 163.965 180.83 167.283 182.125L186.474 189.368C187.538 183.501 184.114 177.851 181.851 172.292C177.362 161.273 177.74 149.204 185.342 139.534C191.959 131.105 202.58 125.509 211.604 134.572C219.439 142.45 219.207 158.476 221.103 168.526L229.006 210.302Z" fill="#FF677D"/>
<path d="M229.006 210.302C229.379 211.494 229.314 212.769 228.822 213.923C228.084 214.929 226.986 215.654 225.727 215.97C214.245 219.944 201.37 217.536 189.821 213.742C180.809 210.786 172.125 207.02 163.888 202.497C159.525 200.098 155.076 197.264 152.967 192.963C150.859 188.662 152.203 182.551 156.914 180.83C160.251 179.617 163.965 180.83 167.283 182.125L186.474 189.368C187.538 183.501 184.114 177.851 181.851 172.292C177.362 161.273 177.74 149.204 185.342 139.534C191.959 131.105 202.58 125.509 211.604 134.572C219.439 142.45 219.207 158.476 221.103 168.526L229.006 210.302Z" fill="url(#paint6_linear)"/>
<path d="M202.038 133.423C199.136 137.198 193.826 138.602 188.902 139.389C183.979 140.177 178.765 140.648 174.673 143.337C172.11 145.021 170.224 147.438 168.076 149.575C165.929 151.712 163.288 153.668 160.164 153.967C157.04 154.265 153.538 152.273 153.393 149.34C153.316 147.746 154.186 146.098 153.586 144.604C153.08 143.635 152.271 142.832 151.265 142.305C150.301 141.771 149.493 141.021 148.914 140.123C147.85 138.04 149.804 135.514 152.164 134.826C154.525 134.138 157.049 134.69 159.487 135.07C164.759 135.894 170.582 135.777 174.963 132.861C179.655 129.71 181.512 124.133 183.331 118.999C184.985 114.345 187.432 112.263 192.578 114.264C195.412 115.368 200.248 117.116 199.687 120.683C199.62 121.118 199.494 121.589 199.388 122.023C199.241 122.386 199.186 122.776 199.226 123.162C199.266 123.549 199.401 123.921 199.62 124.251C200.119 124.669 200.701 124.992 201.332 125.201C204.253 126.677 204.011 130.905 202.038 133.423Z" fill="url(#paint7_linear)"/>
<path d="M176.115 142.504C174.548 146.805 173.213 151.033 172.013 155.261C170.739 156.45 169.249 157.416 167.612 158.113C165.64 158.747 163.564 159.053 161.479 159.019C159.465 159.174 157.438 159.048 155.463 158.648L155.898 156.339C156.092 155.343 156.324 154.347 156.604 153.378C157.711 153.876 158.941 154.082 160.164 153.976C163.288 153.677 165.968 151.712 168.076 149.584C170.185 147.457 172.11 145.057 174.673 143.346C175.136 143.04 175.617 142.759 176.115 142.504Z" fill="url(#paint8_linear)"/>
<path d="M202.038 133.423C199.136 137.198 193.826 138.602 188.902 139.389C183.979 140.177 178.765 140.648 174.673 143.337C172.11 145.021 170.224 147.438 168.076 149.575C165.929 151.712 163.288 153.668 160.164 153.967C157.04 154.265 153.538 152.273 153.393 149.34C153.316 147.746 154.186 146.098 153.586 144.604C153.08 143.635 152.271 142.832 151.265 142.305C151.589 141.888 152 141.537 152.471 141.271C152.943 141.005 153.467 140.83 154.012 140.756C154.772 140.683 155.532 140.892 156.128 141.34C156.724 141.787 157.107 142.436 157.194 143.147C157.194 143.69 156.982 144.269 157.262 144.731C157.508 145.061 157.878 145.29 158.297 145.374C161.044 146.162 164.033 145.084 166.413 143.563C168.792 142.042 170.833 140.068 173.338 138.737C178.755 135.867 185.749 136.311 190.914 133.06C192.317 132.155 193.642 130.516 192.849 129.131C188.815 128.379 185.168 132.209 181.057 131.938C184.849 130.38 189.647 129.122 192.665 126.415C194.754 124.558 196.476 122.286 199.349 122.032C199.202 122.395 199.147 122.785 199.187 123.171C199.227 123.558 199.362 123.93 199.581 124.26C200.08 124.678 200.662 125.001 201.293 125.21C204.253 126.677 204.011 130.905 202.038 133.423Z" fill="url(#paint9_linear)"/>
<path d="M73.4561 108.152C82.8871 108.007 92.3376 107.854 101.73 108.569C103.026 108.668 104.332 108.786 105.599 108.804C106.866 108.822 108.298 108.723 109.652 108.65C114.721 108.388 119.741 108.605 124.8 108.723C118.242 106.296 107.921 108.134 100.888 108.134C91.7669 108.143 82.6066 108.007 73.4561 108.152Z" fill="white"/>
<path d="M109.275 157C103.916 160.911 98.1993 164.859 95.2104 170.581C98.7243 169.343 101.888 167.367 104.458 164.804C107.176 162.088 109.168 158.801 112.032 156.23C116.462 152.237 122.614 150.309 127.257 146.524C131.349 143.125 134.743 139.053 137.268 134.509C132.954 135.107 127.421 142.54 124.181 145.284C119.373 149.34 114.44 153.333 109.275 157Z" fill="white"/>
<path d="M194.89 88.6767C194.594 89.0736 194.271 89.4517 193.922 89.8085C192.075 91.6827 189.608 93.0499 188.119 95.1686C188.061 95.2501 188.003 95.3225 187.954 95.404C187.142 96.6263 186.697 98.0387 185.904 99.2792C185.904 99.2792 185.904 99.1886 185.904 99.1434C185.284 95.6937 182.238 92.9503 179.133 90.8859C175.795 88.6586 172.033 86.6576 169.982 83.3348C169.634 82.6092 169.137 81.9541 168.521 81.4062C167.654 80.9035 166.635 80.6809 165.619 80.7724C163.869 80.7724 162.031 80.9716 160.241 81.0169C159.497 80.5642 158.79 80.03 158.075 79.532C154.701 77.1896 150.806 75.5895 146.68 74.851L168.87 76.4083C169.194 76.4555 169.526 76.4275 169.837 76.3268C170.427 76.0914 170.601 75.4214 170.978 74.9053C171.434 74.4441 172.049 74.1492 172.715 74.0729C173.381 73.9967 174.054 74.144 174.615 74.4888C175.717 75.2126 176.611 76.1798 177.217 77.3047C178.571 79.369 179.307 81.7593 182.228 81.2432C184.162 80.9082 185.826 80.1115 187.819 79.9394C191.688 79.6135 193.535 78.7805 196.031 75.7926C196.173 76.0029 196.302 76.2206 196.418 76.4445C198.343 80.1929 197.424 85.2723 194.89 88.6767Z" fill="url(#paint10_linear)"/>
</g>
<defs>
<linearGradient id="paint0_linear" x1="185.874" y1="129.239" x2="85.8091" y2="189.67" gradientUnits="userSpaceOnUse">
<stop offset="0.01"/>
<stop offset="0.13" stop-opacity="0.69"/>
<stop offset="1" stop-opacity="0"/>
</linearGradient>
<linearGradient id="paint1_linear" x1="23779.8" y1="26670.3" x2="15715.2" y2="27516.1" gradientUnits="userSpaceOnUse">
<stop offset="0.01"/>
<stop offset="0.13" stop-opacity="0.69"/>
<stop offset="1" stop-opacity="0"/>
</linearGradient>
<linearGradient id="paint2_linear" x1="9911.53" y1="16716" x2="10705" y2="32177.3" gradientUnits="userSpaceOnUse">
<stop offset="0.01"/>
<stop offset="0.13" stop-opacity="0.69"/>
<stop offset="1" stop-opacity="0"/>
</linearGradient>
<linearGradient id="paint3_linear" x1="6561.29" y1="11295.4" x2="9078.95" y2="14681" gradientUnits="userSpaceOnUse">
<stop offset="0.01"/>
<stop offset="0.13" stop-opacity="0.69"/>
<stop offset="1" stop-opacity="0"/>
</linearGradient>
<linearGradient id="paint4_linear" x1="7447.68" y1="933.387" x2="8794.23" y2="8914.04" gradientUnits="userSpaceOnUse">
<stop offset="0.01"/>
<stop offset="0.13" stop-opacity="0.69"/>
<stop offset="1" stop-opacity="0"/>
</linearGradient>
<linearGradient id="paint5_linear" x1="1791.74" y1="1418.2" x2="1829.09" y2="1418.2" gradientUnits="userSpaceOnUse">
<stop offset="0.01"/>
<stop offset="0.13" stop-opacity="0.69"/>
<stop offset="1" stop-opacity="0"/>
</linearGradient>
<linearGradient id="paint6_linear" x1="28030.9" y1="18659.8" x2="19503.4" y2="18831.9" gradientUnits="userSpaceOnUse">
<stop offset="0.01"/>
<stop offset="0.13" stop-opacity="0.69"/>
<stop offset="1" stop-opacity="0"/>
</linearGradient>
<linearGradient id="paint7_linear" x1="13750.4" y1="5982.75" x2="14239.7" y2="7838.09" gradientUnits="userSpaceOnUse">
<stop offset="0.01"/>
<stop offset="0.13" stop-opacity="0.69"/>
<stop offset="1" stop-opacity="0"/>
</linearGradient>
<linearGradient id="paint8_linear" x1="4999.51" y1="3234.02" x2="5440.42" y2="3234.02" gradientUnits="userSpaceOnUse">
<stop offset="0.01"/>
<stop offset="0.13" stop-opacity="0.69"/>
<stop offset="1" stop-opacity="0"/>
</linearGradient>
<linearGradient id="paint9_linear" x1="12181" y1="5631.62" x2="15003.8" y2="5631.62" gradientUnits="userSpaceOnUse">
<stop offset="0.01"/>
<stop offset="0.13" stop-opacity="0.69"/>
<stop offset="1" stop-opacity="0"/>
</linearGradient>
<linearGradient id="paint10_linear" x1="11591" y1="2992.69" x2="14257.4" y2="2992.69" gradientUnits="userSpaceOnUse">
<stop offset="0.01"/>
<stop offset="0.13" stop-opacity="0.69"/>
<stop offset="1" stop-opacity="0"/>
</linearGradient>
<clipPath id="clip0">
<rect width="304" height="269" fill="white"/>
</clipPath>
</defs>
</svg>
