<svg width="663" height="486" viewBox="0 0 663 486" fill="none" xmlns="http://www.w3.org/2000/svg">
<g clip-path="url(#clip0)">
<path opacity="0.1" d="M385.214 85.7099C342.71 84.2072 302.197 70.2482 263.569 54.979C224.941 39.7098 186.656 22.7889 145.147 14.6979C118.459 9.48809 87.9377 8.75537 66.4385 23.3105C45.7452 37.3129 39.061 61.4866 35.4656 83.9153C32.7614 100.793 31.1927 118.552 38.5849 134.355C43.7308 145.321 52.8627 154.542 59.1806 165.049C81.1559 201.604 65.6206 246.685 41.8018 282.409C30.6311 299.174 17.6718 315.127 9.05256 332.954C0.433374 350.782 -3.5588 371.205 3.98605 389.386C11.4637 407.394 29.2759 420.943 48.5775 430.462C87.779 449.78 133.97 455.306 179.013 458.473C278.72 465.409 378.964 462.404 478.933 459.398C515.931 458.281 553.093 457.157 589.487 451.326C609.698 448.091 630.568 442.962 645.243 430.58C663.867 414.858 668.488 388.244 656.005 368.528C635.067 335.469 577.18 327.254 562.542 291.773C554.491 272.244 562.762 250.486 574.47 232.372C599.577 193.519 641.672 159.429 643.888 115.013C645.414 84.5052 625.178 53.9606 593.888 39.5235C561.096 24.3785 515.619 26.291 491.428 51.3216C466.517 77.1097 422.737 87.0325 385.214 85.7099Z" fill="#FF677D"/>
<path d="M147.875 450.215C147.875 450.215 114.302 424.395 107.96 391.553C105.388 377.76 98.4888 365.186 88.2978 355.718C83.4227 351.264 78.1572 347.274 72.5672 343.796" stroke="#535461" stroke-width="2" stroke-miterlimit="10"/>
<path d="M68.4591 323.106C71.4013 327.155 72.732 344.311 72.732 344.311C72.732 344.311 57.0014 338.009 54.0531 333.966C52.6373 332.023 52.0384 329.587 52.3881 327.195C52.7379 324.802 54.0076 322.649 55.9179 321.209C57.8283 319.769 60.2228 319.159 62.5747 319.515C64.9266 319.871 67.0433 321.163 68.4591 323.106Z" fill="#FF677D"/>
<path d="M96.6729 336.568C96.9781 341.592 88.9388 356.73 88.9388 356.73C88.9388 356.73 79.0927 342.734 78.7813 337.711C78.6629 335.316 79.477 332.97 81.0471 331.181C82.6171 329.393 84.8168 328.305 87.1694 328.155C89.522 328.005 91.8381 328.804 93.6159 330.378C95.3936 331.953 96.4897 334.177 96.6668 336.568H96.6729Z" fill="#FF677D"/>
<path d="M124.02 375.266C121.798 379.761 107.337 388.703 107.337 388.703C107.337 388.703 105.793 371.565 108.015 367.069C109.108 364.955 110.974 363.362 113.211 362.633C115.448 361.905 117.876 362.098 119.974 363.173C122.072 364.247 123.671 366.116 124.428 368.378C125.184 370.639 125.038 373.113 124.02 375.266Z" fill="#FF677D"/>
<path d="M138.237 409.269C136.79 414.081 124.026 425.377 124.026 425.377C124.026 425.377 119.649 408.754 121.096 403.935C121.791 401.623 123.361 399.686 125.46 398.552C127.559 397.417 130.015 397.177 132.288 397.884C134.561 398.591 136.465 400.188 137.58 402.323C138.696 404.458 138.932 406.957 138.237 409.269Z" fill="#FF677D"/>
<path d="M74.3863 368.901C79.2697 369.571 94.7073 362.48 94.7073 362.48C94.7073 362.48 81.6809 351.502 76.7731 350.831C74.4175 350.509 72.0327 351.152 70.1432 352.619C68.2538 354.086 67.0145 356.256 66.698 358.652C66.3815 361.048 67.0137 363.474 68.4555 365.396C69.8974 367.318 72.0307 368.579 74.3863 368.901Z" fill="#FF677D"/>
<path d="M91.5087 408.462C96.3921 407.611 109.01 396.155 109.01 396.155C109.01 396.155 93.346 389.647 88.4687 390.498C87.301 390.693 86.1828 391.121 85.1785 391.757C84.1743 392.394 83.304 393.227 82.6178 394.207C81.9316 395.188 81.4431 396.297 81.1806 397.471C80.9181 398.645 80.8867 399.86 81.0882 401.046C81.2897 402.232 81.7202 403.366 82.3547 404.382C82.9893 405.398 83.8154 406.276 84.7854 406.965C85.7553 407.655 86.8499 408.142 88.006 408.399C89.162 408.656 90.3566 408.677 91.5209 408.462H91.5087Z" fill="#FF677D"/>
<path d="M113.331 444.595C118.282 444.595 132.627 435.473 132.627 435.473C132.627 435.473 118.276 426.364 113.325 426.364C110.949 426.364 108.669 427.324 106.989 429.034C105.308 430.743 104.364 433.062 104.364 435.479C104.364 437.897 105.308 440.216 106.989 441.925C108.669 443.635 110.949 444.595 113.325 444.595H113.331Z" fill="#FF677D"/>
<path d="M474.025 226.902C474.025 226.902 494.718 189.614 525.911 178.871C539.009 174.446 550.344 165.82 558.215 154.288C561.906 148.774 565.092 142.927 567.731 136.82" stroke="#535461" stroke-width="2" stroke-miterlimit="10"/>
<path d="M587.314 129.99C583.761 133.492 567.224 137.119 567.224 137.119C567.224 137.119 571.284 120.415 574.836 116.907C576.551 115.273 578.828 114.391 581.176 114.448C583.525 114.505 585.757 115.499 587.393 117.214C589.028 118.929 589.937 121.229 589.922 123.618C589.907 126.008 588.97 128.296 587.314 129.99Z" fill="#FF677D"/>
<path d="M577.962 160.187C573.078 161.168 557.287 155.07 557.287 155.07C557.287 155.07 569.617 143.272 574.47 142.31C575.635 142.047 576.841 142.023 578.015 142.24C579.189 142.458 580.309 142.911 581.309 143.575C582.308 144.238 583.167 145.098 583.836 146.104C584.504 147.11 584.968 148.242 585.201 149.432C585.433 150.623 585.43 151.849 585.19 153.039C584.951 154.228 584.48 155.357 583.805 156.359C583.131 157.361 582.267 158.215 581.263 158.873C580.26 159.53 579.137 159.977 577.962 160.187Z" fill="#FF677D"/>
<path d="M543.925 192.898C539.249 191.253 528.621 177.865 528.621 177.865C528.621 177.865 545.103 174.028 549.791 175.673C550.917 176.053 551.958 176.657 552.853 177.45C553.748 178.243 554.48 179.208 555.005 180.291C555.53 181.373 555.839 182.551 555.913 183.756C555.987 184.961 555.825 186.168 555.437 187.309C555.048 188.45 554.441 189.501 553.65 190.401C552.859 191.301 551.9 192.032 550.829 192.552C549.758 193.072 548.596 193.37 547.411 193.43C546.226 193.489 545.041 193.309 543.925 192.898Z" fill="#FF677D"/>
<path d="M512.646 211.751C507.763 210.931 495.091 199.536 495.091 199.536C495.091 199.536 510.711 192.917 515.589 193.737C517.936 194.13 520.034 195.455 521.421 197.421C522.808 199.387 523.37 201.834 522.984 204.222C522.598 206.61 521.295 208.744 519.362 210.154C517.429 211.565 515.024 212.137 512.677 211.744L512.646 211.751Z" fill="#FF677D"/>
<path d="M543.497 142.012C543.491 147.048 552.471 161.659 552.471 161.659C552.471 161.659 561.438 147.066 561.438 142.037C561.469 140.82 561.26 139.609 560.824 138.476C560.388 137.342 559.733 136.309 558.898 135.438C558.063 134.566 557.065 133.873 555.963 133.4C554.861 132.927 553.676 132.683 552.48 132.683C551.283 132.683 550.099 132.927 548.997 133.4C547.894 133.873 546.896 134.566 546.061 135.438C545.226 136.309 544.571 137.342 544.135 138.476C543.699 139.609 543.491 140.82 543.522 142.037L543.497 142.012Z" fill="#FF677D"/>
<path d="M507.22 164.527C508.697 169.333 521.54 180.542 521.54 180.542C521.54 180.542 525.813 163.888 524.324 159.081C523.551 156.855 521.96 155.02 519.884 153.963C517.808 152.906 515.41 152.71 513.195 153.416C510.98 154.122 509.12 155.674 508.008 157.747C506.896 159.819 506.618 162.25 507.232 164.527H507.22Z" fill="#FF677D"/>
<path d="M474.947 191.334C475.606 196.301 486.398 209.571 486.398 209.571C486.398 209.571 493.363 193.892 492.704 188.906C492.573 187.698 492.206 186.528 491.625 185.467C491.043 184.405 490.259 183.472 489.317 182.723C488.376 181.975 487.297 181.425 486.144 181.106C484.991 180.788 483.787 180.707 482.603 180.869C481.419 181.031 480.278 181.432 479.249 182.049C478.219 182.666 477.322 183.486 476.608 184.461C475.895 185.436 475.38 186.546 475.095 187.727C474.81 188.907 474.759 190.133 474.947 191.334Z" fill="#FF677D"/>
<path opacity="0.25" d="M587.314 129.99C583.761 133.492 567.224 137.119 567.224 137.119C567.224 137.119 571.284 120.415 574.836 116.907C576.551 115.273 578.828 114.391 581.176 114.448C583.525 114.505 585.757 115.499 587.393 117.214C589.028 118.929 589.937 121.229 589.922 123.618C589.907 126.008 588.97 128.296 587.314 129.99Z" fill="black"/>
<path opacity="0.25" d="M577.962 160.187C573.078 161.168 557.287 155.07 557.287 155.07C557.287 155.07 569.617 143.272 574.47 142.31C575.635 142.047 576.841 142.023 578.015 142.24C579.189 142.458 580.309 142.911 581.309 143.575C582.308 144.238 583.167 145.098 583.836 146.104C584.504 147.11 584.968 148.242 585.201 149.432C585.433 150.623 585.43 151.849 585.19 153.039C584.951 154.228 584.48 155.357 583.805 156.359C583.131 157.361 582.267 158.215 581.263 158.873C580.26 159.53 579.137 159.977 577.962 160.187Z" fill="black"/>
<path opacity="0.25" d="M543.925 192.898C539.249 191.253 528.621 177.865 528.621 177.865C528.621 177.865 545.103 174.028 549.791 175.673C550.917 176.053 551.958 176.657 552.853 177.45C553.748 178.243 554.48 179.208 555.005 180.291C555.53 181.373 555.839 182.551 555.913 183.756C555.987 184.961 555.825 186.168 555.437 187.309C555.048 188.45 554.441 189.501 553.65 190.401C552.859 191.301 551.9 192.032 550.829 192.552C549.758 193.072 548.596 193.37 547.411 193.43C546.226 193.489 545.041 193.309 543.925 192.898Z" fill="black"/>
<path opacity="0.25" d="M512.646 211.751C507.763 210.931 495.091 199.536 495.091 199.536C495.091 199.536 510.711 192.917 515.589 193.737C517.936 194.13 520.034 195.455 521.421 197.421C522.808 199.387 523.37 201.834 522.984 204.222C522.598 206.61 521.295 208.744 519.362 210.154C517.429 211.565 515.024 212.137 512.677 211.744L512.646 211.751Z" fill="black"/>
<path opacity="0.25" d="M543.497 142.012C543.491 147.048 552.471 161.659 552.471 161.659C552.471 161.659 561.438 147.066 561.438 142.037C561.469 140.82 561.26 139.609 560.824 138.476C560.388 137.342 559.733 136.309 558.898 135.438C558.063 134.566 557.065 133.873 555.963 133.4C554.861 132.927 553.676 132.683 552.48 132.683C551.283 132.683 550.099 132.927 548.997 133.4C547.894 133.873 546.896 134.566 546.061 135.438C545.226 136.309 544.571 137.342 544.135 138.476C543.699 139.609 543.491 140.82 543.522 142.037L543.497 142.012Z" fill="black"/>
<path opacity="0.25" d="M507.22 164.527C508.697 169.333 521.54 180.542 521.54 180.542C521.54 180.542 525.813 163.888 524.324 159.081C523.551 156.855 521.96 155.02 519.884 153.963C517.808 152.906 515.41 152.71 513.195 153.416C510.98 154.122 509.12 155.674 508.008 157.747C506.896 159.819 506.618 162.25 507.232 164.527H507.22Z" fill="black"/>
<path opacity="0.25" d="M474.947 191.334C475.606 196.301 486.398 209.571 486.398 209.571C486.398 209.571 493.363 193.892 492.704 188.906C492.573 187.698 492.206 186.528 491.625 185.467C491.043 184.405 490.259 183.472 489.317 182.723C488.376 181.975 487.297 181.425 486.144 181.106C484.991 180.788 483.787 180.707 482.603 180.869C481.419 181.031 480.278 181.432 479.249 182.049C478.219 182.666 477.322 183.486 476.608 184.461C475.895 185.436 475.38 186.546 475.095 187.727C474.81 188.907 474.759 190.133 474.947 191.334Z" fill="black"/>
<path d="M475.215 226.163C475.215 226.163 479.281 183.541 503.49 160.876C513.701 151.43 520.628 138.872 523.231 125.085C524.416 118.53 525.006 111.879 524.995 105.214" stroke="#535461" stroke-width="2" stroke-miterlimit="10"/>
<path d="M540.17 90.8327C538.339 95.5023 524.641 105.636 524.641 105.636C524.641 105.636 521.699 88.6905 523.549 84.0209C524.439 81.7787 526.169 79.9881 528.357 79.0431C530.545 78.0981 533.013 78.0761 535.217 78.9819C537.421 79.8877 539.181 81.647 540.11 83.873C541.039 86.099 541.061 88.6092 540.17 90.8514V90.8327Z" fill="#FF677D"/>
<path d="M543.656 122.327C539.609 125.221 522.718 126.171 522.718 126.171C522.718 126.171 529.299 110.312 533.346 107.418C534.306 106.688 535.4 106.16 536.564 105.867C537.727 105.575 538.937 105.522 540.121 105.714C541.305 105.905 542.439 106.336 543.457 106.981C544.474 107.627 545.354 108.473 546.043 109.47C546.733 110.468 547.22 111.596 547.473 112.787C547.727 113.979 547.743 115.211 547.52 116.409C547.298 117.607 546.841 118.748 546.177 119.764C545.513 120.779 544.656 121.649 543.656 122.321V122.327Z" fill="#FF677D"/>
<path d="M525.551 166.278C520.619 166.701 505.565 158.827 505.565 158.827C505.565 158.827 519.117 148.519 524.049 148.097C526.418 147.894 528.768 148.657 530.584 150.218C532.399 151.778 533.531 154.008 533.73 156.418C533.93 158.827 533.18 161.218 531.646 163.065C530.112 164.912 527.919 166.063 525.551 166.266V166.278Z" fill="#FF677D"/>
<path d="M504.485 196.388C499.693 197.63 483.554 192.495 483.554 192.495C483.554 192.495 495.194 180.008 499.986 178.741C502.287 178.134 504.73 178.482 506.779 179.707C508.827 180.933 510.313 182.936 510.91 185.276C511.506 187.617 511.165 190.102 509.96 192.186C508.755 194.27 506.786 195.781 504.485 196.388Z" fill="#FF677D"/>
<path d="M504.912 119.918C506.915 124.519 520.918 134.2 520.918 134.2C520.918 134.2 523.298 117.161 521.296 112.56C520.298 110.407 518.513 108.737 516.32 107.905C514.128 107.074 511.703 107.148 509.564 108.111C507.424 109.075 505.74 110.851 504.871 113.061C504.002 115.27 504.017 117.738 504.912 119.937V119.918Z" fill="#FF677D"/>
<path d="M480.715 155.449C483.981 159.231 500.182 164.186 500.182 164.186C500.182 164.186 497.447 147.203 494.181 143.421C493.41 142.503 492.468 141.749 491.408 141.204C490.348 140.659 489.193 140.334 488.009 140.247C486.824 140.16 485.635 140.314 484.509 140.699C483.384 141.084 482.345 141.693 481.453 142.489C480.561 143.286 479.833 144.256 479.312 145.341C478.791 146.427 478.488 147.606 478.419 148.812C478.351 150.018 478.518 151.226 478.912 152.365C479.307 153.504 479.919 154.553 480.715 155.449Z" fill="#FF677D"/>
<path d="M461.859 193.277C464.447 197.562 479.592 205.231 479.592 205.231C479.592 205.231 479.72 188.024 477.15 183.733C475.871 181.752 473.883 180.356 471.609 179.84C469.335 179.325 466.952 179.731 464.967 180.973C462.982 182.214 461.551 184.193 460.976 186.49C460.401 188.787 460.729 191.222 461.89 193.277H461.859Z" fill="#FF677D"/>
<path d="M444.084 59.2449C445.097 55.4633 446.318 51.6631 447.172 47.8318C446.147 51.6631 444.92 55.4757 444.084 59.2449Z" fill="url(#paint0_linear)"/>
<path d="M439.542 95.6701C439.457 95.5211 439.396 95.372 439.328 95.2354C439.328 95.1733 439.267 95.1236 439.243 95.0616C439.11 95.1254 438.973 95.1814 438.834 95.2292C438.565 95.3348 438.291 95.4341 438.01 95.5148C437.729 95.5956 437.613 95.639 437.399 95.6887C437.222 95.7508 437.041 95.7986 436.856 95.8315L436.905 95.9433C437.131 95.8936 437.351 95.8502 437.576 95.7881L437.637 96.5581C437.894 96.5581 438.132 96.5208 438.364 96.5208C438.474 96.5146 438.584 96.5146 438.694 96.5208C439.17 96.5208 439.585 96.5208 439.914 96.5208C439.786 96.2414 439.652 95.9495 439.542 95.6701ZM563.458 296.318C560.589 292.387 554.863 250.2 554.863 250.2C554.863 250.2 543.601 220.202 546.671 208.23C549.742 196.258 538.284 165.626 538.284 165.626C538.284 165.626 530.715 162.28 530.306 157.312C530.306 157.312 499.4 147.377 497.953 139.925C496.781 133.815 477.614 129.431 470.729 128.046C468.629 119.428 466.517 111.386 464.96 106.996C464.539 105.63 464.142 104.45 463.776 103.519C461.145 96.6884 453.014 96.0675 447.117 96.6139C446.862 95.4498 446.387 94.347 445.719 93.3664C445.622 93.0292 445.429 92.7289 445.164 92.5032C445.037 92.3935 444.903 92.2939 444.761 92.2052C444.654 92.0039 444.514 91.8232 444.346 91.6712C444.179 91.5177 443.994 91.3843 443.797 91.2738C443.655 91.1957 443.508 91.1272 443.357 91.0688C443.003 90.9318 442.638 90.8299 442.265 90.7646C441.83 90.6736 441.389 90.6155 440.946 90.5907C442.023 90.1113 442.984 89.3969 443.76 88.4981C444.288 87.8671 444.681 87.1312 444.914 86.3372C445.107 85.6769 445.194 84.989 445.17 84.3005C445.012 84.5842 444.828 84.8524 444.621 85.1015C444.877 82.3507 443.449 79.5564 442.631 76.818C441.64 73.253 441.456 69.5058 442.094 65.8582C442.912 60.3566 444.938 54.7929 446.312 49.1919C446.315 49.1609 446.315 49.1297 446.312 49.0987C447.032 46.3172 447.478 43.4695 447.642 40.5979C447.88 34.8044 446.421 29.0234 444.077 23.7453C441.996 19.0695 438.925 14.4683 434.225 12.5682C430.734 11.1338 426.821 11.3635 423.061 11.1276C414.624 10.5935 406.579 7.57573 398.558 4.83112C390.537 2.08652 382.284 -0.40971 373.842 0.0684227C365.4 0.546555 356.714 4.6883 352.862 12.2887C351.641 14.6608 350.939 17.2998 349.48 19.529C346.745 23.7329 341.85 25.8379 337.766 28.7377C333.682 31.6376 330.087 35.7545 328.61 40.6662C327.803 43.3125 327.689 46.1271 328.28 48.8317C328.413 49.4425 328.584 50.044 328.793 50.6325C329.372 52.2732 330.276 53.7758 331.448 55.0474C332.332 55.9873 333.348 56.7888 334.464 57.4257C335.864 58.2153 337.363 58.8086 338.92 59.1892C338.865 59.3755 338.81 59.5742 338.749 59.7667C338.651 60.0834 338.566 60.3876 338.474 60.7292C338.273 61.4929 338.083 62.2691 337.925 63.0515C337.918 63.1072 337.918 63.1635 337.925 63.2192C337.175 66.7511 336.798 70.3545 336.802 73.9678C336.8 75.6767 336.886 77.3846 337.058 79.0845C339.5 104.283 359.949 124.159 385.214 125.451C386.081 125.494 386.954 125.519 387.839 125.519C388.242 125.519 388.639 125.519 389.06 125.519C389.457 126.053 389.847 126.6 390.22 127.134C390.592 127.668 390.934 128.214 391.257 128.748L390.372 127.817L389.487 126.991C389.247 127.326 388.98 127.64 388.688 127.929C388.11 127.722 387.521 127.552 386.923 127.419C384.39 126.848 380.532 126.637 375.454 128.196C370.784 129.617 365.076 132.542 358.398 138.1L325.857 157.97L308.252 168.862L301.91 184.634C301.91 184.634 297.142 203.374 291.838 224.847C291.63 224.909 291.429 224.971 291.227 225.045C290.798 224.996 290.366 224.971 289.933 224.971C286.855 224.963 283.895 226.17 281.673 228.336C279.451 230.503 278.141 233.461 278.018 236.589C267.47 249.629 266.871 262.669 269.35 268.655C269.574 269.216 269.856 269.75 270.192 270.251C271.816 272.635 274.85 278.782 277.926 285.333C277.847 285.874 277.798 286.327 277.773 286.668C277.768 286.78 277.768 286.892 277.773 287.004C277.773 287.004 279.605 315.139 273.501 323.205C272.164 324.963 272.365 327.273 273.501 329.831C277.59 339.033 293.76 351.322 293.76 351.322C293.76 351.322 313.154 351.216 323.958 350.018C323.928 351.123 323.903 352.222 323.879 353.297C323.635 364.151 323.635 373.248 323.635 373.248L323.232 384.63C323.232 384.63 319.569 408.617 317.738 415.23C316.584 419.378 317.915 457.784 319.075 486.019H510.15C512.396 469.315 509.228 418.565 509.228 418.565C509.228 418.565 506.219 405.444 506.109 394.006C506.103 393.994 506.1 393.98 506.1 393.966C506.1 393.952 506.103 393.938 506.109 393.925C506.109 392.926 506.109 391.951 506.145 390.995L507.531 390.945L510.022 390.858H510.247C510.247 390.858 510.308 390.622 510.449 390.237C510.778 389.278 511.228 388.366 511.786 387.523C512.848 385.928 514.508 384.363 517.005 384.257C518.384 384.201 520.521 383.065 522.932 381.388C522.948 381.392 522.965 381.392 522.981 381.388C529.47 376.924 538.046 368.684 540.128 367.33C542.991 365.467 556.701 353.048 556.701 353.048C556.701 353.048 558.746 350.415 560.925 347.242L561.004 347.131C563.714 343.156 566.596 338.406 565.888 336.91C564.667 334.227 566.706 327.813 566.706 327.813C573.072 315.959 566.327 300.249 563.458 296.318ZM445.42 105.326C445.479 105.511 445.516 105.703 445.53 105.897C445.378 105.692 445.225 105.475 445.072 105.276L444.926 105.078L444.822 104.928L445.054 104.606C445.054 104.606 445.054 104.606 445.054 104.649C445.215 104.85 445.339 105.08 445.42 105.326ZM443.369 99.8242C442.704 99.9609 442.179 100.085 441.837 100.178C441.404 99.3958 440.989 98.6134 440.616 97.8186C441.595 98.3961 442.517 99.0677 443.369 99.8242ZM442.222 100.805C442.22 100.793 442.22 100.78 442.222 100.768L442.271 100.805C442.521 100.973 442.765 101.134 442.991 101.302C443.192 101.451 443.375 101.594 443.559 101.743C443.437 101.96 443.302 102.184 443.168 102.364C442.954 102.022 442.753 101.693 442.557 101.352C442.435 101.215 442.326 101.029 442.222 100.805ZM438.559 93.1428C439.739 93.0245 440.926 93.0245 442.106 93.1428C442.271 93.1428 442.417 93.1739 442.564 93.1987C442.895 93.2508 443.22 93.336 443.534 93.4533C444.256 94.4799 444.7 95.6811 444.822 96.9368L444.493 96.9865L444.169 97.0486C443.559 97.1542 442.948 97.2597 442.472 97.3591L441.862 97.4895C441.05 97.6696 440.58 97.8062 440.561 97.8124C440.482 97.6447 440.403 97.4895 440.317 97.328C440.183 97.061 440.043 96.7878 439.92 96.5208C439.798 96.2538 439.64 95.9495 439.512 95.6701C439.426 95.5211 439.365 95.372 439.298 95.2354C439.298 95.1733 439.237 95.1236 439.212 95.0616C439.177 94.9957 439.146 94.9272 439.121 94.8566C438.748 94.0867 438.407 93.3167 438.077 92.5591C438.04 92.4846 438.01 92.4039 437.979 92.3294L438.443 92.2983V92.4598L438.559 93.1428ZM292.918 478.344C292.869 469.098 292.21 459.094 290.379 449.705C289.597 445.713 288.792 441.72 287.974 437.796C287.766 436.815 287.565 435.846 287.363 434.877L285.483 435.132H285.312C280.185 410.536 274.825 388.865 274.825 388.865C274.825 388.865 264.179 347.516 265.412 344.218C265.571 343.79 265.37 342.635 264.918 340.94C262.342 331.538 251.586 305.632 247.826 296.778C247.826 296.74 247.796 296.697 247.783 296.666C247.173 295.182 246.733 294.182 246.599 293.89L247.484 280.676L247.533 279.882L247.649 278.193L247.6 278.149L247.649 277.367C247.649 277.367 238.358 269.617 222.622 264.022C222.011 263.799 221.364 263.582 220.723 263.37C221.511 258.024 222.555 251.988 223.916 246.108C224.044 245.518 224.184 244.947 224.331 244.369C224.459 243.792 224.606 243.233 224.752 242.668C224.984 241.749 225.234 240.842 225.491 239.948C226.339 239.675 227.175 239.371 228 239.048L228.317 238.924C238.469 234.905 246.845 227.281 251.896 217.463C256.946 207.644 258.328 196.297 255.786 185.522C254.336 179.411 251.66 173.671 247.924 168.663C247.643 168.278 247.344 167.893 247.045 167.514C246.746 167.135 246.385 166.713 246.05 166.328C247.814 162.248 249.895 158.368 250.066 154.4C250.097 153.897 250.097 153.393 250.066 152.891V152.829C249.84 150.277 248.73 147.693 246.141 144.98C242.363 141 236.985 138.981 231.607 138.013C226.229 137.044 220.748 137.019 215.339 136.367C206.372 135.274 197.637 132.461 188.67 131.598C177.625 130.558 166.505 132.485 156.421 137.187C149.749 140.292 142.992 145.719 142.589 153.164C142.259 159.318 146.471 165.217 145.409 171.296C144.353 177.269 138.371 181.97 138.896 188.012C139.097 190.371 140.288 192.483 141.777 194.364C142.29 194.985 142.833 195.606 143.395 196.227C145.568 198.568 147.961 200.816 149.175 203.765C149.224 203.889 149.273 204.014 149.316 204.138C150.347 207.05 149.884 210.732 147.332 212.403C147.346 212.414 147.357 212.429 147.362 212.446C147.399 212.496 147.436 212.533 147.466 212.583C147.47 212.573 147.47 212.562 147.466 212.552C148.371 213.643 149.59 214.416 150.952 214.762L151.471 214.924C151.049 215.389 150.653 215.874 150.25 216.383L149.987 216.737C149.315 217.657 148.703 218.622 148.156 219.624C147.845 220.183 147.546 220.742 147.295 221.301C146.459 223.004 145.853 224.815 145.495 226.685C144.841 230.795 145.763 235.08 144.774 239.104C143.553 244.071 139.689 247.884 137.51 252.498C133.384 261.191 135.722 271.393 136.552 280.993C137.681 294.033 135.85 307.129 134.025 320.082C133.056 326.97 132.088 333.865 131.119 340.766C128.677 358.086 126.236 375.407 123.794 392.727C122.903 399.073 121.847 405.767 117.69 410.666H117.732C117.732 410.666 117.732 410.704 117.69 410.716C118.938 411.271 120.265 411.619 121.621 411.747C127.048 412.299 132.798 409.629 137.681 406.711C141.548 404.438 145.211 401.821 148.626 398.893C148.126 400.756 147.588 402.786 147.015 404.972C147.016 404.993 147.016 405.014 147.015 405.034C140.123 431.735 129.038 480.685 129.038 480.685C129.038 480.685 128.03 482.815 126.724 485.988H298.864C296.849 483.504 294.975 481.126 293.51 479.207L292.918 478.344ZM165.462 231.454C165.504 231.379 165.535 231.311 165.578 231.242C165.578 231.441 165.578 231.634 165.578 231.82C165.578 232.006 165.578 232.174 165.578 232.348C165.578 232.522 165.578 232.503 165.578 232.59C165.578 232.677 165.578 232.59 165.578 232.59C165.578 232.844 165.523 233.099 165.48 233.354C165.48 233.354 165.48 233.385 165.48 233.41L166.09 233.639L166.798 233.937C170.982 235.618 175.218 237.139 179.507 238.501C179.947 238.644 180.393 238.781 180.838 238.911L180.93 239.681C181.04 240.47 181.143 241.271 181.241 242.072C181.241 242.072 181.241 242.109 181.241 242.134C181.516 244.351 181.784 246.561 182.022 248.722C182.022 248.722 170.815 244.376 170.955 250.976C170.949 251.094 170.949 251.212 170.955 251.33C170.943 251.487 170.943 251.645 170.955 251.802C171.059 256.944 172.64 259.992 172.958 261.557C172.939 261.622 172.905 261.682 172.86 261.731C172.589 262.331 172.496 262.997 172.591 263.65C172.581 264.761 172.666 265.87 172.848 266.966C172.518 267.171 172.195 267.376 171.871 267.587C171.627 267.742 171.395 267.916 171.157 268.09C169.659 262.806 167.7 257.669 165.303 252.74C163.624 249.225 161.738 245.562 161.756 241.705C161.756 241.457 161.756 241.202 161.787 240.948C161.855 239.83 162.064 238.726 162.409 237.663C162.55 237.259 162.702 236.862 162.873 236.471C163.272 235.541 163.718 234.633 164.21 233.751C164.528 233.167 164.863 232.59 165.187 232.006C165.291 231.832 165.388 231.652 165.486 231.478L165.462 231.454ZM439.542 95.6701C439.457 95.5211 439.396 95.372 439.328 95.2354C439.328 95.1733 439.267 95.1236 439.243 95.0616C439.11 95.1254 438.973 95.1814 438.834 95.2292C438.565 95.3348 438.291 95.4341 438.01 95.5148C437.729 95.5956 437.613 95.639 437.399 95.6887L436.856 95.8315L436.905 95.9433C437.131 95.8936 437.351 95.8502 437.576 95.7881L437.637 96.5581C437.894 96.5581 438.132 96.5208 438.364 96.5208H438.694C439.17 96.5208 439.585 96.5208 439.914 96.5208C439.786 96.2414 439.652 95.9495 439.542 95.6701Z" fill="url(#paint1_linear)"/>
<path d="M306.164 186.875L302.502 188.521C302.502 188.521 278.628 282.868 278.628 290.494C278.628 298.119 329.251 340.548 329.251 340.548L337.149 286.315C337.149 286.315 325.808 161.944 306.164 186.875Z" fill="#E8F5FF"/>
<path d="M417.207 156.865L396.055 145.638C394.871 140.5 392.768 135.628 389.853 131.263C386.759 126.717 382.644 122.253 377.517 119.924C364.558 114.013 432.333 82.9839 432.333 82.9839C433.401 86.7113 434.658 90.3799 436.099 93.9747C439.591 102.743 445.384 114.081 452.849 117.31C465.54 122.806 417.207 156.865 417.207 156.865Z" fill="#FFC1C7"/>
<path opacity="0.1" d="M436.099 93.9747C433.203 104.335 427.181 113.509 418.883 120.199C410.585 126.89 400.43 130.76 389.853 131.263C386.759 126.717 382.644 122.253 377.517 119.924C364.558 114.013 432.333 82.9839 432.333 82.9839C433.4 86.7113 434.658 90.3799 436.099 93.9747Z" fill="black"/>
<path d="M438.004 78.3082C438.006 88.4693 435.046 98.4028 429.498 106.853C423.951 115.302 416.064 121.889 406.836 125.779C397.608 129.668 387.454 130.687 377.656 128.706C367.859 126.725 358.86 121.832 351.796 114.648C344.733 107.463 339.922 98.3092 337.973 88.3434C336.025 78.3776 337.025 68.0477 340.848 58.6602C344.67 49.2727 351.144 41.2493 359.45 35.6048C367.756 29.9602 377.521 26.948 387.509 26.9493C394.149 26.918 400.728 28.2251 406.868 30.795C413.007 33.3649 418.586 37.1467 423.281 41.9219C427.976 46.6972 431.694 52.3713 434.221 58.6166C436.748 64.8619 438.034 71.5546 438.004 78.3082Z" fill="#FFC1C7"/>
<path d="M445.292 150.27L431.521 182.957L419.374 204.653H380.49L369.148 174.99L373.744 144.228H403.442L422.615 143.129L429.092 140.931L433.267 143.34L445.292 150.27Z" fill="#575A89"/>
<path opacity="0.1" d="M440.549 106.698C440.549 106.698 449.138 108.561 441.447 114.975C433.755 121.39 407.22 141.788 407.22 141.788C407.22 141.788 416.541 150.233 414.612 160.125L445.494 142.614L450.987 114.597C450.987 114.597 451.604 106.176 440.549 106.698Z" fill="black"/>
<path opacity="0.1" d="M413.294 141.788L393.65 145.085C393.65 145.085 397.704 160.33 395.677 164.658C395.616 164.792 395.565 164.931 395.524 165.074L387.51 187.111L393.516 204.417L414.307 175.574L407.22 164.658C407.22 164.658 414.71 154.561 419.166 151.059C423.622 147.557 413.294 141.788 413.294 141.788Z" fill="black"/>
<path d="M413.294 140.937L393.65 144.228C393.65 144.228 397.704 159.473 395.677 163.801C395.616 163.935 395.565 164.074 395.524 164.217L387.51 186.254L393.516 203.56L414.307 174.698L407.22 163.782C407.22 163.782 414.71 153.685 419.166 150.183C423.622 146.681 413.294 140.937 413.294 140.937Z" fill="#DCE6F2"/>
<path d="M441.373 105.053C441.373 105.053 449.962 106.915 442.265 113.33C434.567 119.744 407.22 141.788 407.22 141.788C407.22 141.788 417.347 148.587 415.424 158.473L446.306 140.968L451.799 112.951C451.799 112.951 452.41 104.531 441.373 105.053Z" fill="#575A89"/>
<path opacity="0.1" d="M391.203 133.207C391.203 133.207 393.077 136.771 401.348 143.198C401.348 143.198 387.577 150.649 392.845 161.125L371.779 155.536L368.537 145.234L391.203 133.207Z" fill="black"/>
<path d="M390.391 132.387C390.391 132.387 392.265 135.951 400.536 142.378C400.536 142.378 386.765 149.792 392.033 160.299L370.973 154.71L367.732 144.415L390.391 132.387Z" fill="#575A89"/>
<path opacity="0.1" d="M445.292 150.27L431.521 182.957L419.398 204.653H380.49L369.148 174.99L373.738 144.228H381.997C381.863 151.406 384.439 159.839 384.274 162.975C383.993 168.129 391.831 195.935 391.831 195.935C391.831 195.935 408.233 168.948 414.71 166.545C418.781 165.036 427.407 152.481 433.261 143.34L445.292 150.27Z" fill="black"/>
<path d="M499.541 322.28L498.143 324.068C498.143 324.068 508.27 375.775 505.468 387.517C504.992 389.634 504.72 391.792 504.656 393.963V394.056C504.162 406.003 507.708 421.508 507.708 421.508C507.708 421.508 510.54 467.21 508.929 486.006H319.319C318.208 458.212 317.012 422.203 318.098 418.211C319.929 411.622 323.592 387.722 323.592 387.722L323.995 376.396C323.995 376.396 323.995 365.448 324.324 353.253C324.465 347.77 324.672 342.014 324.972 336.91C325.356 330.489 325.893 325.08 326.632 322.423C327.087 320.408 327.349 318.354 327.413 316.288C327.413 316.095 327.413 315.897 327.45 315.698C327.45 315.077 327.511 314.406 327.535 313.717C327.535 313.525 327.535 313.332 327.535 313.096C327.651 309.097 327.609 304.353 327.48 299.435C327.48 299.168 327.48 298.895 327.48 298.622C327.377 294.933 327.224 291.17 327.053 287.594C326.522 276.416 325.832 266.966 325.832 266.966L302.545 188.477L308.82 172.755L326.235 161.901L358.435 142.123C374.141 128.99 384.482 130.567 388.425 132.008C388.808 132.141 389.183 132.296 389.548 132.474C389.67 132.536 389.768 132.586 389.86 132.641C389.985 132.702 390.106 132.772 390.22 132.853C389.14 133.381 388.202 134.167 387.485 135.144C386.678 136.255 386.102 137.523 385.794 138.87C385.588 139.704 385.443 140.553 385.361 141.409C385.281 142.31 385.251 143.241 385.251 144.179C385.294 146.235 385.468 148.286 385.77 150.32C385.77 150.357 385.77 150.407 385.77 150.456C385.971 151.91 386.221 153.331 386.466 154.667C386.463 154.689 386.463 154.712 386.466 154.735C386.746 156.293 387.027 157.734 387.217 158.976C387.253 159.199 387.284 159.404 387.314 159.597C387.449 160.418 387.512 161.249 387.503 162.081C387.572 164.09 387.838 166.087 388.297 168.042C388.456 168.861 388.639 169.737 388.84 170.65C389.115 171.892 389.414 173.245 389.738 174.624C389.915 175.381 390.104 176.164 390.299 176.94C390.372 177.251 390.452 177.561 390.525 177.878L390.647 178.368C391.947 183.628 393.357 188.862 394.224 192.029C394.737 193.892 395.06 195.041 395.06 195.041C395.06 195.041 404.253 179.921 411.591 171.314C411.701 171.19 411.798 171.072 411.902 170.96C412.628 170.11 413.343 169.333 414.026 168.65C415.522 167.135 416.865 166.055 417.945 165.657C418.176 165.571 418.398 165.465 418.611 165.341C421.614 163.608 426.461 157.318 430.996 150.73C431.442 150.109 431.875 149.432 432.315 148.792C433.322 147.314 434.298 145.83 435.22 144.408C435.928 143.322 436.606 142.266 437.247 141.26C440.299 136.429 442.448 132.828 442.448 132.828L446.684 132.635L447.423 132.598H447.917L467.152 131.691C467.152 131.691 467.982 131.834 469.349 132.114C469.422 132.114 469.496 132.114 469.575 132.163C476.399 133.542 495.359 137.907 496.519 143.961C497.935 151.376 528.517 161.267 528.517 161.267C528.92 166.235 536.41 169.507 536.41 169.507C536.41 169.507 547.752 199.996 544.718 211.943C541.721 223.741 552.519 252.926 552.806 253.746L550.737 256.403L499.541 322.28Z" fill="#E8F5FF"/>
<path opacity="0.1" d="M440.543 104.531C440.543 104.531 459.265 99.1288 463.519 110.25C467.774 121.371 477.291 166.285 477.291 166.285C477.291 166.285 452.581 171.023 446.104 166.285C442.305 163.473 437.603 162.222 432.937 162.783L418.965 172.463L414.838 171.221C414.838 171.221 437.192 137.417 442.051 125.929C446.91 114.441 448.552 109.306 440.543 104.531Z" fill="black"/>
<path d="M439.731 102.047C439.731 102.047 458.465 96.6449 462.738 107.766C467.011 118.887 476.509 163.801 476.509 163.801C476.509 163.801 451.805 168.539 445.323 163.801C441.526 160.989 436.826 159.738 432.162 160.299L418.177 169.979L414.051 168.737C414.051 168.737 436.404 134.933 441.263 123.445C446.122 111.958 447.74 106.835 439.731 102.047Z" fill="#E8F5FF"/>
<path opacity="0.1" d="M314.063 281.223C314.063 281.223 328.036 284.725 330.673 292.76C333.31 300.795 320.344 301 320.344 301C320.344 301 312.446 286.786 314.063 281.223Z" fill="black"/>
<path opacity="0.1" d="M366.108 340.548C366.108 340.548 331.888 411.827 339.787 418.627C347.685 425.426 366.108 340.548 366.108 340.548Z" fill="black"/>
<path opacity="0.1" d="M413.294 288.022C413.294 288.022 440.635 357.258 435.165 367.951C429.696 378.644 446.91 367.951 446.91 367.951L413.294 288.022Z" fill="black"/>
<path d="M451.366 356.414C451.366 356.414 359.021 360.947 385.959 390.2C412.897 419.453 468.177 391.442 468.177 391.442L451.366 356.414Z" fill="#FFC1C7"/>
<path opacity="0.1" d="M438.004 78.3082C438.012 85.0456 436.711 91.7183 434.176 97.9427C433.328 98.042 432.479 98.1041 431.661 98.1414C430.441 95.4154 431.094 92.2672 431.118 89.268C431.143 86.2688 430.056 82.7418 427.218 81.9346C421.559 80.3139 417.652 91.075 412.073 89.1314C407.8 87.6535 408.917 81.059 406.457 77.2526C404.51 74.241 400.609 73.3903 397.575 71.5026C391.123 67.4726 391.319 61.0271 388.321 54.9294C385.184 48.5398 378.555 50.4275 372.798 54.1967C368.428 57.0655 364.655 60.9091 359.979 63.1942C355.932 65.1813 351.385 65.9016 346.898 66.0072C344.136 66.1161 341.373 65.8191 338.694 65.1254C341.845 53.0752 349.197 42.6021 359.379 35.6592C369.561 28.7164 381.877 25.7777 394.032 27.3913C406.187 29.0049 417.35 35.0605 425.439 44.4289C433.529 53.7974 437.992 65.839 437.998 78.3082H438.004Z" fill="black"/>
<path d="M372.817 52.5512C368.44 55.42 364.674 59.2575 359.998 61.555C355.951 63.5358 351.403 64.2561 346.916 64.3617C341.422 64.4859 335.507 63.5048 331.753 59.4686C328.304 55.7429 327.48 50.0115 328.939 45.1246C330.398 40.2377 333.896 36.1829 338.004 33.2458C342.112 30.3087 346.88 28.2782 349.602 24.0744C351.043 21.8514 351.739 19.2309 352.935 16.8651C356.762 9.29572 365.369 5.19744 373.689 4.68826C382.01 4.17908 390.256 6.70014 398.18 9.43233C406.103 12.1645 414.087 15.1699 422.45 15.735C426.174 15.971 430.044 15.735 433.499 17.1694C438.144 19.0881 441.19 23.677 443.266 28.3465C445.591 33.6122 447.038 39.3622 446.794 45.1122C446.281 57.3884 438.309 69.4349 441.813 81.1957C442.741 84.3315 444.48 87.548 443.553 90.6838C442.197 95.2602 436.392 96.3034 431.698 96.5208C430.477 93.7948 431.13 90.6404 431.155 87.6474C431.179 84.6544 430.093 81.1212 427.26 80.3139C421.596 78.7057 417.689 89.4481 412.122 87.5108C407.879 86.0267 408.978 79.4384 406.512 75.632C404.565 72.6141 400.658 71.7696 397.63 69.882C391.178 65.852 391.373 59.4065 388.376 53.3088C385.214 46.8881 378.579 48.7758 372.817 52.5512Z" fill="#99607E"/>
<path d="M283.273 288.842L278.616 290.493C278.616 290.493 280.447 318.511 274.343 326.546C268.239 334.581 294.389 354.557 294.389 354.557C294.389 354.557 330.233 354.352 331.247 351.452C332.26 348.552 329.415 299.541 329.415 299.541C329.415 299.541 310.175 291.915 311.792 279.763C311.792 279.763 305.92 308.395 297.216 307.16C288.511 305.924 278.628 298.529 283.273 288.842Z" fill="#E8F5FF"/>
<path opacity="0.1" d="M298.809 315.828C305.595 315.828 311.097 310.71 311.097 304.397C311.097 298.083 305.595 292.965 298.809 292.965C292.022 292.965 286.521 298.083 286.521 304.397C286.521 310.71 292.022 315.828 298.809 315.828Z" fill="black"/>
<path d="M312.244 289.668C312.244 289.668 309.802 213.862 288.547 230.752C267.293 247.642 267.085 267.841 271.132 273.808C275.179 279.776 288.157 309.65 288.157 309.65C290.187 310.847 292.467 311.537 294.809 311.665C297.152 311.792 299.492 311.354 301.636 310.384C303.78 309.415 305.668 307.943 307.144 306.088C308.621 304.233 309.645 302.049 310.132 299.715L312.244 289.668Z" fill="#FFC1C7"/>
<path opacity="0.1" d="M444.834 97.6509C444.735 97.3179 444.545 97.0205 444.285 96.794C443.235 95.8191 440.976 95.4776 437.57 95.7756L437.711 97.415C442.252 97.0175 443.15 97.9366 443.266 98.0918V98.247L443.406 98.4519C443.972 99.2261 444.373 100.112 444.584 101.053C444.794 101.994 444.809 102.969 444.627 103.916C443.632 108.977 437.521 113.007 437.46 113.051L437.314 113.137L437.222 113.28C434.585 117.261 419.673 128.494 415.772 131.4L415.43 131.002C413.684 132.542 398.338 146.209 397.508 151.444C396.971 154.729 393.333 156.002 392.014 156.356C390.623 155.281 386.105 151.624 383.755 147.526C381.552 143.67 390.421 136.144 391.202 133.207L389.982 131.934C389.853 132.406 378.463 143.235 381.631 148.768C384.17 153.207 388.81 157.008 390.433 158.262C389.914 163.056 386.685 191.203 381.723 197.872C375.557 206.162 370.375 247.94 370.949 262.526C371.455 275.485 368.128 299.963 357.019 310.476C355.095 312.376 352.775 313.809 350.231 314.669C347.687 315.529 344.985 315.794 342.326 315.443H342.192H342.057C341.899 315.443 325.783 317.12 312.244 305.508C301.165 296.026 294.89 280.552 293.583 259.502H293.315L293.205 253.373C296.209 252.896 298.914 251.253 300.753 248.79C302.591 246.327 303.419 243.234 303.063 240.163C302.707 237.091 301.194 234.28 298.843 232.319C296.492 230.358 293.485 229.401 290.454 229.648C287.424 229.895 284.605 231.327 282.591 233.644C280.577 235.96 279.524 238.981 279.653 242.071C279.782 245.161 281.084 248.08 283.284 250.214C285.485 252.348 288.413 253.532 291.453 253.516H291.587L291.697 259.607L291.16 259.645C292.503 281.378 299.096 297.454 310.694 307.383C319.509 314.814 330.769 318.563 342.198 317.871C343.009 317.962 343.824 318.007 344.639 318.008C349.878 318.035 354.918 315.973 358.679 312.264C370.381 301.18 373.94 275.802 373.384 262.402C372.774 246.946 378.213 206.671 383.67 199.338C389.017 192.141 392.258 164.099 392.826 158.666C394.761 158.113 399.138 156.368 399.883 151.835C400.42 148.557 410.669 138.454 416.975 132.859L416.785 132.635C420.179 130.114 430.734 122.166 435.965 117.062C437.589 115.478 439.2 113.895 440.885 112.386C442.911 110.56 445.487 107.661 446.165 104.233C446.396 103.102 446.397 101.934 446.168 100.802C445.939 99.6702 445.485 98.5978 444.834 97.6509Z" fill="black"/>
<path d="M390.226 157.871C389.97 157.691 383.89 153.263 380.844 147.935C377.682 142.403 389.072 131.58 389.194 131.108L390.415 132.381C389.64 135.312 380.77 142.844 382.974 146.694C385.751 151.556 391.599 155.809 391.66 155.853L390.226 157.871Z" fill="#353146"/>
<path d="M414.979 132.604L414.026 131.269C414.222 131.126 433.395 117.018 436.417 112.454L436.514 112.318L436.655 112.225C436.716 112.181 442.826 108.157 443.821 103.09C444.005 102.144 443.991 101.17 443.78 100.229C443.57 99.2892 443.168 98.4043 442.6 97.6322L442.46 97.4211V97.2721C442.338 97.1106 441.44 96.1978 436.899 96.5952L436.759 94.9497C440.171 94.6517 442.423 94.9932 443.473 95.9681C443.735 96.1968 443.927 96.496 444.029 96.8312C444.689 97.7753 445.152 98.847 445.389 99.9801C445.626 101.113 445.633 102.284 445.408 103.419C444.731 106.853 442.161 109.753 440.128 111.573C438.449 113.081 436.832 114.677 435.214 116.248C429.079 122.228 415.65 132.114 414.979 132.604Z" fill="#E8F5FF"/>
<path d="M292.417 251.211L290.8 251.241L290.98 261.243L292.598 261.213L292.417 251.211Z" fill="#E8F5FF"/>
<path d="M290.666 252.727C297.189 252.727 302.477 247.348 302.477 240.712C302.477 234.076 297.189 228.696 290.666 228.696C284.142 228.696 278.854 234.076 278.854 240.712C278.854 247.348 284.142 252.727 290.666 252.727Z" fill="#FF677D"/>
<path d="M290.666 250.691C296.083 250.691 300.475 246.223 300.475 240.712C300.475 235.201 296.083 230.733 290.666 230.733C285.248 230.733 280.856 235.201 280.856 240.712C280.856 246.223 285.248 250.691 290.666 250.691Z" fill="#E8F5FF"/>
<path d="M343.87 317.207C343.055 317.208 342.24 317.164 341.429 317.076C330.001 317.761 318.743 314.013 309.925 306.588C298.327 296.653 291.746 280.595 290.391 258.844L292.833 258.688C294.139 279.739 300.414 295.219 311.499 304.695C325.039 316.275 341.148 314.63 341.306 314.63H341.441H341.575C344.235 314.979 346.937 314.713 349.482 313.853C352.027 312.993 354.348 311.561 356.274 309.662C367.378 299.149 370.705 274.672 370.198 261.712C369.587 247.114 374.77 205.336 380.941 197.053C386.344 189.794 389.695 157.076 389.731 156.747L389.823 155.815L390.726 155.654C390.781 155.654 396.055 154.635 396.715 150.624C397.569 145.396 412.891 131.729 414.631 130.182L416.224 132.045C409.894 137.634 399.645 147.743 399.132 151.028C398.387 155.573 394.011 157.312 392.082 157.858C391.471 163.298 388.254 191.334 382.925 198.53C377.468 205.864 372.029 246.139 372.64 261.594C373.165 274.994 369.642 300.379 357.941 311.457C354.173 315.175 349.12 317.24 343.87 317.207Z" fill="#353146"/>
<g opacity="0.1">
<path opacity="0.1" d="M443.205 63.629C444.206 59.8661 445.414 56.0783 446.257 52.2656C445.25 56.0969 444.035 59.8661 443.205 63.629Z" fill="black"/>
<path opacity="0.1" d="M432.992 93.1986C431.771 90.4726 432.424 87.3182 432.449 84.3252C432.473 81.3322 431.387 77.8301 428.554 76.9918C422.89 75.3835 418.983 86.1322 413.416 84.1886C409.143 82.7045 410.272 76.1162 407.806 72.3098C405.859 69.292 401.958 68.4475 398.93 66.5598C392.472 62.5298 392.668 56.0844 389.676 49.9866C386.533 43.5908 379.91 45.4785 374.147 49.2539C369.771 52.1227 366.004 55.9664 361.328 58.2577C357.281 60.2385 352.734 60.9588 348.247 61.0644C342.784 61.1948 336.838 60.2075 333.084 56.1713C330.191 53.0665 329.147 48.515 329.745 44.249C329.641 44.5409 329.55 44.8327 329.458 45.1246C327.993 50.0115 328.848 55.7552 332.272 59.4685C336.026 63.5047 341.972 64.4858 347.435 64.3616C351.928 64.2561 356.469 63.5358 360.523 61.5549C365.211 59.2574 368.977 55.4199 373.342 52.5511C379.104 48.7758 385.733 46.8881 388.871 53.2839C391.862 59.3816 391.673 65.8271 398.125 69.8571C401.177 71.7199 405.053 72.5892 407.006 75.6071C409.448 79.4259 408.368 86.0018 412.616 87.4859C418.177 89.4232 422.084 78.6808 427.749 80.289C430.581 81.0963 431.674 84.6357 431.643 87.6225C431.613 90.6093 430.978 93.7699 432.186 96.4959C436.881 96.2785 442.686 95.254 444.047 90.6589C444.234 89.9995 444.321 89.3146 444.303 88.6284C442.319 92.112 437.216 93.0061 432.992 93.1986Z" fill="black"/>
</g>
<path opacity="0.1" d="M543.314 246.201L550.401 253.826C550.401 253.826 556.072 295.846 558.904 299.777C561.737 303.707 568.427 319.343 562.146 331.085C562.146 331.085 560.119 337.475 561.334 340.151C562.549 342.827 552.226 356.221 552.226 356.221C552.226 356.221 538.657 368.578 535.818 370.435C532.98 372.291 518 387.12 512.94 387.325C507.879 387.53 506.225 393.919 506.225 393.919L477.669 394.95C477.669 394.95 461.896 394.112 458.465 396.378C458.465 396.378 460.297 371.863 442.674 355.793L465.149 347.553C465.149 347.553 473.659 343.827 476.29 339.934C477.945 337.547 480.293 335.747 483.004 334.786C483.004 334.786 489.279 330.253 489.481 327.782C489.682 325.31 497.154 322.28 497.154 322.28L492.924 285.551L495.152 224.573C495.152 224.573 502.239 173.481 517.225 176.369C532.211 179.256 543.314 246.201 543.314 246.201Z" fill="black"/>
<path d="M545.756 246.201L552.843 253.826C552.843 253.826 558.514 295.846 561.346 299.777C564.178 303.707 570.869 319.343 564.587 331.085C564.587 331.085 562.567 337.475 563.782 340.151C564.996 342.827 554.668 356.221 554.668 356.221C554.668 356.221 541.098 368.578 538.26 370.435C535.421 372.291 520.442 387.12 515.381 387.325C510.321 387.53 508.666 393.919 508.666 393.919L480.111 394.95C480.111 394.95 464.325 394.112 460.907 396.378C460.907 396.378 462.738 371.863 445.115 355.793L467.591 347.553C467.591 347.553 476.1 343.827 478.731 339.934C480.386 337.547 482.734 335.747 485.446 334.786C485.446 334.786 491.721 330.253 491.923 327.782C492.124 325.31 499.596 322.28 499.596 322.28L495.365 285.551L497.593 224.573C497.593 224.573 504.68 173.481 519.666 176.369C534.652 179.256 545.756 246.201 545.756 246.201Z" fill="#E8F5FF"/>
<path opacity="0.1" d="M519.41 307.8C519.41 307.8 540.268 302.211 545.737 309.041C551.207 315.872 519.41 307.8 519.41 307.8Z" fill="black"/>
<path opacity="0.1" d="M514.551 317.169C521.638 322.218 543.51 322.423 543.51 322.423L514.551 317.169Z" fill="black"/>
<path opacity="0.1" d="M525.282 342.405C525.893 342.61 540.317 358.27 546.372 353.532C552.428 348.795 525.282 342.405 525.282 342.405Z" fill="black"/>
<path opacity="0.1" d="M331.021 210.974C331.021 210.974 335.257 240.643 333.169 252.727C331.082 264.811 338.7 279.782 338.7 279.782L331.021 210.974Z" fill="black"/>
<path d="M237.235 223.039C232.352 226.933 228.787 236.148 226.205 246.275C221.7 263.941 220.229 284.427 220.229 284.427C220.229 284.427 181.345 275.361 184.177 271.244C185.96 268.655 183.567 249.144 181.571 234.999C180.38 226.641 179.318 220.152 179.318 220.152C179.318 220.152 250.604 212.322 237.235 223.039Z" fill="#FFCCD0"/>
<path opacity="0.1" d="M237.235 222.214C232.352 226.113 228.787 235.322 226.205 245.45C218.458 247.843 210.218 248.059 202.36 246.074C194.502 244.09 187.319 239.98 181.571 234.179C180.38 225.815 179.318 219.326 179.318 219.326C179.318 219.326 250.604 211.502 237.235 222.214Z" fill="black"/>
<path d="M258.136 200.021C258.14 210.821 254.388 221.275 247.544 229.531C240.7 237.788 231.204 243.316 220.739 245.136C210.274 246.956 199.513 244.951 190.361 239.476C181.209 234.001 174.256 225.409 170.733 215.221C167.209 205.032 167.343 193.905 171.11 183.807C174.876 173.709 182.033 165.292 191.314 160.046C200.594 154.8 211.4 153.063 221.819 155.142C232.237 157.222 241.597 162.983 248.241 171.407C254.644 179.522 258.134 189.616 258.136 200.021Z" fill="#FFCCD0"/>
<path opacity="0.1" d="M293.59 486.006H280.771L279.69 462.975L278.561 439.137C278.561 439.137 281.473 438.696 286.112 438.038L287.986 437.783H288.138C289.152 442.62 290.153 447.588 291.117 452.549C292.723 461.357 293.558 470.293 293.614 479.25C293.614 479.871 293.614 480.492 293.614 481.076C293.651 482.734 293.614 484.392 293.59 486.006Z" fill="black"/>
<path d="M291.13 486.006H130.368C131.064 484.398 131.528 483.423 131.528 483.423C131.528 483.423 144.39 426.184 150.927 401.967C150.929 401.946 150.929 401.925 150.927 401.904C151.744 398.615 152.73 395.371 153.882 392.187C153.956 391.97 154.052 391.762 154.169 391.566C157.404 386.213 161.457 380.444 155.786 372.204C150.115 363.964 152.124 327.707 152.124 327.707C152.124 327.707 159.009 296.802 166.298 280.322C167.404 277.77 168.974 275.452 170.925 273.492C171.559 272.86 172.236 272.275 172.951 271.741C173.495 271.325 174.062 270.942 174.648 270.592L174.764 270.517C177.826 268.752 181.226 267.678 184.733 267.369C187.223 267.104 189.738 267.175 192.21 267.58C204.028 269.344 213.49 272.293 221.01 275.653C241.392 284.762 247.564 296.97 247.686 297.225L247.735 297.33C248.553 299.274 260.517 327.688 264.826 340.946C265.943 344.398 266.554 346.826 266.31 347.491C265.089 350.782 275.625 391.982 275.625 391.982C275.625 391.982 280.508 411.852 285.392 435.144C285.605 436.113 285.807 437.081 286.002 438.062C286.875 442.291 287.742 446.601 288.578 450.904C290.198 459.772 291.034 468.771 291.075 477.791C291.164 480.602 291.183 483.34 291.13 486.006Z" fill="#FF748E"/>
<path opacity="0.1" d="M183.774 253.199C183.774 253.199 172.683 248.853 172.817 255.447C172.951 262.042 175.521 265.196 174.709 266.158C173.898 267.121 175.112 272.89 175.112 272.89C175.112 272.89 190.098 272.89 196.984 276.044C203.869 279.198 229.251 285.52 232.492 287.445C235.734 289.37 247.753 298.001 247.753 298.001L248.833 281.657C248.833 281.657 236.411 271.219 216.029 265.867C195.647 260.514 183.774 253.199 183.774 253.199Z" fill="black"/>
<path d="M183.774 252.373C183.774 252.373 172.683 248.027 172.817 254.621C172.951 261.216 175.521 264.37 174.709 265.333C173.898 266.295 175.112 272.064 175.112 272.064C175.112 272.064 190.098 272.064 196.984 275.224C203.869 278.385 229.251 284.7 232.492 286.619C235.734 288.537 247.753 297.175 247.753 297.175L248.845 280.881C248.845 280.881 236.423 270.443 216.041 265.09C195.659 259.738 183.774 252.373 183.774 252.373Z" fill="#FF748E"/>
<path opacity="0.1" d="M217.256 291.704C217.256 291.704 238.45 315.046 237.37 321.51C236.289 327.974 217.256 291.704 217.256 291.704Z" fill="black"/>
<path opacity="0.1" d="M182.828 376.023C182.828 376.023 167.293 390.585 162.715 391.41C158.136 392.236 166.225 394.981 171.486 392.789C176.748 390.597 187.968 384.828 187.968 384.828L182.828 376.023Z" fill="black"/>
<path d="M297.441 486.006H261.213C256.146 481.535 251.354 477.394 248.302 474.904C243.419 470.917 239.897 465.049 237.65 460.33C237.144 459.256 236.704 458.25 236.332 457.337C235.665 455.764 235.078 454.158 234.574 452.524L261.402 436.318C262.885 437.6 264.278 438.986 265.571 440.466L265.895 440.844C267.384 442.633 268.696 444.663 268.812 446.327C268.947 448.265 274.245 455.76 279.66 462.956C285.153 470.277 290.782 477.276 291.154 477.747C291.154 477.747 292.082 479.033 293.596 481.007C294.664 482.436 295.982 484.15 297.441 486.006Z" fill="#FFCCD0"/>
<path opacity="0.1" d="M248.241 171.408C246.953 174.363 245.799 177.431 245.629 180.722C245.146 190.222 245.928 211.465 235.587 216.234C230.466 218.581 224.984 213.427 219.368 213.303C215.327 213.216 211.622 215.824 209.156 219.084C206.69 222.344 205.157 226.213 203.369 229.901C201.741 233.249 199.865 236.466 197.759 239.526C197.129 240.462 196.436 241.352 195.684 242.19C189.378 239.483 183.764 235.348 179.267 230.1C174.771 224.852 171.511 218.629 169.737 211.905C167.963 205.181 167.722 198.134 169.03 191.301C170.339 184.468 173.164 178.029 177.29 172.475C181.416 166.92 186.733 162.397 192.838 159.25C198.942 156.103 205.672 154.415 212.515 154.314C219.358 154.214 226.133 155.703 232.324 158.67C238.516 161.636 243.96 166.001 248.241 171.432V171.408Z" fill="black"/>
<path d="M244.817 179.045C244.328 188.546 245.116 209.788 234.769 214.551C229.648 216.898 224.166 211.751 218.55 211.626C214.509 211.533 210.81 214.148 208.338 217.401C205.866 220.655 204.346 224.53 202.551 228.224C200.922 231.572 199.047 234.79 196.941 237.849C195.684 239.662 194.292 241.482 192.357 242.5C188.987 244.288 184.904 243.283 181.29 242.134C176.602 240.631 171.983 238.938 167.433 237.054C167.538 236.356 167.591 235.65 167.592 234.943C167.458 235.204 167.311 235.446 167.165 235.707L166.878 236.216C166.359 237.148 165.852 238.079 165.388 239.035C165.211 239.402 165.04 239.78 164.888 240.159C164.274 241.569 163.888 243.07 163.746 244.605C163.435 248.747 165.443 252.678 167.226 256.403C174.081 270.816 178.317 287.668 173.159 302.788C170.925 309.364 167.055 315.207 164.229 321.56C159.288 332.811 157.834 345.326 160.059 357.438C161.469 364.964 164.296 372.416 163.6 380.047C162.379 393.18 151.245 402.954 140.092 409.673C134.067 413.287 126.694 416.503 120.296 413.647C124.374 408.803 125.424 402.103 126.303 395.782C128.708 378.54 131.119 361.29 133.536 344.032C134.501 337.164 135.463 330.296 136.424 323.429C138.218 310.525 140.037 297.479 138.914 284.495C138.096 274.926 135.789 264.767 139.866 256.105C142.021 251.516 145.861 247.716 147.057 242.773C148.04 238.756 147.124 234.484 147.771 230.392C148.126 228.53 148.725 226.725 149.554 225.027C150.609 222.722 151.987 220.584 153.644 218.68C152.008 218.196 150.482 217.532 149.554 216.141C152.179 214.402 152.576 210.484 151.385 207.541C150.195 204.597 147.814 202.356 145.672 200.033C143.529 197.711 141.466 195.004 141.197 191.837C140.678 185.807 146.599 181.138 147.643 175.189C148.699 169.135 144.524 163.248 144.86 157.119C145.25 149.711 151.941 144.328 158.545 141.204C168.512 136.511 179.522 134.583 190.458 135.616C199.358 136.473 207.971 139.273 216.847 140.36C222.2 140.981 227.627 141.043 232.944 141.999C238.261 142.955 243.59 144.974 247.332 148.941C257.196 159.404 245.378 168.017 244.817 179.045Z" fill="#FFE0D0"/>
<path opacity="0.1" d="M236.564 460.336C233.451 458.964 227.786 459.783 218.062 456.772C208.338 453.76 206.464 440.149 206.464 440.149V440.105C206.348 439.795 205.444 437.771 199.328 430.679C192.571 422.849 177.963 383.301 177.963 383.301C177.963 383.301 165.01 369.149 165.419 363.933C165.828 358.717 163.118 344.839 163.386 329.315C163.655 313.791 192.546 303.496 192.546 303.496C248.174 293.468 235.074 358.705 233.591 363.648C232.108 368.59 239.805 381.941 239.805 381.941C238.719 387.753 244.261 396.751 244.261 396.751C244.261 396.751 245.604 404.711 245.879 407.735C245.894 407.875 245.925 408.012 245.97 408.145C246.862 410.995 254.126 413.578 257.08 415.149C260.187 416.801 270.18 431.22 270.18 431.22C272.335 441.807 239.665 461.727 236.564 460.336Z" fill="black"/>
<path d="M238.181 457.852C235.074 456.474 229.403 457.3 219.686 454.282C209.968 451.264 208.087 437.665 208.087 437.665V437.622C207.978 437.305 207.068 435.287 200.952 428.196C194.194 420.365 179.587 380.811 179.587 380.811C179.587 380.811 166.634 366.666 167.036 361.45C167.439 356.234 164.741 342.355 165.01 326.844C165.278 311.333 194.152 301.043 194.152 301.043C249.779 291.015 236.68 356.252 235.196 361.195C233.713 366.138 241.411 379.488 241.411 379.488C240.324 385.3 245.867 394.298 245.867 394.298C245.867 394.298 247.21 402.259 247.49 405.283C247.501 405.422 247.529 405.56 247.576 405.692C248.467 408.543 255.731 411.126 258.692 412.697C261.793 414.342 271.791 428.767 271.791 428.767C273.958 439.336 241.288 459.256 238.181 457.852Z" fill="#FF748E"/>
<path opacity="0.1" d="M195.25 335.103C195.25 335.103 219.551 361.182 225.894 361.182C232.236 361.182 195.25 335.103 195.25 335.103Z" fill="black"/>
<path d="M238.181 457.852C235.074 456.474 229.403 457.3 219.686 454.282C209.968 451.264 208.087 437.665 208.087 437.665V437.622C214.527 433.275 230.838 420.999 237.266 416.509C241.789 413.361 245.482 408.735 247.643 405.667C248.534 408.518 255.798 411.101 258.759 412.672C261.86 414.317 271.858 428.742 271.858 428.742C273.958 439.335 241.288 459.256 238.181 457.852Z" fill="#FF748E"/>
<g opacity="0.1">
<path opacity="0.1" d="M149.591 216.209C149.621 216.259 149.664 216.302 149.7 216.352C149.884 216.116 150.073 215.88 150.268 215.656C150.06 215.862 149.833 216.047 149.591 216.209Z" fill="black"/>
<path opacity="0.1" d="M163.752 244.674C164.009 241.227 165.822 238.191 167.519 235.161C166.408 234.726 165.297 234.285 164.198 233.825C164.303 233.129 164.356 232.425 164.357 231.72C162.641 234.825 160.773 237.88 160.511 241.376C160.2 245.524 162.208 249.449 163.99 253.174C170.852 267.58 175.082 284.433 169.924 299.559C167.683 306.129 163.819 311.978 160.993 318.331C156.054 329.58 154.602 342.093 156.83 354.203C158.228 361.735 161.06 369.18 160.364 376.812C159.144 389.945 148.016 399.719 136.857 406.431C132.297 409.176 126.968 411.691 121.871 411.511C121.399 412.283 120.873 413.02 120.296 413.715C126.7 416.59 134.067 413.355 140.092 409.729C151.257 403.022 162.409 393.273 163.63 380.115C164.326 372.484 161.494 365.039 160.09 357.507C157.861 345.398 159.309 332.886 164.241 321.634C167.049 315.288 170.955 309.433 173.171 302.863C178.329 287.736 174.093 270.884 167.238 256.478C165.462 252.727 163.441 248.821 163.752 244.674Z" fill="black"/>
<path opacity="0.1" d="M247.319 149.016C246.719 148.389 246.074 147.808 245.391 147.277C252.789 157.039 242.106 165.335 241.575 175.841C241.099 185.342 241.881 206.591 231.534 211.347C226.419 213.7 220.931 208.547 215.321 208.422C211.274 208.335 207.575 210.95 205.103 214.203C202.63 217.457 201.11 221.332 199.322 225.02C197.69 228.368 195.813 231.585 193.706 234.645C192.485 236.465 191.057 238.278 189.115 239.302C185.758 241.084 181.674 240.085 178.055 238.93C174.534 237.804 171.047 236.562 167.592 235.204C167.585 235.851 167.532 236.496 167.433 237.135C171.987 239.023 176.608 240.716 181.296 242.215C184.91 243.37 188.993 244.369 192.357 242.587C194.292 241.563 195.696 239.743 196.947 237.924C199.056 234.868 200.931 231.652 202.557 228.305C204.352 224.617 205.866 220.736 208.344 217.482C210.822 214.228 214.515 211.62 218.556 211.707C224.172 211.831 229.66 216.985 234.775 214.632C245.122 209.875 244.334 188.626 244.817 179.126C245.378 168.079 257.196 159.473 247.319 149.016Z" fill="black"/>
</g>
<path opacity="0.1" d="M166.884 236.222C166.365 237.154 165.858 238.085 165.394 239.041C165.217 239.408 165.047 239.786 164.894 240.165C161.695 236.887 153.906 229.094 149.56 226.678C150.617 224.374 151.994 222.237 153.65 220.332C153.65 220.332 164.009 225.902 166.884 236.222Z" fill="black"/>
<path d="M167.171 235.713C164.772 224.667 153.65 218.687 153.65 218.687C151.993 220.59 150.615 222.728 149.56 225.033C154.144 227.585 162.593 236.142 165.394 239.042L167.171 235.713Z" fill="#FF748E"/>
</g>
<defs>
<linearGradient id="paint0_linear" x1="445.628" y1="59.2449" x2="445.628" y2="47.8318" gradientUnits="userSpaceOnUse">
<stop stop-color="#808080" stop-opacity="0.25"/>
<stop offset="0.54" stop-color="#808080" stop-opacity="0.12"/>
<stop offset="1" stop-color="#808080" stop-opacity="0.1"/>
</linearGradient>
<linearGradient id="paint1_linear" x1="280046" y1="408899" x2="280046" y2="28509.3" gradientUnits="userSpaceOnUse">
<stop stop-color="#808080" stop-opacity="0.25"/>
<stop offset="0.54" stop-color="#808080" stop-opacity="0.12"/>
<stop offset="1" stop-color="#808080" stop-opacity="0.1"/>
</linearGradient>
<clipPath id="clip0">
<rect width="663" height="486" fill="white"/>
</clipPath>
</defs>
</svg>
