<svg width="20" height="19" viewBox="0 0 20 19" fill="none" xmlns="http://www.w3.org/2000/svg">
<path d="M9.947 5.59607C7.47786 5.59607 5.43201 7.50612 5.43201 9.88531C5.43201 12.2645 7.44259 14.1746 9.947 14.1746C12.4514 14.1746 14.462 12.231 14.462 9.88531C14.462 7.53963 12.4161 5.59607 9.947 5.59607ZM9.947 12.6331C8.3597 12.6331 7.05458 11.3932 7.05458 9.88531C7.05458 8.37737 8.3597 7.13752 9.947 7.13752C11.5343 7.13752 12.8394 8.37737 12.8394 9.88531C12.8394 11.3932 11.5343 12.6331 9.947 12.6331Z" fill="#160647"/>
<path d="M14.6384 6.46737C15.2034 6.46737 15.6613 6.03229 15.6613 5.49559C15.6613 4.95889 15.2034 4.5238 14.6384 4.5238C14.0735 4.5238 13.6155 4.95889 13.6155 5.49559C13.6155 6.03229 14.0735 6.46737 14.6384 6.46737Z" fill="#160647"/>
<path d="M17.2839 2.98236C16.3668 2.0776 15.0617 1.60846 13.5802 1.60846H6.31386C3.24507 1.60846 1.19922 3.55202 1.19922 6.46737V13.3369C1.19922 14.7778 1.69305 16.0176 2.6807 16.9224C3.63308 17.7936 4.90292 18.2293 6.34913 18.2293H13.5449C15.0617 18.2293 16.3315 17.7601 17.2486 16.9224C18.201 16.0511 18.6948 14.8113 18.6948 13.3704V6.46737C18.6948 5.05996 18.201 3.85361 17.2839 2.98236ZM17.1428 13.3704C17.1428 14.4092 16.7548 15.2469 16.1199 15.8166C15.4849 16.3862 14.6031 16.6878 13.5449 16.6878H6.34913C5.29093 16.6878 4.4091 16.3862 3.77417 15.8166C3.13925 15.2134 2.82179 14.3757 2.82179 13.3369V6.46737C2.82179 5.46207 3.13925 4.62433 3.77417 4.02116C4.37382 3.45149 5.29093 3.14991 6.34913 3.14991H13.6154C14.6736 3.14991 15.5555 3.45149 16.1904 4.05467C16.79 4.65784 17.1428 5.49558 17.1428 6.46737V13.3704Z" fill="#160647"/>
</svg>
