<svg width="159" height="32" viewBox="0 0 159 32" fill="none" xmlns="http://www.w3.org/2000/svg">
<path d="M29 0H3C1.34315 0 0 1.34314 0 3V29C0 30.6569 1.34315 32 3 32H29C30.6569 32 32 30.6569 32 29V3C32 1.34314 30.6569 0 29 0Z" fill="#FF677D"/>
<path fill-rule="evenodd" clip-rule="evenodd" d="M14 14V9H18V14H23V18H18V23H14V18H9V14H14Z" fill="white"/>
<path d="M49.06 23C48.9133 23 48.7933 22.96 48.7 22.88C48.6067 22.7867 48.56 22.6667 48.56 22.52V9.5C48.56 9.35333 48.6067 9.23333 48.7 9.14C48.7933 9.04667 48.9133 9 49.06 9H50.64C50.92 9 51.12 9.12667 51.24 9.38L55.1 16.58L59 9.38C59.1333 9.12667 59.3333 9 59.6 9H61.16C61.3067 9 61.4267 9.04667 61.52 9.14C61.6133 9.23333 61.66 9.35333 61.66 9.5V22.52C61.66 22.6667 61.6133 22.7867 61.52 22.88C61.4267 22.96 61.3067 23 61.16 23H59.48C59.3467 23 59.2333 22.9533 59.14 22.86C59.0467 22.7667 59 22.6533 59 22.52V13.86L56.2 19.2C56.0267 19.4933 55.8 19.64 55.52 19.64H54.7C54.42 19.64 54.1933 19.4933 54.02 19.2L51.22 13.86V22.52C51.22 22.6533 51.1733 22.7667 51.08 22.86C51 22.9533 50.8867 23 50.74 23H49.06ZM69.0109 23.2C67.5309 23.2 66.3509 22.7733 65.4709 21.92C64.6043 21.0533 64.1443 19.84 64.0909 18.28L64.0709 17.78L64.0909 17.28C64.1576 15.76 64.6243 14.5667 65.4909 13.7C66.3709 12.8333 67.5443 12.4 69.0109 12.4C70.5843 12.4 71.7976 12.88 72.6509 13.84C73.5176 14.8 73.9509 16.08 73.9509 17.68V18.1C73.9509 18.2333 73.9043 18.3467 73.8109 18.44C73.7176 18.5333 73.5976 18.58 73.4509 18.58H66.8109V18.74C66.8376 19.4733 67.0376 20.0933 67.4109 20.6C67.7976 21.0933 68.3243 21.34 68.9909 21.34C69.7776 21.34 70.4109 21.0333 70.8909 20.42C71.0109 20.2733 71.1043 20.18 71.1709 20.14C71.2509 20.1 71.3643 20.08 71.5109 20.08H73.2309C73.3509 20.08 73.4509 20.12 73.5309 20.2C73.6243 20.2667 73.6709 20.3533 73.6709 20.46C73.6709 20.78 73.4776 21.16 73.0909 21.6C72.7176 22.0267 72.1776 22.4 71.4709 22.72C70.7643 23.04 69.9443 23.2 69.0109 23.2ZM71.2309 16.9V16.84C71.2309 16.0533 71.0309 15.42 70.6309 14.94C70.2443 14.46 69.7043 14.22 69.0109 14.22C68.3176 14.22 67.7776 14.46 67.3909 14.94C67.0043 15.42 66.8109 16.0533 66.8109 16.84V16.9H71.2309ZM79.9339 23.2C78.5872 23.2 77.5539 22.7667 76.8339 21.9C76.1139 21.0333 75.7272 19.88 75.6739 18.44L75.6539 17.78L75.6739 17.14C75.7139 15.74 76.0939 14.6 76.8139 13.72C77.5472 12.84 78.5872 12.4 79.9339 12.4C81.2272 12.4 82.2539 12.84 83.0139 13.72V9.28C83.0139 9.13333 83.0606 9.02 83.1539 8.94C83.2472 8.84667 83.3606 8.8 83.4939 8.8H85.1939C85.3406 8.8 85.4539 8.84667 85.5339 8.94C85.6272 9.02 85.6739 9.13333 85.6739 9.28V22.52C85.6739 22.6533 85.6272 22.7667 85.5339 22.86C85.4539 22.9533 85.3406 23 85.1939 23H83.6139C83.4806 23 83.3672 22.9533 83.2739 22.86C83.1806 22.7667 83.1339 22.6533 83.1339 22.52V21.78C82.3739 22.7267 81.3072 23.2 79.9339 23.2ZM80.6739 21.06C81.4472 21.06 82.0206 20.8133 82.3939 20.32C82.7672 19.8267 82.9739 19.22 83.0139 18.5C83.0272 18.34 83.0339 18.08 83.0339 17.72C83.0339 17.3733 83.0272 17.12 83.0139 16.96C82.9872 16.2933 82.7739 15.7267 82.3739 15.26C81.9872 14.78 81.4206 14.54 80.6739 14.54C79.2339 14.54 78.4672 15.4267 78.3739 17.2L78.3539 17.8L78.3739 18.4C78.4672 20.1733 79.2339 21.06 80.6739 21.06ZM88.7395 10.88C88.6062 10.88 88.4929 10.8333 88.3995 10.74C88.3062 10.6467 88.2595 10.5333 88.2595 10.4V8.96C88.2595 8.82667 88.3062 8.71333 88.3995 8.62C88.4929 8.52667 88.6062 8.48 88.7395 8.48H90.5595C90.6929 8.48 90.8062 8.52667 90.8995 8.62C91.0062 8.71333 91.0595 8.82667 91.0595 8.96V10.4C91.0595 10.5333 91.0129 10.6467 90.9195 10.74C90.8262 10.8333 90.7062 10.88 90.5595 10.88H88.7395ZM88.8195 23C88.6862 23 88.5729 22.9533 88.4795 22.86C88.3862 22.7667 88.3395 22.6533 88.3395 22.52V13.08C88.3395 12.9467 88.3862 12.8333 88.4795 12.74C88.5729 12.6467 88.6862 12.6 88.8195 12.6H90.4795C90.6262 12.6 90.7395 12.6467 90.8195 12.74C90.9129 12.82 90.9595 12.9333 90.9595 13.08V22.52C90.9595 22.6533 90.9129 22.7667 90.8195 22.86C90.7395 22.9533 90.6262 23 90.4795 23H88.8195ZM98.113 23.2C96.6463 23.2 95.473 22.7933 94.593 21.98C93.7263 21.1667 93.2663 20.04 93.213 18.6L93.193 17.8L93.213 17C93.2663 15.56 93.7263 14.4333 94.593 13.62C95.473 12.8067 96.6463 12.4 98.113 12.4C99.153 12.4 100.033 12.5867 100.753 12.96C101.486 13.3333 102.026 13.7933 102.373 14.34C102.733 14.8733 102.926 15.38 102.953 15.86C102.966 15.9933 102.92 16.1067 102.813 16.2C102.72 16.2933 102.606 16.34 102.473 16.34H100.713C100.58 16.34 100.473 16.3133 100.393 16.26C100.326 16.1933 100.26 16.0867 100.193 15.94C99.993 15.42 99.7263 15.0467 99.393 14.82C99.073 14.5933 98.6596 14.48 98.153 14.48C97.473 14.48 96.9396 14.7 96.553 15.14C96.1663 15.5667 95.9596 16.22 95.933 17.1L95.913 17.84L95.933 18.5C95.9863 20.2467 96.7263 21.12 98.153 21.12C98.673 21.12 99.093 21.0067 99.413 20.78C99.733 20.5533 99.993 20.18 100.193 19.66C100.26 19.5133 100.326 19.4133 100.393 19.36C100.473 19.2933 100.58 19.26 100.713 19.26H102.473C102.606 19.26 102.72 19.3067 102.813 19.4C102.92 19.4933 102.966 19.6067 102.953 19.74C102.926 20.2067 102.74 20.7067 102.393 21.24C102.046 21.7733 101.513 22.2333 100.793 22.62C100.073 23.0067 99.1796 23.2 98.113 23.2ZM105.919 23C105.785 23 105.672 22.96 105.579 22.88C105.499 22.7867 105.459 22.6733 105.459 22.54V9.46C105.459 9.32667 105.499 9.22 105.579 9.14C105.672 9.04667 105.785 9 105.919 9H106.979C107.112 9 107.219 9.04667 107.299 9.14C107.392 9.22 107.439 9.32667 107.439 9.46V21.26H114.079C114.225 21.26 114.339 21.3067 114.419 21.4C114.512 21.48 114.559 21.5933 114.559 21.74V22.54C114.559 22.6733 114.512 22.7867 114.419 22.88C114.325 22.96 114.212 23 114.079 23H105.919ZM116.768 10.66C116.635 10.66 116.522 10.62 116.428 10.54C116.348 10.4467 116.308 10.3333 116.308 10.2V9.12C116.308 8.98667 116.348 8.87333 116.428 8.78C116.522 8.68667 116.635 8.64 116.768 8.64H118.028C118.162 8.64 118.275 8.68667 118.368 8.78C118.462 8.87333 118.508 8.98667 118.508 9.12V10.2C118.508 10.3333 118.462 10.4467 118.368 10.54C118.275 10.62 118.162 10.66 118.028 10.66H116.768ZM116.928 23C116.795 23 116.682 22.96 116.588 22.88C116.508 22.7867 116.468 22.6733 116.468 22.54V13.06C116.468 12.9267 116.508 12.82 116.588 12.74C116.682 12.6467 116.795 12.6 116.928 12.6H117.888C118.022 12.6 118.128 12.6467 118.208 12.74C118.302 12.82 118.348 12.9267 118.348 13.06V22.54C118.348 22.6733 118.302 22.7867 118.208 22.88C118.128 22.96 118.022 23 117.888 23H116.928ZM121.772 23C121.639 23 121.525 22.96 121.432 22.88C121.352 22.7867 121.312 22.6733 121.312 22.54V13.06C121.312 12.9267 121.352 12.82 121.432 12.74C121.525 12.6467 121.639 12.6 121.772 12.6H122.712C122.845 12.6 122.952 12.6467 123.032 12.74C123.125 12.82 123.172 12.9267 123.172 13.06V13.94C123.559 13.4467 124.012 13.0667 124.532 12.8C125.065 12.5333 125.725 12.4 126.512 12.4C127.792 12.4 128.785 12.8133 129.492 13.64C130.212 14.4533 130.572 15.54 130.572 16.9V22.54C130.572 22.6733 130.525 22.7867 130.432 22.88C130.352 22.96 130.245 23 130.112 23H129.112C128.979 23 128.865 22.96 128.772 22.88C128.692 22.7867 128.652 22.6733 128.652 22.54V17C128.652 16.0533 128.419 15.32 127.952 14.8C127.499 14.28 126.839 14.02 125.972 14.02C125.132 14.02 124.465 14.2867 123.972 14.82C123.479 15.34 123.232 16.0667 123.232 17V22.54C123.232 22.6733 123.185 22.7867 123.092 22.88C123.012 22.96 122.905 23 122.772 23H121.772ZM137.601 23.2C136.228 23.2 135.128 22.78 134.301 21.94C133.488 21.0867 133.041 19.9267 132.961 18.46L132.941 17.78L132.961 17.12C133.054 15.68 133.508 14.5333 134.321 13.68C135.148 12.8267 136.234 12.4 137.581 12.4C139.061 12.4 140.208 12.8733 141.021 13.82C141.834 14.7533 142.241 16.02 142.241 17.62V17.96C142.241 18.0933 142.194 18.2067 142.101 18.3C142.021 18.38 141.914 18.42 141.781 18.42H134.861V18.6C134.901 19.4667 135.161 20.2067 135.641 20.82C136.134 21.42 136.781 21.72 137.581 21.72C138.194 21.72 138.694 21.6 139.081 21.36C139.481 21.1067 139.774 20.8467 139.961 20.58C140.081 20.42 140.168 20.3267 140.221 20.3C140.288 20.26 140.401 20.24 140.561 20.24H141.541C141.661 20.24 141.761 20.2733 141.841 20.34C141.921 20.4067 141.961 20.5 141.961 20.62C141.961 20.9133 141.774 21.2667 141.401 21.68C141.041 22.0933 140.528 22.4533 139.861 22.76C139.208 23.0533 138.454 23.2 137.601 23.2ZM140.341 17.04V16.98C140.341 16.06 140.088 15.3133 139.581 14.74C139.088 14.1533 138.421 13.86 137.581 13.86C136.741 13.86 136.074 14.1533 135.581 14.74C135.101 15.3133 134.861 16.06 134.861 16.98V17.04H140.341Z" fill="#160647"/>
</svg>
