<svg width="25" height="17" viewBox="0 0 25 17" fill="none" xmlns="http://www.w3.org/2000/svg">
<path d="M0.52194 1.89423C3.95309 4.31253 9.9737 8.56706 11.7432 9.89363C11.9808 10.0727 12.2356 10.1637 12.5001 10.1637C12.764 10.1637 13.0184 10.0735 13.2554 9.89534C15.0264 8.56747 21.047 4.31253 24.4782 1.89423C24.6919 1.74396 24.7244 1.47983 24.5515 1.29611C24.1517 0.871584 23.5556 0.628174 22.9167 0.628174H2.08341C1.4446 0.628174 0.848453 0.871585 0.448697 1.29615C0.275748 1.47983 0.308317 1.74396 0.52194 1.89423Z" fill="#160647"/>
<path d="M24.6979 3.7898C24.5133 3.71828 24.2961 3.74323 24.1425 3.85246C20.3374 6.53694 15.4811 9.9779 13.9531 11.1237C13.0956 11.7679 11.9054 11.7679 11.0458 11.1228C9.41719 9.90166 3.96367 6.04338 0.85752 3.85242C0.702881 3.74319 0.485205 3.71909 0.3021 3.78976C0.118018 3.86091 0 4.01415 0 4.18303V15.0836C0 16.0398 0.934326 16.8174 2.08335 16.8174H22.9167C24.0657 16.8174 25 16.0398 25 15.0836V4.18303C25 4.01415 24.882 3.86051 24.6979 3.7898Z" fill="#160647"/>
</svg>
