<svg width="25" height="24" viewBox="0 0 25 24" fill="none" xmlns="http://www.w3.org/2000/svg">
<path d="M24.3444 17.6438L20.8483 14.4401C19.5996 13.2959 17.477 13.7536 16.9775 15.241C16.6029 16.2708 15.3543 16.8429 14.2305 16.6141C11.7333 16.042 8.36196 13.067 7.73765 10.6642C7.36306 9.63441 8.11224 8.49021 9.236 8.147C10.8592 7.68932 11.3587 5.74419 10.11 4.59999L6.61388 1.39624C5.61497 0.595298 4.11662 0.595298 3.24258 1.39624L0.870179 3.57021C-1.50222 5.85861 1.11991 11.9229 6.98847 17.3006C12.857 22.6783 19.4748 25.1956 21.972 22.9071L24.3444 20.7332C25.2185 19.8178 25.2185 18.4448 24.3444 17.6438Z" fill="#160647"/>
</svg>
