<svg width="17" height="16" viewBox="0 0 17 16" fill="none" xmlns="http://www.w3.org/2000/svg">
<g clip-path="url(#clip0)">
<path d="M17.3359 3.42188C16.7582 3.6625 16.1406 3.825 15.4898 3.9C16.1539 3.525 16.6652 2.93125 16.9043 2.225C16.2834 2.57187 15.5961 2.825 14.8623 2.95937C14.2746 2.36875 13.4379 2 12.5148 2C10.7385 2 9.30076 3.35625 9.30076 5.02812C9.30076 5.26562 9.32732 5.49688 9.38376 5.71875C6.71091 5.59375 4.34021 4.3875 2.75642 2.55312C2.48083 3 2.32146 3.52187 2.32146 4.075C2.32146 5.125 2.88923 6.05313 3.75251 6.59688C3.22458 6.58438 2.72654 6.44688 2.2949 6.21875C2.2949 6.23125 2.2949 6.24375 2.2949 6.25625C2.2949 7.725 3.40388 8.94688 4.87478 9.225C4.60583 9.29375 4.32029 9.33125 4.0281 9.33125C3.82224 9.33125 3.6197 9.3125 3.4238 9.275C3.8322 10.4781 5.02087 11.3531 6.42869 11.3781C5.32966 12.1906 3.94177 12.675 2.43435 12.675C2.17537 12.675 1.9197 12.6594 1.66736 12.6313C3.08845 13.5 4.77849 14 6.59138 14C12.5082 14 15.7422 9.38438 15.7422 5.38125C15.7422 5.25 15.7388 5.11875 15.7322 4.99062C16.3597 4.5625 16.9043 4.02813 17.3359 3.42188Z" fill="#160647"/>
</g>
<defs>
<clipPath id="clip0">
<rect width="17" height="16" fill="white"/>
</clipPath>
</defs>
</svg>
