<svg width="380" height="267" viewBox="0 0 380 267" fill="none" xmlns="http://www.w3.org/2000/svg">
<g clip-path="url(#clip0)">
<path d="M153.943 266.358H151.69C151.194 266.358 150.72 266.123 150.369 265.706C150.019 265.288 149.823 264.721 149.823 264.131V256.526H153.943L155.599 263.771C155.668 264.075 155.678 264.394 155.627 264.703C155.577 265.012 155.467 265.303 155.307 265.553C155.147 265.803 154.94 266.006 154.704 266.146C154.467 266.286 154.207 266.358 153.943 266.358H153.943Z" fill="#605D82"/>
<path d="M290.759 83.7955H34.7305C31.9949 83.7955 29.7773 86.4416 29.7773 89.7056V198.551C29.7773 201.815 31.9949 204.461 34.7305 204.461H290.759C293.495 204.461 295.713 201.815 295.713 198.551V89.7056C295.713 86.4416 293.495 83.7955 290.759 83.7955Z" fill="#F2F2F2"/>
<path d="M356.152 0.22345H6.04453C3.22339 0.22345 0.936401 2.95221 0.936401 6.31831V227.862C0.936401 231.228 3.22339 233.957 6.04453 233.957H356.152C358.973 233.957 361.26 231.228 361.26 227.862V6.31831C361.26 2.95221 358.973 0.22345 356.152 0.22345Z" stroke="#3F3D56" stroke-miterlimit="10"/>
<path d="M0 16.5533H360.324" stroke="#3F3D56" stroke-miterlimit="10"/>
<path d="M0 44.9144H360.324" stroke="#3F3D56" stroke-miterlimit="10"/>
<path d="M9.17663 14.5246C11.2452 14.5246 12.9222 12.5237 12.9222 10.0555C12.9222 7.58725 11.2452 5.58636 9.17663 5.58636C7.10801 5.58636 5.43106 7.58725 5.43106 10.0555C5.43106 12.5237 7.10801 14.5246 9.17663 14.5246Z" fill="#F86B75"/>
<path d="M20.7879 14.5246C22.8565 14.5246 24.5335 12.5237 24.5335 10.0555C24.5335 7.58725 22.8565 5.58636 20.7879 5.58636C18.7193 5.58636 17.0423 7.58725 17.0423 10.0555C17.0423 12.5237 18.7193 14.5246 20.7879 14.5246Z" fill="#FAD375"/>
<path d="M32.3992 14.5246C34.4678 14.5246 36.1447 12.5237 36.1447 10.0555C36.1447 7.58725 34.4678 5.58636 32.3992 5.58636C30.3305 5.58636 28.6536 7.58725 28.6536 10.0555C28.6536 12.5237 30.3305 14.5246 32.3992 14.5246Z" fill="#8BCC55"/>
<path d="M10.3003 12.737C12.3689 12.737 14.0459 10.7361 14.0459 8.26786C14.0459 5.79965 12.3689 3.79877 10.3003 3.79877C8.2317 3.79877 6.55475 5.79965 6.55475 8.26786C6.55475 10.7361 8.2317 12.737 10.3003 12.737Z" stroke="#3F3D56" stroke-miterlimit="10"/>
<path d="M21.9116 12.737C23.9802 12.737 25.6571 10.7361 25.6571 8.26786C25.6571 5.79965 23.9802 3.79877 21.9116 3.79877C19.8429 3.79877 18.166 5.79965 18.166 8.26786C18.166 10.7361 19.8429 12.737 21.9116 12.737Z" stroke="#3F3D56" stroke-miterlimit="10"/>
<path d="M33.5228 12.737C35.5914 12.737 37.2684 10.7361 37.2684 8.26786C37.2684 5.79965 35.5914 3.79877 33.5228 3.79877C31.4542 3.79877 29.7773 5.79965 29.7773 8.26786C29.7773 10.7361 31.4542 12.737 33.5228 12.737Z" stroke="#3F3D56" stroke-miterlimit="10"/>
<path d="M84.2752 42.0095C88.4125 42.0095 91.7664 38.0077 91.7664 33.0713C91.7664 28.1349 88.4125 24.1331 84.2752 24.1331C80.138 24.1331 76.7841 28.1349 76.7841 33.0713C76.7841 38.0077 80.138 42.0095 84.2752 42.0095Z" fill="#F2F2F2"/>
<path d="M86.1481 39.7749C90.2853 39.7749 93.6392 35.7732 93.6392 30.8367C93.6392 25.9003 90.2853 21.8986 86.1481 21.8986C82.0108 21.8986 78.6569 25.9003 78.6569 30.8367C78.6569 35.7732 82.0108 39.7749 86.1481 39.7749Z" stroke="#3F3D56" stroke-miterlimit="10"/>
<path d="M224.201 28.3788H191.182C190.061 28.3788 189.151 29.4639 189.151 30.8025V38.0216C189.151 39.3602 190.061 40.4453 191.182 40.4453H224.201C225.323 40.4453 226.232 39.3602 226.232 38.0216V30.8025C226.232 29.4639 225.323 28.3788 224.201 28.3788Z" fill="#FF677D"/>
<path d="M277.013 28.3788H243.995C242.873 28.3788 241.964 29.4639 241.964 30.8025V38.0216C241.964 39.3602 242.873 40.4453 243.995 40.4453H277.013C278.135 40.4453 279.045 39.3602 279.045 38.0216V30.8025C279.045 29.4639 278.135 28.3788 277.013 28.3788Z" fill="#FF677D"/>
<path d="M227.273 24.8035H193.355C192.481 24.8035 191.773 25.6483 191.773 26.6905V34.983C191.773 36.0252 192.481 36.87 193.355 36.87H227.273C228.146 36.87 228.854 36.0252 228.854 34.983V26.6905C228.854 25.6483 228.146 24.8035 227.273 24.8035Z" stroke="#3F3D56" stroke-miterlimit="10"/>
<path d="M280.085 24.8035H246.167C245.294 24.8035 244.586 25.6483 244.586 26.6905V34.983C244.586 36.0252 245.294 36.87 246.167 36.87H280.085C280.959 36.87 281.667 36.0252 281.667 34.983V26.6905C281.667 25.6483 280.959 24.8035 280.085 24.8035Z" stroke="#3F3D56" stroke-miterlimit="10"/>
<path d="M303.202 73.9636H49.2557C45.9451 73.9636 43.2613 77.1658 43.2613 81.1159V187.477C43.2613 191.427 45.9451 194.629 49.2557 194.629H303.202C306.513 194.629 309.197 191.427 309.197 187.477V81.1159C309.197 77.1658 306.513 73.9636 303.202 73.9636Z" stroke="#3F3D56" stroke-miterlimit="10"/>
<path d="M152.07 127.781V122.592L167.397 136.307L163.869 139.212M169.263 163.162C172.459 161.116 175.253 158.282 177.46 154.847C179.666 151.412 181.234 147.456 182.059 143.242C182.885 139.028 182.948 134.653 182.246 130.407C181.544 126.161 180.093 122.142 177.988 118.618C175.883 115.094 173.173 112.145 170.039 109.968C166.904 107.79 163.417 106.434 159.81 105.989C156.202 105.545 152.556 106.022 149.115 107.389C145.674 108.757 142.516 110.983 139.852 113.919L169.263 163.162Z" stroke="#3F3D56" stroke-miterlimit="10"/>
<path d="M153.433 108.957C148.381 108.957 143.442 110.744 139.242 114.093C135.041 117.442 131.767 122.203 129.833 127.772C127.9 133.341 127.394 139.47 128.38 145.382C129.365 151.294 131.798 156.725 135.371 160.988C138.943 165.25 143.495 168.153 148.45 169.329C153.405 170.505 158.541 169.902 163.209 167.595C167.877 165.288 171.866 161.381 174.673 156.369C177.48 151.357 178.978 145.464 178.978 139.436C178.975 131.353 176.283 123.603 171.493 117.888C166.703 112.173 160.207 108.96 153.433 108.957ZM148.324 153.151V125.72L163.651 139.436L148.324 153.151Z" fill="#FF677D"/>
<path d="M143.492 192.486C143.492 192.486 138.904 211.527 138.705 219.857C138.505 228.188 137.707 241.516 138.306 244.849C138.904 248.181 140.7 254.845 140.7 254.845C140.7 254.845 144.49 249.371 145.886 252.465C145.886 252.465 145.687 246.039 144.689 244.135C144.689 244.135 145.088 234.138 145.088 230.568C145.088 226.998 150.075 210.575 150.474 210.337C150.873 210.099 152.07 214.859 151.073 225.332C150.075 235.804 149.277 254.136 149.277 256.04C149.277 257.944 151.671 261.753 153.267 260.563C154.863 259.373 155.86 249.133 155.86 249.133C155.86 249.133 157.257 227.712 158.054 225.332C158.852 222.951 163.041 195.58 159.85 193.438C156.658 191.296 143.492 192.486 143.492 192.486Z" fill="#46455B"/>
<path d="M146.884 254.369C146.684 255.321 145.886 259.843 145.886 261.272C145.886 262.7 146.684 265.318 143.293 266.27C139.99 267.198 140.472 264.737 139.946 263.29C139.932 263.252 139.918 263.214 139.902 263.176C139.303 261.748 140.7 254.369 140.899 254.369C141.016 254.369 141.96 252.48 142.718 250.921C142.877 250.588 143.097 250.303 143.361 250.087C143.625 249.871 143.927 249.728 144.244 249.671C144.561 249.614 144.884 249.643 145.19 249.757C145.496 249.87 145.777 250.065 146.011 250.326C146.326 250.69 146.576 251.126 146.746 251.608C146.916 252.09 147.003 252.608 147.001 253.131C147.007 253.548 146.968 253.964 146.884 254.369Z" fill="#605D82"/>
<path opacity="0.1" d="M146.884 254.369C146.684 255.321 145.886 259.844 145.886 261.272C145.886 262.7 146.684 265.318 143.293 266.27C139.989 267.198 140.472 264.737 139.946 263.29C140.518 261.514 141.909 257.699 142.894 254.369C143.764 251.427 145.902 252.387 147.001 253.132C147.007 253.548 146.968 253.965 146.884 254.369Z" fill="black"/>
<path d="M152.668 155.594C154.982 155.594 156.857 153.356 156.857 150.595C156.857 147.835 154.982 145.597 152.668 145.597C150.355 145.597 148.479 147.835 148.479 150.595C148.479 153.356 150.355 155.594 152.668 155.594Z" fill="#FBBEBE"/>
<path d="M149.277 151.548L148.679 159.402L155.86 160.83C155.86 160.83 155.062 153.928 155.661 152.5C156.259 151.072 149.277 151.548 149.277 151.548Z" fill="#FBBEBE"/>
<path d="M154.863 157.736C154.863 157.736 148.878 157.022 148.479 157.736C148.219 158.323 148.082 158.976 148.08 159.64C148.08 159.64 145.687 160.83 145.288 160.354C144.889 159.878 144.49 158.45 143.293 158.926C142.096 159.402 139.702 167.97 139.702 167.97C139.702 167.97 140.301 165.352 141.298 175.349C142.296 185.345 142.096 191.534 142.296 192.248C142.495 192.962 141.298 197.246 148.479 197.246C155.661 197.246 160.847 196.77 160.847 195.104C160.847 193.438 159.65 186.297 160.847 181.061C162.044 175.825 163.839 168.684 163.839 168.684L161.446 159.402C161.446 159.402 159.052 158.688 158.453 159.878C157.855 161.068 156.259 160.83 156.259 160.83C156.259 160.83 156.06 157.974 154.863 157.736Z" fill="#605D82"/>
<path d="M143.492 159.402L138.505 156.784C138.505 156.784 129.13 148.215 129.529 140.599C129.529 140.599 126.337 137.029 126.138 140.837C125.938 144.645 126.936 153.214 129.329 156.07C131.723 158.926 139.902 167.97 141.099 168.208C142.296 168.446 143.492 159.402 143.492 159.402Z" fill="#605D82"/>
<path d="M126.537 141.313C126.537 141.313 122.746 128.936 126.138 129.412C129.529 129.888 128.731 135.125 128.731 135.125V141.313L126.537 141.313Z" fill="#FBBEBE"/>
<path d="M160.648 159.878L165.635 157.26C165.635 157.26 175.01 148.691 174.611 141.075C174.611 141.075 177.803 137.505 178.002 141.313C178.202 145.121 177.204 153.69 174.811 156.546C172.417 159.402 164.238 168.446 163.041 168.684C161.844 168.922 160.648 159.878 160.648 159.878Z" fill="#605D82"/>
<path d="M177.603 141.789C177.603 141.789 181.394 129.412 178.002 129.888C174.611 130.364 175.409 135.601 175.409 135.601V141.789L177.603 141.789Z" fill="#FBBEBE"/>
<path d="M155.86 144.645L156.459 144.169C156.459 144.169 152.668 141.551 151.073 142.979C149.477 144.407 149.078 145.597 148.679 146.073C148.28 146.549 147.283 149.167 147.881 150.119C148.479 151.071 148.28 151.267 148.679 152.121C149.078 152.976 147.982 156.413 151.023 157.431C154.065 158.45 156.459 154.166 156.858 153.214C157.257 152.262 158.653 145.835 155.86 144.645Z" fill="#46455B"/>
<path d="M309.07 211.921C309.07 238.271 322.925 259.593 340.046 259.593L309.07 211.921Z" fill="#46455B"/>
<path d="M340.046 259.592C340.046 232.946 355.507 211.385 374.613 211.385L340.046 259.592Z" fill="#FF677D"/>
<path d="M320.293 214.309C320.293 239.339 329.128 259.592 340.046 259.592L320.293 214.309Z" fill="#FF677D"/>
<path d="M340.046 259.592C340.046 225.545 357.916 197.994 380 197.994L340.046 259.592Z" fill="#46455B"/>
<path d="M333.529 259.929C333.529 259.929 337.922 259.767 339.246 258.642C340.57 257.518 346.004 256.174 346.332 257.978C346.66 259.782 352.934 266.951 347.974 266.998C343.015 267.046 336.45 266.077 335.129 265.116C333.808 264.156 333.529 259.929 333.529 259.929Z" fill="#A8A8A8"/>
<path opacity="0.2" d="M348.063 266.37C343.103 266.418 336.539 265.448 335.218 264.488C334.211 263.757 333.81 261.132 333.676 259.922C333.583 259.926 333.529 259.928 333.529 259.928C333.529 259.928 333.808 264.156 335.129 265.116C336.45 266.076 343.015 267.046 347.974 266.998C349.406 266.984 349.9 266.377 349.873 265.477C349.674 266.02 349.128 266.36 348.063 266.37Z" fill="black"/>
<path d="M103.003 266.358H191.773" stroke="#3F3D56" stroke-miterlimit="10"/>
<path d="M328.444 266.572H356.162" stroke="#3F3D56" stroke-miterlimit="10"/>
</g>
<defs>
<clipPath id="clip0">
<rect width="380" height="267" fill="white"/>
</clipPath>
</defs>
</svg>
