<svg width="20" height="16" viewBox="0 0 20 16" fill="none" xmlns="http://www.w3.org/2000/svg">
<path fill-rule="evenodd" clip-rule="evenodd" d="M19.8004 3.4517C19.8004 3.4517 19.6049 1.88408 19.0051 1.19354C18.2449 0.287642 17.3922 0.283345 17.0013 0.230265C14.2027 1.76789e-08 10.0044 0 10.0044 0H9.99556C9.99556 0 5.79756 1.76789e-08 2.99867 0.230265C2.60778 0.283345 1.75556 0.287642 0.994889 1.19354C0.395111 1.88408 0.2 3.4517 0.2 3.4517C0.2 3.4517 0 5.29255 0 7.13341V8.85951C0 10.7001 0.2 12.541 0.2 12.541C0.2 12.541 0.395111 14.1086 0.994889 14.7991C1.75556 15.7053 2.75489 15.6762 3.2 15.7713C4.80022 15.9459 10 16 10 16C10 16 14.2027 15.9927 17.0013 15.7627C17.3922 15.7096 18.2449 15.7053 19.0051 14.7991C19.6049 14.1086 19.8004 12.541 19.8004 12.541C19.8004 12.541 20 10.7001 20 8.85951V7.13341C20 5.29255 19.8004 3.4517 19.8004 3.4517ZM7.93533 10.9506L7.93444 4.55904L13.3384 7.76582L7.93533 10.9506Z" fill="#160647"/>
</svg>
